<svg width="720" height="720" viewBox="0 0 720 720" fill="none" xmlns="http://www.w3.org/2000/svg">
<path d="M230.993 204.924C226.843 204.924 220.007 207.497 215.857 210.843C211.707 213.931 205.116 218.306 200.966 220.365C191.201 225.512 178.507 238.637 177.286 244.814C176.798 247.645 174.845 249.704 173.381 249.446C169.475 248.417 169.475 285.219 173.381 289.336C175.578 291.652 175.578 292.425 173.381 292.425C171.672 292.425 170.451 294.741 170.451 297.829C170.451 300.66 171.672 302.204 172.892 301.432C174.357 300.403 175.334 311.726 175.334 333.601C175.334 338.262 168.222 378.594 174.845 381.212C177.959 382.406 181.387 422.784 180.948 427.793C179.74 443.332 186.18 444.508 185.831 457.389C185.342 465.625 186.319 470 188.516 470.772C190.957 471.801 191.445 475.404 190.713 483.897C189.249 497.4 203.565 507.706 209.51 516.324C216.021 525.761 231.426 529.163 240.757 534.081C242.954 535.368 246.86 537.169 249.301 537.941C260.095 541.355 265.336 534.338 273.713 534.338C275.422 534.338 280.793 529.706 285.431 524.044C290.069 518.382 294.952 513.75 296.66 513.75C304.004 513.75 294.952 497.426 294.952 489.301C294.952 479.779 295.928 475.147 298.613 474.375C303.496 472.316 302.763 423.676 297.881 423.676C295.196 423.676 294.952 417.757 296.172 392.536C297.637 370.403 297.393 361.653 295.44 362.94C293.975 363.712 292.266 363.455 291.534 362.168C290.558 360.881 291.046 359.08 292.51 358.05C293.731 357.278 294.952 348.528 294.952 338.491C294.952 324.545 302.275 322.029 302.275 310.439C302.275 303.491 301.299 300.145 298.858 300.145C296.416 300.145 295.684 295.77 295.928 282.13C296.053 275.697 305.032 255.423 298.613 252.792C296.66 252.02 294.952 248.674 294.952 245.071C294.952 241.726 293.243 238.38 291.29 237.351C289.337 236.578 287.628 234.262 287.628 231.946C287.628 229.887 285.919 228.086 283.966 228.086C282.013 228.086 275.666 225.255 270.052 221.652C264.193 218.049 257.602 214.446 255.404 213.416C252.963 212.644 251.01 210.328 251.01 208.527C251.01 206.468 248.569 204.924 245.64 204.924C239.974 204.924 238.942 204.924 230.993 204.924Z" fill="black"/>
<path d="M426.775 75.2009C425.939 77.4129 422.878 79.3483 420.094 79.3483C414.805 79.3483 400.052 92.8967 400.052 97.8736C400.052 99.5326 398.382 101.468 396.712 102.298C393.928 103.127 393.093 121.099 393.372 179.993C393.372 241.099 392.815 256.307 389.753 256.307C386.969 256.307 386.413 263.495 387.248 289.486C388.361 317.136 387.804 322.666 384.464 322.666C381.124 322.666 380.846 326.537 382.237 344.786C383.907 364.14 383.629 366.905 379.454 366.905C375.557 366.905 375 371.606 375 405.615C375 429.67 376.113 444.325 377.784 444.325C379.454 444.325 382.794 449.302 385.299 455.384C388.361 462.297 393.372 467.827 397.825 470.039C402.279 471.698 405.619 474.186 405.619 475.292C405.619 476.398 408.403 477.504 412.022 478.057C415.362 478.61 417.867 480.546 417.589 482.481C417.032 484.417 419.537 485.799 423.434 485.799C429.28 485.799 445.425 496.306 450.713 503.495C451.548 504.877 462.404 505.707 474.93 505.43C494.972 504.877 498.869 503.771 511.395 496.03C519.468 490.776 525.313 485.246 525.313 482.205C525.313 479.44 526.427 477.781 527.818 478.61C529.21 479.716 529.767 477.781 528.932 474.739C528.097 471.421 529.21 468.656 531.994 467.55C535.334 466.168 536.447 462.02 536.447 448.749C536.447 438.795 537.839 429.947 540.066 428.011C542.015 425.523 542.015 424.97 540.345 425.799C535.334 428.564 533.386 420.269 538.118 416.675C540.901 414.186 542.015 407.55 542.015 394.279C542.015 384.048 543.406 374.647 544.798 373.818C546.468 372.988 547.582 364.14 547.582 354.186C547.582 344.233 546.468 336.491 544.798 336.491C543.406 336.491 542.015 329.578 542.015 321.007C542.015 311.606 543.128 306.352 544.798 307.458C546.468 308.564 547.582 302.482 547.582 291.145C547.582 279.532 546.468 272.896 544.242 272.067C541.458 271.237 540.901 261.836 541.18 235.016C541.736 203.772 541.18 198.519 537.283 197.136C533.386 195.477 533.107 191.606 534.777 164.786C536.169 143.496 535.891 134.648 533.942 136.03C530.88 137.689 529.767 134.095 530.602 126.906C530.88 125.247 529.767 123.588 528.097 123.588C526.705 123.588 525.313 121.099 525.313 117.781C525.313 114.74 524.2 113.081 522.53 113.91C521.138 114.74 516.684 112.528 513.065 108.657C509.447 104.786 505.271 101.468 503.323 101.468C501.653 101.468 500.261 100.086 500.261 98.7031C500.261 97.0442 495.807 95.9382 490.518 95.9382C484.116 95.9382 479.941 94.2792 478.827 91.5142C477.992 89.3022 475.766 87.9197 473.539 88.7492C471.59 89.5787 468.528 88.1962 466.858 86.2608C464.91 84.0488 462.404 82.6663 461.291 83.4958C459.899 84.3253 458.229 83.7723 457.116 82.1133C456.28 80.7308 452.94 79.3483 449.878 79.3483C447.095 79.3483 444.589 77.4129 444.589 75.2009C444.589 72.4359 441.806 71.0534 436.517 71.0534C432.063 71.0534 427.888 72.7124 426.775 75.2009Z" fill="black"/>
<path d="M349.072 568.682C359.927 568.682 363.635 569.008 363.636 569.982C363.637 571.066 366.946 572.474 371.579 573.124C371.977 573.234 373.831 574.641 375.815 576.266C379.522 579.299 382.17 580.057 382.17 577.999C382.17 577.349 382.965 577.458 384.023 578.324C384.95 579.191 385.745 581.033 385.612 582.441C385.48 584.283 386.407 585.474 388.524 586.232C390.113 586.774 391.172 587.966 390.775 588.725C389.981 590.35 393.555 596.525 395.276 596.525C397.129 596.528 396.468 618.08 394.482 618.626C393.556 618.951 392.761 620.252 392.761 621.443C392.761 622.635 392.099 623.61 391.305 623.61C390.643 623.611 390.113 624.477 390.378 625.561C390.773 627.945 371.711 644.086 369.195 643.437C368.269 643.112 366.681 643.545 365.489 644.303C364.43 645.061 361.12 645.603 358.34 645.495C354.493 645.39 353.129 645.692 353.048 646.794L353.04 647.013C352.951 648.121 351.468 648.528 347.749 648.528C343.91 648.528 342.453 648.095 342.453 646.903C342.453 645.712 340.996 645.278 337.687 645.278C334.774 645.278 329.743 643.87 324.315 641.378C319.55 639.32 316.109 638.02 316.637 638.669C317.034 639.319 316.769 639.861 315.843 639.861C315.048 639.861 314.651 638.994 315.048 637.803C315.577 635.853 312.93 633.794 310.282 634.336C309.753 634.444 309.356 633.902 309.488 633.144C309.884 630.867 305.649 622.527 303.398 621.227C301.28 619.926 301.677 596.633 303.928 595.55C305.119 594.9 305.516 593.6 304.986 592.191C304.457 590.35 305.12 589.158 307.37 587.75C309.488 586.342 310.15 585.041 309.62 583.308C309.091 581.683 309.356 581.249 310.68 581.899C311.606 582.333 312.798 582.116 313.46 581.249C315.048 579.083 314.915 577.891 313.062 578.758C312.268 579.191 312.003 579.082 312.4 578.324C312.93 577.783 314.519 577.457 315.975 577.782C317.696 578.107 319.947 577.566 321.668 576.266C323.257 575.074 326.831 573.34 329.611 572.257C332.259 571.282 334.509 570.091 334.51 569.549C334.512 569.116 341.131 568.682 349.072 568.682ZM182.355 572.453C186.469 569.008 187.099 568.831 190.685 569.607C192.775 570.129 194.829 570.134 195.311 569.684C195.851 569.177 196.458 569.574 197.398 571.037C198.2 572.355 199.284 573.133 200.052 573.103C201.52 572.972 209.733 580.988 208.957 581.724C208.657 582.005 209.101 582.831 209.865 583.632C210.629 584.433 210.894 585.427 210.474 585.821C210.053 586.216 209.786 587.847 209.959 589.341C210.734 596.48 210.297 598.41 206.933 601.566C204.71 603.652 203.411 604.318 202.785 603.663C201.674 602.498 197.724 602.892 197.558 604.15C197.475 604.78 197.095 604.859 196.679 604.423C196.261 603.986 194.489 603.44 192.736 603.153C190.914 602.794 188.833 602.401 188.114 602.246C187.397 602.091 185.062 600.001 182.899 597.614C179.834 594.28 178.745 592.541 178.446 590.199C178.195 588.504 177.425 586.742 176.689 586.327C175.954 585.914 175.776 585.251 176.257 584.8C176.737 584.349 176.671 583.444 176.116 582.861C175.491 582.206 175.435 581.431 175.935 581.238C176.425 580.916 177.099 579.594 177.394 578.352C177.67 576.85 179.444 574.771 182.355 572.453ZM61.3838 529.568C63.5785 528.31 68.3664 527.991 74.877 528.589C84.2846 529.259 85.2928 529.721 88.8418 534.185C90.8263 536.859 93.3998 538.964 94.5586 538.993C95.8616 539.026 96.1348 540.054 95.5146 542.518C94.8991 544.69 95.3028 546.596 96.3047 547.351C98.3103 548.715 98.7591 565.35 96.877 565.308C96.1529 565.29 95.6964 566.592 95.6699 568.195C95.6432 569.798 94.7527 571.089 93.7393 571.064C92.7253 571.039 90.383 572.441 88.7607 574.151C80.9467 582.273 78.0222 583.805 69.9111 583.605C64.5517 583.473 62.0987 582.829 62.1201 581.517C62.1584 579.184 56.7121 575.549 54.9541 576.672C54.0755 577.234 53.5013 576.927 53.5156 576.053C53.5295 575.178 51.9749 572.805 50.126 570.718C48.2793 568.484 46.1467 565.953 45.4365 565.06C44.7268 564.167 44.367 559.636 44.5889 554.974C44.8421 548.416 45.6149 545.517 48.123 542.808C49.8946 540.81 51.0963 538.214 50.6816 537.036C50.2663 535.859 50.8607 534.998 52.0195 535.026C53.178 535.055 54.2091 534.059 54.2285 532.893C54.2504 531.581 55.1339 530.727 55.998 531.04C57.01 531.21 59.4843 530.542 61.3838 529.568ZM532.478 520.035C533.161 519.138 534.104 518.917 534.438 519.493C534.931 520.033 536.689 520.603 538.274 520.722C540.175 520.767 543.079 522.542 546.5 525.668C551.543 530.051 551.884 530.792 551.633 535.354C551.401 538.028 551.797 540.555 552.445 541.058C553.174 541.623 552.806 542.448 551.19 543.891C549.727 545.135 548.982 546.619 549.17 547.558C549.621 549.335 541.369 561.011 540.312 560.198C539.907 559.884 538.98 560.594 538.145 561.69C537.309 562.787 536.138 563.306 535.57 562.867C535.002 562.428 532.946 562.419 531.143 562.924C522.515 565.277 520.056 565.116 515.515 561.598C512.514 559.273 511.439 557.806 512.123 556.908C513.337 555.313 512.079 550.535 510.499 550.576C509.709 550.598 509.536 550.147 509.991 549.549C510.447 548.95 510.771 546.663 510.78 544.451C510.865 542.139 510.94 539.5 510.99 538.588C511.041 537.675 513.153 534.396 515.664 531.269C519.163 526.845 521.088 525.165 523.91 524.339C525.947 523.697 527.964 522.405 528.328 521.419C528.693 520.433 529.472 520.086 530.121 520.588C530.77 521.09 531.87 520.833 532.478 520.035ZM342.876 471.034C343.273 470.1 347.579 469.953 347.432 470.887C347.333 471.329 347.927 471.477 349.412 471.379C350.847 471.281 351.492 471.477 351.492 471.87C351.492 472.657 354.266 473.936 354.959 473.493C355.206 473.346 355.454 473.396 355.454 473.642C355.455 473.888 356.297 474.97 357.336 476.002C359.812 478.56 361.198 480.577 361.595 482.249C361.793 482.987 362.139 483.478 362.387 483.331C362.684 483.135 362.734 483.676 362.536 484.61C362.338 485.791 362.437 486.283 363.031 486.627C364.17 487.217 364.169 490.267 363.08 490.661C362.437 490.907 362.338 491.399 362.536 492.628C362.734 493.857 362.585 494.399 362.09 494.596C361.694 494.743 361.397 495.334 361.396 495.875C361.396 496.465 360.802 497.499 360.109 498.236C359.416 498.974 358.524 500.155 358.128 500.893C357.732 501.679 357.237 502.269 356.989 502.27C356.791 502.27 355.602 503.007 354.414 503.893C353.226 504.827 351.938 505.467 351.542 505.319C351.195 505.221 350.7 505.418 350.452 505.762C349.907 506.696 339.61 506.844 339.607 505.959C339.607 505.664 339.062 505.122 338.369 504.827C337.676 504.483 336.537 503.942 335.844 503.646C334.309 502.909 329.703 498.039 329.703 497.104C329.703 496.76 329.356 496.318 328.91 496.17C328.366 495.973 328.217 495.53 328.415 494.694C328.563 494.006 328.465 493.416 328.168 493.317C327.376 493.071 327.425 485.053 328.218 484.562C328.613 484.315 328.713 483.675 328.515 482.741C328.218 481.512 328.366 481.118 329.455 480.43C330.198 479.938 330.694 479.199 330.595 478.757C330.397 477.625 334.11 474.478 337.279 473.101C338.022 472.805 338.617 472.214 338.617 471.87C338.617 471.33 339.063 471.231 340.598 471.477C342.133 471.722 342.678 471.624 342.876 471.034ZM649.832 442.182C652.371 438.655 664.711 443.504 665.9 448.362C666.814 452.457 673.352 452.574 672.763 448.595C672.676 446.791 672.908 446.652 673.762 447.844C674.453 448.977 674.378 450.724 673.4 451.927C672.585 453.188 672.505 456.483 673.748 459.144C674.829 461.746 675.165 465.413 674.533 467.183C673.902 468.952 673.778 471.346 674.237 472.618C674.627 474.087 673.985 478.957 673.019 483.71C671.372 490.88 670.486 492.337 668.541 491.643C667.244 491.18 665.618 492.151 665.057 493.724C663.372 498.442 653.735 503.424 647.5 502.972C644.372 502.52 641.541 503.283 641.189 504.266C640.838 505.249 638.774 505.398 636.505 504.588C634.236 503.778 632.804 502.159 633.154 501.176C633.575 499.996 632.074 498.572 630.129 497.878C626.077 496.431 623.73 490.717 624.123 483.985C624.106 481.985 623.533 480.007 622.561 479.659C621.75 479.369 621.572 477.311 622.344 475.148C623.116 472.986 623.099 470.985 622.127 470.638C619.696 469.77 623.292 461.744 627.43 458.345C629.498 456.645 631.826 453.708 632.528 451.742C633.16 449.973 635.532 447.938 637.736 447.395C639.94 446.851 642.171 445.209 642.732 443.637C643.364 441.868 644.548 441.625 645.796 442.735C646.812 443.985 648.622 443.523 649.832 442.182ZM141.342 470.504C142.759 468.955 148.408 471.976 148.706 474.374C148.914 476.391 152.045 476.815 151.986 474.872C152.046 474.002 152.166 473.948 152.509 474.567C152.777 475.15 152.642 475.985 152.105 476.507C151.643 477.066 151.419 478.643 151.866 479.99C152.239 481.3 152.194 483.079 151.791 483.893C151.388 484.706 151.194 485.848 151.343 486.484C151.447 487.211 150.865 489.512 150.134 491.739C148.94 495.088 148.433 495.738 147.538 495.295C146.942 495 146.107 495.375 145.749 496.098C144.675 498.267 139.77 500.117 136.803 499.549C135.327 499.156 133.925 499.363 133.701 499.814C133.477 500.266 132.478 500.223 131.435 499.706C130.391 499.19 129.795 498.331 130.019 497.879C130.286 497.337 129.646 496.57 128.752 496.127C126.888 495.205 126.084 492.33 126.651 489.121C126.756 488.16 126.592 487.179 126.145 486.957C125.772 486.772 125.802 485.774 126.294 484.779C126.786 483.785 126.891 482.824 126.444 482.603C125.326 482.049 127.504 478.4 129.681 477.001C130.769 476.302 132.052 475.022 132.499 474.118C132.902 473.305 134.155 472.462 135.243 472.325C136.331 472.189 137.494 471.526 137.853 470.803C138.255 469.989 138.838 469.939 139.374 470.542C139.791 471.199 140.686 471.079 141.342 470.504ZM604.411 389.138C603.931 388.502 604.051 388.422 604.892 388.74C605.612 389.058 605.973 389.694 605.613 390.251C605.373 390.808 606.094 392.002 607.536 392.797C608.858 393.592 609.94 394.864 609.94 395.58C609.94 396.296 610.421 397.171 611.021 397.568C611.622 398.046 612.344 399.875 612.825 401.704C613.426 404.488 613.185 405.125 611.743 405.125C610.782 405.125 609.941 405.681 609.94 406.317C609.94 408.226 604.771 411.248 600.564 411.885C598.402 412.123 596.721 412.76 596.719 413.157C596.719 413.555 595.396 413.873 593.714 413.873C592.031 413.873 590.709 413.476 590.709 413.078C590.709 412.601 589.386 412.283 587.944 412.283C584.939 412.283 582.055 410.533 580.732 408.067C580.252 407.352 579.41 406.715 578.689 406.715C578.089 406.715 577.488 406 577.487 405.125C577.487 404.25 577.006 403.534 576.285 403.534C574.482 403.534 574.964 400.193 576.887 398.443C577.848 397.568 578.689 396.216 578.689 395.421C578.69 394.705 579.771 393.672 581.093 393.194C582.415 392.717 583.497 391.842 583.497 391.206C583.497 390.49 584.218 390.252 585.3 390.49C586.261 390.808 587.343 390.411 587.824 389.774C588.667 388.184 597.921 388.343 599.844 389.934C601.407 391.285 605.733 390.49 604.411 389.138Z" fill="#E56C45"/>
</svg>
