<svg width="24" height="24" viewBox="0 0 24 24" fill="none" xmlns="http://www.w3.org/2000/svg">
<path d="M17 17V18H7V17H17ZM18 16V8C18 7.44772 17.5523 7 17 7H7C6.48232 7 6.05621 7.39333 6.00488 7.89746L6 8V16C6 16.5523 6.44772 17 7 17V18L6.7959 17.9893C5.85435 17.8938 5.1062 17.1457 5.01074 16.2041L5 16V8C5 6.89543 5.89543 6 7 6H17C18.1046 6 19 6.89543 19 8V16L18.9893 16.2041C18.8938 17.1457 18.1457 17.8938 17.2041 17.9893L17 18V17C17.5523 17 18 16.5523 18 16Z" fill="black"/>
<path d="M8.26562 11.2717C8.8463 10.7335 9.74562 10.7397 10.3193 11.2854L13.8447 14.6379L13.1553 15.3625L9.62988 12.01C9.43863 11.8281 9.13887 11.8257 8.94531 12.0051L5.83984 14.884L5.5 14.5178L5.16016 14.1506L8.26562 11.2717Z" fill="black"/>
<path d="M14.5176 13.2219C15.0711 12.7147 15.9144 12.6954 16.4912 13.176L18.8203 15.1165L18.1797 15.884L15.8516 13.9436C15.6593 13.7835 15.3778 13.7902 15.1934 13.9592L10.8379 17.9524L10.5 17.5833L10.1621 17.2151L14.5176 13.2219Z" fill="black"/>
<circle cx="15" cy="10" r="1" stroke="black" stroke-width="0.8"/>
</svg>
