<svg width="24" height="24" viewBox="0 0 24 24" fill="none" xmlns="http://www.w3.org/2000/svg">
<path d="M6.63598 13.4869C6.64943 13.5283 6.66102 13.5748 6.671 13.6262C6.75116 14.0298 6.73093 14.6431 6.72708 14.998C6.72702 15.0051 6.72697 15.0123 6.72691 15.0194C6.72577 15.1155 6.72911 15.2028 6.73379 15.3066C6.74645 15.5557 6.75741 15.8775 6.76241 16.583C6.78821 16.7868 6.81606 16.9994 6.84059 17.2281C6.85941 17.4037 6.87605 17.5886 6.88712 17.777C6.88647 17.7824 6.88476 17.7286 6.84266 17.6364C6.80261 17.5439 6.72231 17.4598 6.71815 17.4608C6.56848 17.3728 6.792 17.5117 7.14483 17.5478C7.49493 17.5986 7.93147 17.6327 8.3802 17.6852C8.9587 17.7591 9.80909 17.6859 10.6033 17.5949C10.7987 17.5723 10.9987 17.5462 11.2004 17.5186C11.2286 17.5126 11.2563 17.5067 11.2849 17.5006C11.8368 17.3824 12.5361 17.2217 12.99 17.1736C13.5667 17.1118 13.9661 17.0857 14.2953 17.069C14.6276 17.0249 14.9633 16.9833 15.3021 16.9475C16.8144 16.8198 18.0905 16.6382 19.9292 16.936C19.8479 16.9155 19.7966 16.9188 19.7273 16.9379C19.709 16.9433 19.6891 16.9506 19.6665 16.9614C19.4428 17.0796 19.4481 17.2152 19.4576 17.1659C19.4682 17.1341 19.48 17.0386 19.481 16.9351C19.4842 16.7231 19.46 16.4647 19.4288 16.2017C19.4237 16.159 19.4185 16.116 19.413 16.0726C19.353 15.6013 19.2848 15.1168 19.2169 14.6365C19.1524 14.3332 19.0858 14.0468 19.0241 13.7795C18.9376 13.4052 18.8612 13.0704 18.8157 12.7929C18.8084 12.7484 18.8013 12.7031 18.7945 12.6569C18.6947 11.993 18.682 11.2553 18.6938 10.7023C18.6957 10.6044 18.6981 10.5143 18.7004 10.4287C18.6735 9.95922 18.6606 9.48713 18.6576 9.02253C18.6682 8.99143 18.6793 8.9607 18.6906 8.93009C18.7777 8.69105 18.8242 8.3927 18.8368 8.09337C18.8423 7.91757 18.829 7.72297 18.7851 7.53295C18.7293 7.31586 18.6834 7.17935 18.4762 6.91664C18.4528 6.88668 18.4455 6.87724 18.4484 6.87964C18.5868 6.97372 18.4577 6.83391 18.3935 6.78925C18.3708 6.77183 18.3482 6.75578 18.3238 6.74204C18.2383 6.6947 18.1282 6.71472 17.9959 6.74278C17.9718 6.74808 17.9465 6.75364 17.9194 6.75902C17.7641 6.79146 17.5756 6.81974 17.3365 6.76323C16.4353 6.55832 16.0181 6.69995 15.716 6.79781C15.6272 6.82725 15.546 6.85413 15.4629 6.87029C15.1936 6.92244 14.8067 6.89345 14.5112 6.84746C14.3113 6.81602 13.946 6.86431 13.6272 6.93204C13.5725 6.94365 13.519 6.95581 13.4679 6.96816C13.3368 6.99991 13.1569 7.01309 12.9451 7.02968C12.7258 7.04684 12.4718 7.06767 12.202 7.11641C11.5204 7.24002 11.1573 7.30756 10.866 7.36088C10.7823 7.37623 10.7055 7.39035 10.6277 7.40488C10.3835 7.45065 10.0784 7.49936 9.76988 7.54918C9.40033 7.6088 9.02393 7.67018 8.73623 7.72873C8.70515 7.73066 8.67461 7.73251 8.64461 7.73428C8.64007 7.73502 8.62627 7.73572 8.62172 7.73637C7.90567 7.7649 7.18905 7.78992 6.4806 7.82441C6.10453 7.8427 5.72615 7.77245 5.47069 7.62735C5.42977 7.60032 5.37844 7.57591 5.38859 7.53659L5.43263 7.52314C5.30843 7.39067 5.08243 7.29041 4.99688 7.10568C4.91196 6.9257 4.86683 6.70676 5.06474 6.45511C5.07126 6.4533 5.09041 6.44659 5.09705 6.44525C5.16886 6.3898 5.20876 6.3495 5.26089 6.30759C5.53498 6.08057 5.89567 5.9309 6.28375 5.87156C7.0074 5.76249 7.72558 5.66433 8.44532 5.57527L8.42582 5.57705C8.47972 5.56922 8.53722 5.56102 8.59184 5.55312C9.52646 5.41808 10.4715 5.2921 11.4228 5.20548C12.0887 5.14476 12.7572 5.09537 13.4308 5.06152C13.4559 5.06026 13.4811 5.05903 13.5062 5.05783C13.5505 5.05571 13.5947 5.05367 13.6388 5.05168C14.2001 4.95552 14.7643 4.8747 15.164 4.84152C15.494 4.81399 15.7371 4.84103 15.9447 4.86515C16.088 4.88179 16.2139 4.8972 16.3424 4.8936C16.4109 4.89168 16.505 4.88744 16.6192 4.88307C16.9669 4.871 17.4844 4.85078 18.0737 4.91203C18.2821 4.93505 18.4961 4.96684 18.7424 5.03264C18.8852 5.07269 19.0458 5.11948 19.2672 5.23187C19.3776 5.28909 19.5097 5.36985 19.6384 5.48578C19.7664 5.59857 19.8703 5.74465 19.8845 5.77494C19.9524 5.88345 20.0447 6.03049 20.1197 6.18245C20.4603 6.86279 20.4374 7.48555 20.4815 7.75693C20.497 7.86517 20.5056 7.97604 20.5081 8.08779C20.5135 8.47736 20.4699 8.80445 20.4412 9.11955C20.4043 9.4988 20.3809 9.82982 20.4234 10.0172C20.4742 10.2405 20.4574 10.4304 20.4383 10.7148C20.4254 10.912 20.4116 11.1543 20.426 11.4834C20.443 11.8615 20.4376 12.1326 20.435 12.3632C20.4347 12.3948 20.4345 12.4258 20.4345 12.4563C20.4349 12.7465 20.4437 12.9831 20.5365 13.3108C20.6508 13.7142 20.7451 14.1362 20.7689 14.4778C20.7797 14.6332 20.8045 14.8081 20.8307 14.9916C20.8653 15.2341 20.9019 15.4887 20.9095 15.7269C20.9113 15.7829 20.9104 15.8361 20.9075 15.8872C20.9003 16.0184 20.8807 16.1376 20.8616 16.2476C20.8533 16.2952 20.8452 16.3412 20.8382 16.3861C20.8538 16.5501 20.8668 16.7191 20.8696 16.9003C20.8775 16.9297 20.886 16.9609 20.8942 16.9946C20.925 17.1699 21.0121 17.3651 20.8651 17.8035C20.7953 17.9944 20.6101 18.2593 20.3223 18.39C20.0296 18.5207 19.7672 18.5284 19.4828 18.4444C19.5324 18.4488 19.369 18.4096 19.2808 18.3928C19.0765 18.3525 18.8428 18.3207 18.5754 18.3289C18.392 18.3344 18.1811 18.3587 17.9725 18.3874C17.6647 18.4295 17.3564 18.4815 17.1409 18.4828C17.0591 18.4833 16.9891 18.4597 16.9158 18.4368C16.9155 18.4367 16.9151 18.4365 16.9148 18.4364C16.9099 18.4348 16.9048 18.4334 16.9 18.4318C16.4555 18.4959 16.0101 18.5751 15.5642 18.6657C15.4886 18.6811 15.4119 18.6972 15.3358 18.7135C15.2916 18.7285 15.2473 18.7435 15.2031 18.7585C14.9874 18.8318 14.7776 18.9059 14.6459 18.9816C14.5031 19.0635 14.125 19.1675 13.7236 19.2823C13.4609 19.3572 13.1879 19.4361 12.9666 19.5123C12.8369 19.5569 12.7046 19.5522 12.5674 19.5474C12.4398 19.5428 12.3081 19.5382 12.1721 19.5731C12.1038 19.5906 12.0317 19.618 11.9546 19.6472C11.8866 19.6729 11.8149 19.7 11.7375 19.7229C11.6664 19.7439 11.5004 19.7588 11.2855 19.7757C11.1905 19.7832 11.0844 19.7913 10.9738 19.8C10.9299 19.8036 10.886 19.8071 10.8416 19.8108C10.4303 19.8973 10.0134 19.9755 9.57972 20.0347C9.49056 20.0706 9.41482 20.1124 9.35339 20.1626C9.31067 20.1985 9.27277 20.2402 9.23477 20.2825C9.18188 20.3402 9.1272 20.3995 9.04618 20.448C8.98376 20.4858 8.90508 20.5024 8.85249 20.4892C8.82745 20.4831 8.80806 20.4708 8.79077 20.4596C8.77124 20.4468 8.75273 20.4353 8.73118 20.4359C8.71551 20.4363 8.69979 20.4458 8.67915 20.4571C8.6468 20.4752 8.60425 20.4986 8.53833 20.4983C8.42044 20.4979 8.29065 20.4918 8.15089 20.4782C8.0491 20.4674 7.94275 20.4556 7.83506 20.4441C7.60583 20.4195 7.36716 20.3958 7.16416 20.3855C6.93625 20.3722 6.60069 20.3134 6.18109 20.1838C5.89132 20.0929 5.54506 19.9536 5.22827 19.7417C5.11362 19.6655 4.99487 19.5779 4.88016 19.4772C4.70992 19.3321 4.48175 19.0847 4.33815 18.798C4.17402 18.4772 4.11809 18.1779 4.10102 17.9557C4.09499 17.8875 4.0936 17.8226 4.10074 17.7593C4.10426 17.7287 4.13821 17.6875 4.18018 17.6344C4.20992 17.5968 4.24368 17.5528 4.27357 17.5025C4.25193 17.3003 4.22647 17.0818 4.20407 16.8581C4.19811 16.8507 4.19203 16.8431 4.18584 16.8354C4.18571 16.8352 4.18557 16.8351 4.18543 16.835C4.04636 16.6658 3.85503 16.4208 3.92189 16.0484C3.93877 15.9516 3.98025 15.8936 4.01724 15.8364C4.05378 15.7828 4.0866 15.7353 4.08949 15.6668C4.093 15.5926 4.06224 15.5028 4.02952 15.4082C3.98343 15.2731 3.93305 15.1248 3.96525 14.9686C3.96746 14.9583 3.9699 14.9472 3.97233 14.9355C3.99528 14.8243 4.02988 14.658 4.10782 14.4953C4.11102 14.2205 4.11811 13.947 4.12809 13.673C4.13559 13.4734 4.14377 13.273 4.15271 13.0732C4.18648 12.293 4.23793 11.4992 4.29475 10.7246C4.30187 10.6256 4.31485 10.5308 4.33333 10.4349C4.3862 10.1608 4.48543 9.90819 4.62402 9.7077C4.7177 9.57168 4.8251 9.46567 4.94086 9.3945C4.99878 9.35879 5.0586 9.33285 5.12033 9.31597C5.15145 9.30904 5.18145 9.29984 5.21599 9.30591C5.20322 9.32763 5.16279 9.32571 5.13497 9.33024C5.12012 9.33312 5.10558 9.33821 5.09217 9.34659C5.08562 9.35103 5.07893 9.35627 5.07596 9.36923C5.07462 9.37544 5.07415 9.38592 5.083 9.40545C5.08307 9.41408 5.15481 9.5188 5.28714 9.47216C5.42525 9.38674 5.38074 9.38849 5.40423 9.37745C5.41546 9.36721 5.42257 9.368 5.43093 9.36513C5.44679 9.36207 5.46145 9.36326 5.47603 9.36543C5.534 9.37544 5.5896 9.40057 5.64373 9.43337C5.75185 9.49965 5.85286 9.60085 5.94164 9.73184C6.07303 9.925 6.1686 10.1707 6.22024 10.4392C6.23828 10.5352 6.25081 10.6301 6.25749 10.729C6.29886 11.3457 6.34165 11.9511 6.38964 12.5599C6.39508 12.5916 6.40036 12.6232 6.40537 12.6557C6.44256 12.8926 6.5144 13.1127 6.58657 13.334C6.60315 13.3851 6.61975 13.4344 6.63598 13.4869Z" fill="#332824"/>
<path d="M5.3644 13.3943C5.33606 13.2558 5.47811 13.1769 5.55632 13.134C5.55773 13.1331 5.55914 13.1323 5.56055 13.1315C5.57895 13.1214 5.59311 13.1092 5.60994 13.0944C5.65031 13.059 5.70476 13.0112 5.8618 12.9574C5.89088 12.924 5.9195 12.893 5.95023 12.862C6.27975 12.5296 6.67955 12.2715 7.09382 12.0325C7.0976 12.028 7.10145 12.0235 7.10534 12.0188C7.18072 11.9295 7.27508 11.8185 7.36974 11.7868C7.4906 11.746 7.58139 11.7288 7.65795 11.7158C7.66111 11.714 7.66428 11.7122 7.66745 11.7104C8.03804 11.4875 8.41687 11.2908 8.81741 11.0996C8.94481 11.0393 9.07534 10.9791 9.21819 10.9196C9.35367 10.8653 9.48336 10.8098 9.69919 10.7675C9.77136 10.7441 9.84763 10.7167 9.99444 10.7139C10.0851 10.7099 10.1683 10.7155 10.2405 10.7244C10.4641 10.7545 10.6007 10.8042 10.6961 10.8528C10.9247 10.9757 11.0395 11.1546 11.115 11.2777C11.1271 11.2978 11.139 11.3176 11.149 11.3345C11.2356 11.4039 11.3161 11.4702 11.3951 11.5367C11.392 11.548 11.3887 11.5597 11.3852 11.5715C11.3422 11.7205 11.4068 11.7964 11.5057 11.9178C11.5489 11.9708 11.5975 12.0314 11.6453 12.109C11.6765 12.1594 11.6534 12.2134 11.6352 12.2582C11.6298 12.2713 11.6247 12.2836 11.6215 12.2947C11.6105 12.3325 11.6521 12.3307 11.7018 12.3293C11.7664 12.3277 11.8435 12.3251 11.8335 12.4066C11.8008 12.6652 11.9483 12.657 12.0596 12.6501C12.0923 12.6482 12.1219 12.6465 12.143 12.6518C12.2111 12.6685 12.2225 12.7572 12.2088 12.8396C12.1982 12.9054 12.2914 12.9503 12.3818 12.9696C12.416 12.9768 12.4376 13.0045 12.4634 13.0376C12.4903 13.072 12.5204 13.1108 12.5734 13.1378C12.582 13.1422 12.5904 13.1465 12.5986 13.1507C12.6028 13.1537 12.6098 13.1682 12.6139 13.1713C12.7294 13.2344 12.7913 13.27 12.842 13.2995C12.8573 13.3082 12.8717 13.3169 12.8861 13.325C12.9318 13.351 12.9812 13.3882 13.0313 13.4258C13.0911 13.4706 13.1521 13.516 13.2084 13.5427C13.2697 13.6755 13.3257 13.8118 13.3838 13.949C13.3943 13.9738 13.3957 14.0052 13.3883 14.0423C13.3977 14.049 13.4132 14.0816 13.4222 14.0888C13.4237 14.1843 13.3761 14.276 13.2889 14.3593C13.2187 14.4214 13.142 14.4851 13.0058 14.5045C12.9666 14.5081 12.9323 14.5049 12.8339 14.4925C12.7825 14.4864 12.6916 14.4812 12.6045 14.5258C12.5156 14.5722 12.4885 14.6355 12.4809 14.6716C12.4799 14.7991 12.5666 14.7808 12.621 14.8005C12.6788 14.8161 12.752 14.8088 12.7838 14.8767C12.8152 14.9154 12.6895 15.0062 12.6282 14.9956C12.5677 15.0007 12.534 15.0045 12.4986 15.0104C12.3664 15.0354 12.2625 15.0632 12.1657 15.0833C12.0421 15.1101 11.948 15.1264 11.8934 15.1403L11.9215 15.1788C11.8833 15.1761 11.8525 15.166 11.8303 15.1485C11.7032 15.0481 11.5757 14.9455 11.4558 14.8376C11.3097 14.7061 11.1744 14.5665 11.0616 14.411C11.0427 14.3849 11.0242 14.3588 11.0058 14.3321L11.0237 14.3561C10.9629 14.2733 10.9058 14.1892 10.8512 14.1036C10.8438 14.0919 10.8364 14.0803 10.8291 14.0686C10.7135 14.0163 10.6024 13.9603 10.5401 13.9101C10.4887 13.8687 10.4865 13.8115 10.4852 13.7634C10.484 13.7299 10.4829 13.7003 10.4662 13.6824C10.4572 13.6728 10.4435 13.6609 10.4271 13.6464C10.3592 13.5867 10.2456 13.4873 10.2128 13.3462C10.1982 13.2835 10.198 13.1979 10.1983 13.1173C10.1978 13.001 10.1976 12.8943 10.1551 12.8738C10.0813 12.8386 10.052 12.7551 10.0265 12.6837C10.0017 12.615 9.97991 12.5569 9.92854 12.5615C9.8663 12.566 9.86088 12.5306 9.85141 12.4781C9.8453 12.4423 9.83665 12.3979 9.81122 12.3608C9.78184 12.3181 9.78287 12.2753 9.78333 12.2391C9.78767 12.1905 9.77957 12.1518 9.76572 12.2085C9.76006 12.2425 9.78237 12.2815 9.83646 12.3023C9.92188 12.3219 9.9263 12.3186 9.93056 12.3098C9.93202 12.3003 9.92427 12.3038 9.91208 12.3097C9.89564 12.3174 9.8714 12.3287 9.83724 12.3175C9.80932 12.3081 9.77141 12.2719 9.73554 12.2413C9.72458 12.2316 9.7139 12.2225 9.70381 12.2149C9.68292 12.2249 9.66261 12.2355 9.64186 12.2474C9.64188 12.256 9.64211 12.2654 9.64232 12.2752C9.64304 12.3243 9.64595 12.3839 9.63137 12.4226C9.60817 12.4841 9.55819 12.4823 9.50157 12.4838C9.45823 12.4845 9.41143 12.4871 9.37751 12.5199C9.35425 12.5424 9.33593 12.579 9.31775 12.616C9.29159 12.6702 9.26689 12.7246 9.22685 12.7329C9.21191 12.7359 9.18396 12.7196 9.15589 12.7036C9.15574 12.7035 9.15558 12.7034 9.15543 12.7033C9.15352 12.7022 9.15164 12.7012 9.14974 12.7001C9.09222 12.775 9.03845 12.8539 8.98792 12.9353C8.98717 12.9464 8.9863 12.9575 8.98542 12.9684C8.98176 13.0157 8.97925 13.0613 8.99036 13.1086C8.99144 13.1151 8.99277 13.1216 8.9944 13.1281C9.00951 13.1894 8.97546 13.2656 8.93938 13.3465C8.91565 13.3995 8.89193 13.4536 8.88008 13.5071C8.87328 13.5383 8.83376 13.5332 8.79308 13.5278C8.75511 13.5229 8.71624 13.5177 8.70187 13.5421C8.69472 13.5542 8.69309 13.5736 8.6914 13.5943C8.68991 13.6126 8.68838 13.6318 8.68295 13.648C8.6779 13.663 8.64369 13.6725 8.59962 13.6852C8.57244 13.693 8.54168 13.7018 8.51187 13.7135C8.46873 13.7823 8.42609 13.8496 8.38151 13.9172C8.38879 13.9482 8.40334 13.9833 8.42704 14.0235C8.44405 14.0524 8.46636 14.085 8.48916 14.1183C8.52016 14.1636 8.5524 14.2102 8.57374 14.2517C8.59045 14.2841 8.59117 14.3028 8.57502 14.2984C8.56749 14.2964 8.55643 14.2894 8.54643 14.2831C8.53497 14.2759 8.52477 14.2695 8.52257 14.2721C8.521 14.2741 8.5257 14.2825 8.53135 14.2928C8.54039 14.3092 8.55202 14.3303 8.54552 14.3379C8.52144 14.3658 8.48618 14.3901 8.45159 14.4139C8.41323 14.4402 8.37611 14.4657 8.35539 14.496C8.33234 14.5298 8.26806 14.5448 8.20293 14.5609C8.1577 14.572 8.11301 14.5827 8.08151 14.6003C8.05082 14.6173 8.04006 14.6552 8.02946 14.6923C8.0164 14.7371 8.00439 14.7799 7.95984 14.7817C7.95087 14.782 7.91826 14.7616 7.87751 14.736C7.84863 14.7178 7.81557 14.6971 7.7838 14.6794C7.75386 14.7096 7.72379 14.7378 7.69163 14.7664C7.6942 14.771 7.69681 14.7757 7.6995 14.7805C7.69957 14.7806 7.69964 14.7808 7.69971 14.7809C7.76033 14.8895 7.84402 15.0372 7.72797 15.0164C7.69856 15.0111 7.65855 14.9865 7.62253 14.9645C7.58727 14.9427 7.55519 14.9237 7.54111 14.9273C7.52508 14.9313 7.53127 14.9605 7.53813 14.9922C7.54784 15.0365 7.55875 15.0861 7.51057 15.0791C7.5073 15.0786 7.50373 15.078 7.5001 15.0775C7.46553 15.0728 7.41552 15.0648 7.33409 15.0289C7.25577 15.0778 7.17547 15.1238 7.09347 15.1687C6.9577 15.2425 6.81663 15.3138 6.68181 15.3821C6.61604 15.4151 6.49102 15.385 6.32342 15.3012C6.1562 15.2164 5.95825 15.0896 5.76622 14.9417C5.57338 14.7949 5.41404 14.6178 5.31776 14.4495C5.22131 14.2816 5.19035 14.1449 5.2257 14.066C5.28435 13.9371 5.33976 13.8147 5.39871 13.6945C5.39956 13.6862 5.40058 13.6781 5.40182 13.6701C5.41156 13.6104 5.39326 13.5306 5.37603 13.4498C5.37201 13.4312 5.36843 13.4122 5.3644 13.3943Z" fill="#332824"/>
<path d="M10.0782 15.9571C10.0416 15.7936 10.2032 15.6287 10.2924 15.5415C10.2939 15.54 10.2955 15.5384 10.297 15.5368C10.3178 15.5166 10.334 15.495 10.3533 15.4693C10.3993 15.4082 10.4603 15.3268 10.641 15.197C10.6732 15.1461 10.7079 15.0943 10.7422 15.046C10.7951 14.9715 10.8474 14.9019 10.9041 14.8298C11.3476 14.2476 11.9625 13.8565 12.4709 13.6092C12.4773 13.6038 12.4837 13.5983 12.4902 13.5928C12.6166 13.4852 12.7681 13.3593 12.8904 13.3243C13.0463 13.2796 13.1571 13.262 13.2503 13.2482C13.5217 13.1241 13.7835 12.9977 14.0359 12.8533C14.2288 12.7355 14.4265 12.6272 14.6202 12.5282C14.7776 12.4474 14.9329 12.3727 15.0691 12.3022C15.1578 12.2562 15.2383 12.2123 15.2988 12.1731C15.4044 12.11 15.5189 12.0653 15.6264 12.0385C15.8405 11.964 16.0202 11.9475 16.1661 11.9406C16.3711 11.9332 16.522 11.9501 16.6336 11.9798C16.9036 12.0543 17.1057 12.2206 17.2413 12.3402C17.2636 12.3599 17.2842 12.3785 17.3031 12.3954C17.4297 12.4561 17.5506 12.517 17.6678 12.5772C17.6694 12.5901 17.6708 12.6034 17.6722 12.6169C17.6885 12.7852 17.7982 12.8619 17.9579 12.974C17.9581 12.9742 17.9584 12.9744 17.9586 12.9745C18.0395 13.0328 18.1232 13.0939 18.2145 13.1747C18.2738 13.2273 18.2745 13.2922 18.2752 13.3453C18.2755 13.3609 18.2757 13.3755 18.2773 13.3885C18.2829 13.4328 18.3299 13.4259 18.3856 13.4178C18.4581 13.4077 18.545 13.3956 18.5734 13.4905C18.6621 13.7921 18.8244 13.7663 18.9506 13.7489C18.9873 13.7437 19.0206 13.739 19.0472 13.7431C19.1344 13.7572 19.1896 13.8602 19.2127 13.9586C19.2317 14.0369 19.3606 14.0836 19.4742 14.1013C19.5177 14.1084 19.5553 14.14 19.6009 14.1786C19.6475 14.2182 19.7015 14.2645 19.7749 14.2948C19.9614 14.3723 20.0592 14.4182 20.1368 14.4542C20.1592 14.4648 20.1798 14.4746 20.2004 14.4841C20.2661 14.5146 20.3418 14.5597 20.4176 14.6053C20.5087 14.6603 20.6019 14.7178 20.6805 14.7523C20.7846 14.884 20.8825 15.0179 20.9847 15.1625L20.921 15.1031C20.9294 15.1213 20.9653 15.1614 21.0005 15.2022C21.0854 15.3002 21.0937 15.4584 21.0265 15.6451C20.959 15.832 20.8247 16.0333 20.6553 16.2129C20.4853 16.3923 20.2919 16.5371 20.1175 16.6246C19.9425 16.7115 19.8041 16.7353 19.7296 16.6979C19.697 16.681 19.6641 16.6652 19.6093 16.6291C19.6006 16.6173 19.5635 16.5917 19.5557 16.5792C19.4306 16.4967 19.2983 16.4102 19.1681 16.3211C18.9679 16.1843 18.7711 16.0402 18.5908 15.88C18.4642 15.7676 18.34 15.6516 18.2182 15.5336C18.2057 15.5216 18.1933 15.5094 18.1808 15.4972C18.033 15.4512 17.8886 15.4028 17.7996 15.3549C17.7254 15.3148 17.7004 15.2525 17.6777 15.1982C17.6625 15.1612 17.6488 15.1284 17.6224 15.1106C17.6082 15.1009 17.5878 15.0893 17.5632 15.0754C17.4623 15.0179 17.2918 14.9228 17.1881 14.7684C17.1422 14.6999 17.1011 14.6034 17.0612 14.5114C17.0314 14.4432 17.0027 14.3777 16.9731 14.3275L16.9822 14.3341C16.9518 14.2862 16.9225 14.2524 16.8928 14.2431C16.7854 14.2096 16.7079 14.117 16.6402 14.0377C16.5758 13.962 16.52 13.8983 16.4595 13.908C16.3873 13.9198 16.3607 13.8791 16.3203 13.8199C16.2924 13.7791 16.2577 13.7294 16.2008 13.6875C16.1357 13.6396 16.1041 13.5874 16.0771 13.5442C16.0413 13.4844 16.0053 13.4396 15.9537 13.4861C15.8948 13.5375 15.9198 13.5928 15.9868 13.5558C16.0086 13.5425 16.0406 13.5312 16.0748 13.5132C16.0655 13.519 16.0563 13.5248 16.047 13.5305C15.978 13.5732 15.9114 13.6118 15.8427 13.6221C15.786 13.6305 15.7266 13.6072 15.6743 13.5865C15.658 13.5801 15.6424 13.574 15.628 13.5689C15.5932 13.5878 15.5594 13.6066 15.5267 13.6258C15.5249 13.6356 15.5232 13.6462 15.5216 13.6571C15.5131 13.712 15.504 13.7789 15.4755 13.8263C15.4304 13.9012 15.3625 13.9108 15.2892 13.9237C15.2325 13.9336 15.1732 13.9453 15.1261 13.9886C15.0938 14.0183 15.066 14.063 15.0395 14.1077C15.0353 14.1149 15.031 14.1221 15.0268 14.1293C14.9781 14.199 14.9307 14.2614 14.8764 14.2824C14.8539 14.2911 14.8199 14.279 14.7864 14.2668C14.7862 14.2667 14.786 14.2666 14.7858 14.2665C14.7836 14.2657 14.7813 14.2649 14.779 14.2641C14.6728 14.3731 14.5672 14.4824 14.4624 14.5914C14.4565 14.6053 14.4504 14.6191 14.4444 14.6327C14.4153 14.6992 14.3858 14.7644 14.3834 14.8284C14.3799 14.8985 14.3104 14.9874 14.2384 15.0799C14.1914 15.1404 14.1432 15.2026 14.1115 15.2626C14.0928 15.2979 14.0482 15.2916 14.0014 15.2857C13.958 15.2802 13.9142 15.2739 13.8897 15.301C13.8775 15.3144 13.8697 15.336 13.8616 15.3588C13.8545 15.379 13.8468 15.4005 13.8358 15.4183C13.8256 15.4347 13.7834 15.4448 13.7301 15.4576C13.6975 15.4654 13.6599 15.4748 13.6236 15.4869C13.5586 15.5607 13.4973 15.6326 13.4401 15.7025C13.4432 15.7352 13.4539 15.7724 13.4739 15.8149C13.4882 15.8453 13.5078 15.8798 13.5279 15.9148C13.5554 15.9625 13.5841 16.0115 13.6031 16.054C13.6179 16.0873 13.6179 16.1058 13.6022 16.1004C13.5948 16.0979 13.5842 16.0903 13.5745 16.0835C13.5635 16.0757 13.5536 16.0688 13.5514 16.0713C13.5497 16.0731 13.5541 16.0818 13.5593 16.0922C13.5677 16.1089 13.5786 16.1304 13.5722 16.1373C13.5482 16.1633 13.5148 16.1844 13.4831 16.2051C13.4478 16.2282 13.4146 16.2509 13.3985 16.2782C13.3805 16.3087 13.3227 16.3209 13.2646 16.3365C13.2241 16.3471 13.1835 16.3594 13.1572 16.3774C13.1366 16.3915 13.1305 16.4174 13.1276 16.4454C13.1251 16.4549 13.1228 16.4645 13.1206 16.474C13.1071 16.5309 13.0963 16.583 13.0463 16.6007C13.0361 16.6043 12.9993 16.5914 12.9531 16.5753C12.9204 16.5638 12.8829 16.5508 12.8471 16.5408C12.8159 16.5847 12.7821 16.63 12.7489 16.6726C12.752 16.6771 12.7551 16.6817 12.7583 16.6863C12.7584 16.6864 12.7585 16.6865 12.7585 16.6866C12.8314 16.7909 12.9306 16.9343 12.803 16.9486C12.7703 16.9527 12.7249 16.9381 12.684 16.9252C12.6438 16.9124 12.6078 16.901 12.5929 16.9096C12.5761 16.919 12.5843 16.9515 12.5941 16.9854C12.6076 17.0334 12.6243 17.0851 12.5712 17.0941C12.5676 17.0947 12.5637 17.0953 12.5597 17.0959C12.5218 17.1025 12.4673 17.1103 12.3757 17.0982C12.2961 17.1809 12.2149 17.262 12.1344 17.3415C12.0006 17.4736 11.8672 17.6043 11.7575 17.717C11.7042 17.771 11.5812 17.7763 11.3988 17.7537C11.2166 17.7288 10.9835 17.702 10.7406 17.7103C10.4969 17.7181 10.2678 17.5785 10.1274 17.4069C9.9853 17.2349 9.93435 17.0509 9.96509 16.9171C10.0165 16.6978 10.071 16.507 10.1312 16.3217C10.1318 16.3105 10.1329 16.2989 10.1338 16.2882C10.1407 16.2083 10.1166 16.1154 10.0941 16.0208C10.0887 15.9994 10.0831 15.9783 10.0782 15.9571Z" fill="#332824"/>
<path d="M16.0152 7.5629C16.2111 7.57678 16.5006 7.68841 16.7059 7.85952C16.914 8.02735 17.0243 8.20622 17.0633 8.27307C17.2203 8.54515 17.2488 8.76018 17.2635 8.88945C17.264 8.89457 17.2646 8.89966 17.2651 8.90473C17.271 8.97025 17.2772 9.02666 17.2816 9.088C17.2905 9.22323 17.2918 9.39591 17.2008 9.62701C17.187 9.7106 17.1648 9.79982 17.1326 9.88953C16.9767 10.3968 16.611 10.6584 16.4375 10.7583C16.3782 10.7929 16.3279 10.8175 16.2879 10.8358C15.6345 11.1029 15.2752 11.0073 14.9375 10.942C14.7711 10.9013 14.6188 10.8474 14.4633 10.7779C14.2994 10.7003 14.1761 10.6486 13.897 10.4492C13.7763 10.3682 13.6805 10.2728 13.6104 10.1837C13.5771 10.1448 13.5467 10.1043 13.5216 10.0675C13.2906 9.69741 13.2997 9.52246 13.275 9.38799C13.2613 9.25631 13.2683 9.1718 13.2889 9.11009C13.3359 8.97719 13.3836 8.91036 13.4243 8.85438C13.431 8.82935 13.438 8.80596 13.4456 8.78235C13.4983 8.35543 13.8543 7.97014 13.9514 7.92163C14.3023 7.58824 14.5975 7.58297 14.7967 7.5649C15.0029 7.55709 15.1631 7.58109 15.3183 7.60982C15.4328 7.63194 15.5417 7.65817 15.6588 7.69314C15.7562 7.72122 15.8531 7.76432 15.9385 7.81718C16.2265 7.99961 16.3505 8.22804 16.4328 8.39295C16.4999 8.48375 16.556 8.56238 16.6042 8.63269C16.6715 8.73131 16.7224 8.81355 16.7458 8.88095C16.7566 8.91227 16.7644 8.94404 16.7696 8.97493C16.8097 9.21345 16.7561 9.47586 16.6687 9.67414C16.6513 9.71457 16.6328 9.75286 16.6142 9.78863C16.574 9.91358 16.5202 10.0457 16.3993 10.2003C16.1931 10.4351 16.0114 10.4967 15.8962 10.5441C15.8734 10.541 15.8528 10.5364 15.8322 10.5311C15.589 10.4582 15.4677 10.4562 15.2951 10.4594C15.2225 10.4598 15.1464 10.4586 15.0667 10.447C15.0663 10.447 15.066 10.4469 15.0656 10.4469C14.9159 10.4348 14.8464 10.3625 14.8017 10.308C14.788 10.2914 14.7761 10.2758 14.7638 10.262C14.7223 10.2147 14.6604 10.2266 14.5827 10.2319C14.4845 10.2405 14.3546 10.2308 14.3066 10.1144C14.2435 9.95141 14.2146 9.88108 14.1689 9.84701C14.0733 9.7573 13.9738 9.70588 13.8892 9.65054C13.8444 9.62093 13.8049 9.59071 13.7767 9.55364C13.6818 9.43165 13.6929 9.21823 13.7541 9.0994C13.7978 9.00232 13.7695 8.82892 13.7296 8.72627C13.7278 8.72187 13.7262 8.71753 13.725 8.7133C13.7368 8.47489 13.9828 8.15043 14.1681 8.0587C14.3402 7.95755 14.4544 7.93483 14.5414 7.90132C14.5644 7.89303 14.5877 7.88436 14.6117 7.87508C14.9084 7.76528 15.1072 7.7726 15.2649 7.78488C15.3107 7.78933 15.3544 7.79583 15.3996 7.8045C15.5118 7.82814 15.6458 7.8643 15.8294 7.98576C15.9094 8.0427 15.983 8.10932 16.0485 8.18451C16.2313 8.39773 16.3674 8.68122 16.3576 9.05505C16.3263 9.46485 16.2031 9.61816 16.1488 9.73289C15.9519 9.9717 15.8433 10.0164 15.7422 10.08C15.6436 10.1353 15.5624 10.1691 15.4883 10.1977C15.4631 10.2297 15.343 10.2664 15.3124 10.2932C15.2655 10.3104 15.2147 10.3263 15.1615 10.3391C14.8604 10.407 14.5455 10.3251 14.9061 10.2036C15.0398 10.1299 15.0437 10.0606 15.0073 10.0208C14.9478 9.95144 14.7341 9.9275 14.6133 9.80521C14.4907 9.68486 14.5197 9.54667 14.567 9.4364C14.6142 9.32482 14.6767 9.20714 14.6244 9.08897C14.5746 8.96932 14.436 8.912 14.4203 8.8203C14.411 8.76697 14.4354 8.68943 14.5733 8.6153C14.9398 8.48483 14.7782 8.42893 14.6132 8.45453C14.585 8.46009 14.5584 8.46713 14.5348 8.47449L14.3873 8.55456C14.4247 8.50752 14.455 8.4636 14.4641 8.43431C14.4697 8.41469 14.4686 8.36128 14.3482 8.50699C14.3083 8.56635 14.2319 8.66955 14.2062 8.90434C14.1829 9.27994 14.3226 9.50009 14.5215 9.67338C14.7234 9.83182 14.7719 9.81662 14.8525 9.82718C14.8863 9.8277 14.9171 9.82337 14.9441 9.81592C14.9639 9.80857 15.0049 9.80638 15.1318 9.73939C15.2424 9.69171 15.5504 9.42947 15.6032 9.08167C15.6015 9.08695 15.6 9.09096 15.5987 9.09404C15.5967 9.09852 15.5951 9.10106 15.5937 9.10218C15.6535 9.12527 15.7194 9.02073 15.7094 8.91509C15.7034 8.82891 15.6387 8.77311 15.5876 8.7443C15.5518 8.72316 15.5205 8.71016 15.5048 8.68762C15.5037 8.68598 15.5025 8.68425 15.5012 8.68243C15.5082 8.68772 15.517 8.69265 15.5249 8.69552C15.5714 8.72705 15.5484 8.60848 15.2917 8.58557C15.2341 8.58429 15.1681 8.59793 15.1157 8.62343C15.1439 8.64404 15.1711 8.66643 15.1965 8.68829C15.2819 8.76172 15.3459 8.82808 15.3709 8.80708C15.4119 8.77367 15.4567 8.78602 15.3568 8.84192C15.3118 8.871 15.2088 8.92096 15.0965 9.05224C15.0668 9.09326 15.0527 9.11041 15.0255 9.11447C14.9638 9.12364 14.9723 9.15872 14.9958 9.18554C15.012 9.20451 15.0355 9.21886 15.0454 9.2256C15.0543 9.23198 15.0774 9.23144 15.1002 9.22621C15.1056 9.21644 15.1112 9.20704 15.1165 9.19824C15.1495 9.14417 15.1731 9.10141 15.1076 9.07207C15.0348 9.03974 14.9866 9.02764 15.0034 9.0165C15.0108 9.01064 15.0088 9.01257 15.0124 9.02294C15.0166 9.0356 15.0353 9.06742 15.0857 9.08064C15.127 9.09149 15.1859 9.07054 15.2273 9.04272C15.2404 9.03423 15.2522 9.02539 15.2625 9.01741C15.2701 9.02047 15.2777 9.02316 15.2852 9.02555C15.2749 9.02323 15.2637 9.02108 15.2521 9.01935C15.2476 9.02623 15.2429 9.0339 15.238 9.04184C15.2135 9.0817 15.1856 9.13143 15.161 9.15483C15.1221 9.19195 15.1001 9.16281 15.0744 9.13301C15.0551 9.10987 15.033 9.08684 15.0169 9.09634C15.0062 9.1027 14.9998 9.12385 15.0074 9.14219C15.0158 9.17042 15.0698 9.18501 15.1073 9.14076C15.1207 9.12474 15.1198 9.08858 15.1156 9.0535C15.1156 9.05331 15.1155 9.05311 15.1155 9.05292C15.1152 9.05053 15.1149 9.04818 15.1147 9.0458C15.1333 9.03494 15.1534 9.02076 15.1738 9.00297C15.1199 9.09104 15.1666 9.08716 15.2126 9.03574C15.2222 9.03263 15.2319 9.02868 15.2414 9.0241C15.2885 9.00145 15.3308 8.96648 15.3832 8.9445C15.3949 8.93946 15.4056 8.93246 15.4154 8.92362C15.4512 8.96112 15.4749 9.01845 15.501 9.06409C15.5225 9.1018 15.5459 9.13073 15.5769 9.13712C15.5949 9.14079 15.564 9.14178 15.5313 9.13781C15.5005 9.13321 15.4694 9.12674 15.4684 9.09087C15.4677 9.0727 15.4736 9.04465 15.4716 9.00065C15.4695 8.96182 15.4614 8.9087 15.4268 8.83784C15.4011 8.79213 15.3328 8.67604 15.1161 8.54808C15.104 8.54542 15.0928 8.54428 15.0835 8.54477C15.0592 8.54629 15.0463 8.55727 15.0416 8.56865C15.0516 8.55223 15.0891 8.54647 15.1251 8.53827C15.139 8.51388 15.1539 8.48126 15.1693 8.43838C15.1803 8.40763 15.1922 8.37051 15.204 8.33247C15.22 8.28071 15.2358 8.22701 15.2494 8.18441C15.2601 8.15112 15.2661 8.13822 15.2654 8.15284C15.265 8.15966 15.2633 8.17227 15.2617 8.18369C15.2599 8.19676 15.2584 8.2084 15.2595 8.20828C15.2603 8.20816 15.2629 8.19917 15.266 8.18828C15.2709 8.17088 15.277 8.14838 15.2798 8.14805C15.29 8.14684 15.2993 8.15587 15.3076 8.16434C15.3168 8.17376 15.3245 8.18233 15.3291 8.17564C15.3342 8.16818 15.336 8.20262 15.3326 8.23726C15.3303 8.26145 15.325 8.28577 15.3153 8.29703C15.3059 8.30806 15.2868 8.29169 15.2572 8.27982C15.2227 8.26524 15.1712 8.25894 15.139 8.30624C15.1356 8.3114 15.1352 8.32543 15.1368 8.345C15.1381 8.36136 15.1398 8.38203 15.1409 8.40533C15.1425 8.44165 15.1427 8.48427 15.1365 8.52846C15.0478 8.57852 14.7754 8.76627 14.6685 9.14906C14.66 9.16027 14.6517 9.17159 14.6433 9.18341C14.6431 9.18359 14.643 9.18377 14.6428 9.18395C14.6162 9.22158 14.5905 9.26236 14.5672 9.30663C14.4607 9.28852 14.3512 9.28533 14.4344 9.30763C14.4591 9.31386 14.5049 9.31808 14.5461 9.32086C14.5866 9.32374 14.6229 9.32529 14.6307 9.33013C14.6397 9.3357 14.6154 9.34553 14.5902 9.36267C14.5547 9.38574 14.5179 9.42774 14.5677 9.46307C14.5711 9.46541 14.5748 9.46795 14.5786 9.47064C14.6143 9.4952 14.6724 9.54175 14.7807 9.57058C14.7905 9.5859 14.8014 9.60199 14.8136 9.61859C14.8272 9.6204 14.9039 9.74893 15.0943 9.86807C15.2855 9.99153 15.5313 10.019 15.6489 9.99955C15.6423 9.99627 15.6358 9.99299 15.6294 9.9897C15.5447 9.94597 15.4611 9.90428 15.4009 9.86573C15.372 9.84658 15.329 9.74166 15.2432 9.58086C15.1594 9.41908 15.0265 9.22297 14.8509 9.05491C14.6767 8.88455 14.6095 8.63 14.6252 8.41695C14.6408 8.20199 14.7345 8.04297 14.85 7.98189C15.0382 7.8826 15.2131 7.81235 15.386 7.75722C15.395 7.75139 15.4037 7.74579 15.4124 7.74052C15.4663 7.70863 15.5143 7.65577 15.5648 7.59946C15.619 7.585 15.6777 7.57283 15.7443 7.56523C15.8252 7.55591 15.9165 7.55353 16.0152 7.5629Z" fill="#332824"/>
</svg>
