<svg width="32" height="32" viewBox="0 0 32 32" fill="none" xmlns="http://www.w3.org/2000/svg">
<path d="M7.2143 15.2457C7.23216 15.2968 7.24754 15.3543 7.26075 15.4177C7.36696 15.9151 7.33797 16.6705 7.33085 17.1074C7.33074 17.1162 7.33063 17.125 7.33051 17.1338C7.32848 17.252 7.33242 17.3595 7.338 17.4872C7.35316 17.7938 7.36596 18.1885 7.36454 19.0575C7.39659 19.3086 7.43114 19.5711 7.46163 19.8552C7.485 20.0733 7.50571 20.3039 7.51945 20.539C7.51786 20.5349 7.51348 20.452 7.45271 20.3187C7.39473 20.1851 7.28041 20.064 7.26652 20.0577C7.03502 19.912 7.28881 20.0905 7.7181 20.1336C8.14311 20.1966 8.68316 20.2403 9.23957 20.3068C9.92781 20.3998 10.9788 20.3151 11.9558 20.207C12.1961 20.1803 12.4427 20.1492 12.6915 20.1161C12.7262 20.1087 12.7603 20.1014 12.7956 20.0938C13.4757 19.9469 14.3392 19.747 14.901 19.6915C15.6149 19.6204 16.1099 19.5928 16.518 19.5763C16.9294 19.5232 17.3453 19.4732 17.7653 19.4304C19.6436 19.2796 21.2046 19.0559 23.5173 19.4336C23.4014 19.4041 23.325 19.4086 23.225 19.436C23.1986 19.4439 23.1702 19.4543 23.1382 19.4695C22.9981 19.5329 22.8949 19.6545 22.8641 19.7131C22.8295 19.7755 22.8341 19.788 22.8376 19.7747C22.8486 19.7456 22.8636 19.6319 22.8649 19.5074C22.8691 19.2519 22.8397 18.9345 22.8013 18.6107C22.7951 18.5582 22.7886 18.5052 22.7818 18.4517C22.7078 17.8703 22.6231 17.2714 22.5386 16.6782C22.4565 16.3038 22.3712 15.9502 22.2923 15.6204C22.1816 15.1583 22.0839 14.7452 22.0266 14.4024C22.0174 14.3475 22.0085 14.2915 21.9999 14.2344C21.8747 13.4117 21.8626 12.497 21.8801 11.8116C21.8828 11.6903 21.8863 11.5787 21.8896 11.4726C21.8548 10.891 21.8372 10.306 21.8318 9.7308C21.8459 9.69233 21.8605 9.65432 21.8755 9.61648C21.991 9.32142 22.0513 8.95062 22.0678 8.58611C22.0753 8.37269 22.0589 8.13717 22.0064 7.91076C21.9383 7.65029 21.891 7.50066 21.6406 7.18071C21.6112 7.143 21.6033 7.1327 21.6091 7.13807C21.814 7.2834 21.6588 7.09663 21.5839 7.04045C21.5572 7.01798 21.5302 6.99718 21.5009 6.97943C21.398 6.91828 21.2629 6.94648 21.1006 6.98524C21.0709 6.99256 21.0399 7.00021 21.0067 7.00762C20.8159 7.05224 20.5842 7.09107 20.29 7.01652C19.1804 6.74569 18.6647 6.93265 18.2926 7.06267C18.1831 7.10171 18.083 7.13733 17.9806 7.15863C17.6485 7.22739 17.1711 7.18724 16.8062 7.12449C16.5594 7.08162 16.1088 7.14406 15.7157 7.23227C15.6483 7.24739 15.5824 7.26325 15.5194 7.27937C15.3577 7.32082 15.1358 7.33714 14.8744 7.35767C14.6038 7.37889 14.2903 7.40466 13.9575 7.46735C13.1168 7.62631 12.6688 7.71278 12.3094 7.78108C12.2062 7.80074 12.1114 7.8188 12.0155 7.83742C11.7141 7.89604 11.3376 7.95792 10.9568 8.0212C10.5007 8.09691 10.036 8.17485 9.68061 8.25004C9.64218 8.2523 9.60441 8.25447 9.56731 8.25653C9.56126 8.25755 9.54285 8.25843 9.53679 8.25933C8.65249 8.29159 7.76739 8.31891 6.89311 8.35784C6.42924 8.37842 5.96093 8.28087 5.64673 8.08333C5.59687 8.04652 5.53288 8.01323 5.55018 7.95983L5.60891 7.9419C5.46059 7.75884 5.16775 7.61943 5.05378 7.37334C4.94046 7.13314 4.87178 6.84697 5.11838 6.51786C5.12709 6.51548 5.1526 6.50646 5.16146 6.5047C5.25344 6.43175 5.3022 6.37877 5.36699 6.32365C5.70604 6.02504 6.15076 5.82935 6.63065 5.75404C7.52519 5.61567 8.41237 5.49083 9.30159 5.37785L9.27559 5.38023C9.34209 5.37033 9.41305 5.35997 9.48047 5.35C10.6342 5.17952 11.802 5.02126 12.978 4.9142C13.8012 4.83912 14.6278 4.77862 15.4611 4.73777C15.4922 4.73625 15.5233 4.73477 15.5544 4.73333C15.6092 4.73077 15.664 4.72832 15.7185 4.72593C16.4124 4.60113 17.1103 4.49582 17.6049 4.45287C18.0132 4.41724 18.3143 4.45381 18.5713 4.48632C18.7487 4.50875 18.9047 4.52944 19.0638 4.52472C19.1485 4.5222 19.2651 4.5166 19.4066 4.51075C19.8375 4.49454 20.4777 4.46739 21.2124 4.54497C21.4724 4.57415 21.74 4.61453 22.0511 4.69872C22.2317 4.75006 22.4355 4.80982 22.7208 4.95522C22.863 5.02926 23.0343 5.13419 23.2016 5.28521C23.3679 5.43207 23.5029 5.62244 23.5184 5.65845C23.6016 5.79436 23.7178 5.98129 23.8119 6.17437C24.2399 7.0406 24.2046 7.82459 24.2618 8.16428C24.2818 8.29998 24.2929 8.43885 24.2963 8.57867C24.3036 9.06572 24.2475 9.46699 24.2101 9.85586C24.1621 10.3233 24.131 10.731 24.1875 10.9618C24.2551 11.2368 24.2323 11.4705 24.2058 11.8208C24.1878 12.0638 24.1682 12.3623 24.1849 12.7677C24.2046 13.2334 24.1946 13.5677 24.1884 13.8521C24.1876 13.8911 24.187 13.9294 24.1866 13.967C24.1838 14.3258 24.1926 14.6183 24.3123 15.0224C24.4595 15.5198 24.58 16.0405 24.6074 16.4626C24.6198 16.6546 24.6508 16.8706 24.6833 17.0973C24.7264 17.3968 24.7719 17.7111 24.779 18.006C24.7808 18.0753 24.7789 18.1411 24.7745 18.2044C24.7634 18.3671 24.736 18.5151 24.7095 18.6518C24.6979 18.7111 24.6867 18.7682 24.677 18.8241C24.6964 19.0276 24.7127 19.2379 24.7164 19.4643C24.7269 19.501 24.7382 19.5401 24.7492 19.5823C24.7907 19.8027 24.9068 20.0458 24.7188 20.6112C24.6295 20.8576 24.3885 21.2036 24.0125 21.3743C23.6315 21.5444 23.2921 21.5542 22.9221 21.4449C23.0012 21.4603 22.9052 21.4323 22.8634 21.4218C22.8112 21.4082 22.7508 21.3943 22.6876 21.3811C22.4386 21.3295 22.1514 21.288 21.8228 21.2988C21.5974 21.3063 21.338 21.3382 21.0813 21.3754C20.7027 21.4303 20.3233 21.4972 20.0578 21.4969C19.957 21.4968 19.8704 21.4647 19.7798 21.4336C19.7794 21.4334 19.779 21.4331 19.7786 21.4329C19.7725 21.4308 19.7662 21.4288 19.7603 21.4267C19.2128 21.5077 18.6641 21.6073 18.1148 21.7213C18.0217 21.7407 17.9273 21.7608 17.8336 21.7813C17.7791 21.8006 17.7247 21.8199 17.6704 21.8391C17.4051 21.9331 17.147 22.0279 16.9855 22.1263C16.8104 22.2327 16.3447 22.3641 15.85 22.509C15.5261 22.6037 15.1895 22.7033 14.9168 22.8003C14.7569 22.8571 14.5929 22.8484 14.4226 22.8394C14.2644 22.8309 14.101 22.8222 13.9331 22.8661C13.8486 22.8881 13.7598 22.9232 13.6646 22.9606C13.5807 22.9936 13.4923 23.0282 13.3967 23.0573C13.3088 23.084 13.103 23.1008 12.8366 23.1198C12.7188 23.1282 12.587 23.1373 12.4498 23.1472C12.3954 23.1512 12.3409 23.1552 12.2858 23.1595C11.7765 23.2685 11.2599 23.3672 10.721 23.4423C10.6104 23.4894 10.5164 23.5445 10.4402 23.611C10.3873 23.6586 10.3403 23.7139 10.2931 23.7702C10.2275 23.8467 10.1595 23.9255 10.0584 23.9898C9.98054 24.04 9.88207 24.0619 9.81618 24.0442C9.7848 24.036 9.76048 24.0196 9.7388 24.0046C9.71431 23.9875 9.69111 23.9722 9.6641 23.9729C9.64445 23.9735 9.62475 23.9861 9.59887 24.0012C9.55829 24.0254 9.50488 24.0565 9.42203 24.0562C9.27384 24.0558 9.1104 24.0481 8.93383 24.0307C8.80882 24.0173 8.67801 24.0023 8.54531 23.9877C8.26284 23.9566 7.9674 23.9266 7.71475 23.9143C7.43107 23.8984 7.01259 23.8225 6.48142 23.6561C6.11475 23.5393 5.67241 23.3607 5.26469 23.0875C5.1172 22.9892 4.96403 22.8762 4.81587 22.7463C4.59696 22.5601 4.29983 22.239 4.11288 21.8665C3.89919 21.4498 3.82669 21.0626 3.80465 20.7772C3.79712 20.6942 3.79584 20.6151 3.80596 20.5377C3.81095 20.5002 3.8566 20.4496 3.91308 20.3841C3.9531 20.3376 3.99855 20.2833 4.03892 20.2211C4.01236 19.9728 3.98106 19.7029 3.95359 19.4258C3.94573 19.4167 3.93771 19.4073 3.92954 19.3978C3.92936 19.3977 3.92918 19.3975 3.929 19.3974C3.74551 19.1892 3.49307 18.8865 3.58501 18.4237C3.60824 18.3034 3.66393 18.2312 3.71363 18.16C3.76271 18.0933 3.80676 18.0341 3.81106 17.9491C3.81622 17.8571 3.77577 17.7459 3.73269 17.6289C3.672 17.4618 3.6056 17.2781 3.6492 17.0845C3.6522 17.0717 3.6555 17.0579 3.65879 17.0435C3.68987 16.9056 3.73666 16.6995 3.8411 16.4978C3.84629 16.1576 3.85641 15.8192 3.8702 15.4801C3.88056 15.2334 3.89182 14.9858 3.90404 14.7388C3.95041 13.7748 4.01927 12.7926 4.09477 11.8359C4.10425 11.7137 4.12152 11.5965 4.14615 11.478C4.21658 11.1392 4.34871 10.8269 4.53314 10.5789C4.6578 10.4107 4.80069 10.2796 4.95466 10.1916C5.03169 10.1475 5.11125 10.1155 5.19331 10.0948C5.23467 10.0864 5.2746 10.0749 5.32034 10.0833C5.30296 10.1121 5.24915 10.1091 5.21202 10.1152C5.19222 10.119 5.17284 10.1259 5.155 10.1372C5.14627 10.1431 5.13738 10.1502 5.13345 10.1676C5.13168 10.1759 5.13107 10.1899 5.1429 10.216C5.14302 10.2275 5.23872 10.3672 5.41522 10.305C5.59946 10.1911 5.54016 10.1932 5.57152 10.1784C5.58655 10.1646 5.59605 10.1655 5.60724 10.1615C5.62847 10.1571 5.64807 10.1583 5.66757 10.1608C5.74511 10.1723 5.81944 10.2032 5.89182 10.2435C6.03635 10.3249 6.17135 10.4496 6.28996 10.6111C6.46551 10.8493 6.59311 11.1524 6.66202 11.4838C6.6861 11.6024 6.70282 11.7197 6.71176 11.8417C6.76708 12.6037 6.82414 13.3504 6.88731 14.1017C6.89452 14.1408 6.90152 14.1799 6.90815 14.2199C6.95742 14.5123 7.05284 14.784 7.14869 15.0571C7.17071 15.1201 7.19276 15.181 7.2143 15.2457Z" fill="#332824"/>
<path d="M5.86989 15.107C5.85789 14.9603 6.01768 14.8781 6.1064 14.8326C6.10802 14.8317 6.10958 14.8309 6.11113 14.8301C6.1317 14.8197 6.14845 14.8066 6.16817 14.7911C6.21561 14.7538 6.27936 14.7035 6.45273 14.6472C6.48801 14.6119 6.52204 14.5795 6.55877 14.5467C6.95081 14.1972 7.40918 13.9259 7.88055 13.6753C7.88515 13.6706 7.88983 13.6658 7.89457 13.6609C7.98634 13.5669 8.10101 13.4504 8.20583 13.4173C8.33985 13.3745 8.43869 13.3567 8.522 13.3431C8.52411 13.342 8.52622 13.3409 8.52833 13.3398C8.94696 13.1105 9.37425 12.9123 9.81798 12.7232C9.95821 12.6638 10.1012 12.6049 10.2532 12.5473C10.3941 12.4947 10.5375 12.4424 10.7285 12.4002C10.8211 12.3648 10.9111 12.3218 11.1005 12.3119C11.1331 12.3097 11.1649 12.3085 11.196 12.3084C11.4355 12.3094 11.597 12.3508 11.7087 12.3947C11.9796 12.5074 12.1308 12.695 12.23 12.8238C12.2465 12.8454 12.2611 12.8652 12.2744 12.8832C12.3767 12.9553 12.472 13.0258 12.5639 13.0955C12.5624 13.1076 12.5605 13.1201 12.5586 13.1329C12.533 13.2911 12.6131 13.3734 12.7325 13.5025C12.784 13.5583 12.8435 13.6237 12.9038 13.7068C12.9424 13.7602 12.9264 13.8195 12.9126 13.8669C12.9086 13.881 12.9048 13.8941 12.9028 13.9059C12.8959 13.9462 12.9402 13.9453 12.9916 13.9434C13.0583 13.9407 13.14 13.9394 13.1392 14.026C13.1383 14.304 13.2907 14.2944 13.4069 14.2879C13.4408 14.2857 13.4715 14.2839 13.4941 14.2895C13.568 14.3081 13.5901 14.4022 13.587 14.4917C13.584 14.5619 13.6878 14.6109 13.7844 14.6313C13.8212 14.6393 13.8475 14.6692 13.8786 14.7046C13.9108 14.7413 13.9479 14.7836 14.0065 14.8124C14.0262 14.8221 14.0447 14.8313 14.062 14.8399C14.0665 14.8429 14.0749 14.8572 14.0792 14.8603C14.1906 14.9196 14.254 14.955 14.3065 14.9844C14.3238 14.9941 14.3395 15.0029 14.3558 15.0119C14.4068 15.0399 14.4632 15.0801 14.5203 15.1206C14.5888 15.1692 14.658 15.2177 14.7205 15.2467C14.8017 15.3897 14.8779 15.5363 14.9565 15.6837C14.9714 15.7118 14.9766 15.7479 14.9725 15.7906C14.9824 15.7972 15.0006 15.8289 15.01 15.836C15.0196 15.935 14.9815 16.0316 14.9045 16.1202C14.8401 16.1888 14.7681 16.257 14.634 16.285C14.5963 16.2911 14.5588 16.2907 14.4717 16.2875C14.3967 16.2648 14.1511 16.3595 14.15 16.4495C14.1274 16.5928 14.2226 16.5755 14.2744 16.5969C14.3307 16.6141 14.4079 16.6065 14.4298 16.6832C14.4475 16.7291 14.3376 16.7962 14.2862 16.7964C14.2316 16.8064 14.1964 16.8124 14.1615 16.8201C14.0294 16.8514 13.9251 16.8814 13.828 16.9041C13.7075 16.933 13.6144 16.9508 13.5582 16.9653L13.5892 17.0028C13.5457 17.0007 13.5098 16.9897 13.483 16.97C13.3372 16.8625 13.1911 16.7526 13.0526 16.6372C12.8837 16.4965 12.725 16.3465 12.5883 16.1797C12.5713 16.159 12.5552 16.139 12.5386 16.118L12.5583 16.1415C12.4775 16.0457 12.4014 15.9484 12.3275 15.8484C12.3183 15.836 12.3093 15.8235 12.3002 15.8111C12.1726 15.7548 12.0498 15.6951 11.9786 15.6415C11.9191 15.5964 11.9108 15.5365 11.9026 15.4839C11.8971 15.448 11.8925 15.4165 11.8728 15.3975C11.8623 15.3873 11.8462 15.374 11.8271 15.3585C11.7495 15.2955 11.6176 15.1882 11.5652 15.0372C11.5421 14.9703 11.5314 14.8792 11.5203 14.7919C11.5054 14.6681 11.49 14.553 11.4434 14.532C11.3606 14.4941 11.3198 14.4066 11.2825 14.3302C11.2476 14.2581 11.2163 14.1966 11.1623 14.2019C11.0981 14.2085 11.0871 14.171 11.0691 14.1158C11.0576 14.0785 11.0422 14.0323 11.0092 13.9943C10.9717 13.9512 10.9659 13.907 10.9607 13.8701C10.9572 13.8199 10.9427 13.7819 10.9339 13.839C10.9325 13.861 10.9416 13.8828 10.9609 13.8993C11.0393 13.9315 11.0132 13.9394 10.9979 13.9308C10.9842 13.9241 10.9653 13.9305 10.943 13.9389C10.9133 13.95 10.8785 13.9643 10.8361 13.9552C10.8009 13.9478 10.7587 13.9128 10.7203 13.8825C10.7083 13.8731 10.6965 13.8642 10.6853 13.8568C10.6602 13.8677 10.634 13.8798 10.609 13.8925C10.6079 13.9014 10.6069 13.9111 10.6059 13.9213C10.601 13.9718 10.5957 14.0339 10.5742 14.0744C10.5392 14.1389 10.4813 14.139 10.4173 14.1418C10.3678 14.1438 10.3149 14.1474 10.2726 14.1823C10.2434 14.2063 10.218 14.2448 10.1927 14.2839C10.1559 14.3413 10.1209 14.3989 10.0755 14.4082C10.0586 14.4117 10.0301 14.3949 10.0016 14.3785C10.0014 14.3784 10.0013 14.3783 10.0011 14.3781C9.99917 14.377 9.99725 14.376 9.99532 14.3748C9.92165 14.4545 9.85179 14.5384 9.78531 14.6252C9.78292 14.637 9.78041 14.6487 9.7779 14.6603C9.76654 14.7131 9.75689 14.764 9.76403 14.8168C9.76434 14.821 9.76477 14.8252 9.76531 14.8293C9.77346 14.8939 9.72706 14.9742 9.67802 15.0594C9.64575 15.1152 9.61326 15.1723 9.5937 15.2286C9.58236 15.2615 9.54083 15.2561 9.49808 15.2506C9.45816 15.2454 9.41747 15.2399 9.39891 15.2656C9.38968 15.2784 9.38539 15.2989 9.38087 15.3207C9.3769 15.3399 9.37274 15.3602 9.36482 15.3773C9.35743 15.3931 9.31981 15.403 9.27107 15.4165C9.24104 15.4248 9.20706 15.4341 9.17372 15.4465C9.11884 15.5189 9.06435 15.5901 9.00804 15.6614C9.01175 15.694 9.02265 15.7311 9.04264 15.7736C9.05698 15.804 9.07649 15.8384 9.09643 15.8735C9.12356 15.9213 9.15167 15.9706 9.16916 16.0142C9.18272 16.0484 9.18102 16.0682 9.16437 16.0635C9.1566 16.0613 9.14573 16.054 9.13589 16.0474C9.12461 16.0398 9.11458 16.0331 9.11188 16.0358C9.10994 16.0379 9.11384 16.0468 9.11852 16.0576C9.126 16.0749 9.13561 16.0973 9.12768 16.1052C9.09825 16.1349 9.05765 16.1603 9.01754 16.1856C8.97307 16.2135 8.93036 16.2403 8.90419 16.2724C8.87505 16.3082 8.8048 16.324 8.73314 16.3412C8.68337 16.353 8.63461 16.3642 8.59863 16.3829C8.5637 16.4009 8.54701 16.4412 8.53109 16.4802C8.51122 16.5276 8.49274 16.5729 8.44503 16.5749C8.43535 16.5753 8.40363 16.5535 8.36352 16.5265C8.33515 16.5074 8.30267 16.4856 8.27118 16.4668C8.23518 16.4989 8.19976 16.5286 8.16161 16.5589C8.16374 16.5638 8.16589 16.5688 8.16811 16.5739C8.16817 16.574 8.16823 16.5741 8.16829 16.5743C8.21835 16.6892 8.28816 16.8452 8.16721 16.8236C8.13659 16.8179 8.09725 16.792 8.06182 16.7688C8.0271 16.7458 7.9958 16.7255 7.98025 16.7293C7.96263 16.7337 7.96533 16.7646 7.96842 16.7982C7.97275 16.8452 7.97812 16.8974 7.92765 16.8902C7.92422 16.8897 7.9205 16.8891 7.9167 16.8886C7.88057 16.8836 7.82814 16.8755 7.74664 16.8372C7.6565 16.8895 7.56571 16.9378 7.4722 16.9859C7.31842 17.0643 7.15861 17.1407 7.0063 17.2141C6.93203 17.2495 6.80287 17.2185 6.63665 17.1298C6.47083 17.0401 6.27928 16.9047 6.09718 16.746C5.91408 16.5885 5.76907 16.3995 5.68848 16.2211C5.60766 16.0432 5.59204 15.8984 5.63886 15.8155C5.71675 15.6796 5.79033 15.5508 5.868 15.424C5.86996 15.4153 5.87208 15.4066 5.87442 15.3982C5.89255 15.3349 5.883 15.251 5.87527 15.1654C5.87352 15.1457 5.87173 15.126 5.86989 15.107Z" fill="#332824"/>
<path d="M12.0847 17.6005C12.0779 17.4258 12.2742 17.2692 12.3814 17.1876C12.3833 17.1861 12.3852 17.1846 12.3871 17.1831C12.4123 17.1639 12.4333 17.1427 12.4581 17.1175C12.5153 17.0599 12.5948 16.9792 12.804 16.8626C12.8479 16.8115 12.8912 16.7632 12.9367 16.715C12.9514 16.6996 12.9662 16.6841 12.9812 16.6686C13.6157 16.0092 14.3844 15.696 15.0138 15.4744C15.0212 15.4697 15.0287 15.4649 15.0363 15.46C15.1833 15.3658 15.3607 15.253 15.4945 15.2282C15.6648 15.1966 15.7867 15.1863 15.8862 15.1803C16.1342 15.0952 16.3751 15.008 16.6134 14.9088C16.9036 14.7796 17.1977 14.6698 17.4775 14.5706C17.65 14.509 17.8176 14.451 17.9628 14.3925C18.0188 14.3699 18.0715 14.3474 18.118 14.3254C18.3213 14.2342 18.5131 14.2057 18.6757 14.1977C18.8396 14.1692 18.9788 14.1572 19.1016 14.151C19.274 14.143 19.4141 14.1482 19.5208 14.1703C19.7793 14.2244 20.0054 14.371 20.1607 14.4797C20.1862 14.4974 20.2099 14.5143 20.2319 14.5297C20.3711 14.5796 20.5064 14.6305 20.6383 14.6812C20.642 14.6941 20.6456 14.7073 20.6491 14.7209C20.6925 14.8871 20.8165 14.9557 21.0007 15.0544C21.0116 15.0604 21.0147 15.0622 21.0178 15.0639C21.1036 15.1111 21.2026 15.1661 21.3129 15.2408C21.3844 15.2892 21.3963 15.3551 21.4063 15.4092C21.4093 15.4251 21.412 15.4399 21.416 15.4529C21.4296 15.4976 21.4779 15.4865 21.5351 15.4735C21.6098 15.457 21.699 15.437 21.7454 15.5313C21.8917 15.8309 22.0582 15.7908 22.1876 15.7618C22.2253 15.7533 22.2594 15.7456 22.2881 15.7474C22.382 15.754 22.4583 15.8543 22.5003 15.9528C22.534 16.0309 22.6781 16.0675 22.8001 16.0753C22.847 16.0786 22.8926 16.1078 22.9469 16.143C23.0032 16.1795 23.0678 16.2218 23.1504 16.2463C23.3597 16.3088 23.4705 16.3471 23.5579 16.3767C23.5833 16.3855 23.6067 16.3938 23.6301 16.4017C23.7039 16.4266 23.7918 16.4664 23.8788 16.5059C23.9846 16.5543 24.0918 16.6043 24.18 16.6324C24.3132 16.7582 24.4399 16.8868 24.5723 17.0256L24.5053 16.9779C24.5211 16.9981 24.5643 17.0348 24.6069 17.0722C24.7105 17.1627 24.747 17.3232 24.7107 17.5205C24.6742 17.718 24.5713 17.9369 24.4274 18.1366C24.283 18.336 24.1076 18.5021 23.9407 18.6071C23.7731 18.7114 23.6311 18.7472 23.5426 18.7133C23.5044 18.6981 23.4655 18.6838 23.405 18.654C23.3952 18.6442 23.3577 18.6244 23.3486 18.6139C23.2009 18.5388 23.0446 18.4605 22.8908 18.3799C22.6541 18.2561 22.4194 18.1244 22.1991 17.9751C22.0443 17.8701 21.8919 17.7618 21.741 17.6509C21.7256 17.6395 21.7102 17.6281 21.6947 17.6166C21.53 17.5819 21.3678 17.5439 21.2649 17.5023C21.1789 17.4673 21.1406 17.4053 21.1067 17.3517C21.0837 17.3151 21.0632 17.2825 21.0318 17.2664C21.0149 17.2576 20.9912 17.2475 20.9626 17.2352C20.8449 17.1846 20.6462 17.1008 20.5077 16.9511C20.4465 16.8846 20.3852 16.7892 20.3262 16.6984C20.2794 16.6267 20.2346 16.5582 20.1918 16.5084C20.1635 16.4721 20.129 16.4436 20.0983 16.4371C19.9779 16.4114 19.8785 16.3227 19.7912 16.2462C19.7081 16.1732 19.6359 16.1115 19.5714 16.125C19.4943 16.1413 19.4572 16.1008 19.4013 16.0418C19.3627 16.0011 19.3146 15.9514 19.2411 15.9095C19.1566 15.8615 19.1079 15.807 19.0657 15.7615C19.0077 15.6982 18.9585 15.6511 18.8741 15.6899C18.7805 15.7331 18.7233 15.7704 18.7087 15.7515C18.7008 15.7426 18.6981 15.746 18.7089 15.746C18.7156 15.7459 18.7278 15.744 18.7419 15.7362C18.7001 15.753 18.6588 15.7653 18.6177 15.7697C18.5522 15.7766 18.4886 15.7505 18.4334 15.7271C18.416 15.7198 18.3998 15.7127 18.3843 15.7069C18.342 15.7244 18.3004 15.7417 18.2601 15.7593C18.2562 15.7691 18.2525 15.7798 18.2486 15.7908C18.2285 15.8463 18.2049 15.914 18.1627 15.9606C18.0959 16.0342 18.0159 16.0395 17.9315 16.0464C17.8659 16.0518 17.7975 16.0583 17.7355 16.0983C17.6933 16.1255 17.652 16.1686 17.6125 16.2119C17.5617 16.2673 17.514 16.3228 17.4654 16.3454C17.4561 16.35 17.4468 16.3536 17.4375 16.3562C17.4122 16.3634 17.3782 16.3486 17.3446 16.3337C17.3444 16.3336 17.3443 16.3335 17.3441 16.3334C17.3418 16.3323 17.3396 16.3314 17.3373 16.3304C17.2074 16.4332 17.0788 16.536 16.9492 16.6395C16.9409 16.653 16.932 16.6668 16.9232 16.6803C16.8803 16.7463 16.8396 16.8096 16.8254 16.8753C16.8105 16.9461 16.7216 17.0315 16.6278 17.1209C16.5671 17.1791 16.5044 17.239 16.4586 17.2985C16.4321 17.3331 16.3848 17.3236 16.3354 17.3141C16.2894 17.3052 16.2433 17.2956 16.2113 17.3216C16.1955 17.3345 16.1827 17.3561 16.1693 17.379C16.1578 17.399 16.1447 17.4208 16.1291 17.4382C16.1144 17.4545 16.0665 17.4616 16.0051 17.4711C15.9675 17.4768 15.9245 17.4836 15.8817 17.4934C15.7936 17.5649 15.7084 17.635 15.6265 17.7037C15.6214 17.7382 15.6232 17.7782 15.6339 17.8245C15.6416 17.8577 15.6541 17.8955 15.6669 17.934C15.6845 17.9864 15.7027 18.0405 15.7115 18.0873C15.7183 18.1238 15.7126 18.1437 15.6962 18.1369C15.6886 18.1337 15.6788 18.1249 15.6699 18.117C15.6597 18.1079 15.6505 18.0999 15.6472 18.1024C15.6447 18.1042 15.647 18.1138 15.6498 18.1254C15.6541 18.1438 15.6598 18.1677 15.6502 18.1748C15.6146 18.2011 15.5693 18.2219 15.5264 18.2421C15.4787 18.2645 15.4339 18.2866 15.4071 18.3147C15.3771 18.3462 15.3093 18.3541 15.2424 18.3641C15.1958 18.371 15.1495 18.3789 15.1173 18.3942C15.0856 18.4093 15.0728 18.4469 15.0619 18.483C15.0488 18.5264 15.0385 18.5673 14.9948 18.5691C14.9903 18.5693 14.9798 18.5643 14.9652 18.5561C14.9494 18.5496 14.9296 18.5401 14.9077 18.5296C14.8762 18.5146 14.8402 18.4975 14.8051 18.4837C14.7633 18.5279 14.7214 18.5702 14.6778 18.613C14.68 18.618 14.6823 18.6231 14.6847 18.6283C14.6848 18.6284 14.6848 18.6285 14.6849 18.6286C14.7391 18.7451 14.812 18.9059 14.679 18.9077C14.6444 18.9091 14.6005 18.8896 14.561 18.8722C14.5222 18.8551 14.4874 18.8398 14.4703 18.8475C14.4508 18.8563 14.4542 18.8896 14.4569 18.9269C14.461 18.9792 14.4676 19.0354 14.4119 19.0393C14.4081 19.0395 14.4039 19.0398 14.3997 19.0402C14.3594 19.0438 14.3014 19.0473 14.2107 19.0251C14.1129 19.1046 14.013 19.1836 13.9156 19.2598C13.7536 19.3865 13.5921 19.5136 13.4622 19.6224C13.3993 19.6744 13.2762 19.6673 13.0991 19.623C12.9228 19.5767 12.6937 19.5206 12.4506 19.5339C12.2058 19.5439 11.9857 19.3559 11.8728 19.1528C11.7568 18.948 11.7381 18.7433 11.7928 18.6032C11.8842 18.3727 11.974 18.1783 12.0704 17.9883C12.0734 17.9763 12.0759 17.965 12.0789 17.9539C12.1015 17.8698 12.0943 17.77 12.0887 17.6691C12.0871 17.6463 12.0857 17.6234 12.0847 17.6005Z" fill="#332824"/>
<path d="M19.6953 10.1288C19.8872 10.335 19.8443 10.6253 19.8132 10.7486C19.8127 10.751 19.8122 10.7534 19.8117 10.7558C19.8046 10.7867 19.8028 10.8148 19.8006 10.8471C19.7958 10.9128 19.7892 10.9981 19.7216 11.137C19.7068 11.2258 19.6849 11.329 19.6456 11.4516C19.598 11.7102 19.4477 12.0516 19.2448 12.2877C19.2028 12.3383 19.1607 12.3834 19.1247 12.4194C18.824 12.734 18.3298 12.9567 17.9346 12.9894C17.5336 13.0297 17.233 12.9548 16.996 12.867C16.519 12.6605 16.2674 12.4971 15.8831 11.9493C15.6084 11.5061 15.6502 11.3962 15.6187 11.2678C15.6042 11.1513 15.6058 11.0769 15.6085 11.0095C15.6155 10.8781 15.6334 10.7857 15.6523 10.6995C15.6514 10.6922 15.6505 10.6848 15.6495 10.6777C15.6319 10.5363 15.6157 10.3894 15.6692 10.3022C15.6905 10.2675 15.7113 10.2372 15.7315 10.2098C15.7769 10.0963 15.8253 10.0063 15.8718 9.92969C15.9407 9.68327 16.0938 9.37974 16.1778 9.28548C16.3081 8.94088 16.878 8.47715 17.3301 8.4906C17.7706 8.47658 18.0185 8.60844 18.2571 8.759C18.2575 8.75928 18.258 8.75956 18.2584 8.75984C18.6113 9.00489 18.6568 9.19532 18.7221 9.32021C18.7771 9.45046 18.802 9.54434 18.8254 9.63151C18.8661 9.78919 18.8903 9.91618 18.9154 10.0379C18.9558 10.1049 18.9998 10.1662 19.0398 10.2224C19.0961 10.3014 19.1445 10.3703 19.1627 10.4276C19.1676 10.4428 19.1714 10.4585 19.1742 10.4739C19.2007 10.6485 19.152 10.8386 19.1039 10.9841C19.0951 11.011 19.0865 11.0363 19.0785 11.0601C19.0812 11.2001 19.0838 11.3377 19.0399 11.5476C19.024 11.5581 19.0074 11.5682 18.99 11.5791C18.9653 11.5946 18.9417 11.612 18.9184 11.6316C18.7955 11.8101 18.558 12.0743 18.2888 12.1874C18.0243 12.3037 17.8312 12.3081 17.6996 12.314C17.5901 12.3163 17.5102 12.3104 17.4542 12.3009C17.345 12.2934 17.233 12.2675 17.1352 12.2286C16.7626 12.0564 16.7809 11.9066 16.757 11.8197C16.7532 11.7924 16.752 11.7687 16.7492 11.7468C16.741 11.6733 16.6772 11.6539 16.6036 11.6285C16.5094 11.5976 16.4011 11.556 16.4313 11.4509C16.4546 11.3725 16.468 11.32 16.4699 11.2808C16.4479 11.0786 16.33 11.0198 16.2269 10.9545C16.1882 10.9304 16.1536 10.9076 16.1327 10.882C16.0644 10.7976 16.1086 10.6658 16.1813 10.5808C16.2379 10.5121 16.1805 10.3882 16.1115 10.2934C16.0852 10.2577 16.0876 10.2113 16.0911 10.1625C16.0921 10.1478 16.0932 10.1329 16.0936 10.1184C16.106 9.97404 16.1347 9.73691 16.3051 9.46114C16.4608 9.21252 16.6679 9.07367 16.7891 9.00154C17.1723 8.7662 17.6551 8.79581 17.917 8.88871C18.0242 8.9232 18.1149 8.9648 18.1976 9.01016C18.4027 9.12323 18.5809 9.28561 18.719 9.48416C18.7775 9.57347 18.8162 9.64875 18.848 9.71726C18.9674 9.98622 19.0046 10.1715 19.0244 10.3991C19.0296 10.4944 19.0283 10.5746 19.0262 10.6429C18.8504 11.2564 18.6488 11.3556 18.5102 11.5081C18.4911 11.5254 18.4667 11.5371 18.4374 11.5434C18.4248 11.5996 18.2782 11.7042 18.2537 11.7563C18.1097 11.8745 17.7149 12.0559 17.4121 12.0175C17.2738 12.0039 17.2049 11.968 17.2527 11.9454C17.2908 11.9209 17.4993 11.8975 17.6942 11.7719C17.8504 11.668 17.8777 11.5922 17.8903 11.5448C17.8891 11.3651 17.7333 11.438 17.3643 11.4269C17.1627 11.4146 17.0211 11.2686 17.0272 11.1823C17.0214 11.0909 17.0733 11.0303 17.1226 10.9732C17.2121 10.8814 17.3998 10.6947 17.1209 10.5762C16.8961 10.5096 16.7522 10.5209 16.7695 10.333C16.7833 10.2839 16.8096 10.2124 16.942 10.1201C17.1067 10.0084 17.2901 9.98221 17.3377 9.95825C17.3931 9.93555 17.3554 9.90364 17.2599 9.88716C17.0479 9.84549 16.7528 9.97093 16.6583 10.0395L16.5053 10.2168C16.4966 10.1932 16.4931 10.174 16.4951 10.1598C16.5147 10.0697 16.477 9.90737 16.3679 10.2241C16.3618 10.2497 16.3563 10.2793 16.3526 10.313C16.345 10.4725 16.3018 10.5183 16.4511 10.8305C16.5292 10.9751 16.6386 11.1196 16.8722 11.2441C17.0983 11.3731 17.4838 11.3981 17.7186 11.3076C17.7567 11.2949 17.7919 11.2807 17.8242 11.2659C17.9418 11.2161 18.1684 11.0655 18.3048 10.847C18.4436 10.6308 18.473 10.4398 18.4811 10.3338C18.4739 10.3766 18.4671 10.4073 18.4603 10.4347C18.4586 10.4415 18.4569 10.4479 18.4552 10.454C18.5284 10.5087 18.5994 10.5267 18.6234 10.5223C18.6433 10.5191 18.6021 10.5147 18.5665 10.5133C18.542 10.5117 18.52 10.5104 18.5205 10.5005C18.5207 10.4951 18.5229 10.4865 18.5243 10.4739C18.5249 10.4682 18.5253 10.4617 18.5253 10.4543C18.5583 10.5021 18.6565 10.5671 18.426 10.3679C18.3381 10.3075 18.0687 10.072 17.5865 10.0845C17.6023 10.0986 17.616 10.1127 17.6276 10.1266C17.7072 10.2207 17.6792 10.2912 17.5804 10.2832C17.5197 10.2778 17.4018 10.2964 17.2505 10.4001C17.0978 10.5005 16.9688 10.696 16.9339 10.827C16.933 10.8471 16.9371 10.8584 16.9421 10.8661C16.9664 10.8963 17.0015 10.8695 16.9523 10.8513C16.8944 10.8275 16.9207 10.8183 16.9593 10.795C16.9861 10.779 17.0186 10.7559 17.0314 10.72C17.046 10.6789 17.087 10.6465 17.1213 10.6166C17.1215 10.6164 17.1217 10.6163 17.1219 10.6161C17.1685 10.5558 17.2027 10.5096 17.1274 10.4549C17.0434 10.3941 16.9868 10.3354 17.0049 10.285C17.0131 10.2619 17.0069 10.2382 17.0003 10.2157C16.9916 10.1857 16.9823 10.1586 17.005 10.1317C17.0238 10.1096 17.0782 10.0838 17.1259 10.0603C17.1408 10.0529 17.155 10.0459 17.1674 10.0396C17.1641 10.0315 17.1611 10.0278 17.1615 10.033C17.1531 10.0376 17.1439 10.0431 17.1348 10.0493C17.0912 10.0815 17.0331 10.1316 17.0716 10.2344C17.0945 10.29 17.1481 10.3584 17.2466 10.4204C17.2679 10.4363 17.2978 10.4259 17.3282 10.4125C17.3656 10.3964 17.3981 10.3779 17.4597 10.3922C17.5018 10.4012 17.571 10.4248 17.6706 10.4188C17.8195 10.4154 17.9992 10.3113 18.0337 10.2218C18.0488 10.1885 18.0323 10.1449 18.0109 10.108C18.0108 10.1078 18.0106 10.1076 18.0105 10.1074C18.009 10.1049 18.0076 10.1024 18.0061 10.1C18.0227 10.0802 18.0362 10.0623 18.0477 10.0465C18.0335 10.1452 18.0576 10.1612 18.0804 10.1821C18.0894 10.1856 18.0983 10.1889 18.1071 10.192C18.1503 10.2069 18.1933 10.2178 18.2551 10.2275C18.3123 10.2366 18.349 10.2416 18.3843 10.2523C18.3903 10.2636 18.3961 10.275 18.4021 10.2864C18.4285 10.3372 18.4559 10.3878 18.4932 10.4275C18.5149 10.4507 18.4764 10.4715 18.4368 10.4929C18.3999 10.5127 18.362 10.5331 18.3715 10.5543C18.3762 10.565 18.3922 10.5761 18.4093 10.5875C18.4244 10.5976 18.4403 10.6078 18.4502 10.6181C18.4594 10.6275 18.439 10.6495 18.4134 10.6733C18.3975 10.6879 18.3798 10.7033 18.3653 10.715C18.378 10.7275 18.3913 10.734 18.3994 10.7119C18.3995 10.6805 18.4368 10.666 18.3291 10.4104C18.3194 10.3634 18.2999 10.3012 18.2723 10.2353C18.2806 10.203 18.2933 10.1707 18.3108 10.1374C18.3316 10.0992 18.3593 10.0575 18.3866 10.0142C18.4242 9.95579 18.461 9.89364 18.482 9.83644C18.4983 9.79169 18.493 9.76285 18.4706 9.76656C18.4601 9.76819 18.4459 9.77653 18.4333 9.78422C18.4187 9.793 18.406 9.80109 18.4026 9.79756C18.4002 9.79498 18.405 9.7839 18.4106 9.77036C18.4197 9.74884 18.4305 9.7203 18.4204 9.71082C18.3823 9.67511 18.336 9.65422 18.2898 9.63738C18.2385 9.61861 18.186 9.60396 18.1419 9.57702C18.0926 9.54703 17.9911 9.55593 17.8587 9.57937C17.7667 9.59564 17.658 9.6205 17.5504 9.64347C17.4463 9.66541 17.3149 9.66857 17.1749 9.69964C17.0079 9.73484 16.8375 9.81511 16.762 9.93253C16.7474 9.95496 16.7528 10.0082 16.7666 10.0718C16.7672 10.0745 16.7678 10.0773 16.7684 10.0801C16.7788 10.1281 16.788 10.1868 16.7927 10.2488C16.6601 10.4017 16.5608 10.6365 16.5368 10.7905C16.5294 10.7948 16.5221 10.7991 16.5146 10.8036C16.5144 10.8037 16.5142 10.8037 16.5141 10.8038C16.4472 10.8433 16.3738 10.8915 16.3187 10.9466C16.2399 10.9254 16.1956 10.9058 16.2691 10.8871C16.3 10.8793 16.3566 10.8752 16.4076 10.8712C16.4576 10.8673 16.5024 10.8635 16.5119 10.857C16.5226 10.8496 16.492 10.8405 16.4587 10.832C16.4118 10.8199 16.3593 10.81 16.4078 10.7992C16.4111 10.7984 16.4147 10.7976 16.4183 10.7967C16.4527 10.7886 16.5036 10.7778 16.606 10.7632C16.629 10.7444 16.649 10.7326 16.6954 10.7972C16.6994 10.792 16.7057 10.795 16.7154 10.8073C16.7377 10.8332 16.7534 10.8842 16.8679 11.0429C16.9285 11.1208 17.0226 11.2414 17.2212 11.3637C17.4145 11.4888 17.7301 11.559 17.9481 11.5294C18.0005 11.4849 18.0642 11.4252 18.1142 11.3492C18.154 11.2912 18.1213 11.1312 17.9715 10.9596C17.825 10.7837 17.574 10.6291 17.3004 10.5085C17.0272 10.3868 16.8152 10.1505 16.7501 9.88343C16.6818 9.61833 16.7742 9.35328 16.961 9.21644C17.2042 9.03571 17.4814 8.92018 17.7448 8.85985C17.987 8.83203 18.3129 8.88472 18.5565 9.01017C18.8036 9.13331 18.9578 9.28617 19.0575 9.40074C19.1153 9.46222 19.1594 9.51717 19.1956 9.56541C19.41 9.86781 19.4755 9.94981 19.5731 10.0054C19.5884 10.0208 19.6035 10.0362 19.6182 10.0511C19.6449 10.0778 19.6707 10.1036 19.6953 10.1288Z" fill="#332824"/>
<path d="M16.0906 23.2698C16.3378 23.1422 16.8089 23.1644 17.058 23.1701C17.0626 23.1702 17.0672 23.1703 17.0718 23.1703C17.131 23.1719 17.1868 23.1688 17.2509 23.1648C17.3736 23.1567 17.5335 23.1474 17.7982 23.1504C17.8626 23.1509 17.9333 23.1517 18.013 23.1524C18.1282 23.1295 18.2441 23.1048 18.3623 23.0788C19.1404 22.909 20.2015 22.5806 21.3054 22.5381C21.842 22.5166 22.385 22.4918 22.9297 22.4647C22.948 22.4618 22.9671 22.4587 22.9861 22.4556C23.353 22.3963 23.8086 22.3194 24.1028 22.3212C24.467 22.3234 24.7192 22.3366 24.9286 22.3498C24.9347 22.3501 24.9408 22.3505 24.9468 22.3508C25.4119 22.3186 26.0237 22.2959 26.2855 22.2633C26.2301 22.2762 26.0814 22.3533 26.0214 22.4201C25.9555 22.4867 25.9387 22.5267 25.9315 22.5433C25.9209 22.5761 25.944 22.5413 25.9605 22.499C25.9973 22.408 26.0336 22.2692 26.0637 22.1259C26.1241 21.8381 26.1672 21.5207 26.201 21.1998C26.2051 21.1607 26.2092 21.1205 26.2131 21.0794C26.2476 20.7198 26.2702 20.3526 26.2837 19.9842C26.296 19.6445 26.3016 19.3055 26.3018 18.9646C26.2807 18.7654 26.2539 18.5771 26.2285 18.4013C26.1929 18.1554 26.1602 17.9362 26.1501 17.7556C26.1259 17.3204 26.1684 16.8274 26.1973 16.4604C26.2021 16.4004 26.2065 16.3441 26.2103 16.2918C26.1916 16.0013 26.1701 15.7107 26.1464 15.4213C26.1557 15.4021 26.1653 15.3819 26.1751 15.3618C26.2943 15.12 26.2895 14.823 26.2684 14.3735C26.2678 14.3593 26.2671 14.3449 26.2664 14.3305C26.2562 14.1244 26.2431 13.8849 26.2336 13.6038C26.2275 13.4239 26.2709 13.3271 26.3064 13.248C26.3168 13.2248 26.3266 13.2041 26.334 13.1815C26.3595 13.1055 26.3187 13.0326 26.27 12.947C26.2066 12.8349 26.1303 12.7046 26.1653 12.5163C26.2751 11.9156 26.0992 11.683 25.9716 11.5215C25.9336 11.4734 25.899 11.4307 25.8745 11.3847C25.8326 11.3059 25.8091 11.2048 25.7958 11.0928C25.7825 10.9859 25.7804 10.8753 25.7857 10.7778C25.7943 10.615 25.6744 10.3236 25.5623 10.1046C25.5198 10.0219 25.4922 9.90279 25.4609 9.76204C25.4286 9.61631 25.3924 9.44716 25.3311 9.26964C25.1766 8.82038 25.1063 8.57343 25.0501 8.37516C25.0342 8.31849 25.0198 8.26548 25.0054 8.21252C24.9975 8.1837 24.9897 8.15363 24.9819 8.12255C24.9814 8.19613 25.0287 8.42117 25.2282 8.59938C25.4266 8.77261 25.5906 8.78642 25.6356 8.79822C25.7546 8.81066 25.5371 8.86406 25.4324 8.9412C25.0696 9.03919 24.6611 9.21214 24.1402 9.41422C24.0884 9.4337 24.0312 9.45195 23.9593 9.47021C23.8741 9.48793 23.8415 9.51006 23.5635 9.53715C23.5402 9.54193 23.4694 9.54119 23.4458 9.54324C23.2264 9.50027 23.1465 9.42688 23.0904 9.35235C23.0705 9.32285 23.021 9.29014 22.9656 9.2511C22.5939 9.01188 22.6231 8.69033 22.7462 8.4889C22.8697 8.27786 23.0824 8.11277 23.1147 7.92312C23.1285 7.89194 23.1498 7.86287 23.1976 7.83811C23.3176 7.77481 23.4401 7.732 23.4578 7.69242L23.3603 7.69747C23.2047 7.70752 23.253 7.69475 23.2564 7.67928C23.271 7.66354 23.2996 7.64418 23.3306 7.62622C23.7202 7.40364 24.1812 7.1055 24.7527 6.87035C24.9726 6.78626 25.1959 6.69442 25.5783 6.66285C25.7732 6.65669 26.0453 6.63983 26.4249 6.84912C26.8242 7.06132 27.0523 7.56377 27.0752 7.83433C27.1139 8.0607 27.1547 8.28819 27.1958 8.51726C27.2679 8.91885 27.3476 9.32407 27.4314 9.7325C27.44 9.77461 27.4486 9.81664 27.4574 9.85883C27.5677 10.1177 27.6783 10.3763 27.7602 10.5901C27.783 10.6508 27.8039 10.7107 27.822 10.7674C27.893 10.9902 27.8963 11.1689 27.8963 11.3161C27.8963 11.4182 27.895 11.5078 27.9122 11.5943C27.9215 11.6414 27.9356 11.7042 27.9518 11.7804C28.0192 12.0909 28.1125 12.6154 28.0903 13.0904C28.0811 13.3016 28.0459 13.5464 28.0095 13.7782C27.9796 13.9715 27.9488 14.1505 27.9333 14.3023C27.9218 14.4094 27.9185 14.5039 27.9294 14.5664C27.9749 14.833 27.9533 15.1402 27.9323 15.4107C27.9124 15.6695 27.8934 15.893 27.9362 16.0209C27.9874 16.1727 27.9687 16.3034 27.9405 16.4972C27.9209 16.6313 27.8967 16.796 27.8869 17.0197C27.8755 17.2777 27.8404 17.4601 27.8103 17.615C27.7679 17.833 27.7356 17.9967 27.7897 18.2419C27.8499 18.5141 27.8853 18.7998 27.8604 19.0237C27.8492 19.1248 27.8487 19.243 27.8479 19.3637C27.8468 19.5257 27.845 19.6946 27.8171 19.8489C27.7942 19.9757 27.7424 20.0803 27.6964 20.1711C27.682 20.1991 27.6683 20.2271 27.656 20.2539C27.6525 20.3556 27.649 20.4577 27.6456 20.559C27.6526 20.5758 27.6603 20.5926 27.6682 20.6118C27.7079 20.7059 27.7565 20.8207 27.7755 20.9606C27.792 21.0858 27.7869 21.2015 27.7714 21.3124C27.7587 21.4049 27.7396 21.4919 27.7192 21.583C27.6833 21.743 27.6444 21.9087 27.6288 22.106C27.6179 22.2416 27.6162 22.398 27.6058 22.5634C27.5867 22.8107 27.5678 23.0696 27.3991 23.3511C27.3339 23.4545 27.2274 23.5598 27.0686 23.6501C27.0678 23.6504 27.0671 23.6508 27.0663 23.6512C27.0552 23.6575 27.044 23.6636 27.0328 23.6693C26.934 23.7474 26.7962 23.8074 26.7085 23.8314C26.2705 23.9615 25.9896 23.9943 25.6704 24.0669C25.6407 24.0787 25.6125 24.0902 25.5827 24.1017C25.4414 24.1578 25.3029 24.2131 25.2176 24.2763C25.213 24.2797 25.2079 24.2831 25.2024 24.2865C25.0997 24.3516 24.8577 24.4168 24.6039 24.4846C24.4291 24.5314 24.2476 24.5795 24.1007 24.6303C24.0149 24.66 23.9273 24.6406 23.8363 24.6205C23.7524 24.6017 23.6656 24.5824 23.5761 24.6019C23.5317 24.6116 23.4838 24.6308 23.4338 24.6512C23.3895 24.6692 23.3423 24.6883 23.2925 24.7027C23.2459 24.716 23.1383 24.7129 23.0004 24.7086C22.9151 24.7059 22.8183 24.7029 22.7168 24.7028C22.4553 24.7543 22.1926 24.8038 21.9287 24.8502C21.8761 24.8834 21.8318 24.9237 21.7984 24.9729C21.7744 25.0082 21.7552 25.0494 21.7353 25.0914C21.7084 25.1487 21.6801 25.2079 21.6379 25.2571C21.6228 25.2747 21.6058 25.288 21.589 25.2962C21.5728 25.3056 21.5569 25.3078 21.5434 25.3014C21.5318 25.2959 21.5221 25.2842 21.5132 25.2736C21.5031 25.2615 21.494 25.2508 21.4847 25.2522C21.478 25.2532 21.4718 25.2634 21.4644 25.2756C21.4525 25.2952 21.4372 25.3205 21.4101 25.3248C21.3085 25.341 21.1924 25.3509 21.0775 25.3638C20.9496 25.3781 20.8229 25.3962 20.7231 25.4256C20.6116 25.4583 20.4393 25.4643 20.2561 25.4767C20.1285 25.4852 19.9959 25.4963 19.8818 25.517C19.77 25.5372 19.6579 25.5873 19.5458 25.6359C19.4115 25.6943 19.2764 25.7504 19.1484 25.7494C19.1225 25.7492 19.0832 25.7199 19.0347 25.6828C19.0003 25.6565 18.9604 25.6265 18.9175 25.6C18.7631 25.6341 18.6051 25.664 18.4457 25.6888C18.4409 25.6948 18.4361 25.7009 18.4312 25.7071C18.4312 25.7072 18.4311 25.7074 18.431 25.7075C18.3725 25.7821 18.3002 25.8711 18.2021 25.9283C18.1174 25.9783 18.0141 26.0035 17.8916 25.972C17.8253 25.9548 17.78 25.9136 17.7406 25.8764C17.7016 25.8399 17.667 25.8071 17.6211 25.8039C17.5696 25.8004 17.5114 25.8307 17.4488 25.8633C17.3606 25.9091 17.2618 25.9595 17.1578 25.9274C17.1507 25.9253 17.143 25.9228 17.1351 25.9204C17.0597 25.8977 16.9492 25.8635 16.8384 25.7865C16.523 25.7833 16.2142 25.771 15.9111 25.7567C15.4186 25.7334 14.8785 25.6998 14.5409 25.7117C14.5365 25.7117 14.5323 25.7117 14.5284 25.7116C14.2887 25.7337 14.0428 25.6758 13.8192 25.5391C13.705 25.4675 13.5923 25.381 13.5 25.2648C13.3958 25.1447 13.4235 25.004 13.4915 24.9067C13.5646 24.8099 13.5856 24.6773 13.5384 24.5619C13.506 24.4501 13.5251 24.3471 13.5756 24.244C13.6753 24.0457 13.8715 23.8855 14.0952 23.803C14.1064 23.7994 14.1177 23.7959 14.129 23.7926C14.6872 23.6416 15.0707 23.596 15.4887 23.5303C15.5102 23.5241 15.5316 23.5182 15.5526 23.5126C15.7103 23.4708 15.8532 23.396 15.9937 23.3211C16.0263 23.3038 16.0582 23.2866 16.0906 23.2698Z" fill="#332824"/>
</svg>
