<svg width="32" height="32" viewBox="0 0 32 32" fill="none" xmlns="http://www.w3.org/2000/svg">
<path d="M10.2669 9.10779C10.0825 9.10779 9.77866 9.22216 9.59422 9.37086C9.40977 9.50811 9.11683 9.70256 8.93239 9.79407C8.4984 10.0228 7.93421 10.6062 7.87996 10.8807C7.85826 11.0065 7.77147 11.098 7.70637 11.0866C7.53277 11.0408 7.53277 12.6764 7.70637 12.8595C7.80402 12.9624 7.80402 12.9967 7.70637 12.9967C7.63042 12.9967 7.57617 13.0997 7.57617 13.2369C7.57617 13.3627 7.63042 13.4314 7.68467 13.397C7.74977 13.3513 7.79317 13.8546 7.79317 14.8268C7.79317 15.0339 7.47711 16.8265 7.77147 16.9428C7.90983 16.9959 8.06221 18.7905 8.04271 19.0131C7.98902 19.7037 8.27522 19.756 8.2597 20.3285C8.238 20.6945 8.2814 20.8889 8.37905 20.9233C8.48755 20.969 8.50925 21.1291 8.4767 21.5066C8.41164 22.1067 9.04791 22.5648 9.31213 22.9478C9.60148 23.3672 10.2862 23.5184 10.7009 23.737C10.7985 23.7942 10.9721 23.8743 11.0806 23.9086C11.5603 24.0603 11.7933 23.7484 12.1656 23.7484C12.2415 23.7484 12.4802 23.5426 12.6864 23.2909C12.8925 23.0393 13.1095 22.8334 13.1855 22.8334C13.5118 22.8334 13.1095 22.1079 13.1095 21.7468C13.1095 21.3236 13.1529 21.1177 13.2723 21.0834C13.4893 20.9919 13.4567 18.8301 13.2397 18.8301C13.1204 18.8301 13.1095 18.567 13.1638 17.4461C13.2289 16.4624 13.218 16.0735 13.1312 16.1307C13.0661 16.165 12.9902 16.1536 12.9576 16.0964C12.9142 16.0392 12.9359 15.9592 13.001 15.9134C13.0553 15.8791 13.1095 15.4902 13.1095 15.0441C13.1095 14.4243 13.435 14.3125 13.435 13.7974C13.435 13.4885 13.3916 13.3398 13.2831 13.3398C13.1746 13.3398 13.1421 13.1454 13.1529 12.5392C13.1585 12.2533 13.5575 11.3522 13.2723 11.2353C13.1855 11.2009 13.1095 11.0522 13.1095 10.8921C13.1095 10.7434 13.0336 10.5947 12.9468 10.549C12.86 10.5147 12.784 10.4117 12.784 10.3088C12.784 10.2173 12.7081 10.1372 12.6213 10.1372C12.5345 10.1372 12.2524 10.0114 12.0029 9.85126C11.7425 9.69112 11.4495 9.53099 11.3519 9.48524C11.2434 9.45092 11.1566 9.34798 11.1566 9.26792C11.1566 9.17641 11.0481 9.10779 10.9179 9.10779C10.6661 9.10779 10.6202 9.10779 10.2669 9.10779Z" fill="black"/>
<path d="M18.9681 3.34215C18.931 3.44046 18.7949 3.52648 18.6712 3.52648C18.4361 3.52648 17.7804 4.12863 17.7804 4.34983C17.7804 4.42356 17.7062 4.50958 17.632 4.54645C17.5083 4.58332 17.4711 5.38209 17.4835 7.99959C17.4835 10.7154 17.4588 11.3913 17.3227 11.3913C17.199 11.3913 17.1742 11.7108 17.2113 12.8659C17.2608 14.0948 17.2361 14.3406 17.0876 14.3406C16.9392 14.3406 16.9268 14.5126 16.9887 15.3237C17.0629 16.1839 17.0505 16.3068 16.8649 16.3068C16.6917 16.3068 16.667 16.5157 16.667 18.0272C16.667 19.0963 16.7165 19.7476 16.7907 19.7476C16.8649 19.7476 17.0134 19.9688 17.1247 20.2392C17.2608 20.5464 17.4835 20.7922 17.6815 20.8905C17.8794 20.9642 18.0279 21.0748 18.0279 21.124C18.0279 21.1731 18.1516 21.2223 18.3124 21.2469C18.4609 21.2715 18.5722 21.3575 18.5598 21.4435C18.5351 21.5295 18.6464 21.591 18.8196 21.591C19.0794 21.591 19.797 22.0579 20.032 22.3774C20.0691 22.4389 20.5516 22.4758 21.1083 22.4635C21.9991 22.4389 22.1723 22.3897 22.729 22.0456C23.0878 21.8122 23.3476 21.5664 23.3476 21.4312C23.3476 21.3083 23.3971 21.2346 23.4589 21.2715C23.5208 21.3206 23.5455 21.2346 23.5084 21.0994C23.4713 20.9519 23.5208 20.8291 23.6445 20.7799C23.793 20.7185 23.8424 20.5341 23.8424 19.9443C23.8424 19.5019 23.9043 19.1086 24.0033 19.0226C24.0899 18.912 24.0899 18.8874 24.0156 18.9243C23.793 19.0472 23.7064 18.6785 23.9167 18.5188C24.0404 18.4082 24.0899 18.1132 24.0899 17.5234C24.0899 17.0687 24.1517 16.6509 24.2136 16.614C24.2878 16.5771 24.3373 16.1839 24.3373 15.7415C24.3373 15.2991 24.2878 14.955 24.2136 14.955C24.1517 14.955 24.0899 14.6478 24.0899 14.2669C24.0899 13.849 24.1394 13.6156 24.2136 13.6647C24.2878 13.7139 24.3373 13.4435 24.3373 12.9397C24.3373 12.4235 24.2878 12.1286 24.1888 12.0918C24.0651 12.0549 24.0404 11.6371 24.0528 10.4451C24.0775 9.05643 24.0528 8.82294 23.8796 8.7615C23.7064 8.68776 23.694 8.51572 23.7682 7.32371C23.8301 6.37748 23.8177 5.98424 23.7311 6.04568C23.595 6.11941 23.5455 5.95966 23.5826 5.64015C23.595 5.56642 23.5455 5.49269 23.4713 5.49269C23.4094 5.49269 23.3476 5.38209 23.3476 5.23462C23.3476 5.09945 23.2981 5.02571 23.2239 5.06258C23.162 5.09945 22.9641 5.00114 22.8032 4.82909C22.6424 4.65705 22.4568 4.50958 22.3702 4.50958C22.296 4.50958 22.2341 4.44814 22.2341 4.3867C22.2341 4.31296 22.0362 4.26381 21.8011 4.26381C21.5166 4.26381 21.331 4.19008 21.2815 4.06719C21.2444 3.96888 21.1455 3.90744 21.0465 3.9443C20.9599 3.98117 20.8238 3.91972 20.7496 3.8337C20.663 3.73539 20.5516 3.67395 20.5021 3.71082C20.4403 3.74768 20.3661 3.7231 20.3166 3.64937C20.2795 3.58793 20.131 3.52648 19.9949 3.52648C19.8712 3.52648 19.7599 3.44046 19.7599 3.34215C19.7599 3.21926 19.6361 3.15782 19.4011 3.15782C19.2031 3.15782 19.0176 3.23155 18.9681 3.34215Z" fill="black"/>
<path d="M15.5146 25.2744C15.9966 25.2744 16.1621 25.2887 16.1621 25.332C16.1635 25.3801 16.3106 25.4429 16.5156 25.4717C16.5352 25.4784 16.6174 25.5404 16.7041 25.6113C16.8679 25.7451 16.9857 25.7788 16.9863 25.6885C16.9863 25.6596 17.0214 25.6638 17.0684 25.7021C17.1093 25.7409 17.1445 25.8234 17.1387 25.8857C17.133 25.9672 17.1747 26.0201 17.2686 26.0537C17.3388 26.0779 17.3857 26.1314 17.3682 26.165C17.3337 26.2378 17.4919 26.5111 17.5684 26.5117C17.6498 26.5169 17.6209 27.4669 17.5332 27.4941C17.4921 27.5087 17.457 27.5663 17.457 27.6191C17.4568 27.6713 17.4273 27.7139 17.3926 27.7148C17.3632 27.7148 17.339 27.7537 17.3506 27.8018C17.3653 27.9093 16.5236 28.6223 16.4092 28.5967C16.3681 28.5824 16.2979 28.6014 16.2451 28.6348C16.1981 28.6684 16.0502 28.6922 15.9268 28.6875C15.7504 28.6827 15.6914 28.698 15.6914 28.751C15.6907 28.8032 15.6253 28.8232 15.4561 28.8232C15.2865 28.8232 15.2214 28.8033 15.2207 28.751C15.2207 28.6981 15.1554 28.6788 15.0088 28.6787C14.8795 28.6786 14.6558 28.6153 14.415 28.5049C14.2033 28.4134 14.0499 28.356 14.0732 28.3848C14.0903 28.4132 14.0785 28.4373 14.0381 28.4375C14.0029 28.4374 13.9854 28.3985 14.0029 28.3457C14.026 28.2593 13.9084 28.1687 13.791 28.1924C13.7676 28.1971 13.7502 28.1721 13.7559 28.1387C13.773 28.0373 13.5855 27.6687 13.4854 27.6094C13.3912 27.5516 13.4088 26.5159 13.5088 26.4678C13.561 26.4389 13.5786 26.3813 13.5557 26.3193C13.5321 26.2375 13.5621 26.1837 13.6621 26.1211C13.7554 26.0589 13.7849 26.0004 13.7617 25.9238C13.7383 25.8519 13.75 25.8326 13.8086 25.8613C13.8496 25.8801 13.9033 25.8712 13.9326 25.833C14.003 25.737 13.9967 25.6838 13.915 25.7217C13.8798 25.7409 13.8672 25.7358 13.8848 25.7021C13.9084 25.6781 13.9793 25.6643 14.0439 25.6787C14.1203 25.6929 14.2207 25.6688 14.2969 25.6113C14.3676 25.5584 14.5269 25.4807 14.6504 25.4326C14.7671 25.3896 14.867 25.3367 14.8682 25.3125C14.869 25.2933 15.1623 25.2744 15.5146 25.2744ZM8.47559 25.3154C8.56843 25.3386 8.66013 25.3383 8.68164 25.3184C8.69967 25.3016 8.71967 25.3082 8.74609 25.3398L8.80273 25.418C8.83304 25.4525 8.86693 25.4715 8.89258 25.4707C8.95823 25.4656 9.32139 25.82 9.28809 25.8535C9.27502 25.8661 9.29464 25.9032 9.32812 25.9385C9.36188 25.9739 9.37367 26.0174 9.35547 26.0352C9.33688 26.0527 9.32551 26.1262 9.33301 26.1924C9.36739 26.5092 9.34753 26.5952 9.19824 26.7354C9.09948 26.828 9.04145 26.8573 9.01367 26.8281C8.96333 26.7776 8.78971 26.7954 8.78125 26.8506C8.77747 26.8782 8.76063 26.8816 8.74219 26.8623C8.72247 26.843 8.64434 26.8183 8.56738 26.8057C8.48649 26.7897 8.39313 26.7725 8.36133 26.7656C8.32834 26.7571 8.22504 26.6646 8.12988 26.5596C7.99425 26.412 7.94493 26.3343 7.93164 26.2305C7.92035 26.1553 7.88612 26.0759 7.85352 26.0576C7.82184 26.0392 7.81394 26.01 7.83496 25.9902C7.85608 25.9701 7.85274 25.9301 7.82812 25.9043C7.80109 25.8755 7.79869 25.8408 7.82031 25.832C7.84208 25.8176 7.87267 25.7583 7.88574 25.7031C7.89864 25.6365 7.97693 25.5438 8.10547 25.4414C8.28783 25.2887 8.31703 25.2812 8.47559 25.3154ZM3.3291 23.4922C3.74641 23.5219 3.79194 23.5435 3.94922 23.7412C4.03698 23.8594 4.15129 23.9529 4.20312 23.9551C4.26097 23.9565 4.27349 24.0022 4.24609 24.1113C4.21887 24.2074 4.23717 24.2923 4.28125 24.3262C4.37016 24.3878 4.39004 25.125 4.30664 25.124C4.27482 25.1238 4.25422 25.1823 4.25293 25.2529C4.25158 25.324 4.21195 25.381 4.16699 25.3799C4.12171 25.3792 4.01716 25.4419 3.94531 25.5176C3.59848 25.878 3.46842 25.9463 3.1084 25.9375C2.90059 25.9323 2.79028 25.9097 2.7666 25.8652L2.75195 25.8037C2.70543 25.7043 2.51193 25.5859 2.44336 25.6289C2.40438 25.6538 2.37826 25.6404 2.37891 25.6016C2.3786 25.562 2.31015 25.4564 2.22852 25.3643C2.14677 25.2654 2.05217 25.1531 2.02051 25.1133C1.9893 25.0721 1.97263 24.8711 1.98242 24.665C1.9937 24.3741 2.02829 24.2443 2.13965 24.124C2.21827 24.0352 2.27137 23.9195 2.25293 23.8672C2.23541 23.8157 2.26189 23.7774 2.3125 23.7783C2.36397 23.7796 2.41021 23.7354 2.41113 23.6836C2.41237 23.626 2.45124 23.5885 2.48926 23.6016C2.53409 23.6091 2.64417 23.5792 2.72852 23.5361C2.82604 23.4803 3.04008 23.4657 3.3291 23.4922ZM23.7539 23.0869C23.7757 23.1108 23.8536 23.1362 23.9238 23.1416C24.0082 23.1436 24.1382 23.2227 24.29 23.3613C24.5139 23.5559 24.5287 23.5899 24.5176 23.792C24.5073 23.9099 24.5253 24.0223 24.5537 24.0459C24.5779 24.0647 24.5749 24.0897 24.542 24.1279L24.4551 24.2148C24.4193 24.2582 24.4024 24.3038 24.4082 24.335C24.4272 24.4151 24.0614 24.9327 24.0146 24.8965C23.9963 24.8837 23.9546 24.9148 23.918 24.9629C23.8808 25.0114 23.8289 25.0341 23.8037 25.0146C23.7772 24.9958 23.6865 24.9955 23.6074 25.0176C23.2245 25.122 23.1146 25.115 22.9131 24.959C22.7802 24.8559 22.7314 24.7898 22.7617 24.75C22.8154 24.6789 22.7596 24.4668 22.6895 24.4688C22.6549 24.4694 22.6469 24.4493 22.667 24.4229C22.6871 24.3958 22.7017 24.2943 22.7021 24.1963C22.7059 24.0937 22.7097 23.976 22.7119 23.9355C22.7156 23.8936 22.8082 23.7482 22.9189 23.6104C23.0743 23.414 23.1609 23.3395 23.2861 23.3027C23.3765 23.2742 23.4662 23.2166 23.4824 23.1729C23.4985 23.1299 23.533 23.1145 23.5615 23.1357C23.5904 23.1581 23.64 23.1468 23.667 23.1113C23.697 23.0723 23.7387 23.0625 23.7539 23.0869ZM15.2402 20.9336C15.2581 20.8923 15.4479 20.8856 15.4424 20.9268C15.4403 20.9365 15.4455 20.9436 15.46 20.9473L15.6006 20.9512C15.6153 20.9549 15.623 20.9621 15.623 20.9707C15.6241 21.0057 15.7467 21.0626 15.7773 21.043C15.7882 21.0367 15.7988 21.039 15.7988 21.0498C15.8004 21.062 15.8376 21.1094 15.8828 21.1543C15.9925 21.2677 16.0547 21.3584 16.0723 21.4326C16.0811 21.4648 16.0965 21.4869 16.1074 21.4805C16.1204 21.4722 16.123 21.4959 16.1143 21.5371C16.1055 21.5893 16.1094 21.6117 16.1357 21.627C16.1855 21.654 16.1855 21.7876 16.1377 21.8057C16.1093 21.8166 16.1055 21.8391 16.1143 21.8936C16.1228 21.9474 16.1154 21.9716 16.0938 21.9805C16.0762 21.9871 16.0635 22.0141 16.0635 22.0381C16.0629 22.0644 16.0363 22.1101 16.0059 22.1426C15.9751 22.1754 15.9356 22.228 15.918 22.2607C15.9007 22.295 15.8784 22.3213 15.8672 22.3223C15.8577 22.3229 15.8052 22.3556 15.7529 22.3945C15.7009 22.4354 15.6434 22.4626 15.625 22.457C15.6096 22.4529 15.5881 22.4624 15.5771 22.4775C15.5515 22.5185 15.1022 22.5245 15.0947 22.4863C15.0947 22.4733 15.0704 22.4487 15.04 22.4355C15.0095 22.4204 14.9586 22.396 14.9277 22.3828C14.8599 22.3502 14.6571 22.1364 14.6543 22.0928C14.6543 22.0777 14.6386 22.0576 14.6191 22.0508C14.5953 22.042 14.589 22.0221 14.5977 21.9854C14.6041 21.9556 14.5993 21.9292 14.5869 21.9238C14.5517 21.9129 14.5537 21.557 14.5889 21.5352C14.6062 21.5241 14.6102 21.4951 14.6016 21.4541C14.5884 21.3995 14.5954 21.3821 14.6436 21.3516C14.6759 21.3301 14.6978 21.2971 14.6943 21.2773C14.6855 21.2271 14.8504 21.0866 14.9912 21.0254C15.0237 21.0123 15.0503 20.986 15.0508 20.9707C15.0509 20.9468 15.0708 20.9423 15.1387 20.9531C15.2062 20.9639 15.2314 20.9596 15.2402 20.9336ZM28.8818 19.6514C28.9948 19.4947 29.5438 19.7099 29.5967 19.9258C29.6377 20.1069 29.9265 20.1123 29.9014 19.9365C29.8975 19.8564 29.9084 19.8495 29.9463 19.9023C29.9766 19.9527 29.9728 20.0308 29.9297 20.084C29.8935 20.1401 29.8901 20.2871 29.9453 20.4053C29.9931 20.5209 30.0085 20.6842 29.9805 20.7627C29.9525 20.8413 29.9464 20.9474 29.9668 21.0039C29.9838 21.0699 29.9559 21.2864 29.9131 21.4971C29.8402 21.8144 29.7997 21.8797 29.7139 21.8496C29.6706 21.8342 29.6186 21.8547 29.585 21.8955L29.5146 22.0205C29.3787 22.2028 29.0207 22.3698 28.7783 22.3525C28.6742 22.3376 28.5768 22.3528 28.5283 22.3799L28.4727 22.4355C28.4357 22.4542 28.3654 22.4515 28.29 22.4248C28.1897 22.389 28.1258 22.3172 28.1406 22.2734C28.1593 22.2212 28.0928 22.158 28.0068 22.127C27.8268 22.0627 27.7219 21.8078 27.7393 21.5088C27.7385 21.4205 27.7127 21.3325 27.6699 21.3164C27.6432 21.3064 27.6312 21.2522 27.6416 21.1855L27.6787 21.0469C27.6911 20.9812 27.6829 20.9285 27.6514 20.916C27.5433 20.8774 27.7028 20.5202 27.8867 20.3691C27.9785 20.2936 28.082 20.1634 28.1133 20.0762C28.1414 19.9975 28.2468 19.9069 28.3447 19.8828C28.4424 19.8586 28.5413 19.7855 28.5664 19.7158C28.5945 19.6372 28.6476 19.6264 28.7031 19.6758C28.7483 19.7303 28.8283 19.7105 28.8818 19.6514ZM6.28223 20.9102C6.3455 20.8419 6.59561 20.9756 6.60938 21.082C6.61909 21.1711 6.75699 21.1901 6.75488 21.1045C6.75754 21.0659 6.76317 21.0635 6.77832 21.0908C6.7898 21.1165 6.78406 21.1537 6.76074 21.1768C6.74021 21.2016 6.73014 21.2722 6.75 21.332C6.76636 21.3902 6.76393 21.4698 6.74609 21.5059C6.7284 21.542 6.71998 21.593 6.72656 21.6211C6.73058 21.6544 6.70504 21.7564 6.67285 21.8545C6.62033 22.0018 6.59676 22.0314 6.55762 22.0127C6.53118 21.9996 6.4945 22.0159 6.47852 22.0479C6.43075 22.1441 6.21197 22.226 6.08008 22.2012C6.01471 22.1839 5.95247 22.1929 5.94238 22.2129C5.93238 22.2328 5.88784 22.2306 5.8418 22.208C5.79559 22.1851 5.76952 22.1471 5.7793 22.127C5.79082 22.103 5.7619 22.0685 5.72266 22.0488C5.64006 22.0079 5.60398 21.8805 5.62891 21.7383C5.6335 21.6961 5.6258 21.6521 5.60645 21.6416C5.59016 21.6331 5.5916 21.5888 5.61328 21.5449C5.63485 21.5013 5.63905 21.4588 5.62012 21.4482C5.57045 21.4237 5.66697 21.2615 5.76367 21.1992C5.8118 21.1682 5.8686 21.1114 5.88867 21.0713C5.90653 21.0352 5.96245 20.9974 6.01074 20.9912C6.05881 20.985 6.11095 20.9557 6.12695 20.9238C6.14481 20.8878 6.17053 20.8855 6.19434 20.9121C6.21306 20.9406 6.25327 20.9356 6.28223 20.9102ZM26.8857 17.2764C26.9171 17.2906 26.9328 17.3193 26.917 17.3438C26.9068 17.3686 26.9391 17.4219 27.0029 17.457C27.061 17.4922 27.1089 17.5483 27.1094 17.5801C27.1096 17.6118 27.1316 17.6514 27.1582 17.6689C27.1847 17.6912 27.2172 17.7722 27.2383 17.8525C27.2647 17.9754 27.2529 18.0047 27.1895 18.0049C27.1469 18.005 27.1095 18.0295 27.1094 18.0576C27.1086 18.1423 26.8798 18.2761 26.6934 18.3047C26.598 18.3152 26.5237 18.3436 26.5225 18.3613C26.5215 18.3787 26.4625 18.3935 26.3887 18.3936C26.3149 18.3936 26.2564 18.3758 26.2549 18.3584C26.2549 18.3373 26.1957 18.3233 26.1318 18.3232C25.9987 18.3231 25.8704 18.2448 25.8115 18.1357C25.7903 18.1041 25.7526 18.0756 25.7207 18.0752C25.7008 18.0752 25.6798 18.0572 25.6709 18.0322L25.6631 17.9775C25.6558 17.9522 25.6379 17.9341 25.6143 17.9336C25.5342 17.9336 25.5553 17.7858 25.6406 17.708C25.6831 17.6693 25.7204 17.6086 25.7207 17.5732C25.7209 17.5415 25.7687 17.4958 25.8271 17.4746C25.8854 17.4535 25.9341 17.4139 25.9346 17.3857C25.9348 17.3542 25.9667 17.3439 26.0146 17.3545C26.0572 17.3681 26.1057 17.3503 26.127 17.3223C26.1652 17.2519 26.5755 17.2586 26.6611 17.3291C26.7309 17.3883 26.921 17.3535 26.8643 17.2939C26.8429 17.2657 26.8484 17.2622 26.8857 17.2764Z" fill="#E56C45"/>
</svg>
