<svg width="36" height="36" viewBox="0 0 36 36" fill="none" xmlns="http://www.w3.org/2000/svg">
<circle cx="18" cy="18" r="18" fill="#FFA283"/>
<mask id="mask0_135_4145" style="mask-type:alpha" maskUnits="userSpaceOnUse" x="0" y="0" width="36" height="36">
<circle cx="18" cy="18" r="18" fill="#FF9D7D"/>
</mask>
<g mask="url(#mask0_135_4145)">
<path d="M6.67316 -0.661951C7.03852 -0.544162 7.57537 -0.0741178 7.86801 0.174582C7.87346 0.179161 7.87892 0.18374 7.88438 0.18832C7.95463 0.248176 8.02437 0.30107 8.10685 0.363056C8.29941 0.507176 8.56217 0.706312 9.07959 1.16371C9.24642 1.27456 9.40994 1.38348 9.57679 1.49524C11.3654 2.69233 13.1607 3.86409 15.0433 4.88502C15.068 4.89581 15.0932 4.90675 15.1187 4.91777C15.61 5.1315 16.2244 5.37643 16.5924 5.57481C17.0597 5.8279 17.3779 6.00397 17.6396 6.14895C18.8633 6.67143 20.1282 7.09999 21.4232 7.37498C21.7687 7.44849 22.1108 7.50495 22.4361 7.53001C22.6115 7.54352 22.7854 7.54679 22.924 7.53573C22.9918 7.53076 23.0536 7.5199 23.0711 7.51536C23.0774 7.51507 23.0757 7.51064 23.0187 7.54293C22.9895 7.56203 22.9433 7.58463 22.859 7.67926C22.7852 7.75846 22.6144 8.02575 22.6898 8.36656C22.6701 8.27221 22.644 8.18238 22.6104 8.0927C22.4873 7.76315 22.2627 7.45436 21.9609 7.1754C21.769 7.03025 21.5624 6.91014 21.3617 6.80667C21.0793 6.66131 20.8087 6.54773 20.5884 6.4403C20.0585 6.17965 19.4319 5.84929 18.9159 5.55072C18.8339 5.50288 18.7487 5.45236 18.6729 5.40568C18.5213 5.32936 18.3667 5.24899 18.1835 5.12421C18.008 4.97997 17.7462 4.87731 17.5151 4.29447C17.4362 4.08055 17.4283 3.70746 17.5596 3.43652C17.6853 3.16409 17.8489 3.02644 17.9674 2.93584C18.2108 2.76297 18.3614 2.7223 18.4999 2.67571C18.5578 2.67069 18.6095 2.67001 18.6609 2.67097C19.168 2.69863 19.5598 2.70526 20.2249 2.82803C20.3486 2.85402 20.48 2.88333 20.6191 2.91786C20.953 3.00069 21.3333 3.11385 21.7598 3.28369C22.0346 3.39376 22.1511 3.50572 22.2453 3.59574C22.2729 3.62233 22.2988 3.6473 22.3258 3.67023C22.4184 3.74882 22.5451 3.76253 22.6952 3.7812C22.8897 3.80538 23.125 3.8382 23.3593 4.02785C24.0977 4.63383 24.5019 4.71608 24.8218 4.77429C24.9147 4.79168 24.9985 4.80758 25.078 4.83528C25.3354 4.92491 25.6387 5.15758 25.8501 5.35744C26.0183 5.51644 26.4336 5.69213 26.7583 5.79229C26.8812 5.83038 27.0307 5.91102 27.206 6.00226C27.3879 6.097 27.598 6.20336 27.8339 6.28357C28.4298 6.48445 28.7355 6.55469 28.9803 6.60992C29.0497 6.625 29.1142 6.63818 29.1785 6.65005C29.2937 6.67128 29.4235 6.6952 29.557 6.71535L29.5225 6.70751C29.6497 6.72537 29.7811 6.74518 29.9125 6.76549C30.2786 6.82213 30.6422 6.88175 30.918 6.91123C31.1959 6.98909 31.4694 7.06626 31.7408 7.1402C32.1491 7.25878 32.3123 7.26718 32.3289 7.27951C32.3458 7.30454 32.5386 7.32491 32.815 7.2894C33.088 7.26284 33.3904 7.26091 33.6345 7.39518C33.875 7.52961 34.053 7.7876 34.0309 8.17351C34.0138 8.54338 33.7327 9.08604 33.1 9.34856C32.363 9.64816 31.6753 9.50737 31.2518 9.44623C30.9295 9.39572 30.611 9.34057 30.2976 9.28399C29.8642 9.20573 29.441 9.12527 29.0255 9.05009C29.0189 9.04819 28.9985 9.04455 28.9919 9.04246C28.4505 8.92488 27.9409 8.75114 27.4612 8.54832C26.8157 8.27467 26.2195 7.95612 25.6488 7.62776C25.5903 7.59407 25.5321 7.56012 25.4739 7.52606C24.9602 7.3171 24.4656 7.10077 24.1316 6.93465C23.8559 6.79724 23.6818 6.65622 23.5325 6.53651C23.4299 6.45419 23.3391 6.38191 23.2367 6.32899C23.1817 6.30057 23.1056 6.26373 23.0141 6.22005C22.6394 6.04044 22.0131 5.75531 21.4804 5.45964C21.2434 5.32715 20.9757 5.16129 20.7135 5.01654C20.3809 4.83138 20.0562 4.68331 19.8501 4.64384C19.8317 4.64032 19.8136 4.63826 19.7971 4.63789C19.5496 4.62645 19.1201 4.60718 19.0407 4.6105C19.0391 4.60136 19.0576 4.60864 19.1777 4.50489C19.2342 4.45186 19.33 4.34803 19.3859 4.17258C19.4438 3.99818 19.4224 3.80471 19.3845 3.69993C19.3086 3.51312 19.2728 3.52664 19.2855 3.52604C19.2948 3.53138 19.3309 3.54998 19.3652 3.55577C19.506 3.58452 19.6389 3.68335 19.859 3.8302C20.0125 3.9325 20.2142 4.05885 20.5095 4.21248C20.8512 4.39039 21.0864 4.55213 21.2835 4.69398C21.5611 4.89502 21.7651 5.04905 22.1299 5.20876C22.5353 5.38633 22.9468 5.6509 23.2106 5.9434C23.3308 6.07529 23.4737 6.22442 23.6128 6.39486C23.7969 6.61919 23.9727 6.88525 24.077 7.15821C24.1633 7.38322 24.1804 7.58943 24.1836 7.76664C24.1845 7.82164 24.1841 7.87437 24.184 7.92508C24.1934 7.96175 24.2022 7.99872 24.2105 8.03598C24.2865 8.39773 24.0874 8.65232 23.9988 8.73889C23.8965 8.83962 23.8227 8.8791 23.7558 8.91546C23.6278 8.98079 23.5332 9.00781 23.4437 9.03191C23.4096 9.04946 23.3751 9.06695 23.3395 9.08405C23.163 9.1692 22.9587 9.24857 22.7182 9.28175C22.3365 9.33237 22.0286 9.27317 21.7139 9.20262C21.5251 9.15962 21.3347 9.11075 21.1261 9.07037C21.0657 9.05865 21.0036 9.04779 20.9393 9.03813C20.7477 9.00939 20.5269 8.98836 20.3081 8.96409C19.9838 8.92844 19.663 8.88478 19.4517 8.8107C19.3726 8.783 19.3115 8.73235 19.2514 8.6819C19.2512 8.68162 19.2509 8.68134 19.2507 8.68106C19.2466 8.67763 19.2425 8.67426 19.2384 8.67084C18.7083 8.55911 18.1816 8.43297 17.6585 8.2933C17.6112 8.28701 17.5636 8.28032 17.5163 8.27351C17.2856 8.24034 17.0617 8.20473 16.9052 8.20948C16.7356 8.21493 16.3488 8.11313 15.9445 7.99498C15.6797 7.918 15.4069 7.83427 15.1798 7.77599C15.0469 7.74192 14.9424 7.65933 14.8355 7.57376C14.7357 7.49386 14.634 7.41153 14.5046 7.36307C14.4398 7.3388 14.3659 7.32138 14.287 7.30253C14.2176 7.28594 14.1443 7.26826 14.0699 7.24362C14.0008 7.22073 13.8627 7.1358 13.6875 7.02555C13.5791 6.95739 13.457 6.87978 13.3268 6.80046C12.9577 6.64383 12.592 6.48084 12.2296 6.31138C12.1417 6.29957 12.0593 6.3007 11.9848 6.3187C11.9312 6.33151 11.8794 6.35335 11.8263 6.37556C11.7541 6.40577 11.6792 6.43682 11.5933 6.44724C11.5263 6.45538 11.4617 6.43792 11.4314 6.40272C11.4172 6.38631 11.4105 6.36628 11.4043 6.34815C11.3973 6.32738 11.391 6.30889 11.3754 6.30072C11.3641 6.29485 11.3475 6.29766 11.3271 6.30091C11.2946 6.30612 11.2524 6.31267 11.2071 6.28855C11.0384 6.1988 10.8514 6.08364 10.6714 5.97071C10.4717 5.84552 10.275 5.71991 10.1129 5.6328C9.93144 5.53543 9.69908 5.35029 9.46928 5.16306C9.3095 5.03288 9.15038 4.9016 9.00708 4.79789C8.86687 4.69643 8.70591 4.61905 8.54866 4.54236C8.35879 4.44962 8.17783 4.35999 8.05576 4.23811C8.03094 4.21334 8.01959 4.15515 8.00382 4.08118C7.99274 4.02882 7.97998 3.96884 7.96054 3.90834C7.77991 3.78735 7.60543 3.66684 7.42854 3.5414C7.419 3.54179 7.40919 3.54212 7.39931 3.54255C7.39913 3.54259 7.39895 3.54263 7.39877 3.54268C7.17503 3.55174 6.87341 3.56664 6.65534 3.27799C6.60025 3.20482 6.58565 3.13123 6.57261 3.06504C6.55983 3.00005 6.54861 2.942 6.50278 2.8986C6.45051 2.84919 6.36741 2.82381 6.27349 2.79333C6.14275 2.75137 5.99741 2.70442 5.90768 2.58344C5.90155 2.57518 5.89501 2.56625 5.88813 2.55705C5.82428 2.47093 5.72398 2.33875 5.65665 2.17122C5.30864 1.88021 4.96103 1.57765 4.6194 1.26985C4.05251 0.75883 3.50032 0.232094 2.96046 -0.300969C2.69553 -0.562575 2.50734 -0.89229 2.45113 -1.2117C2.38193 -1.54276 2.45479 -1.82969 2.6336 -2.03544C2.81373 -2.24019 3.08752 -2.35029 3.4207 -2.33328C3.74105 -2.32705 4.08666 -2.19945 4.38071 -1.99169C4.85945 -1.65267 5.33646 -1.32532 5.81831 -0.999693C5.84566 -0.985208 5.87309 -0.970458 5.90028 -0.955486C6.10651 -0.841024 6.31041 -0.778983 6.52631 -0.708982C6.57536 -0.693329 6.62566 -0.676836 6.67316 -0.661951Z" fill="black"/>
<path d="M10.3132 9.93564C10.249 10.0929 10.0185 10.1161 9.89363 10.1313C9.8913 10.1317 9.88897 10.132 9.88663 10.1323C9.85659 10.136 9.827 10.1451 9.79704 10.1543C9.72266 10.1774 9.62165 10.2082 9.37711 10.2175C9.31814 10.2448 9.2571 10.2718 9.19383 10.2984C8.52727 10.5785 7.81084 10.8044 7.07982 11.0373C7.07171 11.0423 7.06345 11.0473 7.05509 11.0525C6.89028 11.1533 6.69514 11.276 6.53814 11.3065C6.34551 11.3414 6.20511 11.3543 6.08678 11.364C5.66471 11.5093 5.24439 11.6674 4.83211 11.853L4.94248 11.7775C4.80911 11.8608 4.67981 11.949 4.55435 12.0435C4.4098 12.1522 4.27057 12.2693 4.13913 12.3938C4.01801 12.5086 3.90194 12.6293 3.79118 12.7546C3.74373 12.8444 3.70503 12.9345 3.66983 13.0185C3.62058 13.1362 3.57866 13.2414 3.53035 13.3155C3.4136 13.4939 3.22313 13.6467 3.08259 13.7651C3.05963 13.7844 3.03799 13.8026 3.01827 13.8198C2.94344 13.9432 2.87152 14.0685 2.80168 14.1951C2.78726 14.1963 2.77241 14.1973 2.75724 14.1983C2.56793 14.2107 2.4786 14.3357 2.34382 14.5348C2.28509 14.6217 2.2177 14.7229 2.12968 14.8369C2.07298 14.9104 1.999 14.919 1.93832 14.9264C1.92049 14.9286 1.90379 14.9306 1.8891 14.9342C1.83874 14.9464 1.84965 15.0008 1.86296 15.0646C1.88013 15.1476 1.90164 15.2462 1.79657 15.2938C1.46125 15.447 1.50999 15.6385 1.54832 15.7792C1.55951 15.8207 1.56968 15.8582 1.56892 15.89C1.56645 15.9931 1.45929 16.0793 1.35172 16.1306C1.271 16.169 1.23959 16.316 1.23831 16.4469C1.24102 16.4495 1.24101 16.4571 1.2411 16.4646C1.24177 16.5169 1.2129 16.5708 1.17856 16.6349C1.14315 16.7009 1.10177 16.7778 1.0821 16.8739C1.03232 17.1169 1.00115 17.2466 0.975884 17.3505C0.968632 17.3802 0.961729 17.4077 0.955055 17.4355C0.933965 17.5231 0.898411 17.6273 0.861636 17.733C0.817712 17.8593 0.772112 17.9876 0.749076 18.0922C0.586525 18.3033 0.415004 18.5076 0.243063 18.7086C0.154704 18.8115 -0.0187747 18.8558 -0.243004 18.8279C-0.466988 18.7993 -0.72281 18.703 -0.959001 18.5566C-1.19514 18.4101 -1.39521 18.224 -1.52263 18.0388C-1.64944 17.853 -1.69152 17.6829 -1.64426 17.5624C-1.54824 17.3194 -1.45506 17.0766 -1.35791 16.839C-1.23902 16.5487 -1.11455 16.2655 -0.962347 15.9881C-0.857524 15.7972 -0.745864 15.6055 -0.627911 15.4149C-0.622498 15.4055 -0.620615 15.4025 -0.61873 15.3995C-0.606028 15.3792 -0.593188 15.3591 -0.580339 15.3389C-0.544777 15.1353 -0.501069 14.934 -0.450279 14.8028C-0.408389 14.6945 -0.334146 14.6407 -0.27066 14.5951C-0.226938 14.5636 -0.188186 14.536 -0.16797 14.4965C-0.157116 14.4753 -0.143963 14.4454 -0.127958 14.4092C-0.0629186 14.2619 0.0514827 14.0103 0.24393 13.8365C0.329135 13.7594 0.448908 13.6838 0.563704 13.6131C0.727891 13.5118 0.881978 13.4209 0.910871 13.3405C0.961594 13.1989 1.08712 13.0835 1.19914 12.9836C1.30595 12.8882 1.40047 12.8064 1.40678 12.7229C1.41446 12.6229 1.47664 12.5802 1.56912 12.5183C1.63345 12.4753 1.71196 12.4233 1.7993 12.3363C1.90002 12.2362 1.995 12.1854 2.07547 12.1433C2.18917 12.0836 2.27386 12.0409 2.3167 11.8988C2.36432 11.7409 2.43977 11.5953 2.54208 11.5225C2.58855 11.4894 2.63192 11.4418 2.6774 11.3925C2.73733 11.3276 2.80199 11.2592 2.88079 11.2188C2.94586 11.1855 3.02525 11.1846 3.09485 11.1848C3.11657 11.1849 3.13737 11.1849 3.15663 11.1841C3.19648 11.146 3.23662 11.1077 3.27637 11.0695C3.27713 11.0571 3.27763 11.0436 3.27826 11.0297C3.28135 10.9598 3.28619 10.8734 3.32321 10.8003C3.38152 10.685 3.48235 10.6385 3.5879 10.592C3.67059 10.5555 3.7559 10.5191 3.8306 10.4474C3.84079 10.4376 3.85093 10.4271 3.86102 10.416C3.88165 10.4055 3.93377 10.3588 3.9557 10.3513C4.00029 10.3141 4.04466 10.268 4.08841 10.2224C4.16965 10.1378 4.24874 10.0555 4.32428 10.0356C4.35351 10.0276 4.39233 10.0444 4.43061 10.0614C4.43081 10.0615 4.43101 10.0616 4.43121 10.0617C4.43381 10.0629 4.43639 10.064 4.43898 10.0651C4.59189 9.94812 4.73532 9.83448 4.88861 9.71472C4.89865 9.69916 4.90887 9.68364 4.919 9.66834C4.96855 9.59351 5.01601 9.52145 5.03199 9.44761C5.05142 9.36638 5.15742 9.26719 5.26614 9.16529C5.33553 9.0995 5.41496 9.02776 5.46977 8.95969C5.50222 8.91968 5.55813 8.92949 5.61527 8.93996C5.66861 8.9497 5.72266 8.96015 5.76285 8.9294C5.78266 8.91415 5.79942 8.88903 5.81722 8.86227C5.83288 8.83871 5.84937 8.81383 5.86945 8.79341C5.88812 8.77446 5.94686 8.76533 6.02103 8.75428C6.06655 8.74761 6.12184 8.73817 6.17572 8.72624C6.29228 8.64224 6.40653 8.56127 6.52682 8.47987C6.53971 8.4393 6.54497 8.39237 6.5405 8.3377C6.53729 8.29847 6.52901 8.25379 6.52061 8.20809C6.50918 8.1459 6.49744 8.0816 6.49737 8.02579C6.49742 7.98213 6.51235 7.95745 6.53359 7.96519C6.54354 7.96877 6.55488 7.97915 6.56515 7.98852C6.57692 7.99927 6.58738 8.00882 6.59294 8.00569C6.59695 8.00341 6.59665 7.99189 6.59638 7.9779C6.59595 7.95557 6.5955 7.92669 6.61174 7.91778C6.67242 7.88451 6.74462 7.85908 6.81688 7.83383C6.8994 7.8047 6.97855 7.77733 7.03463 7.74254C7.09548 7.70444 7.21281 7.69306 7.32445 7.68501C7.4021 7.67947 7.48113 7.67352 7.54498 7.65723C7.60706 7.64148 7.65756 7.59571 7.70584 7.55176C7.76697 7.4976 7.82581 7.44583 7.89598 7.45313C7.91019 7.45463 7.94095 7.48744 7.97921 7.52861C8.00647 7.55774 8.03681 7.59139 8.06966 7.62039C8.14436 7.58903 8.21827 7.56037 8.29126 7.53417C8.29164 7.52784 8.29205 7.52138 8.29242 7.5148C8.29241 7.51466 8.2924 7.51451 8.29239 7.51437C8.30334 7.36496 8.32102 7.1597 8.47858 7.21601C8.5198 7.22988 8.55765 7.27046 8.59157 7.30705C8.62488 7.34299 8.65447 7.37525 8.67938 7.37492C8.70765 7.37454 8.72684 7.33742 8.74768 7.29718C8.77897 7.23992 8.81518 7.17574 8.88143 7.19889C8.88596 7.20047 8.89084 7.20224 8.89588 7.20395C8.94296 7.22046 9.0149 7.24425 9.10189 7.31335C9.26928 7.28121 9.45125 7.25195 9.62611 7.23226C9.92684 7.19699 10.2288 7.17917 10.5569 7.18069C10.7161 7.18186 10.8945 7.28769 11.026 7.48326C11.1597 7.67884 11.2197 7.94447 11.2163 8.21679C11.2145 8.4895 11.1808 8.75244 11.1408 8.96138C11.0991 9.17003 11.0407 9.30649 10.9526 9.35303C10.8104 9.42803 10.6526 9.51669 10.4956 9.60792C10.4885 9.61582 10.4813 9.62358 10.474 9.63105C10.4191 9.68672 10.3783 9.77935 10.3405 9.87183C10.3316 9.89315 10.3225 9.91459 10.3132 9.93564Z" fill="black"/>
</g>
<path d="M14.6203 22.2946C15.6081 23.1528 19.6734 23.7616 20.9321 19.612" stroke="black" stroke-width="2.25" stroke-linecap="round"/>
<path d="M20.7991 18.4957C20.8651 19.2946 21.6088 20.6301 23.291 20.2589" stroke="black" stroke-width="2.25" stroke-linecap="round"/>
<circle cx="12.1875" cy="17.0625" r="1.6875" fill="black"/>
<circle cx="19.6875" cy="14.0625" r="1.6875" fill="black"/>
</svg>
