<svg width="20" height="20" viewBox="0 0 20 20" fill="none" xmlns="http://www.w3.org/2000/svg">
<path d="M8.1723 4.34791C8.68579 4.35194 9.20015 4.35866 9.71543 4.37265C10.29 4.38837 10.8662 4.4084 11.4446 4.43898C11.5028 4.44208 11.5643 4.44561 11.6239 4.44902C12.1125 4.43338 12.6058 4.43025 12.9584 4.44974C13.2487 4.46544 13.46 4.51003 13.6439 4.55228C13.7673 4.58102 13.8818 4.6092 13.9981 4.62829C14.0624 4.63893 14.1458 4.65213 14.2541 4.6731C14.4166 4.70579 14.6206 4.74706 14.879 4.84807C15.1141 4.96029 15.534 5.08375 15.7571 5.70317C15.789 5.8149 15.8403 5.97683 15.8815 6.12517C15.9542 6.38431 16.0272 6.69773 16.0905 6.98923C16.1834 7.41169 16.2618 7.80909 16.3308 7.99958C16.4524 8.33354 16.5452 8.73788 16.6176 9.0906C16.6878 9.42999 16.7415 9.72821 16.8026 9.89157C16.8757 10.0877 16.899 10.2627 16.9288 10.5247C16.949 10.7063 16.9727 10.9299 17.0084 11.2325C17.0493 11.5837 17.0513 11.8366 17.0489 12.0496C17.0443 12.3526 17.0345 12.5788 17.0625 12.919C17.0933 13.3005 17.0723 13.7165 16.9869 14.0348C16.9473 14.1853 16.9047 14.3478 16.8402 14.5271C16.7588 14.7551 16.638 15.0008 16.4792 15.1972C16.3504 15.3572 16.2061 15.4649 16.0769 15.5431C16.0365 15.5677 15.997 15.59 15.9586 15.6109C15.8279 15.7113 15.6926 15.7926 15.5431 15.8619C15.5387 15.8649 15.5342 15.8678 15.5298 15.8708C15.527 15.8729 15.5244 15.8752 15.5215 15.8773C15.5099 15.8861 15.4975 15.8953 15.4846 15.9049C15.3852 15.9788 15.2524 16.0746 15.0684 16.1577C14.7754 16.2891 14.5 16.3377 14.2161 16.3728C13.996 16.3994 13.7709 16.4169 13.5163 16.4484C13.3419 16.47 13.1471 16.4979 12.9501 16.5216C12.6563 16.557 12.3804 16.5822 12.1757 16.575C12.1037 16.5722 12.0403 16.5547 11.9767 16.537L11.9756 16.5366C11.9713 16.5355 11.967 16.5342 11.9627 16.5331C11.4815 16.5517 11.0025 16.5583 10.5257 16.5582C10.4839 16.5614 10.4389 16.5647 10.3995 16.5678C10.202 16.5829 9.99548 16.5953 9.87104 16.6202C9.73008 16.647 9.38124 16.6485 9.01163 16.6453C8.7724 16.6435 8.52069 16.6399 8.31787 16.6435C8.1976 16.6455 8.08457 16.6177 7.97367 16.5893C7.86861 16.5628 7.75922 16.5351 7.63558 16.5295C7.61948 16.5287 7.60298 16.5285 7.5861 16.5284C7.54021 16.5282 7.492 16.5303 7.44197 16.5327C7.38318 16.5356 7.31782 16.5386 7.2523 16.5388C7.19178 16.539 7.05631 16.5192 6.88086 16.4961C6.77329 16.4819 6.65007 16.4663 6.52018 16.4527C6.17571 16.4486 5.8283 16.4492 5.47326 16.4452C5.39817 16.4588 5.33285 16.4777 5.27965 16.5029C5.24182 16.521 5.2098 16.5432 5.17531 16.5657C5.12839 16.5964 5.08187 16.6282 5.01433 16.6514C4.96234 16.6695 4.90225 16.674 4.8616 16.6621C4.84295 16.6567 4.82902 16.6479 4.81642 16.6399C4.80185 16.6307 4.78938 16.6224 4.77232 16.6213C4.76016 16.6204 4.74682 16.6254 4.73073 16.6309C4.70489 16.6398 4.67235 16.6513 4.62245 16.6471C4.43759 16.6312 4.21956 16.6001 3.99323 16.5492C3.74117 16.4934 3.47585 16.4064 3.25751 16.3093C3.13712 16.2566 2.99216 16.1749 2.84663 16.0627C2.44805 15.733 2.42995 15.5115 2.35365 15.3234C2.27391 15.0654 2.24604 14.8548 2.21776 14.6776C2.19122 14.5045 2.15515 14.3338 2.12419 14.1696C2.08718 13.9737 2.05781 13.7859 2.06503 13.6279C2.06643 13.5948 2.08652 13.5548 2.112 13.5034C2.13008 13.4672 2.15081 13.4245 2.16972 13.3787C2.15858 13.1806 2.15213 12.9832 2.14892 12.7878C2.14564 12.781 2.14229 12.7738 2.13889 12.7667L2.13853 12.7663C2.06167 12.6081 1.9577 12.387 2.01806 12.0786C2.03346 11.9999 2.06205 11.9507 2.08762 11.9069C2.11271 11.8639 2.13527 11.8247 2.14068 11.7681C2.14679 11.7046 2.13293 11.6273 2.11809 11.5444C2.10818 11.4893 2.09769 11.4306 2.09263 11.3698C2.087 11.3048 2.08756 11.2376 2.10196 11.1708C2.10383 11.1621 2.10599 11.1526 2.10805 11.1429C2.12763 11.0507 2.15652 10.9142 2.21131 10.7793C2.23602 10.375 2.26398 9.97146 2.29341 9.56781C2.34241 8.89522 2.3965 8.22386 2.44758 7.55285C2.47254 7.22857 2.54926 6.91541 2.66414 6.68914C2.77935 6.46096 2.92238 6.33207 3.07072 6.33312C3.21896 6.33117 3.36269 6.46486 3.47048 6.70169C3.5783 6.93629 3.64036 7.25737 3.64796 7.58476C3.65995 8.12127 3.67012 8.65725 3.67843 9.19135C3.68067 9.21931 3.68294 9.2475 3.68489 9.27561C3.69943 9.48412 3.73521 9.67863 3.77129 9.87293C3.77958 9.91748 3.78799 9.96218 3.79603 10.007C3.85707 10.3478 3.80984 10.9992 3.78492 11.3573C3.78449 11.3638 3.78391 11.3704 3.78348 11.377C3.78265 11.3888 3.78206 11.4007 3.78133 11.4125C3.77691 11.4839 3.7744 11.5525 3.77201 11.6315C3.76653 11.8506 3.75456 12.1469 3.72325 12.7606C3.72952 12.9378 3.73706 13.1146 3.74691 13.2898C3.76554 13.6176 3.79197 13.9419 3.83619 14.241C3.85825 14.3894 3.8857 14.5318 3.91686 14.6447C3.92511 14.675 3.93396 14.703 3.9416 14.7253C4.54349 15.0564 6.05201 15.0038 7.24836 15.1488C7.27453 15.1501 7.30099 15.1516 7.32724 15.1531C7.44554 15.1595 7.56995 15.1671 7.69868 15.1764C8.11574 15.2065 8.54232 15.2374 8.83846 15.2775C9.32325 15.3434 9.65644 15.3917 9.9302 15.4316C11.4803 15.5493 13.1024 15.677 14.5069 15.3402C14.7343 15.2799 14.9376 15.2019 15.1723 15.0971C15.1755 15.0957 15.1785 15.0942 15.1816 15.0928C15.3441 15.0217 15.4812 14.925 15.6001 14.7985C15.8322 14.5534 15.9829 14.1904 16.0622 13.7967C16.096 13.5658 16.1035 13.3325 16.0995 13.1173C16.0938 12.8119 16.0663 12.5382 16.0479 12.3117C16.0044 11.7631 15.9378 11.1268 15.8682 10.6531C15.857 10.5756 15.8457 10.5024 15.8349 10.4347C15.7508 10.0629 15.6547 9.69256 15.5495 9.32329C15.5489 9.29705 15.5485 9.27056 15.5481 9.2437C15.5416 8.90602 15.4362 8.51714 15.2462 7.90493C15.165 7.64399 15.064 7.33095 14.9482 6.96952C14.8734 6.7361 14.8613 6.60637 14.8514 6.49948C14.8485 6.46792 14.8478 6.44493 14.8421 6.41128C14.8338 6.35746 14.8168 6.30896 14.7951 6.26428C14.7684 6.20457 14.7434 6.16759 14.708 6.10007C14.6959 6.07719 14.6842 6.05584 14.6732 6.03517C14.6507 6.06029 14.6416 6.04915 14.5137 5.95092C13.9618 5.60731 13.5064 5.67506 13.2642 5.69313C13.1841 5.70068 13.1165 5.70885 13.0437 5.70998C12.8117 5.71362 12.4828 5.66149 12.2309 5.60924C12.0321 5.56717 11.628 5.5754 11.3195 5.60027C11.2015 5.60948 11.0474 5.60392 10.8595 5.59776C10.6698 5.59154 10.447 5.58478 10.2073 5.59346C9.60647 5.61577 9.28137 5.62727 9.02561 5.63577C8.95225 5.63821 8.88159 5.6402 8.81444 5.64258C8.61955 5.64927 8.38212 5.65291 8.13537 5.65585L8.17947 5.65549C8.15316 5.65754 8.12699 5.65986 8.10095 5.66194C7.78138 5.68739 7.45621 5.71636 7.21107 5.74835C6.57179 5.76631 5.93935 5.79469 5.31263 5.85483C5.09859 5.87514 4.88684 5.87408 4.69524 5.85053L4.71639 5.84659C4.62609 5.83705 4.53907 5.82353 4.45824 5.80464C4.21752 5.74863 4.05107 5.64838 4.00793 5.50311C3.965 5.35876 4.05 5.17818 4.26464 5.01012C4.3367 4.95397 4.42155 4.90144 4.51704 4.85452C4.52056 4.85396 4.53075 4.85171 4.53425 4.85129C4.71548 4.76761 4.92966 4.70202 5.15452 4.66414C5.83688 4.54896 6.52339 4.4703 7.20354 4.41317C7.51241 4.38724 7.82084 4.36579 8.13035 4.34791C8.13883 4.34795 8.16395 4.34732 8.1723 4.34791Z" fill="#E56C45"/>
<path d="M13.8396 7.06152C14.0163 7.07858 14.1925 7.09992 14.3691 7.1214C14.4597 7.13256 14.5476 7.19956 14.6126 7.3107C14.6777 7.42194 14.7147 7.56758 14.7162 7.71872C14.7176 7.86985 14.683 8.01607 14.6201 8.12852C14.5572 8.24083 14.4709 8.30959 14.3806 8.32249C14.1984 8.34823 14.0165 8.37402 13.8342 8.39491C13.6122 8.42037 13.3901 8.43854 13.168 8.44081C13.013 8.44239 12.857 8.44061 12.702 8.43579C12.6859 8.43529 12.6699 8.43455 12.6539 8.43399C12.5241 8.47258 12.3946 8.508 12.3025 8.52112C12.2271 8.53191 12.1715 8.51246 12.124 8.49602C12.0913 8.4847 12.0623 8.47468 12.0333 8.47666C12.0176 8.47773 11.9962 8.48042 11.9705 8.48347C11.866 8.49595 11.6864 8.51737 11.5234 8.48311C11.4505 8.46791 11.3666 8.43707 11.2857 8.40782C11.1708 8.366 11.0637 8.32694 11.0093 8.34006C10.9151 8.36319 10.8062 8.34634 10.7096 8.33145C10.6181 8.31724 10.5369 8.30484 10.4923 8.33074C10.4385 8.3617 10.3914 8.35026 10.3227 8.33324C10.2738 8.32147 10.2165 8.30716 10.1356 8.30241C10.0441 8.2969 9.97713 8.27698 9.92223 8.2601C9.84314 8.23642 9.7845 8.21876 9.69815 8.25544C9.65223 8.27508 9.60363 8.29146 9.55904 8.30205H9.56513C9.51579 8.31412 9.46894 8.31938 9.42782 8.3146C9.39215 8.31036 9.34944 8.31328 9.30663 8.31639C9.25015 8.32051 9.18978 8.32506 9.13453 8.31353C9.08917 8.30397 9.05034 8.27597 9.01586 8.2515C9.0052 8.2439 8.99486 8.23668 8.98503 8.23035C8.94899 8.23233 8.91401 8.23459 8.87747 8.23716C8.87182 8.24215 8.8657 8.2476 8.85954 8.25329C8.82849 8.28184 8.79144 8.31682 8.74337 8.33575C8.66688 8.36574 8.59918 8.35291 8.52646 8.33934C8.47087 8.32873 8.41112 8.31764 8.34576 8.32643C8.30122 8.33243 8.24938 8.34742 8.19984 8.36229C8.12464 8.38446 8.05234 8.40648 7.99906 8.39886C7.97934 8.39596 7.96145 8.37877 7.94384 8.36157L7.9399 8.35763C7.81401 8.37997 7.69015 8.4043 7.56487 8.43005C7.55432 8.43559 7.54379 8.44111 7.53296 8.44654C7.48057 8.47304 7.43189 8.49897 7.39994 8.53259C7.36586 8.56895 7.27563 8.5956 7.18124 8.62437C7.11899 8.64326 7.05471 8.663 7.00341 8.6864C6.97376 8.69997 6.94175 8.68404 6.90983 8.6674C6.88012 8.65187 6.84902 8.63608 6.81769 8.64374C6.80199 8.64759 6.78553 8.65689 6.76821 8.66704C6.75261 8.67601 6.73612 8.68557 6.71873 8.69214C6.7025 8.69819 6.66481 8.69168 6.61583 8.68353C6.58578 8.67847 6.55167 8.67297 6.5158 8.66919C6.42495 8.69075 6.33346 8.71227 6.2426 8.73337C6.22531 8.75208 6.21121 8.7754 6.20136 8.80436C6.19434 8.82521 6.18888 8.84988 6.18344 8.87499C6.17602 8.90918 6.16855 8.94461 6.15583 8.97359C6.14588 8.99623 6.13227 9.00629 6.12141 8.99868C6.11632 8.99516 6.11183 8.98803 6.10779 8.98147C6.10313 8.97393 6.09887 8.96718 6.09488 8.96785C6.09201 8.96836 6.08949 8.97421 6.08663 8.98147C6.08206 8.99308 6.07624 9.00812 6.06476 9.01016C6.02189 9.01728 5.97138 9.0189 5.92242 9.02056C5.86799 9.02239 5.81443 9.02451 5.77327 9.03418C5.77268 9.03432 5.77208 9.03441 5.77148 9.03454C5.76815 9.03446 5.75849 9.03676 5.75499 9.03669C5.70616 9.04621 5.63441 9.03308 5.56281 9.01984C5.51227 9.01046 5.46128 9.001 5.41868 8.9994C5.37668 8.99788 5.33516 9.01391 5.29463 9.02952C5.24602 9.04825 5.19935 9.06643 5.1566 9.05211C5.14796 9.04917 5.13529 9.02709 5.11967 8.99976C5.10858 8.98042 5.09575 8.95824 5.08166 8.93809C5.02969 8.94317 4.97812 8.94746 4.92606 8.95064C4.92453 8.9539 4.92261 8.9573 4.92104 8.96068L4.89164 9.02056C4.85867 9.08009 4.81443 9.12939 4.74858 9.09047C4.72632 9.07727 4.7106 9.05069 4.6966 9.02665C4.68295 9.00304 4.67026 8.98189 4.65465 8.97861C4.63691 8.97498 4.61784 8.9918 4.59728 9.01016C4.56822 9.03598 4.53534 9.06483 4.49868 9.04386C4.49617 9.04242 4.49327 9.04077 4.49044 9.0392C4.46332 9.02431 4.4238 9.00226 4.38252 8.95458C4.27085 8.95023 4.15839 8.94311 4.04621 8.93415C3.85866 8.91919 3.67192 8.89886 3.48188 8.87642C3.38938 8.8653 3.29706 8.8002 3.2266 8.69106C3.15546 8.58182 3.11535 8.43815 3.11725 8.28986C3.11742 8.14158 3.14634 7.99849 3.20007 7.88508C3.25375 7.77187 3.32986 7.6986 3.41448 7.67749C3.55215 7.6434 3.69153 7.60765 3.83145 7.57315C3.83875 7.56953 3.84628 7.56607 3.85332 7.56275C3.90666 7.53799 3.95446 7.49226 4.00283 7.44659C4.01368 7.43612 4.02476 7.42564 4.03582 7.4154C4.11996 7.33769 4.29504 7.35229 4.39184 7.35982C4.39358 7.35993 4.39548 7.36008 4.39722 7.36018C4.42015 7.36198 4.44224 7.36095 4.46713 7.35982C4.52723 7.35705 4.60834 7.35361 4.78121 7.38277C4.83027 7.37645 4.87896 7.37073 4.92821 7.36592C5.13917 7.3453 5.35104 7.33258 5.56317 7.32469L5.54811 7.32648C5.88117 7.30687 6.21843 7.30636 6.5538 7.31537C6.56062 7.31431 6.56757 7.31322 6.5746 7.31214C6.71198 7.29092 6.88258 7.266 6.99265 7.28238C7.13276 7.30316 7.22724 7.32599 7.30565 7.3462C7.74584 7.36827 8.18404 7.39192 8.61824 7.39102C8.75555 7.39068 8.88973 7.38836 9.02662 7.38241C9.15076 7.37702 9.27648 7.36947 9.40128 7.36054C9.44538 7.34937 9.48854 7.33726 9.53036 7.32505C9.53168 7.32479 9.53584 7.32493 9.53717 7.32469C9.56265 7.31741 9.58785 7.31026 9.61246 7.30318C9.70223 7.2773 9.78216 7.25439 9.84766 7.24617C10.0068 7.22632 10.1879 7.24927 10.3227 7.26661C10.3445 7.26944 10.3652 7.27219 10.3844 7.27449C10.4914 7.26303 10.5973 7.25121 10.7035 7.239C10.7107 7.24476 10.718 7.25076 10.7254 7.25692C10.8171 7.3343 10.9287 7.33179 11.1043 7.32791C11.181 7.32623 11.2693 7.32429 11.3743 7.32863C11.4411 7.33146 11.4762 7.36231 11.5048 7.38743C11.5132 7.3948 11.5213 7.40159 11.5292 7.40715C11.5562 7.42619 11.5844 7.40505 11.6177 7.3799C11.6611 7.34725 11.7129 7.30795 11.7823 7.3419C12.0039 7.45029 12.1 7.37392 12.1731 7.31608C12.1947 7.29912 12.2138 7.28383 12.2337 7.27521C12.298 7.24728 12.391 7.27303 12.461 7.30927C12.517 7.33798 12.6269 7.30772 12.7109 7.26983C12.7424 7.25558 12.7851 7.25492 12.8357 7.25406C12.8883 7.25316 12.9484 7.25214 13.0132 7.23577C13.1763 7.19442 13.2634 7.17406 13.333 7.15797C13.3527 7.15341 13.3712 7.14939 13.3896 7.14506C13.4482 7.13131 13.5206 7.1198 13.5943 7.10813C13.6821 7.09417 13.772 7.07994 13.8396 7.06152Z" fill="#E56C45"/>
<path d="M5.59261 10.9423C6.00513 10.8892 6.40145 10.8882 6.72845 11.0111C6.76247 11.024 6.79012 11.0321 6.8102 11.037L6.8188 11.0413C6.86244 11.0177 6.90903 10.9902 6.95648 10.9724C6.97903 10.9639 7.08123 10.922 7.21032 10.9294C7.28335 10.9338 7.43855 10.958 7.57172 11.0886C7.71655 11.2319 7.74447 11.4078 7.73952 11.5145L7.72661 11.7426L7.62765 11.8286C7.52692 11.9744 7.37038 12.0718 7.1802 12.0695C6.9002 12.1807 6.61387 12.1332 6.39286 12.0566L5.76041 12.048L5.77331 12.0308L5.63133 12.0437H5.55389C5.25051 12.0378 5.00703 11.7875 5.01179 11.4844C5.01738 11.1972 5.24272 10.9751 5.52377 10.9552L5.51947 10.9466C5.53308 10.9447 5.54891 10.9484 5.5625 10.9466L5.5711 10.9423H5.59261Z" fill="#E56C45"/>
<path d="M9.39402 10.7424C9.73666 10.6947 10.0857 10.6929 10.3836 10.8284L10.3879 10.8327C10.4159 10.8178 10.444 10.7974 10.4739 10.7854C10.4955 10.7766 10.6145 10.727 10.7622 10.7424C10.8556 10.7525 11.0145 10.7951 11.1365 10.9446C11.2567 11.0927 11.2673 11.2559 11.2613 11.3404L11.2441 11.5641L11.1451 11.6502C11.0475 11.7855 10.9005 11.8735 10.7235 11.8782C10.4681 11.9801 10.2155 11.9384 10.0222 11.8653L9.26495 11.8438L9.27786 11.8309C8.99522 11.7995 8.77835 11.565 8.78738 11.2759C8.79616 10.9956 9.01453 10.7856 9.28646 10.7596L9.28216 10.751C9.29751 10.7483 9.31409 10.7534 9.32949 10.751C9.33809 10.7508 9.34661 10.7421 9.3553 10.7424H9.39402Z" fill="#E56C45"/>
<path d="M14.2922 10.4924C14.3564 10.4881 14.5088 10.4896 14.6579 10.5957C14.8293 10.7181 14.8826 10.8971 14.8903 11.0173L14.9075 11.254L14.8085 11.3529C14.7228 11.5021 14.5806 11.6051 14.3998 11.624C14.0894 11.795 13.7414 11.7505 13.4877 11.6756C13.464 11.6687 13.4349 11.6677 13.4016 11.6627L13.0015 11.6799L13.0187 11.6584C12.9266 11.6648 12.8192 11.6665 12.7003 11.6842L12.6702 11.6928H12.6014C12.2976 11.7023 12.0432 11.4632 12.0335 11.1593C12.0244 10.8629 12.2521 10.6207 12.5454 10.6L12.5411 10.5957H12.5541L12.567 10.5914H12.5971C13.0448 10.5288 13.4617 10.5168 13.8018 10.6172C13.8415 10.6289 13.8723 10.6391 13.8964 10.643C13.9024 10.644 13.9089 10.6468 13.9136 10.6473C13.9591 10.6169 14.0067 10.5809 14.0556 10.557C14.0783 10.5458 14.1718 10.5006 14.2922 10.4924Z" fill="#E56C45"/>
<path d="M7.0456 3.37137C7.44566 3.31149 7.82204 3.59076 7.88314 3.99091V3.99665L8.00361 4.78829C8.02996 5.02816 8.03972 5.24568 8.03229 5.43652C8.02811 5.54462 8.03654 5.61238 8.04376 5.64878L8.02655 5.63157C8.07882 5.70393 8.14629 5.79995 8.19291 5.89545C8.20644 5.92301 8.2737 6.05774 8.27896 6.23391C8.28182 6.3346 8.26793 6.54988 8.10113 6.74446C7.94444 6.92694 7.74577 6.97684 7.60778 6.99113L7.59631 6.99687L7.58484 6.99113C7.57462 6.99187 7.56554 7.00231 7.55615 7.0026L7.32096 7.00834L7.2177 6.9395C6.98516 6.84596 6.79984 6.64858 6.75877 6.38306L6.75304 6.3429V6.33143C6.59284 6.02419 6.5578 5.67885 6.56947 5.37916C6.57777 5.1659 6.53966 4.80534 6.43753 4.27201V4.26053L6.43179 4.24906L6.42605 4.2089C6.36618 3.80885 6.64545 3.43247 7.0456 3.37137Z" fill="#E56C45"/>
<path d="M11.1066 3.00502C11.4509 2.96435 11.7495 3.1749 11.8638 3.48689L11.8753 3.48115C12.1704 4.176 12.345 4.87515 12.2138 5.47747C12.1951 5.56308 12.1809 5.63962 12.1679 5.70694L12.2138 6.07981V6.11423C12.2464 6.38804 12.1181 6.63417 11.9097 6.78541L11.8294 6.87719L11.6 6.92882C11.3315 6.98876 11.0793 6.89466 10.9116 6.73378C10.7816 6.60892 10.7252 6.472 10.7051 6.41253C10.6621 6.28527 10.657 6.15726 10.6534 6.08555C10.6467 5.94888 10.6622 5.79552 10.6821 5.66678C10.704 5.52473 10.7376 5.35492 10.7796 5.16196C10.8098 5.02261 10.7882 4.68289 10.5215 4.05481L10.4813 3.96302L10.4699 3.85403L10.4641 3.81961C10.4166 3.41721 10.7042 3.05295 11.1066 3.00502Z" fill="#E56C45"/>
</svg>
