<svg width="32" height="32" viewBox="0 0 32 32" fill="none" xmlns="http://www.w3.org/2000/svg">
<path d="M6.16742 18.6063C6.33148 19.1994 6.25327 20.3103 6.21658 20.884C6.21597 20.8945 6.21537 20.9052 6.21477 20.9159C6.20618 21.0526 6.20408 21.1816 6.20289 21.3287C6.20222 21.4127 6.20185 21.5045 6.20105 21.6047C6.20057 21.9319 6.18481 22.3886 6.17722 23.1004C6.20745 23.3676 6.24387 23.6287 6.28692 23.86C6.32104 24.0592 6.38909 24.2939 6.38852 24.2866C6.29118 24.0564 6.11748 23.9371 6.11923 23.9444C6.11012 23.9437 6.20606 23.9966 6.33565 24.0432C7.81036 24.5875 10.6226 24.3281 13.0568 24.4707C13.1934 24.4766 13.3348 24.4812 13.4754 24.4849C13.5157 24.4832 13.5564 24.4813 13.5969 24.4794C14.3896 24.4435 15.3956 24.3579 16.0345 24.3644C16.847 24.3732 17.4052 24.3869 17.8637 24.4004C19.2965 24.3292 20.7349 24.2272 22.1697 24.0974C23.326 23.9916 24.4804 23.8428 25.5496 23.5775C25.8031 23.5136 26.0508 23.4421 26.2778 23.3616C26.4925 23.2892 26.7484 23.1646 26.7761 23.1402C26.7397 23.1619 26.5953 23.3063 26.5437 23.4215C26.4865 23.5371 26.4797 23.5964 26.4738 23.6244C26.4662 23.6779 26.4722 23.6462 26.4714 23.6133C26.4716 23.5389 26.4646 23.4246 26.455 23.3095C26.4068 22.7629 26.3255 22.1692 26.2449 21.5834C26.2225 21.4224 26.1988 21.2559 26.175 21.0915C26.0837 20.6597 25.9868 20.246 25.8969 19.8657C25.7706 19.3315 25.6564 18.853 25.5848 18.4564C25.4124 17.5003 25.3099 16.4014 25.2309 15.5861C25.218 15.4527 25.2059 15.3273 25.1941 15.2108C25.0763 14.5722 24.9553 13.934 24.8302 13.2994C24.8362 13.2552 24.8427 13.211 24.849 13.1642C24.8678 13.0332 24.8759 12.8952 24.876 12.7539C24.8733 12.2753 24.7783 11.6652 24.6103 10.9381C24.5878 10.845 24.5613 10.7465 24.5404 10.6834C24.5311 10.6538 24.5185 10.6277 24.5323 10.6567C24.5407 10.672 24.5551 10.7048 24.6095 10.7721C24.656 10.8365 24.7941 10.9417 24.8208 10.9523C25.0275 11.0334 24.8375 10.9535 24.5709 10.9957C24.2293 11.0327 23.9953 11.0117 23.8202 10.9858C23.7685 10.9786 23.7172 10.9724 23.6681 10.9688C23.4967 10.957 23.3301 11.0336 23.1294 11.1223C22.8699 11.237 22.5473 11.3744 22.0937 11.3529C22.0686 11.3517 22.0435 11.3506 22.0187 11.3495C20.3802 11.2056 19.9644 11.1695 19.4866 11.2805C19.3573 11.3043 19.2408 11.3266 19.1231 11.3352C19.1214 11.3353 19.1198 11.3354 19.1181 11.3356C18.7378 11.3623 18.2023 11.274 17.7908 11.1815C17.4652 11.1063 16.8039 11.1612 16.3041 11.2492C16.1153 11.282 15.8591 11.2872 15.5571 11.2968C15.2439 11.3068 14.8819 11.3215 14.4949 11.3753C14.2753 11.4059 14.0787 11.4343 13.901 11.4604C13.2802 11.5503 12.9039 11.6088 12.5839 11.6609C12.4655 11.6801 12.3576 11.698 12.2475 11.7169C11.9025 11.7762 11.4733 11.8425 11.0375 11.9154C10.5659 11.9941 10.0889 12.0798 9.70315 12.1639L9.73235 12.1598C9.69066 12.1696 9.6503 12.1794 9.61136 12.189C8.54677 12.3092 7.47964 12.4239 6.4585 12.5755C5.9376 12.653 5.43079 12.6216 5.07212 12.4894C4.89296 12.4222 4.76152 12.3331 4.66728 12.2157C4.5764 12.0978 4.47863 11.9546 4.32205 11.8929C3.95568 11.7807 4.12416 11.1567 4.48674 10.8065C4.85166 10.4225 5.38244 10.1495 5.94302 10.0097C7.07382 9.73199 8.18222 9.50919 9.29138 9.29915C9.29517 9.29844 9.29896 9.29773 9.30275 9.29702C9.30781 9.29655 9.32283 9.29386 9.32789 9.29349C10.6874 9.06409 12.0844 8.88115 13.4726 8.80007C13.5623 8.79453 13.6513 8.78922 13.7393 8.78404C14.6211 8.73205 15.5116 8.70333 16.407 8.70817C16.5087 8.70872 16.6102 8.70979 16.7122 8.71124C17.5419 8.62784 18.3855 8.585 18.9862 8.60137C19.1162 8.60465 19.2371 8.61274 19.3499 8.62415C19.6627 8.65594 19.9095 8.71165 20.1233 8.76098C20.3237 8.80716 20.4963 8.84827 20.6667 8.86159C20.758 8.86867 20.8823 8.87582 21.0207 8.88063C21.2571 8.88908 21.5271 8.88777 21.7281 8.85682C22.2224 8.79157 22.7787 8.70299 23.3644 8.64177C23.8372 8.6154 24.2758 8.49671 25.2685 8.65758C25.4771 8.70324 25.7316 8.78459 25.9819 8.9442C26.0905 9.00218 26.3415 9.21744 26.4279 9.35551C26.5305 9.50099 26.5728 9.6016 26.6073 9.68443C26.6705 9.84522 26.693 9.9493 26.7147 10.045C26.7545 10.2319 26.7744 10.3793 26.7942 10.5137C26.8317 10.7781 26.862 10.987 26.9019 11.1319C27.0102 11.5279 27.0759 11.9556 27.1269 12.3818C27.1509 12.5844 27.1724 12.7936 27.1911 12.9852C27.2474 13.5525 27.2928 14.0444 27.3896 14.3146C27.5052 14.637 27.5218 14.9253 27.5456 15.3521C27.562 15.648 27.582 16.0115 27.6399 16.5007C27.7067 17.0654 27.7183 17.47 27.728 17.8136C27.7416 18.2975 27.7513 18.6616 27.9012 19.1857C28.0673 19.766 28.2058 20.3836 28.2438 20.875C28.2549 21.0151 28.2727 21.165 28.2931 21.3186C28.3066 21.4209 28.3201 21.5172 28.3348 21.6231C28.3834 21.9728 28.4343 22.3483 28.442 22.6995C28.4478 22.9894 28.4083 23.2378 28.3612 23.4893C28.3462 23.5675 28.3308 23.6497 28.3112 23.7445C28.3057 23.8265 28.3037 23.914 28.2605 24.0724C28.2388 24.2159 28.0242 24.5346 27.8931 24.6098C27.7155 24.7427 27.5791 24.8126 27.4395 24.8835C27.4018 24.9134 27.3683 24.9417 27.3276 24.973C27.137 25.1239 26.8963 25.2931 26.5911 25.428C26.1021 25.6418 25.6617 25.7113 25.1984 25.7737C24.84 25.8209 24.4696 25.8608 24.0535 25.943C23.7713 25.9988 23.4492 26.0756 23.1322 26.1471C22.8993 26.1998 22.667 26.25 22.4478 26.2892C22.2358 26.3276 22.0369 26.356 21.8745 26.3639C21.7534 26.3698 21.6437 26.3427 21.5371 26.3155C21.5366 26.3153 21.5361 26.3151 21.5356 26.3149C21.5283 26.3131 21.521 26.3113 21.5137 26.3095C20.7336 26.4352 19.9528 26.5589 19.1698 26.6778C19.1026 26.6953 19.0347 26.7127 18.9676 26.7298C18.6386 26.8134 18.3188 26.8931 18.1129 26.981C17.89 27.0763 17.3152 27.1741 16.7052 27.2695C16.3058 27.3321 15.8911 27.3935 15.5518 27.4568C15.3539 27.4939 15.1608 27.4644 14.9623 27.433C14.7774 27.4037 14.5874 27.3727 14.3817 27.3921C14.2779 27.4019 14.1687 27.4236 14.0484 27.4464C13.944 27.4665 13.8325 27.4873 13.7153 27.501C13.6121 27.5133 13.3764 27.4989 13.0763 27.4735C13.0671 27.4727 13.0579 27.4719 13.0487 27.4711C12.8651 27.4546 12.6595 27.4366 12.4433 27.4231C11.8698 27.4566 11.2993 27.4946 10.7179 27.5328C10.5992 27.5722 10.4938 27.6221 10.4124 27.6847C10.354 27.7296 10.3053 27.7827 10.2531 27.8371C10.1825 27.9111 10.1126 27.9874 10.0105 28.0494C9.93031 28.0979 9.8377 28.1186 9.77274 28.1008C9.74237 28.0925 9.71893 28.0761 9.69771 28.0612C9.67341 28.0442 9.6518 28.0291 9.62593 28.0301C9.60728 28.0308 9.58816 28.0437 9.56472 28.0592C9.52727 28.084 9.47622 28.1161 9.39999 28.1186C9.11483 28.128 8.78521 28.1223 8.45166 28.1102C8.08182 28.097 7.7041 28.0741 7.39036 28.0617C7.04091 28.0485 6.52186 27.9528 5.98568 27.7887C5.69968 27.7017 5.41247 27.5958 5.15397 27.49C5.07297 27.4571 4.99184 27.4232 4.91094 27.3882C4.57475 27.2356 4.14019 27.0886 3.63341 26.6472C3.37847 26.422 3.12577 26.0972 2.97132 25.7475C2.82857 25.4297 2.77723 25.2213 2.74955 25.0233C2.74035 24.9527 2.77022 24.8619 2.8102 24.75C2.83904 24.6729 2.87289 24.5845 2.90288 24.4901C2.8338 24.1172 2.79141 23.763 2.76099 23.4162C2.75303 23.4046 2.74488 23.3921 2.73669 23.3806C2.7365 23.3804 2.73632 23.3802 2.73614 23.38C2.55071 23.113 2.3022 22.7313 2.41136 22.1898C2.43915 22.0513 2.49774 21.9666 2.55044 21.8873C2.5966 21.8196 2.63861 21.7593 2.65307 21.6766C2.65486 21.6665 2.65624 21.656 2.65715 21.6451C2.6665 21.5317 2.63184 21.4019 2.59513 21.2603C2.54355 21.0623 2.48773 20.8437 2.54174 20.6282C2.54542 20.6134 2.54947 20.5977 2.55353 20.5813C2.59199 20.4254 2.64941 20.1973 2.76267 19.9732C2.79806 19.3055 2.83539 18.6538 2.85369 18.0142C2.86195 17.7254 2.86635 17.4392 2.86469 17.1573C2.85613 16.3423 2.84762 15.5298 2.83363 14.7177C2.82475 14.1758 2.93047 13.6473 3.13649 13.2446C3.34301 12.8423 3.63114 12.5979 3.95227 12.5628C4.27363 12.5281 4.60769 12.7161 4.88595 13.0807C5.16406 13.4458 5.36141 13.9586 5.4418 14.503C5.5617 15.3188 5.67596 16.133 5.78333 16.9501C5.79319 17.0276 5.8026 17.1054 5.81151 17.1825C5.82121 17.2322 5.83053 17.2821 5.83926 17.3316C5.90413 17.7003 6.00496 18.0376 6.10189 18.3742C6.12413 18.4516 6.14617 18.5288 6.16742 18.6063Z" fill="#332824"/>
<path d="M18.8497 21.2821C18.7813 21.5251 18.4385 21.6775 18.2561 21.7485C18.2528 21.7499 18.2494 21.7513 18.2461 21.7527C18.2025 21.7701 18.1644 21.791 18.1198 21.8153C18.0135 21.8726 17.8688 21.9522 17.5299 22.0253C17.4467 22.0749 17.3625 22.1219 17.2768 22.1665C17.1669 22.2236 17.0537 22.2785 16.9401 22.3299C15.4979 22.8682 14.9498 22.4195 14.4273 22.261C13.927 22.0432 13.5417 21.7907 13.1962 21.5534C13.1853 21.5491 13.1745 21.5449 13.1631 21.5404C13.1425 21.5323 13.1218 21.5242 13.1014 21.5162C12.3995 21.1715 12.1797 20.7795 12.0725 20.5668C11.9417 20.2533 11.924 20.0806 11.9032 19.9358C11.9006 19.9291 11.898 19.9224 11.8954 19.9157C11.2505 18.2598 12.0218 17.4429 12.3505 16.7159C12.3728 16.6765 12.3954 16.6371 12.4177 16.5984C12.5328 16.398 12.6559 16.2028 12.7869 16.0124C12.9327 15.8007 13.091 15.5946 13.2605 15.3982C13.3385 15.2645 13.4139 15.1338 13.4881 15.0151C13.594 14.8469 13.6973 14.7027 13.8025 14.6032C14.0532 14.3636 14.4201 14.2062 14.6922 14.116C14.7371 14.1007 14.7786 14.0874 14.8175 14.0748C15.0109 13.9573 15.2118 13.8491 15.4217 13.7521C15.4404 13.7592 15.4592 13.767 15.4782 13.7751C15.7205 13.8775 15.9259 13.8039 16.3285 13.7371C16.3876 13.7281 16.4501 13.7198 16.5209 13.7139C16.7896 13.6919 17.0273 13.7386 17.222 13.8047C17.4046 13.8688 17.4483 13.9649 17.4866 14.0402C17.4975 14.0626 17.5069 14.0833 17.5176 14.1015C17.5536 14.1635 17.6249 14.1463 17.709 14.1272C17.8174 14.1021 17.947 14.0741 18.0189 14.1981C18.0196 14.1993 18.0204 14.2005 18.0211 14.2018C18.3623 14.5376 18.4181 14.6916 18.5478 14.7892C18.6622 14.8855 18.7738 14.9202 18.8722 14.9537C18.9297 14.9731 18.981 14.9912 19.0205 15.0189C19.1485 15.1078 19.195 15.3072 19.1876 15.4663C19.1828 15.5925 19.3332 15.753 19.4721 15.8639C19.5251 15.9063 19.5587 15.9794 19.5969 16.066C19.608 16.0912 19.6196 16.1176 19.6322 16.145C19.6895 16.2283 19.7046 16.5048 19.7247 16.6039C19.727 16.679 19.7337 16.7559 19.7568 16.8417C19.8379 17.1411 19.8707 17.3054 19.8965 17.4406C19.9037 17.4792 19.9103 17.5129 19.9168 17.5502C19.9376 17.6653 19.9499 17.8052 19.9576 17.9556C19.9671 18.1334 19.9699 18.3208 19.9828 18.4713C19.8764 18.8387 19.7328 19.2306 19.4893 19.6462C19.3648 19.8591 19.101 20.005 18.8136 19.9872C18.525 19.9716 18.2384 19.8162 17.9814 19.6112C17.7235 19.4061 17.5176 19.156 17.3598 18.9572C17.2035 18.7561 17.1022 18.6362 17.1087 18.5592C17.1232 18.4032 17.127 18.1896 17.124 17.953C17.1208 17.6639 17.111 17.3432 17.1223 17.0127C17.127 16.8749 17.1319 16.74 17.1373 16.5977L17.2493 17.1533C17.216 17.0653 17.1831 16.9788 17.1505 16.8946C17.1425 16.8737 17.1343 16.8525 17.1263 16.832C16.9755 16.7025 16.833 16.5959 16.7616 16.5298C16.7027 16.4747 16.7134 16.415 16.724 16.367C16.7315 16.3343 16.7391 16.3078 16.7296 16.3023C16.7247 16.2995 16.7168 16.2984 16.7134 16.3035C16.7109 16.312 16.703 16.3443 16.8429 16.4298C16.7203 16.3732 16.608 16.3094 16.5597 16.2408C16.522 16.1849 16.5131 16.1177 16.5888 16.0632C16.6177 16.0412 16.6599 16.0191 16.7097 15.9924C16.6666 15.9346 16.5739 15.9084 16.5383 15.9365C16.4466 16.0042 16.3125 16.0004 16.1871 16.0067C16.0684 16.012 15.9598 16.0259 15.9297 16.0995C15.8935 16.1876 15.8319 16.187 15.7352 16.1927C15.6693 16.1963 15.5862 16.2033 15.4911 16.2459C15.3813 16.2953 15.2867 16.3057 15.2039 16.3177C15.0889 16.3342 14.9976 16.3536 14.9595 16.4874C14.9175 16.6363 14.8663 16.7632 14.7775 16.8205C14.7371 16.8464 14.7034 16.889 14.6703 16.9334C14.6257 16.9932 14.5823 17.0558 14.5159 17.0957C14.4613 17.1281 14.3804 17.1332 14.3085 17.1392C14.2861 17.1411 14.2645 17.1433 14.2449 17.1465C14.2182 17.1893 14.1935 17.2316 14.1697 17.2758C14.1744 17.288 14.18 17.3011 14.1857 17.3147C14.2143 17.3831 14.2523 17.4632 14.2541 17.5377C14.2542 17.5418 14.2542 17.5458 14.2541 17.5498C14.2487 17.6668 14.1782 17.7334 14.1055 17.8059C14.0472 17.864 13.9875 17.9262 13.967 18.0126C13.953 18.0714 13.9561 18.1428 13.9632 18.209C13.9732 18.3083 13.9933 18.3923 13.9611 18.437C13.9489 18.454 13.9069 18.4631 13.8651 18.4735C13.8648 18.4736 13.8646 18.4736 13.8643 18.4736C13.8615 18.4743 13.8587 18.4751 13.8559 18.4758C13.8685 18.6018 13.9147 18.6869 13.9548 18.6921C13.9651 18.6907 13.9751 18.6885 13.9847 18.6855C14.0263 18.6729 14.0611 18.6454 14.1031 18.6067C14.113 18.6092 14.1229 18.6112 14.1328 18.6127C14.2262 18.6265 14.3384 18.7327 14.4374 18.8009C14.5022 18.8461 14.5606 18.8725 14.6025 18.8588C14.6268 18.8509 14.5955 18.8773 14.5591 18.9015C14.5243 18.9234 14.4872 18.9438 14.4625 18.9139C14.4497 18.8987 14.4375 18.8701 14.4135 18.8363C14.4057 18.8253 14.3965 18.8138 14.386 18.8024C14.4066 18.8011 14.4275 18.8008 14.4478 18.8031C14.4779 18.8066 14.5244 18.8536 14.5826 18.9126C14.6181 18.9488 14.6583 18.9896 14.7018 19.0277C14.845 19.065 14.9826 19.0986 15.112 19.1265C15.1509 19.1032 15.1898 19.068 15.2285 19.0183C15.2563 18.9826 15.285 18.9382 15.3141 18.8926C15.3537 18.8306 15.3939 18.7662 15.4328 18.7173C15.4631 18.6791 15.4854 18.6676 15.4894 18.6896C15.4913 18.6998 15.4893 18.7171 15.4876 18.7328C15.4856 18.7507 15.4839 18.7667 15.4883 18.7678C15.4916 18.7686 15.4989 18.758 15.5078 18.7452C15.5221 18.7247 15.5402 18.6982 15.5523 18.7012C15.5974 18.7123 15.64 18.7362 15.6754 18.7563C15.7149 18.7788 15.7445 18.7961 15.7625 18.7901C15.7827 18.7839 15.7878 18.829 15.7542 18.8736C15.731 18.905 15.6869 18.9375 15.6249 18.9615C15.5657 18.9849 15.4689 18.9818 15.345 19.0122C15.3397 19.0135 15.3344 19.0148 15.3291 19.0162C15.3763 18.9614 15.4226 18.9099 15.4898 18.9194C15.5041 18.9213 15.5394 18.9595 15.5843 19.0068C15.6161 19.0404 15.6527 19.0785 15.6897 19.112C15.7563 19.0774 15.8235 19.0439 15.8914 19.0112C15.8904 19.004 15.8895 18.9966 15.8886 18.9891C15.8885 18.9889 15.8885 18.9888 15.8884 18.9886C15.8663 18.8191 15.8301 18.5904 15.9933 18.6459C16.035 18.6599 16.0817 18.7032 16.1239 18.7421C16.1654 18.7802 16.2027 18.8142 16.2264 18.8119C16.2533 18.8092 16.2611 18.7659 16.269 18.7189C16.2801 18.653 16.2908 18.5799 16.3594 18.5988C16.3641 18.6001 16.3692 18.6016 16.3744 18.6029C16.4237 18.616 16.4968 18.6349 16.601 18.6996C16.7452 18.6403 16.8878 18.5826 17.0233 18.5264C17.2472 18.4355 17.462 18.333 17.5857 18.2861C17.6459 18.2631 17.7671 18.354 17.9988 18.4311C18.2302 18.5153 18.5499 18.4967 18.8718 18.4992C19.1918 18.4998 19.5178 18.6324 19.6775 18.9501C19.8393 19.2606 19.807 19.6327 19.6764 19.8603C19.4607 20.2365 19.2504 20.5004 19.0376 20.7471C19.0291 20.7628 19.0203 20.7783 19.0113 20.7935C18.9435 20.9068 18.9109 21.0464 18.8752 21.1862C18.8669 21.2183 18.8583 21.2507 18.8497 21.2821Z" fill="#332824"/>
<path d="M21.3806 12.7457C21.3914 12.6512 21.5022 12.6321 21.5682 12.6214C21.5694 12.6212 21.5705 12.621 21.5717 12.6208C21.5871 12.6183 21.6014 12.613 21.6178 12.607C21.6661 12.5911 21.6855 12.5766 21.906 12.5596C21.9533 12.5461 22.0029 12.5268 22.1399 12.5138C22.3482 12.4888 22.6429 12.58 22.7939 12.7041C23.0577 12.9201 23.0785 13.051 23.1195 13.1289C23.1514 13.2081 23.1615 13.252 23.1685 13.2785C23.2438 13.6292 23.199 13.7411 23.1752 13.9003C23.1713 14.0717 23.04 14.4102 22.859 14.5588C22.6753 14.7377 22.3756 14.8392 22.1651 14.8304C21.9497 14.8266 21.8033 14.7671 21.6854 14.7048C21.6762 14.7015 21.667 14.6979 21.6579 14.6943C21.4808 14.6221 21.3088 14.517 21.1887 14.3065C21.187 14.3039 21.1853 14.3014 21.1837 14.2988C21.0627 14.0912 21.0835 14.0397 21.0726 13.9804C21.0694 13.9273 21.0735 13.8943 21.078 13.8661C21.0877 13.8107 21.1015 13.7777 21.1143 13.7485C21.1367 13.5992 21.1692 13.4997 21.1945 13.3971C21.2141 13.2367 21.2994 13.0013 21.3559 12.9139C21.3706 12.8815 21.3879 12.8484 21.41 12.8137C21.537 12.5675 21.9393 12.4437 22.1216 12.4961C22.2435 12.5157 22.3365 12.5531 22.4283 12.6056C22.5707 12.6954 22.6196 12.781 22.6579 12.8399C22.729 12.9327 22.7648 12.9891 22.7995 13.0395C22.8462 13.1089 22.8792 13.1608 22.8944 13.2047C22.9306 13.3103 22.9108 13.4179 22.8949 13.4926C22.8923 13.5049 22.8898 13.5163 22.8876 13.5268C22.889 13.5321 22.8904 13.5374 22.8918 13.5427C22.9065 13.6118 22.918 13.682 22.9252 13.7555C22.9184 13.7606 22.9113 13.7657 22.904 13.7708C22.8109 13.8371 22.8138 13.9015 22.7705 14.0685C22.7637 14.0924 22.7554 14.1192 22.7415 14.1536C22.6954 14.3206 22.4334 14.5173 22.2933 14.5257C22.1629 14.5476 22.1388 14.5045 22.1101 14.4782C22.1025 14.4699 22.096 14.462 22.0898 14.4556C22.0688 14.4337 22.0489 14.4559 22.028 14.4822C22.0155 14.498 22.003 14.5154 21.992 14.5255C21.8762 14.5335 21.7411 14.4807 21.6757 14.4038C21.5122 14.1808 21.5498 14.1386 21.5021 14.0945C21.4687 14.0563 21.4249 14.0455 21.3867 14.0361C21.371 14.0323 21.3566 14.0291 21.345 14.0252C21.339 14.0207 21.3335 14.016 21.3287 14.0111C21.2743 13.955 21.2796 13.8541 21.3107 13.7889C21.3341 13.736 21.2933 13.6542 21.2513 13.5917C21.2351 13.568 21.2345 13.5357 21.2351 13.4999C21.2357 13.4629 21.2377 13.4218 21.2235 13.3805C21.2185 13.3659 21.2139 13.3528 21.2096 13.3414C21.2046 13.2281 21.2453 13.0561 21.3422 12.9257C21.4377 12.7943 21.5435 12.7295 21.608 12.6923C21.6444 12.6718 21.6828 12.6541 21.7231 12.6396C21.7859 12.6168 21.8534 12.6018 21.9236 12.5957C22.1534 12.5686 22.4271 12.6868 22.5692 12.8295C22.6213 12.8783 22.6652 12.9302 22.7032 12.9858C22.8299 13.1957 22.8396 13.2912 22.8662 13.4035C22.8665 13.4343 22.8654 13.4657 22.8627 13.4989C22.7948 13.9438 22.6586 13.9877 22.5844 14.0869C22.5675 14.1037 22.5446 14.1137 22.5168 14.1172C22.5089 14.147 22.4326 14.2039 22.4184 14.2313C22.3384 14.2934 22.1244 14.3879 21.9647 14.365C21.8037 14.3296 21.8725 14.3521 22.1135 14.2318C22.1574 14.2035 22.1803 14.1777 22.1948 14.1574C22.2589 14.0091 22.1512 14.0503 21.9718 14.0526C21.8675 14.058 21.7603 13.9829 21.7612 13.9312C21.753 13.8788 21.7821 13.8451 21.809 13.8138C21.8612 13.7668 21.9542 13.6504 21.7917 13.6014C21.6822 13.5693 21.5864 13.5763 21.6496 13.4335C21.6625 13.4143 21.6822 13.391 21.7191 13.3659C21.9198 13.2576 21.9988 13.2742 21.887 13.2397C21.777 13.2153 21.6183 13.279 21.5657 13.3137L21.4842 13.4082C21.4739 13.3859 21.4695 13.3687 21.4711 13.3573C21.4832 13.3168 21.4489 13.2219 21.3978 13.4517C21.3946 13.4748 21.3932 13.4945 21.3929 13.5142C21.3956 13.5668 21.3869 13.6052 21.4498 13.7299C21.4945 13.8135 21.5591 13.9009 21.7066 13.9704C21.8517 14.0441 22.0807 14.0301 22.1933 13.9725C22.2757 13.9452 22.4542 13.8003 22.5097 13.6516C22.5448 13.5706 22.5544 13.507 22.5584 13.4631C22.5526 13.5141 22.5481 13.542 22.5428 13.562C22.5421 13.5643 22.5414 13.5665 22.5407 13.5684C22.583 13.5828 22.6207 13.564 22.6253 13.5348C22.6268 13.5269 22.6239 13.5194 22.6185 13.513C22.6197 13.5293 22.6102 13.5419 22.6009 13.5512C22.591 13.5609 22.5813 13.5671 22.5817 13.5638C22.5819 13.562 22.5829 13.558 22.5805 13.5478C22.5762 13.534 22.572 13.5107 22.5234 13.4517C22.4804 13.4023 22.3422 13.2567 22.0689 13.2383C22.103 13.2425 22.1223 13.2498 22.1126 13.2638C22.1066 13.2916 22.0195 13.2779 21.8022 13.471C21.7262 13.5477 21.6783 13.6491 21.6645 13.717C21.6783 13.7675 21.7057 13.7558 21.6953 13.7525C21.6734 13.7394 21.6966 13.7197 21.7157 13.6964C21.7339 13.6746 21.7484 13.6509 21.72 13.64C21.7071 13.6351 21.7009 13.6304 21.6992 13.6253C21.696 13.611 21.7049 13.5953 21.7159 13.576C21.7282 13.5545 21.7431 13.528 21.7466 13.4951C21.7506 13.4574 21.7706 13.4305 21.7872 13.4077C21.8108 13.3764 21.8274 13.3501 21.7846 13.3372C21.7385 13.3239 21.7035 13.3273 21.7434 13.3711C21.7637 13.3886 21.7803 13.4347 21.8817 13.5026C21.8818 13.5027 21.8819 13.5027 21.8819 13.5028C21.8963 13.5139 21.9116 13.5231 21.9363 13.5142C21.9566 13.5067 21.98 13.4774 21.9975 13.4494C22.003 13.4407 22.0081 13.4321 22.0129 13.4245C22.0315 13.4245 22.0566 13.4222 22.0858 13.4131C22.0922 13.4165 22.0993 13.42 22.1072 13.4232C22.1455 13.4402 22.2104 13.447 22.2648 13.417C22.32 13.3865 22.3404 13.3442 22.3432 13.3157C22.3335 13.3275 22.3234 13.3343 22.3141 13.3392C22.2939 13.3495 22.2764 13.3525 22.2795 13.3622C22.2818 13.3686 22.2936 13.3769 22.3058 13.3845C22.3236 13.3958 22.3421 13.4062 22.3304 13.4153C22.3303 13.4155 22.3302 13.4158 22.3301 13.416C22.3253 13.4255 22.3048 13.4333 22.2843 13.4411C22.2842 13.4411 22.2841 13.4411 22.284 13.4412C22.2826 13.4417 22.2812 13.4422 22.2798 13.4427C22.2945 13.5041 22.3109 13.5636 22.3298 13.6144C22.3351 13.6187 22.3403 13.623 22.3455 13.6271C22.3708 13.6473 22.3958 13.6635 22.4306 13.6698C22.4656 13.669 22.501 13.7231 22.5014 13.6228C22.4955 13.5912 22.4996 13.5479 22.4218 13.4219C22.4021 13.3778 22.3926 13.3538 22.3876 13.3311C22.3829 13.3101 22.3588 13.3177 22.3375 13.3288C22.3173 13.3391 22.2997 13.3523 22.2951 13.3436C22.2927 13.3391 22.293 13.3292 22.2922 13.3183C22.2916 13.3087 22.2903 13.2983 22.2863 13.2907C22.2826 13.2836 22.2649 13.2881 22.2381 13.295C22.2214 13.2993 22.201 13.3045 22.1755 13.3091C22.1182 13.2866 21.9873 13.2717 21.8458 13.3384C21.8097 13.3375 21.7728 13.334 21.7357 13.3237C21.7089 13.3164 21.6805 13.3058 21.651 13.2959C21.6255 13.2876 21.5988 13.2801 21.5712 13.2768C21.5552 13.2747 21.5377 13.2753 21.5188 13.2797C21.4785 13.2886 21.4393 13.3231 21.4283 13.357C21.4231 13.3727 21.4238 13.3877 21.4246 13.4011C21.4256 13.4165 21.4269 13.4299 21.4201 13.4415C21.4152 13.4498 21.4048 13.4557 21.3924 13.4632C21.3725 13.4752 21.3463 13.4926 21.3316 13.5282C21.2899 13.6285 21.2769 13.7261 21.2768 13.7941C21.2781 13.7907 21.2795 13.7873 21.2809 13.7839C21.2872 13.7689 21.2929 13.7553 21.2883 13.7459C21.2832 13.7353 21.3065 13.7222 21.3295 13.7148C21.3456 13.7097 21.3616 13.7077 21.3688 13.7119C21.376 13.716 21.3642 13.7279 21.3577 13.756C21.3562 13.7623 21.3551 13.7696 21.3546 13.7777C21.3448 13.7801 21.3432 13.8181 21.4052 13.9064C21.4216 13.9287 21.461 13.9508 21.5288 13.9899C21.5778 14.0172 21.6406 14.0563 21.7441 14.1052C21.8639 14.2044 22.1061 14.2794 22.2728 14.2589C22.3663 14.2494 22.376 14.2402 22.3888 14.2364C22.3903 14.2396 22.3919 14.2428 22.3934 14.2461C22.3935 14.2461 22.3935 14.2462 22.3935 14.2463C22.427 14.3209 22.4712 14.4221 22.4331 14.3662C22.4232 14.3521 22.4084 14.3247 22.3948 14.3001C22.3814 14.276 22.3692 14.2545 22.3631 14.2515C22.3561 14.2482 22.3569 14.2662 22.3581 14.2857C22.3595 14.3133 22.3613 14.3441 22.3389 14.325C22.3373 14.3237 22.3357 14.3223 22.334 14.3209C22.3178 14.3075 22.2934 14.2879 22.2556 14.2433C22.2103 14.2486 22.1613 14.2537 22.111 14.2584C22.0274 14.2663 21.9389 14.2735 21.8559 14.2802C21.8156 14.2832 21.7488 14.2342 21.6665 14.1409C21.5772 14.0569 21.5171 13.8865 21.3574 13.825C21.2139 13.7274 21.1996 13.5229 21.1606 13.4042C21.1321 13.274 21.1377 13.1798 21.1733 13.1375C21.2307 13.0694 21.2856 13.005 21.3438 12.9429C21.3459 12.9379 21.348 12.933 21.3503 12.9282C21.3671 12.893 21.3714 12.8384 21.3767 12.7834C21.3779 12.7708 21.3791 12.7581 21.3806 12.7457Z" fill="#332824"/>
<path d="M6.36709 8.70408C6.39035 8.47111 6.66593 8.29647 6.77897 8.228C6.78102 8.2267 6.78305 8.22542 6.78506 8.22416C6.81118 8.20895 6.83152 8.19043 6.84741 8.17634C6.85886 8.16635 6.86957 8.15646 6.86792 8.16582C6.86703 8.17078 6.86118 8.18235 6.84384 8.21398C6.82202 8.25949 6.79015 8.2836 6.68815 8.54309C6.79096 8.30084 7.01515 7.87564 7.51537 7.56022C8.00656 7.2435 8.56028 7.247 8.61082 7.26093C8.60986 7.26396 8.61039 7.26703 8.61274 7.27007C8.63904 7.26496 8.73534 7.25352 8.82046 7.24387C9.44249 7.17194 10.1306 7.12862 10.8054 7.11397C11.1674 7.10924 11.5207 7.10305 11.8797 7.08492C11.8913 7.08165 11.9033 7.07826 11.9157 7.07476C12.0175 7.04603 12.1264 7.01357 12.2535 6.98286C12.3183 6.96741 12.3845 6.9526 12.4814 6.9365C12.5303 6.92867 12.5862 6.91987 12.6769 6.91136C12.7803 6.91019 12.8584 6.86979 13.2628 6.94305C13.3391 6.96444 13.4085 6.98938 13.4653 7.01437C13.9628 7.24735 14.1187 7.4449 14.2728 7.5991C14.5923 7.84717 14.8428 8.09912 15.081 8.36095C15.1993 8.49199 15.3135 8.62584 15.4281 8.7702C15.4865 8.84379 15.5436 8.91801 15.6083 9.00781C15.6421 9.05486 15.6747 9.10095 15.7205 9.17177C15.7424 9.2061 15.7708 9.25046 15.8063 9.31671C15.8271 9.35588 15.8538 9.4067 15.8849 9.48845C15.9064 9.54657 15.9316 9.61904 15.9498 9.73472C15.9549 9.79047 16.0394 10.2083 15.7114 10.6229C15.2324 11.1295 14.8879 11.1035 14.6587 11.1522C14.4217 11.179 14.2403 11.1717 14.0669 11.1621C13.7245 11.1398 13.4323 11.0958 13.1433 11.0549C12.8789 11.0166 12.6237 10.9766 12.3727 10.9392C12.2216 10.9453 12.0777 10.9582 11.9467 10.9706C11.7623 10.9879 11.6039 11.0044 11.4825 10.9977C11.3923 10.9927 11.3042 10.9798 11.2333 10.9662C11.2005 10.9597 11.1684 10.9527 11.1587 10.9478C11.1639 10.9381 11.1134 10.9557 11.3561 10.9147C11.2621 10.9181 11.1643 10.9213 11.075 10.9261C11.0366 10.9282 10.9997 10.9305 10.9653 10.9333C10.7866 11.0003 10.5995 11.0762 10.397 11.1555C10.3798 11.1469 10.362 11.1378 10.344 11.1285C10.1636 11.0362 9.99677 11.0577 9.70091 11.1141C9.61814 11.1292 9.52921 11.1447 9.43248 11.158C9.23409 11.1851 9.00156 11.2028 8.7348 11.1823C8.56273 11.1685 8.48248 11.0915 8.41996 11.0298C8.4015 11.0116 8.38471 10.9945 8.36719 10.9801C8.30809 10.9309 8.23636 10.9677 8.15178 11.0096C8.07055 11.0517 7.96126 11.0953 7.90106 11.0779C7.87482 11.0725 7.84317 11.0648 7.79158 11.0486C7.73327 11.0259 7.68581 11.0274 7.47373 10.9065C7.38391 10.8402 7.18341 10.753 7.02551 10.3646C6.9545 10.1748 6.95344 9.95419 6.99075 9.80155C7.02524 9.65424 7.07773 9.55929 7.11974 9.49218C7.2884 9.253 7.35182 9.24888 7.40902 9.20469C7.51525 9.1423 7.56331 9.13166 7.61186 9.11507C8.06341 9.01965 8.17418 8.85521 8.28978 8.69937C8.32681 8.64893 8.36114 8.60366 8.40093 8.57248C8.53024 8.47082 8.75187 8.47282 8.91968 8.51631C9.05341 8.54977 9.2731 8.43757 9.43626 8.32536C9.49783 8.28275 9.58879 8.26541 9.69512 8.24672C9.76872 8.23378 9.84971 8.22018 9.9342 8.19662L9.89677 8.20299C9.93694 8.1902 9.9784 8.17478 10.0201 8.15567C10.3364 8.0107 10.5053 7.94129 10.641 7.88514C10.6799 7.86917 10.7157 7.85461 10.752 7.83966C10.8661 7.79249 11.0092 7.74648 11.1549 7.7008C11.329 7.64611 11.5064 7.59189 11.6394 7.53479C11.9342 7.52814 12.2298 7.53086 12.5262 7.53815C12.5327 7.53625 12.5533 7.53649 12.5598 7.53474C12.6314 7.53304 12.6888 7.52256 12.8971 7.54383C12.9691 7.55269 13.0575 7.56621 13.1791 7.60399C13.2888 7.64642 13.6063 7.72008 13.9267 8.13853C14.1129 8.38366 14.2175 8.74604 14.2051 9.02648C14.1973 9.27175 14.1444 9.42739 14.0919 9.55646C13.9667 9.82831 13.9232 9.85012 13.8597 9.93444C13.6575 10.1569 13.614 10.1596 13.5542 10.206C13.5014 10.2408 13.4664 10.2603 13.4328 10.2786C13.1327 10.4281 12.9503 10.3443 12.7343 10.1861C12.6311 10.103 12.5373 9.99584 12.4589 9.86675C12.4205 9.80103 12.3842 9.73355 12.3591 9.64572C12.3289 9.58268 12.3076 9.38796 12.2098 9.40735C12.0126 9.47157 11.9674 9.20707 11.9309 9.07089C11.897 8.91223 11.8843 8.75854 11.8905 8.61674C11.894 8.33862 12.0168 8.1093 12.0437 8.06072C12.0422 8.05891 12.0374 8.05871 12.0177 8.06975C11.9921 8.09043 11.9803 8.07359 11.8301 8.23709C11.782 8.3012 11.7486 8.3156 11.6473 8.53512C11.6048 8.63972 11.5611 8.76713 11.5545 8.96952C11.5442 9.20092 11.6308 9.50154 11.7849 9.70417C12.0502 10.0502 12.3079 10.108 12.3935 10.1418C12.4893 10.1717 12.5559 10.1817 12.6073 10.1882C12.7542 10.2036 12.7726 10.1967 12.7994 10.1985L12.8276 10.1957C12.5504 10.2698 12.2732 10.3461 11.9962 10.4183C11.5826 10.5263 11.1684 10.6249 10.7545 10.696C10.6269 10.718 10.4996 10.7392 10.374 10.7596C10.3648 10.7597 10.3381 10.7675 10.3289 10.7673C10.1738 10.7874 10.0202 10.8075 9.86961 10.8283C9.84189 10.8321 9.81423 10.8359 9.78672 10.8398C9.57982 10.9635 9.39152 11.086 9.26693 11.1491C9.16377 11.2011 9.07945 11.1836 9.00827 11.1696C8.95948 11.1599 8.91778 11.1517 8.88752 11.1678C8.87152 11.1764 8.85114 11.1904 8.83038 11.2064C8.80894 11.2228 8.78713 11.2416 8.77149 11.2571C8.7813 11.2535 8.79618 11.2483 8.84317 11.2191C8.86848 11.2028 8.89987 11.183 8.96051 11.1328C9.02351 11.0675 9.10978 11.0439 9.30868 10.6926C9.39599 10.5241 9.5421 10.1493 9.43395 9.67569C9.32248 9.20584 9.04592 8.95038 8.90359 8.83684C8.60278 8.61673 8.51345 8.62188 8.43973 8.59047C8.30893 8.55184 8.29722 8.55579 8.28812 8.55282C8.48934 8.58427 8.55352 8.60659 8.65111 8.65331C8.73718 8.6975 8.832 8.7714 8.93143 8.83461C9.06682 8.92272 9.21206 8.98708 9.27786 8.95483C9.28022 8.95369 9.28252 8.95242 9.28474 8.95102C9.39823 8.88028 9.60048 8.86827 9.78861 8.85358C9.96856 8.83939 10.136 8.82415 10.2141 8.74679C10.3078 8.65415 10.4115 8.65465 10.5695 8.65772C10.6623 8.65966 10.7737 8.6622 10.9193 8.65038C11.0506 8.62879 11.1401 8.63241 11.1945 8.63437C11.5726 8.6667 11.6361 8.74348 11.7648 8.80075C11.9207 8.88379 12.03 8.94707 12.2158 8.90543C12.4228 8.85946 12.6263 8.84424 12.7719 8.89841C12.8388 8.92321 12.9168 8.93449 12.9982 8.94567C13.1054 8.96043 13.2168 8.97478 13.3122 9.02027C13.3906 9.05775 13.4491 9.13075 13.5012 9.19492C13.5174 9.21493 13.5329 9.23399 13.5486 9.25096C13.6143 9.25865 13.6783 9.26501 13.7422 9.26973C13.7535 9.26055 13.7653 9.2503 13.7774 9.23968C13.8395 9.18645 13.9112 9.12015 13.9911 9.08857C14.1145 9.03832 14.2062 9.07364 14.2799 9.10555C14.3308 9.13444 14.3956 9.13846 14.3053 9.16329C14.2696 9.1769 14.1875 9.20444 14.0845 9.30934C13.9173 9.51527 13.8749 9.73957 13.87 9.87633C13.8681 10.0372 13.8795 10.0517 13.8883 10.1092C13.9072 10.202 13.9311 10.258 13.9384 10.2789C13.9597 10.3337 13.9714 10.3566 13.9759 10.3699C13.9872 10.3988 13.9827 10.4006 13.977 10.4028C13.9231 10.3935 13.8018 10.317 13.7647 10.2464C13.7491 10.2179 13.7585 10.1708 13.7665 10.1229C13.7665 10.1226 13.7666 10.1224 13.7667 10.1221C13.7672 10.1189 13.7677 10.1156 13.7682 10.1124C13.5959 9.98846 13.4097 9.8745 13.2294 9.78593C13.2095 9.78409 13.1896 9.78228 13.1702 9.7807C13.075 9.77276 12.9869 9.77248 12.9144 9.80731C12.8377 9.84499 12.7109 9.82359 12.6517 9.85025C12.6285 9.86064 12.6192 9.87917 12.6372 9.90494C12.9374 9.96361 12.9704 9.94044 13.0186 9.949C13.0565 9.95216 13.0648 9.95751 13.0675 9.96494C13.0708 9.98818 13.0101 9.9584 12.9485 9.92856C12.8893 9.901 12.8221 9.87445 12.7589 9.89901C12.7277 9.91122 12.6956 9.93596 12.6603 9.96252C12.6303 9.98566 12.5964 10.0106 12.5609 10.0289C12.5261 10.0463 12.443 10.041 12.334 10.0337C12.266 10.0294 12.191 10.0237 12.1119 10.0218C11.9168 10.0847 11.7196 10.1432 11.5231 10.1964C11.4861 10.2388 11.4575 10.2906 11.4373 10.3547C11.4229 10.4007 11.4125 10.4546 11.4015 10.5097C11.3873 10.5846 11.3723 10.662 11.3446 10.7259C11.3344 10.7493 11.3222 10.7668 11.3094 10.7771C11.2962 10.7886 11.2826 10.7909 11.2703 10.7822C11.2596 10.7746 11.25 10.7588 11.2413 10.7445C11.2314 10.7282 11.2226 10.7136 11.2145 10.7152C11.2086 10.7164 11.2042 10.7295 11.1988 10.7455C11.1901 10.7709 11.1787 10.8038 11.1555 10.8081C11.066 10.8245 10.9647 10.8283 10.8644 10.832C10.7528 10.8362 10.6429 10.8404 10.5595 10.8609C10.4629 10.8844 10.3217 10.8567 10.1772 10.8293C10.0747 10.8104 9.97709 10.791 9.8902 10.7889C9.807 10.7867 9.72514 10.8229 9.64451 10.8581C9.54817 10.9003 9.45401 10.9408 9.36456 10.9106C9.34695 10.9044 9.31918 10.8573 9.28527 10.7982C9.26231 10.7562 9.23241 10.7085 9.20312 10.6647C9.0889 10.6771 8.98831 10.6873 8.81792 10.6947C8.81191 10.7018 8.80576 10.7091 8.79966 10.7165C8.79956 10.7167 8.79947 10.7168 8.79937 10.717C8.79077 10.7264 8.78203 10.7359 8.77331 10.7456C8.7321 10.8067 8.881 10.9192 9.28372 10.8195C9.70279 10.7346 10.1795 10.2178 10.2365 9.92879C10.1701 10.0818 10.0908 10.199 10.0379 10.2566C9.91279 10.3947 9.83003 10.3956 9.75099 10.41C9.67239 10.4232 9.615 10.4171 9.57148 10.453C9.52245 10.4931 9.50896 10.5581 9.49195 10.6297C9.47079 10.7274 9.44889 10.8314 9.35215 10.8543C9.34567 10.8558 9.33865 10.8572 9.33145 10.8589C9.26248 10.8752 9.16346 10.8953 9.02707 10.8723C8.83544 11.0164 8.64738 11.1435 8.4618 11.2641C8.15365 11.4639 7.84321 11.6508 7.57028 11.8224C7.43882 11.9039 7.24397 11.8933 7.02339 11.7843C6.80638 11.6967 6.55139 11.4 6.21434 11.5139C6.05407 11.5569 5.88139 11.4133 5.78952 11.2474C5.69805 11.0699 5.64239 10.9013 5.61373 10.7353C5.55269 10.412 5.59651 10.147 5.71349 9.9782C5.90702 9.70296 6.08491 9.46031 6.26208 9.22321C6.26862 9.20797 6.27535 9.19287 6.28229 9.17813C6.33382 9.06853 6.34749 8.93187 6.35889 8.79683C6.36137 8.76594 6.36425 8.7346 6.36709 8.70408Z" fill="#332824"/>
<path d="M18.9072 4.948C18.9946 4.9178 19.0523 5.00378 19.083 5.051C19.0836 5.05185 19.0842 5.05269 19.0848 5.05353C19.0921 5.06477 19.101 5.07329 19.1111 5.08302C19.1354 5.10646 19.1688 5.13827 19.2099 5.23719C19.2321 5.2535 19.2541 5.27081 19.2751 5.28874C19.382 5.37998 19.4786 5.48471 19.5676 5.59954C19.8939 5.98917 19.9143 6.21335 19.9063 6.6294C19.9068 6.63969 19.9071 6.6503 19.9073 6.66153C19.908 6.7109 19.906 6.76821 19.8949 6.83723C19.8792 6.94705 19.8483 7.07575 19.7512 7.21107C19.6249 7.41995 19.2332 7.64047 18.9986 7.59879C18.659 7.58596 18.5507 7.46052 18.46 7.39292C18.3744 7.31705 18.3215 7.2491 18.275 7.18645C18.1838 7.06087 18.1204 6.95075 18.0539 6.84554C18.0128 6.77982 17.9721 6.71695 17.9298 6.65641C17.891 6.60093 17.851 6.54633 17.8108 6.49393C17.7751 6.47047 17.7388 6.45142 17.7046 6.43267C17.6572 6.4074 17.6151 6.38432 17.5899 6.3587C17.5325 6.30091 17.5064 6.20967 17.4941 6.15156C17.4911 6.14537 17.4882 6.13931 17.4855 6.13337C17.4732 6.10666 17.4643 6.08339 17.4569 6.06284C17.393 5.96057 17.3564 5.87925 17.3234 5.80362C17.3282 5.79671 17.3333 5.78978 17.3386 5.78281C17.4049 5.69674 17.3886 5.62676 17.3708 5.52335C17.3632 5.47938 17.3554 5.42657 17.3553 5.37874C17.3553 5.37423 17.3561 5.36975 17.3577 5.36642C17.3624 5.32282 17.3864 5.28602 17.4099 5.23844C17.4184 5.22034 17.4265 5.20222 17.4366 5.17223C17.4462 5.14748 17.4511 5.11403 17.4817 5.04477C17.4985 4.98842 17.6377 4.79898 17.8394 4.78617C18.1671 4.7983 18.1336 4.86277 18.1907 4.86738C18.2348 4.88301 18.2603 4.88472 18.2754 4.88435C18.2844 4.87587 18.2851 4.87292 18.2723 4.88882C18.205 4.99028 18.2707 4.93113 18.2879 4.87007C18.2947 4.85309 18.3001 4.8375 18.3036 4.82896C18.3139 4.80102 18.3163 4.83167 18.3293 4.87358C18.3386 4.90618 18.3719 4.87847 18.4123 4.84018C18.5376 4.80096 18.7328 4.98509 18.8429 5.05667C18.8443 5.05705 18.8456 5.05742 18.8469 5.05779C18.8716 5.0646 18.8889 5.08651 18.9085 5.11259C18.9288 5.13958 18.9515 5.17113 18.9889 5.19614C19.0833 5.25993 19.1293 5.29851 19.1663 5.32878C19.1768 5.33746 19.1864 5.34564 19.1961 5.35377C19.2269 5.37938 19.2591 5.41443 19.2904 5.44935C19.328 5.49132 19.3641 5.53262 19.3979 5.55859C19.4129 5.62045 19.4238 5.68011 19.4238 5.71478L19.4119 5.69232C19.4149 5.7153 19.3673 5.64688 19.3026 5.60201C19.2072 5.53755 19.1525 5.60784 19.1165 5.72222C19.0787 5.83854 19.0449 5.99508 18.9911 6.15068C18.9373 6.30609 18.8704 6.45219 18.7778 6.54622C18.6873 6.63819 18.5614 6.67506 18.4174 6.56557C18.3184 6.4895 18.2453 6.38176 18.2183 6.34998C18.2176 6.34576 18.2089 6.33528 18.2083 6.33104C18.1565 6.26482 18.1188 6.21914 18.083 6.1762C18.0172 6.09728 17.9643 6.03473 17.9233 5.96923C17.8958 5.92514 17.8704 5.88232 17.8451 5.83942L18.3793 6.10796C18.3765 6.10765 18.3736 6.10733 18.3705 6.10701C18.3613 6.10603 18.3514 6.10494 18.341 6.10378C18.254 6.14209 18.1235 6.16686 18.024 6.15815C17.9417 6.1516 17.884 6.11065 17.8386 6.07412C17.8069 6.04877 17.7799 6.02512 17.7473 6.01185C17.7298 6.0047 17.7052 5.9955 17.6758 5.9829C17.5985 5.95043 17.4838 5.88816 17.3923 5.79347C17.3886 5.78407 17.3541 5.76768 17.4871 5.85654C17.5329 5.87864 17.5795 5.92811 17.7905 5.96025C17.8945 5.97423 18.0734 5.96134 18.2266 5.8763C18.3828 5.79116 18.4655 5.67997 18.5118 5.60185C18.6494 5.31513 18.5933 5.30931 18.6035 5.26176C18.596 5.18832 18.5807 5.19426 18.5681 5.19355C18.5566 5.22521 18.541 5.24916 18.5259 5.27181C18.486 5.33023 18.4492 5.37819 18.4662 5.39616C18.4958 5.42723 18.4836 5.46598 18.4733 5.49541C18.4633 5.52345 18.4549 5.54231 18.4814 5.5346C18.5122 5.52497 18.5007 5.52732 18.4744 5.52182C18.4745 5.52244 18.4745 5.52306 18.4746 5.52369C18.4771 5.55306 18.48 5.58906 18.4961 5.62736C18.5145 5.67129 18.512 5.71047 18.5102 5.74425C18.5073 5.79118 18.5053 5.82652 18.5606 5.84238C18.6214 5.85878 18.6705 5.88481 18.6805 5.92405C18.6848 5.94167 18.697 5.95727 18.7098 5.97349C18.7266 5.99476 18.7442 6.01684 18.7464 6.04664C18.7481 6.07109 18.7319 6.1037 18.7178 6.13274C18.7134 6.1418 18.7092 6.15047 18.7058 6.15844C18.7159 6.17203 18.7262 6.18541 18.7368 6.19843C18.7426 6.19761 18.7489 6.19657 18.7554 6.1955C18.788 6.19021 18.8279 6.18335 18.8554 6.18997C18.899 6.20062 18.9025 6.23432 18.9071 6.2706C18.9104 6.29853 18.9143 6.32766 18.9363 6.34508C18.951 6.35658 18.975 6.36424 18.9974 6.36957C19.0312 6.37823 19.0616 6.3821 19.0647 6.40181C19.0658 6.40913 19.0554 6.42696 19.0453 6.44486C19.0453 6.44496 19.0452 6.44507 19.0451 6.44517C19.0445 6.44639 19.0438 6.44758 19.0431 6.44879C19.0782 6.46256 19.1207 6.46382 19.0862 6.42665C19.0843 6.42023 19.0814 6.4135 19.0766 6.40645C19.057 6.3724 18.9932 6.33348 18.9243 6.30464C18.8634 6.25324 18.5753 6.34411 18.4947 6.44669C18.4318 6.50752 18.4107 6.53283 18.3853 6.54093C18.3707 6.54659 18.3889 6.55876 18.4093 6.56516C18.4281 6.57165 18.4485 6.57459 18.4443 6.56993C18.4437 6.56932 18.4427 6.5686 18.4415 6.56777C18.4356 6.57792 18.4277 6.58762 18.4199 6.59659C18.4106 6.60753 18.4013 6.6178 18.3958 6.62731C18.3906 6.63645 18.4022 6.65491 18.4177 6.66499C18.4272 6.67148 18.438 6.6753 18.4467 6.67689C18.4358 6.68763 18.424 6.69076 18.415 6.69931C18.3988 6.70736 18.3779 6.71841 18.3514 6.73302C18.3324 6.7435 18.3098 6.75617 18.2869 6.76967C18.2558 6.78804 18.2241 6.80797 18.2006 6.82678C18.1821 6.84144 18.177 6.85109 18.1873 6.84941C18.192 6.84862 18.2 6.84543 18.2072 6.84248C18.2154 6.83911 18.2227 6.83603 18.2233 6.83744C18.2237 6.83847 18.2191 6.84275 18.2135 6.84806C18.2047 6.85653 18.1935 6.86785 18.1962 6.87282C18.2062 6.89126 18.2275 6.9122 18.2599 6.93937C18.2689 6.94687 18.279 6.95508 18.2897 6.96349C18.2792 6.94875 18.2682 6.9357 18.2554 6.92861C18.2362 6.91795 18.2294 6.88047 18.2218 6.84263C18.2165 6.81632 18.2109 6.78987 18.2012 6.77257C18.1918 6.75566 18.1688 6.75245 18.1467 6.7497C18.1202 6.74639 18.0945 6.74323 18.0939 6.71609C18.0939 6.7106 18.1066 6.68858 18.1226 6.66103C18.1339 6.6415 18.1467 6.61914 18.1578 6.59783C18.1399 6.58256 18.1223 6.56633 18.1055 6.54971C18.1027 6.55178 18.0998 6.55387 18.0969 6.55602C18.0968 6.55608 18.0967 6.55613 18.0967 6.55619C18.0304 6.60448 17.9411 6.67178 17.9537 6.59803C17.957 6.57931 17.9718 6.55199 17.985 6.52737C17.9981 6.50318 18.0096 6.48144 18.0074 6.47309C18.0049 6.46362 17.9871 6.47054 17.968 6.47816C17.941 6.48885 17.9108 6.50071 17.915 6.47034C17.9152 6.46827 17.9156 6.466 17.9159 6.46371C17.9186 6.44193 17.9223 6.40943 17.9436 6.35525C17.9128 6.31172 17.8831 6.26642 17.854 6.22008C17.8058 6.14299 17.7583 6.06232 17.7114 5.98401C17.6886 5.94567 17.7021 5.86249 17.7482 5.74703C17.7942 5.63133 17.8707 5.49518 17.9508 5.35484C18.0309 5.21427 18.1429 5.0998 18.2421 5.02047C18.3424 4.94189 18.4256 4.90772 18.4763 4.92236C18.5585 4.94629 18.6389 4.97039 18.7174 4.9969C18.7227 4.99672 18.728 4.99665 18.7332 4.99676C18.7714 4.99742 18.8219 4.97894 18.8723 4.96032C18.8839 4.9561 18.8956 4.9519 18.9072 4.948Z" fill="#332824"/>
<path d="M20.576 6.17697C20.4936 6.1284 20.5172 6.01988 20.5313 5.96214C20.5315 5.96109 20.5317 5.96005 20.5319 5.959C20.5353 5.94542 20.5356 5.93263 20.5359 5.91746C20.5369 5.88226 20.5379 5.83354 20.584 5.7342C20.5812 5.70548 20.5794 5.67774 20.5787 5.64934C20.5745 5.47246 20.5967 5.29936 20.6336 5.12829C20.6598 5.02301 20.6901 4.91772 20.7213 4.8064C20.7209 4.80303 20.7205 4.79961 20.72 4.79617C20.7114 4.73021 20.7001 4.64372 20.728 4.58481C20.7633 4.5098 20.7972 4.45384 20.8274 4.40586C20.8647 4.26757 20.9039 4.06647 21.027 3.85375C21.079 3.78298 21.0705 3.70238 21.3322 3.53533C21.4515 3.45416 21.7423 3.44558 21.8585 3.51414C22.0018 3.58216 22.0378 3.63495 22.081 3.6809C22.2081 3.84643 22.2102 3.91193 22.2414 3.99015C22.2721 4.08445 22.2928 4.16276 22.3158 4.2402C22.3368 4.31138 22.357 4.37881 22.3781 4.44607C22.4041 4.48162 22.4323 4.51486 22.4582 4.54575C22.4946 4.5893 22.5264 4.62823 22.5412 4.6632C22.5768 4.74723 22.5663 4.8515 22.5573 4.92984C22.5558 4.94232 22.5544 4.95452 22.5532 4.96583C22.5729 5.02311 22.5928 5.08322 22.6117 5.14524C22.6058 5.15004 22.5997 5.15567 22.5933 5.16095C22.5106 5.24586 22.5341 5.22378 22.5172 5.49895C22.5137 5.52202 22.5091 5.54936 22.497 5.58901C22.477 5.65534 22.4469 5.72984 22.3984 5.80412C22.3632 5.85748 22.3163 5.86403 22.2799 5.86769C22.2691 5.86875 22.259 5.86962 22.2501 5.87126C22.2196 5.87676 22.2237 5.90863 22.2259 5.94777C22.2292 5.99792 22.2273 6.06237 22.1589 6.07452C21.9472 6.10343 21.9433 6.19265 21.9238 6.27896C21.9189 6.30304 21.9136 6.32505 21.9043 6.3406C21.8739 6.3916 21.7936 6.39798 21.7292 6.38086C21.6781 6.36788 21.6135 6.42603 21.5532 6.48372C21.5517 6.48524 21.55 6.4867 21.5484 6.4881C21.477 6.50633 21.328 6.59825 21.01 6.41075C20.8413 6.29818 20.7601 6.10088 20.7436 5.98928C20.7233 5.87065 20.7311 5.79594 20.7337 5.73248C20.7418 5.61274 20.7549 5.5566 20.7647 5.5055C20.7778 5.43466 20.7839 5.40026 20.7895 5.36819C20.7921 5.35356 20.7943 5.34076 20.7963 5.32804C20.8026 5.28782 20.8143 5.24475 20.8246 5.20434C20.837 5.15592 20.8472 5.11108 20.8456 5.07568C20.8839 5.04051 20.9263 4.99354 20.9301 5.02586C20.9311 5.05027 20.9179 5.07143 20.9167 5.20919C20.9201 5.26825 20.9227 5.35407 20.9977 5.49603C21.0374 5.56634 21.0953 5.6487 21.2087 5.72691C21.2665 5.76498 21.3329 5.80216 21.4441 5.82761C21.499 5.83859 21.5694 5.85169 21.6843 5.83672C21.749 5.82637 21.8229 5.81283 21.933 5.74916C22.039 5.69062 22.1956 5.53399 22.2372 5.32772C22.2796 4.88011 22.1457 4.87758 22.1312 4.81854C22.0971 4.77467 22.0796 4.7612 22.0646 4.74863C22.0363 4.72666 22.0233 4.72302 22.0119 4.72026C21.9908 4.71663 21.9811 4.72431 21.9721 4.73317C21.9551 4.75183 21.9448 4.77958 21.9327 4.80992C21.8898 4.92833 21.824 5.07754 21.721 5.20628C21.6182 5.33499 21.5185 5.45851 21.4224 5.54022C21.3965 5.56092 21.3712 5.57825 21.3402 5.58655C21.3244 5.59031 21.3078 5.59269 21.282 5.58516C21.2684 5.58054 21.2535 5.5751 21.2263 5.55421C21.212 5.54243 21.1957 5.52988 21.1659 5.49203C21.1524 5.4418 21.0403 5.43776 21.0753 5.06687C21.1096 4.89593 21.2392 4.76591 21.3274 4.71696C21.4191 4.66378 21.481 4.65215 21.5356 4.64329C21.6325 4.63032 21.6931 4.6411 21.7407 4.65041C21.8373 4.67197 21.8967 4.70445 21.9488 4.73839C22.0512 4.8081 22.1059 4.88392 22.144 4.951C22.2163 5.08642 22.2219 5.17862 22.2247 5.2483C22.2229 5.41369 22.1967 5.48001 22.1796 5.54722C22.138 5.68757 22.1157 5.75086 22.0904 5.82467C22.0525 5.93558 22.0018 6.05502 21.9998 6.06461C22.0002 6.06382 22.0006 6.06292 22.001 6.06191C22.0034 6.03991 22.0342 6.03909 22.0302 5.83634C22.0287 5.74761 21.9615 5.46131 21.69 5.3149C21.4314 5.18659 21.2902 5.24323 21.2216 5.25659C21.2222 5.25682 21.223 5.25703 21.2239 5.25721C21.2256 5.25751 21.2274 5.2578 21.2295 5.25795C21.2334 5.21431 21.2373 5.17209 21.2412 5.15515C21.2447 5.14109 21.2604 5.15687 21.2752 5.1694C21.2853 5.17809 21.2946 5.18544 21.2962 5.18211C21.297 5.18034 21.2974 5.17699 21.2974 5.1732C21.2993 5.15639 21.2843 5.13999 21.3085 5.17359C21.32 5.1876 21.346 5.21185 21.3742 5.22977C21.3918 5.24114 21.41 5.2501 21.4239 5.25553C21.3993 5.46121 21.4376 5.36328 21.4236 5.38104C21.3997 5.36799 21.4159 5.32122 21.4288 5.27893C21.4411 5.23872 21.4507 5.20051 21.4205 5.18353C21.3846 5.16488 21.3944 5.1408 21.409 5.10704C21.419 5.08308 21.431 5.05326 21.431 5.01521C21.431 4.97132 21.4477 4.93669 21.4618 4.90733C21.4817 4.8659 21.4962 4.83385 21.4503 4.80152C21.3993 4.76559 21.3626 4.72619 21.3669 4.68766C21.3689 4.67026 21.3627 4.65169 21.3564 4.63334C21.348 4.60927 21.3388 4.58312 21.347 4.55642C21.3535 4.5336 21.3796 4.50905 21.4025 4.48724C21.4097 4.48048 21.4165 4.47384 21.4223 4.46753C21.4171 4.45227 21.4119 4.43782 21.4063 4.4242C21.4006 4.42344 21.3944 4.42278 21.388 4.42213C21.3556 4.41864 21.3167 4.41703 21.2937 4.4072C21.2578 4.39295 21.267 4.36974 21.2797 4.35306C21.2931 4.34313 21.293 4.32677 21.3327 4.37937C21.3547 4.40122 21.3704 4.434 21.4712 4.48151C21.553 4.53189 21.7767 4.51999 21.8577 4.46505C22.0449 4.3484 22.0224 4.32766 22.0419 4.31362C22.0428 4.31413 22.0419 4.31384 22.0386 4.3128C22.0343 4.31141 22.0153 4.30493 21.9959 4.29974C21.9958 4.29971 21.9957 4.29968 21.9956 4.29964C21.9943 4.29929 21.993 4.29895 21.9917 4.29861C22.0029 4.31274 22.0145 4.33813 22.0291 4.37947C22.0339 4.38339 22.0387 4.38715 22.0435 4.3911C22.0667 4.41027 22.0897 4.43039 22.1231 4.4445C22.1592 4.45934 22.1798 4.49618 22.2024 4.54111C22.2172 4.56997 22.2327 4.60241 22.2533 4.62864C22.2653 4.64455 22.2448 4.65935 22.2237 4.67573C22.204 4.69063 22.1838 4.70615 22.189 4.72304C22.1917 4.73133 22.2003 4.74035 22.2096 4.75017C22.2178 4.75894 22.2264 4.76777 22.2318 4.77738C22.2367 4.7863 22.2257 4.80656 22.2115 4.83255C22.2028 4.84905 22.1929 4.86675 22.1847 4.88634C22.1978 4.93695 22.2101 4.98885 22.2211 5.04056C22.2391 5.05185 22.2626 5.06103 22.2927 5.06891C22.3143 5.07451 22.3402 5.07942 22.3666 5.08451C22.4026 5.09144 22.4397 5.09875 22.4693 5.10859C22.4924 5.11606 22.5015 5.12473 22.4918 5.13029C22.4872 5.13288 22.4787 5.13478 22.471 5.13651C22.4622 5.13848 22.4544 5.14025 22.4545 5.14258C22.4547 5.14427 22.4609 5.14614 22.4684 5.14844C22.4803 5.15213 22.4957 5.15694 22.4961 5.16387C22.4962 5.16498 22.4962 5.16611 22.4963 5.16724C22.4972 5.18811 22.4921 5.21103 22.4871 5.23313C22.4812 5.2589 22.4756 5.28496 22.4801 5.30486C22.4851 5.32713 22.4618 5.36009 22.4388 5.39172C22.4228 5.41463 22.4069 5.43718 22.4004 5.45619C22.3942 5.47541 22.4071 5.49515 22.4198 5.51364C22.4351 5.53598 22.4499 5.55798 22.43 5.57643C22.426 5.58023 22.4011 5.58512 22.3699 5.59186C22.3478 5.59656 22.3226 5.60199 22.2993 5.60806C22.2999 5.63197 22.2995 5.65532 22.2984 5.67925C22.3019 5.67997 22.3053 5.68071 22.3089 5.68145C22.309 5.68146 22.3091 5.68147 22.3091 5.68148C22.3893 5.69791 22.4991 5.72 22.4358 5.75821C22.4197 5.76831 22.3895 5.77557 22.3624 5.78216C22.3357 5.78863 22.3118 5.79446 22.3071 5.80144C22.3018 5.8093 22.3188 5.8175 22.3373 5.82649C22.3633 5.83918 22.3923 5.85195 22.3671 5.86916C22.3654 5.87033 22.3635 5.87159 22.3616 5.87289C22.3436 5.88542 22.317 5.90288 22.2627 5.92362C22.2514 5.97299 22.2382 6.02313 22.2241 6.0723C22.2008 6.15437 22.1751 6.2357 22.1526 6.31312C22.1413 6.35052 22.0735 6.39593 21.9613 6.44846C21.8488 6.50041 21.703 6.55871 21.5473 6.60181C21.3919 6.64574 21.2353 6.66666 21.1074 6.65505C20.9797 6.64376 20.893 6.60132 20.8654 6.54822C20.8204 6.46103 20.7797 6.37721 20.7433 6.29285C20.7394 6.28861 20.7357 6.28465 20.7321 6.28048C20.7058 6.24922 20.6574 6.22302 20.609 6.19558C20.5979 6.18949 20.5868 6.1833 20.576 6.17697Z" fill="#332824"/>
<path d="M25.7746 5.96887C25.8078 6.05549 25.7265 6.11296 25.6811 6.14499C25.6803 6.14557 25.6795 6.14614 25.6787 6.14672C25.6682 6.15391 25.6606 6.16243 25.6516 6.17251C25.6303 6.19643 25.6006 6.22992 25.5074 6.27121C25.493 6.29327 25.4778 6.31476 25.4623 6.33511C25.2918 6.55816 25.0706 6.73471 24.8388 6.90096C24.8369 6.90392 24.835 6.90693 24.8331 6.90996C24.7967 6.96831 24.7504 7.04151 24.695 7.06511C24.6238 7.09615 24.5698 7.10976 24.523 7.12179C24.3379 7.25136 24.1575 7.38374 24.0007 7.53598C23.9521 7.58307 23.9037 7.6346 23.8599 7.6862C23.815 7.73627 23.8386 7.72183 23.7231 7.84249C23.6475 7.93028 23.3768 8.03099 23.1948 7.95873C23.0192 7.89807 22.9583 7.81467 22.9094 7.75434C22.854 7.68398 22.8221 7.62283 22.7974 7.54119C22.7629 7.45162 22.7473 7.36992 22.7384 7.30231C22.7229 7.17358 22.728 7.08438 22.7422 7.01939C22.779 6.86225 22.8736 6.76096 22.9402 6.69575C22.9512 6.68508 22.9617 6.67505 22.9711 6.66611C23.0014 6.6015 23.0321 6.54042 23.0636 6.48115C23.0714 6.48164 23.0794 6.4823 23.0875 6.48304C23.1894 6.49246 23.2289 6.44178 23.2951 6.36499C23.3239 6.33163 23.3576 6.29376 23.4033 6.25518C23.4327 6.2305 23.4711 6.24024 23.5018 6.24874C23.5108 6.25123 23.5193 6.25359 23.5267 6.2549C23.5523 6.25925 23.5477 6.2317 23.5423 6.1993C23.5357 6.15695 23.5285 6.10559 23.5843 6.10581C23.7606 6.10856 23.7494 6.0131 23.7671 5.9231C23.7718 5.8973 23.7809 5.8709 23.8013 5.8476C23.803 5.84562 23.8049 5.84365 23.8068 5.84167C23.861 5.80431 23.9701 5.70087 24.271 5.75625C24.5867 5.84561 24.6453 6.05963 24.6456 6.08319C24.6457 6.08455 24.6457 6.08582 24.6457 6.08697C24.6737 6.18653 24.74 6.29927 24.7918 6.37226C24.8124 6.40099 24.8184 6.4415 24.8223 6.48392C24.8243 6.505 24.8258 6.52673 24.8287 6.54871C24.8332 6.60337 24.8342 6.65929 24.8346 6.71442C24.827 6.97846 24.777 7.06094 24.7539 7.13759C24.7462 7.1584 24.7388 7.17706 24.7314 7.19525C24.7173 7.2303 24.6988 7.26698 24.6787 7.30246C24.6589 7.33352 24.637 7.36402 24.6141 7.39318C24.5438 7.48286 24.4637 7.55805 24.4007 7.61764C24.3225 7.65449 24.2425 7.6832 24.1478 7.70543C23.9946 7.7563 23.7835 7.75272 23.635 7.69657C23.4836 7.64229 23.3907 7.56521 23.3242 7.49808C23.158 7.33469 23.0962 7.12617 23.0882 6.98194C23.0858 6.94688 23.0868 6.91404 23.0902 6.88341C23.1062 6.76642 23.1326 6.78664 23.1656 6.78765C23.1992 6.79289 23.2436 6.79601 23.2971 6.79189C23.4189 6.78291 23.5759 6.75137 23.74 6.73758C23.9038 6.72385 24.0647 6.72612 24.1878 6.77511C24.2984 6.79577 24.3549 6.97908 24.384 6.8887C24.3874 6.87296 24.3891 6.85537 24.3885 6.83591C24.3873 6.75695 24.3535 6.62329 24.2456 6.51402C24.2012 6.4433 23.9391 6.29768 23.7043 6.37897C23.6821 6.37605 23.6711 6.37144 23.6573 6.36963C23.6391 6.36708 23.6175 6.37005 23.5915 6.38908C23.5915 6.37707 23.5792 6.3769 23.5589 6.42514C23.5461 6.45728 23.5283 6.51818 23.5336 6.60265C23.5351 6.59071 23.5363 6.58508 23.5419 6.59663C23.5431 6.59911 23.5446 6.60244 23.5465 6.60678C23.5329 6.62802 23.5246 6.67048 23.5469 6.73897C23.5438 6.74013 23.5836 6.88064 23.8116 7.01186C24.0526 7.14332 24.2963 7.09462 24.378 7.06774C24.4469 7.04631 24.4823 7.02627 24.5077 7.01081C24.5496 6.98243 24.5245 6.97809 24.5148 6.96839C24.5032 6.96128 24.49 6.95741 24.485 6.96387C24.4824 6.9673 24.4789 6.97353 24.4746 6.98117C24.4573 7.01207 24.4214 7.07317 24.3483 7.09063C24.3156 7.09846 24.2671 7.09873 24.2208 7.09994C24.1543 7.10175 24.0917 7.10627 24.0875 7.13189C24.0802 7.1767 24.0374 7.19698 24.0005 7.21562C23.9652 7.23336 23.9353 7.24953 23.9484 7.27866C23.964 7.31358 23.9445 7.31856 23.9157 7.32703C23.8959 7.33265 23.8716 7.34019 23.855 7.35666C23.8363 7.37507 23.8102 7.37772 23.7883 7.37966C23.7579 7.38094 23.7351 7.3887 23.7737 7.39C23.8057 7.38998 23.8343 7.35655 23.8263 7.30325C23.808 7.22587 23.7835 7.17607 23.7252 7.11127C23.6841 7.07136 23.6288 7.00558 23.4747 6.96395C23.3157 6.9148 23.0975 7.00331 23.0341 7.07369C23.0004 7.10474 23.0084 7.09823 23.0075 7.09796C23.0145 7.08728 23.0359 7.05925 23.062 7.05211C23.0852 7.04416 23.1223 7.04988 23.1535 7.05678C23.1634 7.05872 23.173 7.06046 23.1818 7.06159C23.1934 7.04713 23.2042 7.03344 23.2145 7.01966C23.2124 7.01417 23.21 7.00821 23.2075 7.002C23.195 6.97106 23.1811 6.93132 23.1817 6.90246C23.184 6.85525 23.2199 6.84006 23.2567 6.82547C23.286 6.81333 23.3164 6.80086 23.3328 6.7723C23.344 6.75289 23.3517 6.72306 23.357 6.6963C23.3655 6.65574 23.3758 6.61342 23.4011 6.60163C23.4106 6.59713 23.4313 6.60349 23.452 6.60981C23.4521 6.60986 23.4522 6.60991 23.4523 6.60996C23.4537 6.61039 23.4551 6.61079 23.4565 6.61122C23.4852 6.55211 23.5113 6.49361 23.5382 6.43246C23.5376 6.42502 23.5371 6.41759 23.5366 6.41022C23.5343 6.37426 23.5323 6.33905 23.5168 6.30453C23.5003 6.26685 23.5124 6.2181 23.5255 6.16616C23.5342 6.13202 23.5431 6.09693 23.544 6.06346C23.5445 6.04386 23.5699 6.04526 23.5962 6.04666C23.6206 6.04801 23.6459 6.04917 23.6519 6.03359C23.655 6.02578 23.6537 6.01369 23.6523 6.00077C23.6511 5.9894 23.6498 5.97735 23.6513 5.96706C23.6528 5.9575 23.6732 5.95001 23.6994 5.94023C23.7156 5.93416 23.7338 5.92733 23.7512 5.91873C23.7701 5.87439 23.7895 5.83015 23.8093 5.78666C23.8011 5.7678 23.7878 5.74661 23.7682 5.72264C23.7542 5.70545 23.7364 5.68619 23.7182 5.66649C23.6934 5.63969 23.6678 5.61199 23.6495 5.58726C23.6352 5.56794 23.6325 5.5564 23.6431 5.55847C23.6481 5.55944 23.6559 5.56329 23.6629 5.56677C23.6709 5.57075 23.6781 5.57429 23.6791 5.57257C23.6799 5.57132 23.6759 5.56628 23.6712 5.56016C23.6636 5.55039 23.6538 5.53774 23.657 5.53277C23.669 5.51429 23.6883 5.49781 23.7071 5.48173C23.7281 5.46386 23.7485 5.44641 23.7579 5.42687C23.7683 5.40506 23.8071 5.39281 23.8458 5.38061C23.8728 5.37203 23.9 5.36301 23.9174 5.35116C23.9345 5.3395 23.9369 5.31554 23.939 5.29242C23.9416 5.26449 23.9443 5.23732 23.9721 5.23431C23.9777 5.2337 24.0005 5.24505 24.0291 5.25923C24.0493 5.26928 24.0725 5.28073 24.0945 5.29044C24.1093 5.27106 24.1252 5.25183 24.1418 5.2332C24.1396 5.23045 24.1374 5.22765 24.1351 5.2248C24.135 5.22474 24.135 5.22468 24.1349 5.22462C24.0839 5.16017 24.0131 5.07332 24.0881 5.08159C24.1073 5.08358 24.1354 5.09692 24.1607 5.1089C24.1856 5.12067 24.2078 5.13119 24.2162 5.1285C24.2256 5.12543 24.2181 5.10788 24.2098 5.08888C24.1982 5.06208 24.1847 5.03297 24.2159 5.03503C24.218 5.03519 24.2203 5.03538 24.2226 5.03554C24.2448 5.03704 24.2775 5.03935 24.3325 5.05841C24.374 5.02704 24.4194 4.99413 24.4635 4.96486C24.5375 4.91539 24.6149 4.86681 24.684 4.82532C24.7179 4.80505 24.7975 4.81937 24.9128 4.86142C25.0296 4.90129 25.175 4.95846 25.3222 5.0252C25.4691 5.09229 25.6019 5.17883 25.684 5.28232C25.7702 5.37796 25.8033 5.47062 25.7889 5.52622C25.7655 5.61655 25.7428 5.70051 25.7186 5.78117C25.719 5.78647 25.7192 5.79172 25.7193 5.79686C25.7204 5.83467 25.7393 5.88656 25.7607 5.93492C25.7654 5.94624 25.7702 5.95762 25.7746 5.96887Z" fill="#332824"/>
</svg>
