<svg width="32" height="32" viewBox="0 0 32 32" fill="none" xmlns="http://www.w3.org/2000/svg">
<path d="M22.6661 11.4182C22.5511 11.8294 22.6804 12.5919 22.7528 13.0109C22.7541 13.0186 22.7553 13.0263 22.7566 13.034C22.7737 13.1334 22.7845 13.228 22.797 13.3388C22.827 13.603 22.8672 13.96 23.0347 14.6976C23.0523 14.914 23.072 15.1338 23.0936 15.3492C23.1987 16.3943 23.3323 17.4424 23.5056 18.4985C23.5442 18.7007 23.5383 18.7591 23.5609 18.7234C23.5977 18.6227 23.7237 18.423 23.9471 18.3147C24.0942 18.3501 23.2981 18.4886 22.6203 18.4669C22.5928 18.4643 22.5645 18.4616 22.5355 18.4588C21.983 18.4046 21.2548 18.3174 20.7863 18.3347C20.1915 18.3556 19.784 18.3922 19.4475 18.4268C18.6875 18.4272 17.9237 18.4417 17.1589 18.47C16.0948 18.5131 15.0127 18.4762 13.9543 18.3472C13.4028 18.279 12.8531 18.1854 12.3443 18.0524C12.2234 18.0206 12.1059 17.9866 11.9953 17.9505C11.8286 17.8918 11.7292 17.8113 11.6165 17.6325C11.5542 17.4784 11.5178 17.2823 11.5011 17.0836C11.4775 16.806 11.4875 16.5175 11.4848 16.2861C11.4751 15.7153 11.4622 15.0064 11.4808 14.4651C11.4836 14.377 11.487 14.2931 11.4911 14.2152C11.5642 13.7909 11.6551 13.362 11.7568 12.9352C11.75 12.9039 11.7427 12.8724 11.7352 12.8402C11.6419 12.4411 11.7365 11.979 11.9088 11.2615C11.9853 10.9436 12.0755 10.5845 12.175 10.1505C12.2407 9.86499 12.214 9.7082 12.1929 9.5763C12.1866 9.53814 12.1804 9.50339 12.1772 9.46837C12.1699 9.33472 12.2393 9.24447 12.3299 9.10202C12.4316 8.94527 12.5608 8.78998 12.5807 8.39418C12.5766 8.39575 12.5715 8.39774 12.5653 8.39975C12.3885 8.48132 12.4915 8.29213 12.6644 8.27468C12.8307 8.24044 12.9895 8.28007 13.1206 8.31788C13.2018 8.33973 13.2666 8.3628 13.3401 8.37166C13.5696 8.40008 13.9145 8.32618 14.1897 8.24833C14.4115 8.18423 14.855 8.25845 15.1952 8.35985C15.3218 8.39752 15.5 8.41109 15.707 8.42981C15.9245 8.44941 16.174 8.47464 16.44 8.5375C17.1121 8.69754 17.4713 8.79006 17.761 8.86223C17.8435 8.88301 17.92 8.90225 17.9969 8.92203C18.2404 8.98455 18.5443 9.05213 18.8524 9.12149C19.223 9.20476 19.5993 9.29026 19.889 9.37118C20.579 9.43554 21.2653 9.50124 22.0495 9.51704L22.0162 9.51433C22.0997 9.51711 22.1825 9.51932 22.2646 9.5211C22.5265 9.52664 22.7769 9.47998 22.9928 9.39123C23.1173 9.34009 23.2343 9.27524 23.3404 9.19735C23.6306 8.98426 23.8129 8.6915 23.8394 8.37384C23.8659 8.05637 23.7385 7.73661 23.4785 7.47896C23.3833 7.38489 23.2731 7.30228 23.1518 7.23299C22.9413 7.11277 22.7084 7.03333 22.4735 6.99769C22.3998 6.98657 22.3267 6.97517 22.2542 6.9634C22.2486 6.96331 22.2319 6.96109 22.2263 6.96113C21.6128 6.86976 20.9109 6.71698 20.2253 6.57923C19.2874 6.38922 18.3323 6.20686 17.3527 6.08389C16.6673 5.99816 15.9713 5.93111 15.2574 5.90158C15.1831 5.89853 15.1081 5.89597 15.0339 5.89386C14.4338 5.78453 13.8009 5.71597 13.316 5.7328C12.918 5.74533 12.6055 5.83979 12.3348 5.94241C12.1403 6.01566 11.9711 6.09023 11.772 6.16672C11.6725 6.20538 11.5113 6.2694 11.3222 6.37659C10.9728 6.55567 10.2654 7.14554 10.1493 8.04618C10.1473 8.05238 10.101 8.26097 10.0645 8.42758C10.0274 8.59977 9.99045 8.78777 9.9632 8.97136C9.91497 9.28941 9.88895 9.65412 9.86364 10.0176C9.82806 10.5331 9.80425 11.0117 9.72588 11.2425C9.58813 11.6449 9.52737 12.1288 9.48337 12.5611C9.44113 12.9721 9.41419 13.3346 9.33235 13.5323C9.23459 13.769 9.23212 13.9846 9.23693 14.3043C9.24083 14.5272 9.2475 14.7975 9.24216 15.1735C9.23704 15.6051 9.28558 15.9195 9.33461 16.1821C9.40708 16.5589 9.46904 16.83 9.48278 17.2839C9.49806 17.7855 9.64864 18.371 9.96568 18.7831C10.108 18.9713 10.2839 19.1853 10.5156 19.3778C10.7676 19.5893 11.0777 19.7576 11.3885 19.8396C11.4343 19.8509 11.4817 19.8614 11.5273 19.8699C11.7474 19.9106 11.9341 19.8942 12.0972 19.8776C12.1472 19.8721 12.1959 19.8669 12.2428 19.863C12.4042 19.9011 12.5648 19.9363 12.7259 19.9701C12.7498 19.9849 12.775 20.0011 12.8017 20.0178C12.934 20.1015 13.1001 20.2031 13.3138 20.2736C13.6521 20.3849 13.9645 20.3936 14.2892 20.3965C14.5428 20.3986 14.8054 20.3973 15.1023 20.4353C15.3051 20.4613 15.5344 20.5052 15.763 20.5456C16.1024 20.6059 16.4406 20.6579 16.6772 20.6423C16.7658 20.6365 16.8429 20.5998 16.9189 20.563C16.9193 20.5628 16.9196 20.5626 16.92 20.5624C16.9251 20.5599 16.9303 20.5574 16.9354 20.5549C16.9984 20.5597 17.0615 20.5642 17.1247 20.5686C17.6067 20.6034 18.0869 20.6482 18.5662 20.7017C18.6114 20.7139 18.6594 20.7261 18.7061 20.7382C18.9322 20.797 19.1539 20.8563 19.2922 20.9304C19.4479 21.011 19.8354 21.0779 20.2503 21.1543C20.5209 21.2041 20.8044 21.2575 21.0327 21.3165C21.1699 21.3513 21.2996 21.3223 21.4402 21.2929C21.5673 21.2651 21.7035 21.237 21.8438 21.2583C21.9166 21.2691 21.9922 21.2918 22.0739 21.3159C22.148 21.3373 22.2242 21.3595 22.3058 21.3754C22.384 21.3902 22.5567 21.3808 22.7861 21.3643C22.9293 21.354 23.0915 21.3409 23.2717 21.3268C23.7433 21.349 24.2636 21.3822 24.9612 21.1735C25.1156 21.1567 25.2641 21.1408 25.3983 21.1378C25.4445 21.1369 25.4895 21.1379 25.5345 21.1393C25.5971 21.1327 25.659 21.1257 25.7223 21.1158C25.8881 21.0893 26.0666 21.0457 26.2701 20.9226C26.4296 20.8268 26.5757 20.6688 26.635 20.5447C26.6631 20.487 26.6744 20.4374 26.6835 20.3931C26.6939 20.3422 26.7017 20.2976 26.7262 20.252C26.7439 20.2192 26.7721 20.1902 26.8055 20.1537C26.8585 20.0955 26.9273 20.0163 26.9764 19.879C26.9931 19.8319 27.0085 19.7845 27.0227 19.7365C27.1415 19.3495 27.1706 18.8974 27.1497 18.5675C27.1388 18.3683 27.1168 18.1963 27.0948 18.0442C27.0783 17.9378 27.0641 17.8266 27.0575 17.7336C27.0433 17.5332 26.9641 17.2398 26.8877 16.9563C26.8338 16.7539 26.7805 16.5499 26.7492 16.3773C26.7182 16.205 26.7238 16.023 26.7295 15.8445C26.7364 15.6318 26.7433 15.4247 26.6872 15.2585C26.6758 15.2247 26.6232 15.1864 26.5575 15.1381C26.5109 15.1039 26.4576 15.0643 26.4075 15.0179C26.3858 14.8005 26.362 14.5791 26.337 14.3609C26.3428 14.3525 26.3487 14.3439 26.3547 14.3352C26.3548 14.335 26.355 14.3349 26.3551 14.3348C26.4908 14.1384 26.6768 13.8726 26.5189 13.5381C26.4788 13.453 26.4148 13.4029 26.3572 13.3578C26.3007 13.3136 26.2501 13.2741 26.2343 13.2107C26.2165 13.1388 26.2403 13.0496 26.2663 12.9524C26.3028 12.8159 26.3437 12.6635 26.2796 12.5204C26.2752 12.5106 26.2704 12.5001 26.2656 12.4891C26.2197 12.3849 26.1521 12.2312 26.0306 12.0829C25.9599 11.617 25.8853 11.1499 25.8088 10.684C25.6816 9.91039 25.5479 9.12885 25.4213 8.35766C25.3593 7.98174 25.1886 7.63147 24.9382 7.37777C24.6874 7.12343 24.3793 6.98896 24.0669 7.00504C23.7545 7.01554 23.4592 7.18535 23.2412 7.47909C23.0232 7.77141 22.902 8.15369 22.896 8.54227C22.8867 9.17363 22.882 9.81142 22.8829 10.4397C22.8791 10.4728 22.8756 10.5062 22.8725 10.5395C22.8494 10.7897 22.7808 11.0216 22.7126 11.2566C22.6969 11.3102 22.6812 11.3641 22.6661 11.4182Z" fill="#332824"/>
<path d="M8.91961 13.8544C8.65121 14.0263 8.1049 14.0149 7.80274 14.0121C7.79718 14.0121 7.79163 14.0121 7.78606 14.0121C7.7147 14.0114 7.64791 14.0161 7.56864 14.0221C7.42454 14.0331 7.23904 14.0472 6.91445 14.0377C7.02466 14.012 7.22655 13.9488 7.42014 13.7855C7.69036 13.5968 7.77541 13.3864 7.79338 13.3397C7.8174 13.2177 7.75009 13.5928 7.76051 13.9202C7.76099 14.268 7.78126 14.6625 7.80599 15.0638C7.85702 15.8704 7.92494 16.7213 7.98631 17.5802C7.9906 17.6021 7.99474 17.623 7.999 17.6445C8.08171 18.0628 8.18621 18.5937 8.18415 18.9316C8.18246 19.3663 8.16384 19.6682 8.14442 19.9092C8.22062 21.0803 8.29143 22.2449 8.38078 23.4166C8.3812 23.5337 8.41884 23.6108 8.37107 23.5414C8.33112 23.449 8.03281 23.3477 8.04784 23.377C8.04503 23.3846 8.17799 23.3598 8.339 23.2946C8.37371 23.2812 8.41184 23.2658 8.45278 23.2493C8.85495 23.0879 9.24546 22.9824 9.62283 22.8959C9.8687 22.812 10.0952 22.7358 10.3106 22.6691C10.6105 22.576 10.8763 22.5038 11.0997 22.4695C11.6352 22.3865 12.2421 22.4191 12.6857 22.4553C12.7586 22.4611 12.8267 22.4669 12.89 22.4721C13.2416 22.4498 13.5928 22.4332 13.9439 22.4221C13.9669 22.4353 13.99 22.4491 14.0135 22.4632C14.3059 22.64 14.669 22.6525 15.2423 22.692C15.4922 22.7096 15.7806 22.7326 16.1197 22.7804C16.3393 22.8115 16.4434 22.8905 16.5289 22.9549C16.5539 22.9738 16.5772 22.9916 16.6011 23.0065C16.6816 23.0569 16.7781 23.0275 16.8899 22.9915C16.8922 22.9907 16.8945 22.9898 16.8968 22.989C17.0352 22.9393 17.2001 22.8783 17.399 22.9737C18.0394 23.2761 18.3568 23.1311 18.5847 23.0251C18.6522 22.9936 18.713 22.9649 18.7746 22.9503C18.9739 22.9031 19.2512 22.9704 19.4621 23.0534C19.6291 23.1197 19.969 23.0632 20.2223 22.9834C20.3182 22.9534 20.4476 22.9515 20.5994 22.9475C20.755 22.9433 20.9383 22.9369 21.1267 22.8942C21.6032 22.7855 21.8328 22.715 21.9909 22.6583C22.0353 22.642 22.0738 22.6265 22.104 22.6114C22.136 22.5958 22.1653 22.5795 22.1663 22.5705L21.7854 22.752C21.7024 22.7842 21.6176 22.8704 21.5954 22.8857C21.5553 22.9198 21.5831 22.741 21.5625 22.589C21.5752 22.5377 21.5875 22.4817 21.5994 22.4225C21.6751 22.0414 21.7299 21.5789 21.7779 21.1158C21.8065 20.8393 21.9498 20.5688 22.1856 20.3673C22.4215 20.1659 22.7288 20.0516 23.0475 20.0515C23.3662 20.0515 23.6738 20.1647 23.9095 20.3683C24.145 20.572 24.2879 20.8504 24.3098 21.1457C24.345 21.6441 24.3786 22.1458 24.3583 22.7105C24.3538 22.8218 24.3467 22.9369 24.3347 23.058C24.2691 23.5108 24.2269 24.3324 23.3269 25.0106C23.2499 25.0521 23.0358 25.1742 22.9498 25.1903C22.4205 25.3469 22.1108 25.3666 21.7501 25.4024C21.2031 25.4469 20.6842 25.4529 20.1645 25.4411C20.1116 25.4398 20.0583 25.4382 20.0047 25.4365C19.5702 25.5138 19.1334 25.572 18.8262 25.5838C18.5724 25.5936 18.3898 25.5409 18.2344 25.4951C18.1274 25.4635 18.0329 25.4349 17.9355 25.4311C17.8831 25.429 17.8112 25.4283 17.7247 25.4269C17.447 25.4226 17.0124 25.4101 16.5733 25.3243C16.4717 25.3035 16.3652 25.2787 16.2652 25.25C16.0535 25.19 15.8108 25.0963 15.5742 25.01C15.2371 24.8863 14.9157 24.7785 14.7502 24.7943C14.4586 24.8217 14.1301 24.767 13.8381 24.7235C13.5599 24.6819 13.3155 24.6503 13.1764 24.7026C13.0107 24.7652 12.8706 24.7394 12.6605 24.7042C12.5154 24.68 12.3368 24.6512 12.0945 24.6481C11.8157 24.6448 11.6177 24.6136 11.4485 24.5887C11.212 24.5539 11.0286 24.531 10.7809 24.6355C10.5049 24.7519 10.2276 24.8507 10.0032 24.8717C9.89986 24.8813 9.78859 24.9098 9.67603 24.9426C9.5264 24.9861 9.38021 25.0361 9.24326 25.0567C9.22164 25.0599 9.20061 25.0616 9.18008 25.0622C9.06703 25.0754 8.94213 25.072 8.8273 25.0648C8.78271 25.0621 8.73889 25.0593 8.69623 25.0575C8.55175 25.1023 8.39032 25.1445 8.19362 25.1629C8.1628 25.1754 8.12834 25.1884 8.09087 25.2007C7.91098 25.2582 7.58874 25.3269 7.18656 25.1247C6.54662 24.7593 6.46695 24.2344 6.42571 23.9089C6.41685 23.821 6.41355 23.741 6.41122 23.6563C6.41304 23.5291 6.40838 23.3971 6.38327 23.2562C6.35822 23.1159 6.31253 22.9584 6.2665 22.7998C6.19835 22.5658 6.13078 22.3393 6.1311 22.1706C6.13132 22.1081 6.16254 22.0503 6.19363 21.9932C6.19383 21.9929 6.19403 21.9926 6.19424 21.9924C6.19635 21.9885 6.19839 21.9846 6.20049 21.9807C6.11613 21.5887 6.02634 21.1957 5.93288 20.8022C5.91789 20.7694 5.90299 20.7363 5.88829 20.7037C5.81645 20.544 5.74542 20.3831 5.66471 20.2877C5.57752 20.1859 5.49112 19.8954 5.40077 19.6003C5.34078 19.4016 5.27896 19.1993 5.21336 19.0372C5.17462 18.9399 5.19902 18.8389 5.22434 18.7358C5.24789 18.6393 5.27256 18.5434 5.24616 18.4404C5.23306 18.3896 5.20781 18.3369 5.18089 18.281C5.15719 18.2317 5.13215 18.18 5.11309 18.125C5.09574 18.076 5.09742 17.9488 5.10061 17.7926C5.10244 17.6952 5.10517 17.5892 5.10253 17.4705C5.03066 17.1758 4.96037 16.8805 4.89298 16.5812C4.84871 16.5227 4.79553 16.4746 4.7313 16.44C4.68522 16.4151 4.63173 16.3961 4.57706 16.3766C4.50272 16.3504 4.42569 16.3218 4.36089 16.2752C4.31029 16.239 4.28545 16.1915 4.2992 16.1556C4.30562 16.1388 4.32018 16.1246 4.33334 16.1118C4.34842 16.097 4.36184 16.0839 4.35953 16.0706C4.35784 16.061 4.34452 16.0526 4.32839 16.0422C4.30262 16.0257 4.26933 16.0042 4.26295 15.9656C4.23817 15.8142 4.22597 15.6487 4.21436 15.477C4.20146 15.2866 4.19107 15.1023 4.16674 14.9513C4.1401 14.7885 4.16159 14.5392 4.19062 14.2754C4.21122 14.1004 4.23504 13.9058 4.24675 13.7432C4.25807 13.576 4.23676 13.4012 4.2259 13.2111C4.21262 12.9838 4.21764 12.7263 4.31168 12.4973C4.33026 12.4528 4.39436 12.3952 4.47592 12.3331C4.53427 12.2874 4.60028 12.2416 4.67189 12.1786C4.79214 11.8534 5.03978 11.3847 5.5404 11.0498C5.5538 11.0328 5.56801 11.0155 5.58254 10.9982C5.58274 10.9979 5.58295 10.9975 5.58315 10.9972C5.77552 10.7614 6.1052 10.5054 6.49876 10.4146C6.57754 10.3741 6.66838 10.3608 6.77797 10.3987C6.84834 10.4231 6.89649 10.4773 6.93974 10.526C6.98195 10.5739 7.0206 10.6167 7.07001 10.6213C7.12647 10.6264 7.18667 10.5879 7.25473 10.5458C7.34926 10.4868 7.45495 10.4211 7.57155 10.4607C7.57948 10.4635 7.58802 10.4664 7.59688 10.4694C7.68134 10.4974 7.80579 10.5392 7.93528 10.6353C8.29078 10.6309 8.64623 10.6343 9.00251 10.6438C9.59491 10.6598 10.1902 10.6923 10.7864 10.7367C11.076 10.7587 11.3605 10.897 11.5708 11.1282C11.779 11.3598 11.8959 11.6627 11.8935 11.9753C11.8944 12.288 11.7848 12.5895 11.6012 12.828C11.4148 13.0662 11.1627 13.2205 10.8939 13.2664C10.4535 13.3407 10.0133 13.4223 9.57197 13.5047C9.54919 13.5128 9.52618 13.5208 9.50314 13.5283C9.33361 13.5845 9.17817 13.6847 9.0257 13.7853C8.99059 13.8085 8.95431 13.8318 8.91961 13.8544Z" fill="#332824"/>
</svg>
