<svg width="32" height="32" viewBox="0 0 32 32" fill="none" xmlns="http://www.w3.org/2000/svg">
<path d="M6.92298 7.70654C7.09974 7.55344 7.44931 7.60771 7.64274 7.63719C7.64622 7.63767 7.64971 7.63815 7.6532 7.63862C7.69839 7.64563 7.74135 7.64678 7.79214 7.64794C7.91349 7.65066 8.07447 7.65453 8.41667 7.74196C8.51402 7.73612 8.6154 7.73174 8.7124 7.72933C9.77841 7.70282 10.8461 7.79507 11.9169 7.90447C11.9303 7.9032 11.9439 7.9019 11.9577 7.90058C12.0257 7.89409 12.098 7.88715 12.1715 7.88119C12.1749 7.88048 12.1855 7.88129 12.1889 7.88062C12.4018 7.86572 12.628 7.85964 12.788 7.89628C13.0542 7.95903 13.238 8.01902 13.3895 8.07099C14.2448 8.17012 15.1005 8.25788 15.9538 8.28325C16.2207 8.29122 16.4882 8.29294 16.7556 8.2871C17.0012 8.28174 17.2475 8.27165 17.4931 8.25742C17.6359 8.22173 17.7709 8.18008 17.8965 8.14149C18.0729 8.08727 18.2299 8.03913 18.36 8.02174C18.6739 7.97985 19.0314 8.02789 19.2972 8.06359C19.3407 8.06943 19.3817 8.07496 19.4195 8.07969C19.6284 8.05484 19.8395 8.02852 20.049 8.00175C20.0633 8.0139 20.0778 8.02659 20.0925 8.03959C20.2754 8.20188 20.4963 8.19514 20.8431 8.18482C20.9949 8.18031 21.1694 8.17522 21.3763 8.18293C21.5079 8.18793 21.5793 8.25231 21.6361 8.30487C21.6529 8.32033 21.6686 8.33478 21.6844 8.34639C21.7387 8.38617 21.7936 8.34081 21.8584 8.28724C21.9444 8.2177 22.0469 8.13419 22.1834 8.20486C22.6259 8.42986 22.8114 8.26705 22.9563 8.14379C22.9985 8.10764 23.0364 8.07498 23.0753 8.05647C23.1986 7.9965 23.3869 8.04937 23.5251 8.12446C23.5842 8.15567 23.6722 8.15234 23.7634 8.13041C23.8504 8.11045 23.9408 8.07523 24.0177 8.03654C24.08 8.00574 24.1672 8.0032 24.2657 8.00051C24.3704 7.99767 24.4885 7.99467 24.6179 7.95908C24.9399 7.86926 25.1147 7.82566 25.2505 7.79084C25.2908 7.78088 25.3278 7.77182 25.3643 7.76241C25.4783 7.7327 25.623 7.70743 25.7703 7.68204C25.9451 7.65167 26.122 7.62103 26.2573 7.58171C26.6073 7.61639 26.9591 7.66122 27.3108 7.70646C27.4883 7.72996 27.6642 7.8712 27.7875 8.10497C27.9145 8.33903 27.9696 8.64387 27.9921 8.96154C28.0215 9.27953 27.9392 9.59134 27.8139 9.8287C27.688 10.0663 27.5137 10.2111 27.3373 10.2384C26.9757 10.2927 26.6189 10.3476 26.26 10.393C25.8244 10.4482 25.3836 10.4894 24.9483 10.4974C24.6418 10.5031 24.3353 10.5015 24.0278 10.4943C23.9966 10.4935 23.9651 10.4926 23.9335 10.4917C23.8941 10.5046 23.8544 10.5173 23.8146 10.5297C23.602 10.5981 23.3939 10.657 23.2378 10.6818C23.0911 10.7059 22.9777 10.6664 22.8837 10.6326C22.8196 10.6092 22.7623 10.5886 22.7043 10.5933C22.6733 10.5958 22.6301 10.6016 22.5789 10.6085C22.3741 10.6365 22.0161 10.6843 21.6937 10.6144C21.5477 10.5835 21.3828 10.5199 21.2207 10.4593C20.9927 10.3726 20.7765 10.2919 20.6715 10.3203C20.4843 10.3702 20.2687 10.3358 20.0767 10.3053C19.8944 10.2762 19.7353 10.2508 19.6454 10.3058C19.5391 10.3715 19.4468 10.3476 19.3088 10.3122C19.2126 10.2876 19.0965 10.2577 18.9375 10.248C18.7539 10.2368 18.6243 10.195 18.5133 10.1596C18.3572 10.1097 18.2403 10.0722 18.0682 10.1495C17.8771 10.2353 17.6772 10.2916 17.5177 10.2692C17.4452 10.259 17.3626 10.2637 17.2768 10.2685C17.1631 10.275 17.043 10.2817 16.9333 10.2547C16.8431 10.2325 16.7669 10.1723 16.6997 10.119C16.6788 10.1024 16.6587 10.0865 16.6393 10.0726C16.5675 10.0749 16.4961 10.0777 16.4245 10.0811C16.413 10.0913 16.401 10.1026 16.3884 10.1142C16.3255 10.1727 16.2482 10.2445 16.1519 10.2816C16.0002 10.3402 15.8621 10.3086 15.7197 10.2751C15.6088 10.249 15.4908 10.2218 15.3595 10.2355C15.2706 10.2448 15.1663 10.2725 15.0654 10.2998C14.9162 10.3404 14.7656 10.3805 14.6619 10.3597C14.6229 10.3518 14.5888 10.3138 14.5551 10.2759C14.5549 10.2757 14.5548 10.2754 14.5546 10.2752C14.5524 10.2726 14.5501 10.2701 14.5478 10.2676C14.2938 10.3031 14.0419 10.3417 13.7911 10.3821C13.7692 10.3926 13.7471 10.403 13.7252 10.4132C13.618 10.4632 13.5183 10.5116 13.4504 10.5787C13.3762 10.6513 13.1968 10.6969 13.0001 10.7454C12.8754 10.777 12.741 10.8098 12.6359 10.8518C12.5751 10.8764 12.5133 10.8379 12.4502 10.7983C12.3916 10.7613 12.3321 10.7234 12.2698 10.7348C12.2685 10.7351 12.2672 10.7353 12.2659 10.7356L12.2812 10.7351C12.25 10.7419 12.2168 10.7591 12.1815 10.7775C12.1491 10.7944 12.1148 10.8122 12.0788 10.8237C12.0452 10.8343 11.9693 10.8154 11.8711 10.7912C11.8105 10.7763 11.7419 10.7594 11.6702 10.746C11.4821 10.7777 11.2947 10.8081 11.1069 10.8366C11.0688 10.873 11.0367 10.9197 11.0112 10.979C10.9931 11.0216 10.9782 11.0723 10.9629 11.1241C10.942 11.1946 10.9204 11.2674 10.8893 11.326C10.865 11.3717 10.8353 11.3906 10.8143 11.3726C10.8046 11.3642 10.7968 11.348 10.7897 11.3334C10.7816 11.3167 10.7744 11.3018 10.7662 11.3025C10.7603 11.303 10.7545 11.3153 10.7474 11.3301C10.736 11.3537 10.7209 11.3842 10.6967 11.386C10.6066 11.3929 10.505 11.3864 10.4047 11.38C10.2924 11.3729 10.1848 11.3659 10.0981 11.3774C10.0006 11.3903 9.8631 11.3496 9.72233 11.3091C9.62492 11.2807 9.52827 11.2525 9.44442 11.2421C9.36244 11.2318 9.28037 11.2587 9.19792 11.285C9.09955 11.3165 9.00808 11.3468 8.92529 11.3098C8.90876 11.3022 8.88728 11.2543 8.86045 11.1944C8.84144 11.152 8.81961 11.1034 8.79512 11.0588C8.69472 11.0613 8.58962 11.0618 8.48876 11.0606C8.48535 11.0672 8.48183 11.074 8.47831 11.0809C8.47825 11.081 8.4782 11.0812 8.47815 11.0814C8.39764 11.2374 8.288 11.4507 8.12314 11.3287C8.08115 11.2977 8.05406 11.2392 8.0297 11.1866C8.00579 11.135 7.98448 11.0888 7.95473 11.0796C7.92112 11.0692 7.8805 11.1022 7.83762 11.1379C7.77663 11.1882 7.71203 11.2442 7.64035 11.1948C7.63554 11.1914 7.63037 11.1877 7.625 11.184C7.57373 11.1489 7.50022 11.0968 7.42435 10.9906C7.20606 10.9662 6.98641 10.9367 6.76954 10.9038C6.40405 10.849 6.04023 10.7849 5.67735 10.72C5.50099 10.688 5.32959 10.5434 5.2015 10.3099C5.07282 10.0761 5.00054 9.77444 4.99893 9.46179C4.9947 9.14917 5.06071 8.84647 5.18268 8.60992C5.30416 8.37367 5.46956 8.22494 5.64297 8.1882C5.92644 8.12893 6.21029 8.06903 6.49489 8.01304C6.50977 8.00629 6.52572 7.99974 6.53985 7.99361C6.64799 7.94793 6.75183 7.85807 6.85218 7.7681C6.87557 7.74743 6.89916 7.7267 6.92298 7.70654Z" fill="#FF3B30"/>
<path d="M11.1702 14.9402C11.3104 15.3306 11.2293 16.0731 11.1842 16.4808C11.1834 16.4883 11.1827 16.4958 11.1819 16.5033C11.1713 16.6001 11.1666 16.6917 11.1613 16.7993C11.1486 17.0557 11.1315 17.4016 11.0143 18.1215C11.0114 18.3321 11.0069 18.5422 11.0004 18.7527C10.9695 19.744 10.9136 20.7342 10.837 21.7282C10.7394 23.0188 10.5884 24.2817 10.5033 25.4928C10.5041 25.5201 10.5049 25.5477 10.5058 25.5757C10.5142 25.8504 10.5281 26.156 10.5378 26.4465C10.5199 26.4814 10.61 26.3524 10.2826 25.922C10.1173 25.7279 9.89538 25.6218 9.79435 25.5934C9.68633 25.5614 9.65541 25.5681 9.64946 25.5731C9.64351 25.5924 9.77751 25.6165 9.89366 25.6353C10.2318 25.6905 10.4893 25.737 10.7121 25.7768C12.1645 25.8727 13.642 25.8368 15.1405 25.7209C15.421 25.6991 15.7027 25.6755 15.9841 25.6503C16.546 25.5998 17.1061 25.5425 17.6664 25.4772C18.1826 25.4171 18.6974 25.3521 19.2124 25.2826C19.509 25.2149 19.7902 25.1428 20.0504 25.076C20.4168 24.982 20.7429 24.8983 21.0146 24.8514C21.4581 24.7748 21.9473 24.7346 22.3891 24.7087C22.6009 24.6963 22.8017 24.6871 22.9822 24.6787C23.0737 24.6744 23.1595 24.6704 23.2391 24.6663C23.6815 24.5917 24.091 24.5189 24.5526 24.4344C24.5566 24.4352 24.5607 24.436 24.5647 24.4369C24.6014 24.4456 24.5287 24.4565 24.3931 24.5159C24.1276 24.6211 23.9258 24.9002 23.9036 24.9951C23.8653 25.104 23.8809 25.1291 23.89 25.1344C23.9136 25.1389 23.9413 25.0612 23.9563 24.968C23.9882 24.7752 23.9858 24.4964 23.9702 24.1515C23.9656 24.0507 23.9599 23.9434 23.9534 23.8258C23.9408 23.6 23.9256 23.3466 23.9119 23.0631C23.8984 22.7874 23.9519 22.639 23.9958 22.5193C24.0087 22.4838 24.0206 22.4502 24.0297 22.4162C24.0611 22.3028 24.0066 22.1867 23.9424 22.0538C23.8587 21.8784 23.7582 21.6714 23.8044 21.3779C23.9511 20.4438 23.7509 20.0553 23.6008 19.7633C23.5567 19.6776 23.5168 19.5998 23.4907 19.5187C23.4063 19.2557 23.4233 18.8667 23.4708 18.5691C23.5084 18.3327 23.3995 17.8797 23.2853 17.538C23.2421 17.4086 23.2228 17.231 23.2001 17.0197C23.1768 16.8021 23.15 16.5506 23.0894 16.2829C23.0881 16.2772 23.0868 16.2716 23.0855 16.266C22.9349 15.599 22.861 15.2403 22.8023 14.9495C22.7854 14.8646 22.7701 14.7861 22.7546 14.7087C22.7054 14.4588 22.6574 14.1478 22.6155 13.8199C22.5648 13.4282 22.5277 13.0288 22.4841 12.7464C22.4844 12.7369 22.4847 12.7273 22.485 12.7177C22.5085 11.9862 22.5426 11.2569 22.5766 10.5281C22.5946 10.1487 22.7304 9.7826 22.9608 9.51034C23.1914 9.23801 23.4959 9.0817 23.8145 9.07543C24.1331 9.06922 24.4434 9.21359 24.6844 9.47678C24.9252 9.73991 25.0754 10.1005 25.1082 10.4787C25.1707 11.2049 25.2331 11.9322 25.2882 12.6564C25.2909 12.692 25.2935 12.7257 25.2962 12.7608C25.3571 13.6579 25.4707 14.5078 25.5612 15.4355C25.5798 15.6251 25.5983 15.8152 25.6166 16.0079C25.6595 16.4582 25.7006 16.9144 25.7386 17.3702C25.7441 17.4364 25.7495 17.5033 25.755 17.5707C25.8898 18.1051 26.0173 18.6422 26.0819 19.023C26.1353 19.3376 26.117 19.573 26.1013 19.7746C26.0904 19.9132 26.0808 20.0364 26.0963 20.1578C26.1047 20.2232 26.1184 20.3127 26.1347 20.4199C26.2017 20.8595 26.3141 21.6061 26.2962 22.3051C26.2882 22.6151 26.2501 22.9785 26.2096 23.3279C26.195 23.4568 26.18 23.5832 26.1659 23.7017C26.1254 24.0597 26.0919 24.3702 26.1127 24.5579C26.1356 24.769 26.1383 24.9953 26.1039 25.2778C26.0825 25.426 26.067 25.5699 25.9727 25.832C25.9178 25.9615 25.8562 26.1556 25.5902 26.4056C25.3178 26.6742 24.8505 26.7333 24.8395 26.7246C24.8263 26.7247 24.8128 26.7249 24.7978 26.7254C24.4187 26.7436 24.0684 26.7578 23.8873 26.8338C23.6678 26.9249 23.4701 26.923 23.1774 26.9198C23.0326 26.9181 22.8624 26.9163 22.6541 26.9253C22.5753 26.9285 22.4835 26.9342 22.3914 26.9415C22.0048 26.9724 21.7273 26.9606 21.4928 26.9503C21.1613 26.9361 20.9125 26.9252 20.5564 27.0414C20.1609 27.1704 19.7443 27.2718 19.4079 27.2853C19.2544 27.2915 19.0813 27.3147 18.901 27.3388C18.6621 27.3708 18.4111 27.4043 18.1778 27.402C17.9861 27.4 17.8225 27.3568 17.6772 27.3186C17.632 27.3066 17.5887 27.2952 17.5471 27.2857C17.3959 27.304 17.2454 27.3227 17.095 27.3419C17.0718 27.3546 17.0478 27.3685 17.0219 27.383C16.8934 27.4553 16.7366 27.544 16.5356 27.6022C16.2177 27.6945 15.929 27.6927 15.6246 27.6904C15.5412 27.6894 15.4497 27.6892 15.363 27.6903C15.2028 27.693 15.038 27.7014 14.8587 27.7274C14.6686 27.755 14.4498 27.803 14.2348 27.849C13.9143 27.9175 13.5964 27.9819 13.3703 27.9766C13.2854 27.9746 13.2105 27.9414 13.1362 27.9082C13.1359 27.908 13.1355 27.9078 13.1352 27.9076C13.1301 27.9053 13.1251 27.9032 13.12 27.9009C12.5768 27.9712 12.029 28.034 11.4778 28.0841C11.43 28.0955 11.3823 28.1066 11.3344 28.1175C11.1011 28.1706 10.8734 28.2191 10.7248 28.2852C10.5781 28.3507 10.2272 28.3909 9.84366 28.4232C9.80568 28.4264 9.76633 28.4295 9.72434 28.4323C9.56408 28.4384 9.39485 28.4653 9.02826 28.4019C8.84742 28.3664 8.58121 28.2904 8.30668 28.0922C8.02984 27.8965 7.82605 27.6024 7.72746 27.3894C7.53958 26.9726 7.57008 26.7397 7.58824 26.5477C7.5946 26.5219 7.60146 26.4961 7.60839 26.4702C7.64285 26.3419 7.679 26.21 7.66664 26.0678C7.66043 25.9963 7.64271 25.9196 7.62411 25.8373C7.60774 25.7651 7.59064 25.6884 7.58025 25.6082C7.57063 25.5337 7.59214 25.3675 7.62205 25.1563C7.64052 25.0257 7.66214 24.878 7.68135 24.7238C7.66507 24.3146 7.65543 23.9094 7.64898 23.5085C7.61723 23.4229 7.57459 23.3499 7.51852 23.2896C7.47826 23.2471 7.42958 23.2103 7.37983 23.1722C7.31216 23.12 7.24217 23.0675 7.18764 22.9953C7.14505 22.9386 7.1298 22.875 7.15026 22.8325C7.15979 22.8129 7.17683 22.7979 7.19222 22.7849C7.20985 22.7698 7.22554 22.7563 7.22583 22.739C7.22601 22.7265 7.21454 22.713 7.20067 22.6964C7.17852 22.6699 7.14995 22.6349 7.15098 22.5849C7.15491 22.3969 7.17339 22.1844 7.19118 21.9776C7.20263 21.8444 7.21377 21.7135 7.22067 21.5906C7.22558 21.5042 7.22845 21.4173 7.22742 21.3429C7.22483 21.1408 7.27975 20.8545 7.33418 20.567C7.37215 20.3668 7.40986 20.1649 7.42827 19.9926C7.44636 19.8221 7.42742 19.6456 7.40887 19.473C7.38658 19.2668 7.36495 19.0674 7.40937 18.9007C7.41838 18.867 7.4681 18.8262 7.53029 18.7749C7.57437 18.7386 7.62477 18.6972 7.67151 18.6493C7.67817 18.4349 7.68671 18.221 7.69686 18.0067C7.69052 17.999 7.68407 17.991 7.67749 17.983C7.67733 17.9829 7.67718 17.9827 7.67703 17.9826C7.52835 17.802 7.32495 17.5551 7.46046 17.2206C7.49491 17.1357 7.55547 17.0832 7.60998 17.0359C7.66351 16.9895 7.7114 16.9481 7.72301 16.8858C7.73617 16.8146 7.70654 16.73 7.67432 16.6374C7.62908 16.5072 7.57849 16.3618 7.63333 16.2197C7.63707 16.2101 7.64118 16.1995 7.6453 16.1885C7.68438 16.0847 7.74215 15.9313 7.85399 15.7811C7.88501 15.4367 7.91856 15.0916 7.95358 14.7492C7.96497 14.6362 7.97646 14.526 7.98809 14.4148C8.06737 13.6568 8.15271 12.8999 8.23245 12.1432C8.27169 11.775 8.42158 11.4231 8.65849 11.1629C8.89573 10.9029 9.199 10.7573 9.51167 10.7596C9.82428 10.762 10.1254 10.9113 10.3585 11.1763C10.5914 11.4413 10.7348 11.8013 10.7643 12.1764C10.8117 12.7882 10.8557 13.3981 10.8933 14.0079C10.8991 14.0398 10.9047 14.0727 10.9098 14.1047C10.9483 14.3428 11.031 14.5652 11.1137 14.7869C11.1187 14.8004 11.1237 14.814 11.1286 14.8276C11.1426 14.8647 11.1566 14.9023 11.1702 14.9402Z" fill="#FF3B30"/>
<path d="M16.4869 15.3063C16.6384 15.3598 16.5804 15.4731 16.5486 15.5347C16.548 15.5359 16.5475 15.537 16.547 15.5381C16.5395 15.5528 16.5378 15.5667 16.536 15.5833C16.5317 15.6212 16.5259 15.6736 16.4336 15.7848C16.438 15.8166 16.4408 15.8465 16.4417 15.8787C16.442 15.8889 16.4422 15.8991 16.4423 15.9095C16.4447 16.2401 16.3325 16.5732 16.1967 16.9097C16.1976 16.914 16.1985 16.9183 16.1994 16.9226C16.2171 17.0074 16.239 17.1133 16.1861 17.1817C16.1189 17.2692 16.0558 17.327 16.0014 17.3765C15.8882 17.6515 15.7875 17.9243 15.7492 18.1965C15.7372 18.2814 15.7314 18.3673 15.7332 18.4519C15.7349 18.5306 15.7413 18.6082 15.7518 18.6865C15.7853 18.7317 15.8249 18.7742 15.8616 18.8135C15.9131 18.8689 15.9589 18.9187 15.9743 18.9601C16.0114 19.0589 15.9579 19.1746 15.9181 19.2592C15.9116 19.2731 15.9055 19.2863 15.9002 19.2984C15.9218 19.3655 15.9448 19.4317 15.9683 19.4985C15.9559 19.5032 15.943 19.5079 15.9298 19.5127C15.7647 19.573 15.7679 19.6427 15.7727 19.7536C15.7748 19.8021 15.7771 19.8575 15.766 19.9235C15.7589 19.966 15.6933 19.9887 15.6399 20.0073C15.6241 20.0128 15.6094 20.0179 15.5975 20.0231C15.5569 20.0406 15.6013 20.0579 15.6538 20.0783C15.7219 20.1048 15.8037 20.1367 15.7308 20.1814C15.4984 20.3234 15.658 20.3822 15.7787 20.4273C15.8141 20.4405 15.8461 20.4526 15.8639 20.465C15.9217 20.5051 15.8655 20.564 15.788 20.6089C15.7265 20.6445 15.7885 20.7138 15.8671 20.766C15.8967 20.7858 15.8977 20.8129 15.8987 20.8448C15.8998 20.8779 15.9008 20.9162 15.9342 20.9568C16.0187 21.0595 16.0596 21.1144 16.0923 21.1583C16.1017 21.1709 16.1102 21.1826 16.119 21.1943C16.1471 21.2312 16.1702 21.2771 16.1936 21.3236C16.2215 21.3793 16.2498 21.4358 16.2875 21.4788C16.2484 21.5909 16.1998 21.703 16.1511 21.8149C16.1259 21.8724 15.983 21.9278 15.7475 21.9685C15.5117 22.0092 15.2042 22.032 14.8855 22.0322C14.5669 22.0323 14.2594 22.01 14.0235 21.9703C13.7879 21.9306 13.6446 21.8768 13.6191 21.8205C13.5683 21.7072 13.5173 21.5939 13.4764 21.4807C13.4266 21.3428 13.392 21.2049 13.3909 21.0666C13.3901 20.97 13.3969 20.8731 13.4096 20.7763C13.4109 20.7663 13.4124 20.7563 13.4138 20.7464C13.3346 20.6659 13.2624 20.5854 13.2363 20.5287C13.2148 20.482 13.2562 20.4469 13.2917 20.417C13.3161 20.3964 13.3377 20.3782 13.334 20.3601C13.332 20.3504 13.327 20.3371 13.321 20.3212C13.2965 20.2561 13.2547 20.1448 13.3299 20.0424C13.3632 19.9967 13.4294 19.9433 13.4926 19.8923C13.583 19.8199 13.6672 19.751 13.6405 19.7178C13.5936 19.6594 13.6314 19.5908 13.6649 19.53C13.6968 19.4721 13.7247 19.422 13.6711 19.3942C13.6071 19.361 13.6324 19.3315 13.6699 19.2877C13.696 19.2572 13.7278 19.2204 13.7399 19.1698C13.7539 19.1116 13.7976 19.07 13.8347 19.0347C13.887 18.9853 13.9263 18.9471 13.8516 18.8937C13.7687 18.8345 13.7154 18.7723 13.7402 18.7213C13.7515 18.6982 13.7481 18.6722 13.7446 18.6452C13.7399 18.6095 13.735 18.5718 13.7636 18.5364C13.7871 18.5073 13.8485 18.4825 13.9028 18.4606C13.9197 18.4537 13.9359 18.4471 13.9501 18.4408C13.9488 18.4182 13.9472 18.396 13.9448 18.3731C13.9348 18.3696 13.9237 18.366 13.9122 18.3621C13.8547 18.343 13.7841 18.3196 13.7485 18.2896C13.6923 18.242 13.7259 18.1995 13.7616 18.1529C13.7893 18.1169 13.8183 18.0797 13.8067 18.0384C13.7987 18.0104 13.7727 17.978 13.7469 17.9463C13.7085 17.8991 13.6708 17.853 13.6933 17.82C13.7017 17.8073 13.7403 17.7957 13.7787 17.7842C13.7789 17.7842 13.7792 17.7841 13.7794 17.7841C13.782 17.7833 13.7846 17.7825 13.7871 17.7818C13.7556 17.7019 13.7211 17.6237 13.6847 17.544C13.6745 17.5373 13.6645 17.5306 13.6546 17.5239C13.6064 17.4913 13.5596 17.4601 13.4937 17.4398C13.4223 17.4181 13.3797 17.3603 13.3347 17.3006C13.3052 17.2605 13.2748 17.2193 13.2346 17.1865C13.2111 17.1673 13.2507 17.1477 13.2914 17.1272C13.3294 17.1078 13.3685 17.0879 13.3581 17.0678C13.353 17.0577 13.3361 17.0471 13.3181 17.0358C13.3022 17.0259 13.2854 17.0155 13.2749 17.0044C13.2653 16.994 13.2865 16.9705 13.3133 16.9386C13.33 16.9192 13.3487 16.8972 13.3641 16.8744C13.3376 16.8169 13.312 16.7567 13.2881 16.6988C13.2527 16.6875 13.2069 16.6782 13.1482 16.6715C13.1061 16.6668 13.0558 16.6628 13.0044 16.6588C12.9345 16.6534 12.8622 16.6477 12.8044 16.6389C12.7593 16.632 12.7411 16.6229 12.7596 16.616C12.7682 16.6127 12.7845 16.61 12.7993 16.6075C12.8162 16.6047 12.8312 16.6021 12.8307 16.5995C12.8303 16.5977 12.8183 16.5961 12.8036 16.5941C12.7803 16.5909 12.7501 16.5868 12.7489 16.5793C12.7441 16.5517 12.7528 16.5197 12.7614 16.4875C12.771 16.4521 12.7802 16.4181 12.7705 16.3919C12.7596 16.361 12.803 16.316 12.8463 16.2721C12.8765 16.2416 12.9065 16.2088 12.9184 16.1828C12.9301 16.1568 12.9047 16.1325 12.8798 16.1063C12.85 16.0756 12.8212 16.0469 12.8597 16.0211C12.8637 16.0184 12.8785 16.0151 12.9001 16.0113C12.9204 16.0074 12.9468 16.0031 12.976 15.9983C13.0187 15.9912 13.0676 15.9832 13.1126 15.9744C13.1117 15.9414 13.1128 15.9109 13.1155 15.8779C13.1089 15.8769 13.1022 15.8759 13.0953 15.8749C13.0952 15.8749 13.095 15.8749 13.0949 15.8749C12.9401 15.8517 12.7285 15.8238 12.8526 15.7681C12.8842 15.754 12.943 15.7442 12.9958 15.7354C13.0478 15.7267 13.0943 15.719 13.1038 15.7095C13.1146 15.6988 13.0822 15.6873 13.047 15.674C12.9976 15.6557 12.9423 15.6357 12.9926 15.6131C12.996 15.6116 12.9998 15.6099 13.0035 15.6082C13.0393 15.5917 13.0921 15.5657 13.1991 15.5399C13.2259 15.4707 13.2576 15.4008 13.2924 15.3312C13.3503 15.215 13.4169 15.0993 13.4834 14.9828C13.5161 14.9256 13.6613 14.8685 13.8949 14.8227C14.0119 14.7995 14.1457 14.7806 14.2894 14.766C14.3612 14.7584 14.4355 14.7528 14.5114 14.7476C14.5493 14.7451 14.5876 14.7431 14.6262 14.7407C14.6072 14.7386 14.5549 14.7416 14.5189 14.741C14.4993 14.741 14.4798 14.741 14.4604 14.7404C14.4507 14.7397 14.4409 14.741 14.4313 14.7368C14.4289 14.7356 14.4265 14.7343 14.4243 14.7301C14.4232 14.7278 14.422 14.7252 14.4216 14.7178C14.4217 14.7129 14.4205 14.7126 14.4235 14.6949C14.4258 14.6853 14.4256 14.6748 14.4425 14.6403C14.4526 14.6232 14.4648 14.5947 14.5168 14.5596C14.5657 14.5207 14.684 14.5169 14.736 14.5537C14.8927 14.6917 14.8225 14.6782 14.8423 14.6965C14.8451 14.7073 14.846 14.7111 14.8471 14.7145C14.849 14.7208 14.8503 14.7227 14.8517 14.7246C14.8544 14.7286 14.8567 14.7271 14.8592 14.7278C14.8981 14.7321 14.9364 14.7305 14.9744 14.7316C15.0505 14.7329 15.125 14.7343 15.1971 14.7379C15.3414 14.7446 15.4761 14.7559 15.5942 14.7725C15.8302 14.8051 15.9784 14.8539 16.0144 14.9093C16.0724 14.9979 16.1305 15.0876 16.1842 15.1768C16.1909 15.1814 16.1973 15.186 16.2033 15.1907C16.2481 15.2247 16.3371 15.256 16.4261 15.2854C16.4465 15.2923 16.467 15.2992 16.4869 15.3063Z" fill="#FF3B30"/>
<path d="M21.3821 14.9786C21.5319 15.0462 21.4707 15.1706 21.4371 15.2425C21.4366 15.2437 21.436 15.245 21.4355 15.2462C21.4275 15.2624 21.4254 15.2779 21.4232 15.2965C21.4178 15.3417 21.4105 15.4008 21.315 15.5236C21.3185 15.5604 21.3204 15.5961 21.3204 15.6318C21.3204 15.6559 21.32 15.6804 21.319 15.7054C21.3049 16.0705 21.1865 16.4366 21.0457 16.804C21.0464 16.809 21.0472 16.8141 21.048 16.8193C21.0632 16.9161 21.082 17.0398 21.027 17.1151C20.9572 17.2129 20.8924 17.2777 20.8365 17.3319C20.7151 17.6424 20.606 17.9528 20.5591 18.2632C20.5444 18.3593 20.5359 18.4584 20.535 18.5548C20.5341 18.6442 20.5379 18.7348 20.5459 18.8241C20.5779 18.8765 20.6161 18.9273 20.6514 18.9736C20.7011 19.0386 20.7452 19.0969 20.7592 19.1449C20.793 19.2602 20.7356 19.3902 20.6929 19.4859C20.686 19.5016 20.6793 19.5164 20.6736 19.5301C20.6929 19.6072 20.7136 19.6848 20.7348 19.7617C20.7223 19.7667 20.7092 19.7716 20.6958 19.7767C20.5287 19.8396 20.5295 19.9203 20.5303 20.047C20.5307 20.1023 20.531 20.1666 20.5175 20.2415C20.5089 20.2899 20.4425 20.3136 20.3884 20.333C20.3725 20.3387 20.3576 20.344 20.3456 20.3495C20.3043 20.3682 20.3481 20.3898 20.3998 20.415C20.4669 20.4478 20.5474 20.4872 20.4729 20.5357C20.2354 20.6902 20.3926 20.7632 20.5116 20.8192C20.5465 20.8356 20.578 20.8505 20.5953 20.8654C20.6516 20.9138 20.5932 20.9791 20.514 21.0277C20.4512 21.0662 20.5105 21.1479 20.5869 21.2106C20.6158 21.2343 20.6157 21.2654 20.6155 21.3021C20.6152 21.34 20.6147 21.3839 20.6465 21.4317C20.7268 21.5526 20.7655 21.6169 20.7964 21.6686C20.8053 21.6834 20.8133 21.6971 20.8217 21.7109C20.8481 21.7542 20.8694 21.8078 20.8908 21.862C20.9164 21.9269 20.9424 21.9929 20.9782 22.0436C20.9344 22.1706 20.881 22.2976 20.8276 22.4239C20.7998 22.489 20.6546 22.5471 20.4174 22.5845C20.18 22.622 19.8717 22.636 19.5533 22.6237C19.2349 22.6113 18.9286 22.5737 18.6947 22.5192C18.461 22.4647 18.3202 22.3978 18.2972 22.3325C18.2513 22.2014 18.2051 22.0699 18.169 21.9392C18.1251 21.7797 18.0961 21.6211 18.1005 21.4632C18.1036 21.3529 18.1142 21.2425 18.1307 21.1324C18.1324 21.1211 18.1342 21.1097 18.1361 21.0984C18.06 21.0035 17.9909 20.9091 17.967 20.8434C17.9472 20.789 17.99 20.7506 18.0266 20.7177C18.0517 20.6951 18.074 20.6751 18.071 20.6543C18.0694 20.6432 18.0649 20.6278 18.0594 20.6094C18.0373 20.5337 17.9997 20.406 18.0786 20.2911C18.1135 20.2401 18.1816 20.1815 18.2466 20.1256C18.3396 20.0453 18.4261 19.9702 18.4006 19.9312C18.3558 19.8631 18.396 19.7854 18.4316 19.7174C18.4655 19.6526 18.4951 19.5956 18.4425 19.5621C18.3796 19.5221 18.406 19.4893 18.445 19.4406C18.4721 19.4069 18.5051 19.3651 18.5189 19.308C18.5349 19.242 18.5799 19.1962 18.6182 19.1571C18.6722 19.1015 18.7127 19.0598 18.6398 18.9963C18.5589 18.9263 18.5077 18.8521 18.5342 18.7952C18.5462 18.7693 18.5437 18.7395 18.541 18.7086C18.5375 18.6674 18.5338 18.6237 18.5635 18.5845C18.588 18.5522 18.6502 18.526 18.7051 18.5028C18.7223 18.4956 18.7386 18.4886 18.753 18.4819C18.7525 18.456 18.7516 18.4296 18.75 18.4036C18.7401 18.3993 18.7291 18.3948 18.7177 18.3901C18.6609 18.3663 18.5911 18.3373 18.5565 18.3019C18.5017 18.2465 18.5367 18.1969 18.5738 18.1457C18.6027 18.1056 18.6328 18.0647 18.6225 18.0166C18.6154 17.9835 18.5904 17.946 18.5656 17.909C18.5288 17.8541 18.4925 17.8003 18.516 17.7623C18.5248 17.7482 18.5637 17.7363 18.6024 17.7245C18.6027 17.7245 18.6029 17.7244 18.6031 17.7244C18.6058 17.7236 18.6083 17.7228 18.6109 17.722C18.5819 17.6309 18.5497 17.5381 18.5158 17.447C18.5059 17.4391 18.496 17.4311 18.4864 17.4232C18.4392 17.3845 18.3933 17.3457 18.3281 17.3209C18.2574 17.2935 18.2165 17.2284 18.1733 17.1563C18.1451 17.1097 18.1159 17.062 18.0767 17.0234C18.0538 17.0009 18.0939 16.9787 18.1352 16.9565C18.1738 16.9357 18.2134 16.9145 18.2037 16.8912C18.1988 16.8796 18.1823 16.8671 18.1646 16.8537C18.149 16.8419 18.1325 16.8299 18.1224 16.8164C18.113 16.804 18.1349 16.7765 18.1627 16.7417C18.1799 16.7202 18.1993 16.6959 18.2153 16.6706C18.1905 16.6031 18.1667 16.5338 18.1445 16.4674C18.1095 16.4529 18.0639 16.4404 18.0055 16.4305C17.9635 16.4234 17.9134 16.4174 17.8621 16.4112C17.7923 16.4027 17.7202 16.394 17.6628 16.3822C17.6178 16.3729 17.6 16.362 17.6186 16.3548C17.6273 16.3514 17.6437 16.3488 17.6585 16.3465C17.6755 16.3438 17.6906 16.3414 17.6902 16.3385C17.6899 16.3364 17.6778 16.3342 17.6633 16.3314C17.64 16.3271 17.61 16.3215 17.609 16.313C17.605 16.281 17.6147 16.2432 17.6242 16.2077C17.6347 16.168 17.645 16.1298 17.636 16.0979C17.626 16.0622 17.6707 16.0146 17.7152 15.9639C17.7463 15.9286 17.7772 15.8939 17.7899 15.8647C17.8023 15.8369 17.7776 15.804 17.7535 15.7749C17.7334 15.7503 17.7138 15.7268 17.7168 15.7054C17.7181 15.6954 17.7238 15.6858 17.7358 15.6767C17.7437 15.6708 17.7922 15.6634 17.8527 15.6542C17.8956 15.6477 17.9447 15.6402 17.99 15.6318C17.99 15.5954 17.992 15.5586 17.9956 15.5211C17.9891 15.5198 17.9824 15.5185 17.9756 15.5171C17.9754 15.5171 17.9752 15.5171 17.9751 15.5171C17.821 15.4868 17.6103 15.446 17.736 15.3871C17.768 15.3724 17.827 15.3633 17.8801 15.3551C17.9323 15.347 17.979 15.34 17.9888 15.3287C17.9999 15.3161 17.9679 15.3014 17.933 15.2857C17.8841 15.2631 17.8295 15.2407 17.8804 15.2143C17.8838 15.2126 17.8876 15.2107 17.8915 15.2088C17.9277 15.1904 17.9812 15.1638 18.0889 15.1382C18.1177 15.0575 18.1514 14.9821 18.1882 14.9017C18.2494 14.7719 18.3193 14.6391 18.3892 14.5085C18.4236 14.445 18.5703 14.3838 18.8052 14.3386C19.0404 14.2935 19.3427 14.2687 19.6553 14.2686C19.968 14.2687 20.27 14.2935 20.5052 14.3386C20.7401 14.3838 20.8868 14.445 20.9212 14.5085C20.9766 14.6124 21.0321 14.7176 21.0833 14.8206C21.0898 14.8259 21.096 14.8313 21.1019 14.8367C21.1457 14.8783 21.2337 14.9139 21.3219 14.9531C21.3421 14.9622 21.3624 14.97 21.3821 14.9786Z" fill="#FF3B30"/>
<path d="M10.4943 8.54689C10.3294 8.43291 10.3517 8.20238 10.3604 8.10121C10.3606 8.09934 10.3607 8.09739 10.3608 8.09549C10.3629 8.07059 10.3598 8.05003 10.3559 8.0275C10.3502 7.98479 10.3288 7.90558 10.3947 7.87873C10.3687 7.81053 10.3446 7.73675 10.3297 7.67749C10.2503 7.49327 10.2067 7.35439 10.17 7.22653C9.87221 6.06367 9.91874 5.1905 9.94449 4.28734C9.87146 3.92441 10.0976 3.22237 10.434 2.9525C10.7491 2.66829 10.9498 2.6243 11.0836 2.57708C11.3529 2.50214 11.4605 2.50999 11.5681 2.50523C11.5953 2.5024 11.6215 2.50004 11.6474 2.49802C12.0971 2.47009 12.354 2.48481 12.5553 2.54971C12.7948 2.63586 12.9458 2.71063 13.0737 2.77422C13.4332 2.85515 13.7892 2.92675 14.1485 2.98065C14.5662 3.03839 14.966 3.09736 15.3644 3.14082C15.6081 3.16758 15.8508 3.18885 16.093 3.20258C16.316 3.21522 16.5387 3.22318 16.7613 3.22667C16.8926 3.20135 17.0172 3.16943 17.1329 3.13977C17.2954 3.09809 17.44 3.06087 17.5576 3.0523C17.8416 3.03178 18.1582 3.10262 18.3936 3.15431C18.432 3.16277 18.4684 3.17075 18.5021 3.17774C18.6909 3.16541 18.8806 3.15112 19.069 3.13566C19.081 3.14856 19.0932 3.162 19.1056 3.17576C19.2603 3.34751 19.4579 3.35239 19.7686 3.35797C19.8684 3.35974 19.9782 3.36154 20.1035 3.36866C20.1518 3.37132 20.2002 3.37475 20.2523 3.37939C20.3777 3.39062 20.4432 3.45912 20.4948 3.51506C20.5101 3.53153 20.5252 3.547 20.5399 3.55964C20.5902 3.60297 20.6491 3.56177 20.723 3.51461C20.8205 3.45461 20.9416 3.37885 21.1339 3.4879C21.3003 3.58563 21.5143 3.68225 21.7147 3.84246C21.9156 4.00348 22.0256 4.16524 22.1003 4.25243C22.2205 4.40056 22.3112 4.47742 22.395 4.5517C22.4494 4.60015 22.4963 4.64414 22.5287 4.69371C22.6354 4.85574 22.6238 5.11054 22.5616 5.29749C22.5219 5.42123 22.5683 5.62452 22.5991 5.87011C22.6069 5.91093 22.6154 5.95092 22.6242 5.98897C22.6428 6.07099 22.6266 6.17748 22.6009 6.29992C22.5744 6.42669 22.5374 6.5708 22.5199 6.73066C22.4725 7.13511 22.4138 7.33323 22.3749 7.48904C22.3633 7.53315 22.3519 7.57397 22.3409 7.614C22.3063 7.74102 22.2516 7.88651 22.2014 8.0203C22.1411 8.18087 22.0907 8.32311 22.0799 8.4218C22.0092 8.51182 21.9554 8.57895 21.9228 8.6053L21.9702 8.45138C21.9463 8.44003 21.908 8.52109 21.8736 8.6795C21.873 8.68197 21.8724 8.68445 21.8719 8.68693C21.8367 8.83878 21.6856 8.98438 21.444 9.08541C21.2023 9.18655 20.8918 9.23466 20.5736 9.21733C20.2554 9.19997 19.9518 9.1191 19.7227 8.99079C19.4938 8.86236 19.3595 8.69678 19.345 8.52539C19.3447 8.52258 19.3445 8.51978 19.3443 8.51699C19.3311 8.34777 19.3147 8.11168 19.3646 7.80563C19.3759 7.78067 19.3906 7.69896 19.4046 7.6754C19.4745 7.42064 19.5567 7.21805 19.6305 7.04222C19.8178 6.60933 19.953 6.32409 20.0475 6.08732C20.1148 5.92263 20.1599 5.78301 20.1919 5.63683C20.1937 5.6288 20.1954 5.62071 20.1971 5.61256C20.1977 5.61291 20.1985 5.61254 20.1993 5.61159C20.1253 5.57988 20.0422 5.46826 20.0056 5.43193C19.9763 5.39829 20.0108 5.37876 20.0525 5.38426C20.0706 5.38716 20.0901 5.39532 20.111 5.41571C20.1228 5.42665 20.1365 5.44452 20.1536 5.47079C20.177 5.50626 20.2244 5.57872 20.3164 5.66373C20.5289 5.8567 20.7258 5.8913 20.6783 5.88782C20.651 5.88616 20.5271 5.86668 20.4039 5.82352C20.304 5.78827 20.1779 5.72658 20.0509 5.66537C20.0374 5.65917 20.024 5.65297 20.0106 5.64679C19.8026 5.55048 19.6105 5.45966 19.5108 5.48282C19.3365 5.52358 19.1397 5.47798 18.9656 5.43703C18.8 5.39801 18.656 5.36343 18.5704 5.41301C18.4689 5.47231 18.385 5.44284 18.2616 5.39901C18.1758 5.36859 18.0709 5.33136 17.9262 5.31138C17.7603 5.28836 17.6439 5.23798 17.5455 5.19513C17.4069 5.13479 17.3029 5.0893 17.1411 5.15432C16.9613 5.22655 16.7748 5.26834 16.632 5.23447C16.5678 5.21909 16.4909 5.21763 16.4136 5.21626C16.3093 5.21434 16.2013 5.21231 16.1035 5.17737C16.0243 5.14865 15.9588 5.08298 15.903 5.02499C15.8855 5.00689 15.8689 4.98963 15.8521 4.97432C15.7863 4.9714 15.723 4.96901 15.6572 4.96719C15.6461 4.97654 15.6344 4.98694 15.6223 4.99766C15.5616 5.05149 15.4865 5.11749 15.3973 5.14763C15.2556 5.1953 15.1363 5.15444 15.0109 5.11148C14.9129 5.07802 14.8118 5.04335 14.6932 5.04894C14.6133 5.0528 14.5212 5.07439 14.4306 5.09627C14.3103 5.12572 14.1898 5.15567 14.1048 5.14261C14.0948 5.14123 14.0851 5.13937 14.0758 5.13699C14.0388 5.12747 14.0081 5.08789 13.9781 5.04847C13.978 5.04823 13.9778 5.04799 13.9777 5.04775C13.9757 5.04507 13.9736 5.04246 13.9716 5.03979C13.7329 5.06331 13.4926 5.08635 13.2533 5.10833C13.2322 5.11723 13.2111 5.12597 13.1903 5.13456C13.0862 5.1764 12.9861 5.21654 12.9192 5.27789C12.8452 5.34437 12.6698 5.37434 12.4885 5.40536C12.37 5.42575 12.2512 5.44698 12.1563 5.48035C12.101 5.49986 12.0545 5.45698 12.0083 5.41324C11.9656 5.37244 11.9218 5.33091 11.8798 5.33949C11.8576 5.34376 11.8376 5.35996 11.8186 5.37763C11.8032 5.39318 11.7897 5.41001 11.7861 5.42032C11.7849 5.42499 11.7814 5.42243 11.7974 5.41316C11.8189 5.39972 11.8302 5.40176 12.0185 5.32465C12.0966 5.28503 12.2442 5.23812 12.468 5.01103C12.7167 4.78645 12.875 4.2381 12.8118 3.96469C12.8085 3.98473 12.8056 4.00646 12.803 4.02861C12.8468 4.19939 12.8883 4.36175 12.929 4.52273C12.9678 4.55289 13.0165 4.57787 13.0773 4.59399C13.1209 4.6058 13.1723 4.61426 13.225 4.623C13.2967 4.63523 13.3706 4.6464 13.431 4.6677C13.4782 4.68418 13.4992 4.70835 13.4827 4.7274C13.475 4.73641 13.4595 4.74452 13.4454 4.75189C13.4294 4.76033 13.4151 4.76788 13.4164 4.77482C13.4173 4.77982 13.4299 4.78362 13.4451 4.78831C13.4695 4.79576 13.501 4.80577 13.5045 4.82558C13.5178 4.90022 13.5192 4.98694 13.5208 5.07039C13.5226 5.16368 13.525 5.25373 13.5441 5.32234C13.5655 5.39911 13.5381 5.51607 13.512 5.63069C13.4939 5.71109 13.4764 5.78986 13.4755 5.85376C13.4745 5.91634 13.5108 5.9725 13.5463 6.02332C13.5886 6.08357 13.6297 6.13613 13.6027 6.18885C13.5972 6.19961 13.5532 6.2229 13.4983 6.25178C13.4594 6.2724 13.4147 6.29532 13.3747 6.32C13.3884 6.36985 13.4026 6.41363 13.3958 6.40583C13.4017 6.40291 13.4077 6.39982 13.4137 6.39654C13.4138 6.39647 13.414 6.39639 13.4141 6.39632C13.4496 6.37666 13.4864 6.3498 13.5142 6.31343C13.6769 6.3792 13.8301 6.5042 13.8032 6.70585C13.7942 6.7761 13.7495 6.82934 13.7091 6.87683C13.6693 6.92331 13.6332 6.96399 13.6353 7.00499C13.6374 7.05081 13.6825 7.09197 13.7308 7.13768C13.7982 7.20003 13.8724 7.27311 13.8409 7.36569C13.8387 7.37203 13.8363 7.37885 13.834 7.38591C13.8117 7.45283 13.777 7.54917 13.686 7.6497C13.7023 7.89508 13.6995 8.12619 13.6874 8.34935C13.6672 8.72039 13.6199 9.07227 13.573 9.39631C13.5497 9.55241 13.4146 9.69766 13.192 9.80054C12.9706 9.9072 12.6734 9.96487 12.3982 10.12C12.1179 10.2728 11.7574 10.1607 11.5081 10.0344C11.2534 9.90651 11.0938 9.74045 11.0476 9.57892C10.9732 9.31439 10.9015 9.0744 10.8284 8.84748C10.8208 8.83584 10.8134 8.82455 10.8063 8.81311C10.7539 8.72794 10.6576 8.65709 10.5607 8.59147C10.5384 8.57638 10.5161 8.56154 10.4943 8.54689Z" fill="#FF3B30"/>
</svg>
