<svg width="32" height="32" viewBox="0 0 32 32" fill="none" xmlns="http://www.w3.org/2000/svg">
<path d="M8.5317 8.74459C8.67406 8.62844 8.94856 8.67588 9.09956 8.70193C9.10233 8.70236 9.10509 8.70278 9.10786 8.70321C9.1437 8.70938 9.1776 8.71099 9.21732 8.71273C9.31202 8.7169 9.43998 8.72256 9.70703 8.7966C9.78473 8.79387 9.86245 8.79239 9.94015 8.79239C10.7793 8.79239 11.6184 8.88896 12.4575 9.00461C12.4681 9.00401 12.4789 9.0034 12.4898 9.00278C12.7003 8.99079 12.9612 8.97596 13.1252 9.01834C13.3337 9.07223 13.4753 9.12223 13.5916 9.16538C14.2581 9.25843 14.9246 9.34159 15.5911 9.37595C15.8 9.38672 16.0089 9.39262 16.2178 9.39262C16.4102 9.39262 16.6026 9.38893 16.7949 9.382C16.907 9.35672 17.0135 9.32669 17.1122 9.29887C17.251 9.25977 17.3746 9.22505 17.4766 9.21372C17.7225 9.18642 18.0015 9.2295 18.2086 9.26151C18.2424 9.26674 18.2744 9.27169 18.304 9.27598C18.4685 9.26012 18.633 9.24315 18.7975 9.2258C18.8085 9.23546 18.8196 9.24552 18.8308 9.25583C18.9712 9.38457 19.1438 9.38292 19.4155 9.38053C19.5338 9.37949 19.6709 9.37836 19.8324 9.38767C19.9364 9.39367 19.9898 9.44472 20.0335 9.48637C20.0463 9.49862 20.0584 9.51007 20.0706 9.51933C20.1124 9.55103 20.1564 9.51677 20.2085 9.4763C20.276 9.42379 20.357 9.36073 20.464 9.4177C20.8049 9.59923 20.9551 9.47608 21.0687 9.38291C21.1021 9.35558 21.1323 9.33089 21.1632 9.31718C21.2635 9.27272 21.4064 9.31677 21.5145 9.37724C21.6001 9.42518 21.7714 9.37765 21.9014 9.31718C21.9505 9.29431 22.017 9.29373 22.0952 9.29319C22.1762 9.29262 22.2699 9.29211 22.3701 9.26645C22.6235 9.20162 22.7581 9.1702 22.8663 9.14505C22.8972 9.13788 22.9259 9.13135 22.9546 9.12455C23.0453 9.10303 23.1579 9.0853 23.2719 9.06742C23.4083 9.04601 23.5468 9.02428 23.6521 8.99527C23.9252 9.02597 24.1982 9.06395 24.4712 9.10184C24.6114 9.12151 24.746 9.23231 24.8452 9.41496C24.9443 9.59775 25 9.8361 25 10.0831C25 10.3301 24.9443 10.5685 24.8452 10.7513C24.746 10.9339 24.6114 11.0449 24.4712 11.0646C24.1887 11.1038 23.9062 11.143 23.6236 11.1743C23.2795 11.2123 22.9353 11.2385 22.5911 11.2385C22.3504 11.2385 22.1096 11.2326 21.8688 11.2221C21.844 11.221 21.8193 11.2198 21.7945 11.2186C21.5922 11.2794 21.3903 11.3347 21.2481 11.3544C21.1307 11.3707 21.045 11.3383 20.9717 11.3105C20.9213 11.2914 20.8766 11.2745 20.8314 11.2772C20.8072 11.2786 20.774 11.2824 20.7341 11.2869C20.5709 11.3053 20.2937 11.3365 20.0409 11.2772C19.9287 11.2508 19.7984 11.1989 19.674 11.1494C19.4961 11.0785 19.3301 11.0124 19.2464 11.0327C19.0993 11.0684 18.9306 11.0382 18.7816 11.0115C18.6394 10.986 18.5151 10.9637 18.4444 11.0049C18.3599 11.0541 18.2878 11.034 18.1807 11.0043C18.1064 10.9837 18.0152 10.9586 17.8913 10.9485C17.7482 10.9368 17.647 10.9024 17.561 10.8731C17.4399 10.8318 17.3488 10.8008 17.213 10.8579C17.0621 10.9212 16.9045 10.9616 16.7803 10.9415C16.7237 10.9324 16.6591 10.9346 16.5918 10.937C16.5026 10.94 16.4089 10.9432 16.3233 10.9205C16.2528 10.9017 16.1945 10.8538 16.143 10.8113C16.1269 10.7981 16.1114 10.7855 16.0965 10.7744C16.0403 10.775 15.9841 10.7759 15.928 10.7773C15.9189 10.785 15.9093 10.7936 15.8993 10.8024C15.8493 10.8466 15.7877 10.9009 15.7115 10.928C15.5908 10.9708 15.485 10.944 15.3733 10.9155C15.2864 10.8934 15.1959 10.8703 15.0922 10.8785C15.0215 10.8842 14.9409 10.9038 14.8611 10.9232C14.7426 10.9521 14.6255 10.9805 14.5442 10.9624C14.5137 10.9556 14.4875 10.9255 14.4616 10.8956C14.4615 10.8954 14.4613 10.8952 14.4612 10.895C14.4595 10.893 14.4577 10.891 14.4559 10.889C14.2578 10.9119 14.0597 10.9372 13.8616 10.9639C13.8445 10.9716 13.8271 10.9792 13.8099 10.9868C13.7259 11.0235 13.6443 11.0592 13.5911 11.1098C13.5334 11.1647 13.3884 11.1966 13.2356 11.2303C13.1356 11.2523 13.0321 11.2751 12.9477 11.3056C12.8983 11.3234 12.8514 11.2923 12.8033 11.2603C12.7583 11.2305 12.7121 11.1998 12.6617 11.2074C12.6364 11.2112 12.6091 11.2241 12.58 11.2378C12.5543 11.2499 12.5272 11.2627 12.4988 11.2706C12.4724 11.2779 12.4137 11.261 12.3383 11.2395C12.2918 11.2262 12.2389 11.2112 12.1833 11.1988C12.0366 11.2181 11.8898 11.2367 11.7431 11.2539C11.7125 11.2811 11.6859 11.3164 11.6649 11.3618C11.6498 11.3943 11.6369 11.4332 11.6237 11.4729C11.6058 11.527 11.5872 11.5829 11.5616 11.6275C11.5416 11.6623 11.518 11.6762 11.5021 11.6617C11.4947 11.655 11.4891 11.6422 11.4839 11.6308C11.478 11.6176 11.4728 11.6059 11.4664 11.6062C11.4617 11.6065 11.4569 11.6158 11.451 11.6271C11.4415 11.6451 11.4292 11.6684 11.4105 11.6692C11.3407 11.6723 11.2615 11.6648 11.1839 11.6575C11.0975 11.6493 11.0132 11.6414 10.9459 11.6483C10.8706 11.6561 10.7633 11.6215 10.6558 11.587C10.5809 11.5629 10.5058 11.539 10.4413 11.5291C10.3782 11.5195 10.3125 11.5386 10.2488 11.5573C10.1724 11.5798 10.0989 11.6014 10.0364 11.5711C10.0238 11.5649 10.0081 11.5274 9.98842 11.4804C9.97447 11.4472 9.95842 11.4091 9.94015 11.374C9.86064 11.374 9.78112 11.3725 9.70161 11.3696C9.69881 11.3747 9.69592 11.3799 9.69302 11.3852C9.69298 11.3853 9.69293 11.3855 9.69289 11.3856C9.62758 11.505 9.53822 11.6683 9.41267 11.5709C9.38075 11.5461 9.36066 11.5004 9.34256 11.4592C9.32478 11.4187 9.30889 11.3826 9.28564 11.375C9.25922 11.3663 9.22804 11.3912 9.19404 11.4182C9.1463 11.4561 9.09298 11.4984 9.03947 11.459C9.03582 11.4563 9.03189 11.4534 9.0278 11.4504C8.98902 11.4223 8.9316 11.3808 8.87447 11.2973C8.70497 11.275 8.53545 11.2489 8.36594 11.2204C8.0834 11.1729 7.8008 11.1187 7.51828 11.0646C7.38083 11.0379 7.24901 10.9242 7.15182 10.7421C7.05462 10.5598 7 10.3255 7 10.0831C7.00001 9.84078 7.05462 9.6066 7.15182 9.42429C7.24901 9.24221 7.38083 9.12849 7.51828 9.10184C7.74241 9.05889 7.96662 9.01587 8.19078 8.97623C8.20253 8.97119 8.21433 8.96633 8.22607 8.96176C8.31346 8.9278 8.39454 8.85959 8.47567 8.79129C8.49431 8.7756 8.51298 8.75988 8.5317 8.74459Z" fill="#332824"/>
<path d="M8.5317 23.5952C8.67406 23.7114 8.94856 23.664 9.09956 23.6379C9.10233 23.6375 9.1051 23.6371 9.10786 23.6366C9.1437 23.6305 9.1776 23.6289 9.21732 23.6271C9.31202 23.6229 9.43998 23.6173 9.70703 23.5432C9.78473 23.546 9.86245 23.5475 9.94015 23.5475C10.7793 23.5475 11.6184 23.4509 12.4575 23.3352C12.4681 23.3358 12.4789 23.3364 12.4898 23.3371C12.7003 23.3491 12.9612 23.3639 13.1252 23.3215C13.3337 23.2676 13.4753 23.2176 13.5916 23.1745C14.2581 23.0814 14.9246 22.9983 15.5911 22.9639C15.8 22.9531 16.0089 22.9472 16.2178 22.9472C16.4102 22.9472 16.6026 22.9509 16.7949 22.9578C16.907 22.9831 17.0135 23.0132 17.1122 23.041C17.251 23.0801 17.3746 23.1148 17.4766 23.1261C17.7225 23.1534 18.0015 23.1103 18.2086 23.0783C18.2424 23.0731 18.2744 23.0681 18.304 23.0639C18.4685 23.0797 18.633 23.0967 18.7975 23.114C18.8085 23.1044 18.8196 23.0943 18.8308 23.084C18.9712 22.9553 19.1438 22.9569 19.4155 22.9593C19.5338 22.9604 19.6709 22.9615 19.8324 22.9522C19.9364 22.9462 19.9898 22.8951 20.0335 22.8535C20.0463 22.8412 20.0584 22.8298 20.0706 22.8205C20.1124 22.7888 20.1564 22.8231 20.2085 22.8635C20.276 22.916 20.357 22.9791 20.464 22.9221C20.8049 22.7406 20.9551 22.8638 21.0687 22.9569C21.1021 22.9843 21.1323 23.009 21.1632 23.0227C21.2307 23.0526 21.3175 23.0424 21.4 23.0141C21.4401 23.0004 21.4791 22.9824 21.5145 22.9626C21.6001 22.9147 21.7714 22.9622 21.9014 23.0227C21.9505 23.0455 22.017 23.0461 22.0952 23.0467C22.1762 23.0472 22.2699 23.0477 22.3701 23.0734C22.6235 23.1382 22.7581 23.1696 22.8663 23.1948C22.8972 23.202 22.9259 23.2085 22.9546 23.2153C23.0453 23.2368 23.1579 23.2545 23.2719 23.2724C23.4083 23.2938 23.5468 23.3156 23.6521 23.3446C23.9252 23.3139 24.1982 23.2759 24.4712 23.238C24.6114 23.2183 24.746 23.1075 24.8452 22.9249C24.9443 22.7421 25 22.5037 25 22.2567C25 22.0097 24.9443 21.7714 24.8452 21.5886C24.746 21.4059 24.6114 21.2949 24.4712 21.2753C24.1887 21.236 23.9062 21.1968 23.6236 21.1656C23.2795 21.1275 22.9353 21.1013 22.5911 21.1013C22.3504 21.1013 22.1096 21.1072 21.8688 21.1178C21.844 21.1189 21.8193 21.1201 21.7945 21.1213C21.6565 21.0798 21.5188 21.0409 21.4 21.014C21.3446 21.0015 21.2933 20.9917 21.2481 20.9854C21.1307 20.9691 21.0451 21.0016 20.9717 21.0293C20.9213 21.0485 20.8766 21.0654 20.8314 21.0627C20.8072 21.0612 20.774 21.0575 20.7341 21.053C20.5709 21.0346 20.2937 21.0033 20.0409 21.0627C19.9287 21.089 19.7984 21.1409 19.674 21.1905C19.4961 21.2614 19.3301 21.3274 19.2464 21.3071C19.0993 21.2715 18.9306 21.3016 18.7816 21.3284C18.6394 21.3538 18.5151 21.3761 18.4444 21.335C18.3599 21.2858 18.2878 21.3058 18.1807 21.3355C18.1064 21.3561 18.0152 21.3812 17.8913 21.3914C17.7482 21.403 17.647 21.4375 17.561 21.4668C17.4399 21.508 17.3488 21.539 17.213 21.482C17.0621 21.4186 16.9045 21.3783 16.7803 21.3983C16.7238 21.4074 16.6591 21.4052 16.5918 21.4029C16.5026 21.3998 16.4089 21.3966 16.3233 21.4194C16.2528 21.4381 16.1945 21.4861 16.143 21.5285C16.1269 21.5417 16.1114 21.5544 16.0965 21.5655C16.0403 21.5649 15.9841 21.564 15.928 21.5626C15.9189 21.5548 15.9093 21.5463 15.8993 21.5375C15.8493 21.4932 15.7877 21.4389 15.7115 21.4119C15.5908 21.369 15.485 21.3959 15.3733 21.4243C15.2864 21.4465 15.1959 21.4696 15.0922 21.4613C15.0215 21.4556 14.9409 21.436 14.8611 21.4166C14.7426 21.3878 14.6255 21.3594 14.5442 21.3774C14.5137 21.3842 14.4875 21.4143 14.4616 21.4443C14.4615 21.4445 14.4613 21.4446 14.4612 21.4448C14.4595 21.4469 14.4577 21.4488 14.4559 21.4509C14.2578 21.4279 14.0597 21.4026 13.8616 21.376C13.8445 21.3682 13.8271 21.3606 13.8099 21.3531C13.7259 21.3164 13.6443 21.2807 13.5911 21.23C13.5334 21.1751 13.3884 21.1432 13.2356 21.1095C13.1356 21.0875 13.0321 21.0647 12.9477 21.0343C12.8983 21.0165 12.8514 21.0475 12.8033 21.0795C12.7583 21.1094 12.7121 21.14 12.6617 21.1324C12.6364 21.1286 12.6091 21.1158 12.58 21.102C12.5543 21.0899 12.5272 21.0771 12.4988 21.0693C12.4724 21.062 12.4137 21.0789 12.3383 21.1004C12.2918 21.1137 12.2389 21.1287 12.1833 21.141C12.0366 21.1217 11.8898 21.1032 11.7431 21.0859C11.7125 21.0587 11.6859 21.0234 11.6649 20.9781C11.6498 20.9455 11.6369 20.9067 11.6237 20.8669C11.6058 20.8128 11.5872 20.7569 11.5616 20.7124C11.5416 20.6776 11.518 20.6637 11.5021 20.6781C11.4947 20.6849 11.4891 20.6976 11.4839 20.7091C11.478 20.7223 11.4728 20.734 11.4664 20.7336C11.4617 20.7334 11.4569 20.724 11.451 20.7127C11.4415 20.6947 11.4292 20.6715 11.4105 20.6706C11.3407 20.6676 11.2615 20.675 11.1839 20.6824C11.0975 20.6905 11.0132 20.6985 10.9459 20.6915C10.8706 20.6837 10.7633 20.7183 10.6558 20.7528C10.5809 20.7769 10.5058 20.8009 10.4413 20.8107C10.3782 20.8203 10.3125 20.8012 10.2488 20.7825C10.1724 20.7601 10.0989 20.7384 10.0364 20.7688C10.0238 20.7749 10.0081 20.8125 9.98842 20.8594C9.97447 20.8927 9.95842 20.9307 9.94015 20.9658C9.86064 20.9658 9.78112 20.9673 9.70161 20.9702C9.69881 20.9651 9.69592 20.9599 9.69302 20.9546C9.69298 20.9545 9.69293 20.9544 9.69289 20.9543C9.62758 20.8349 9.53822 20.6715 9.41267 20.769C9.38075 20.7937 9.36066 20.8395 9.34256 20.8807C9.32478 20.9211 9.30889 20.9573 9.28564 20.9649C9.25922 20.9735 9.22804 20.9487 9.19404 20.9217C9.1463 20.8838 9.09298 20.8414 9.03947 20.8808C9.03582 20.8835 9.03189 20.8865 9.0278 20.8894C8.98902 20.9175 8.9316 20.959 8.87447 21.0425C8.70497 21.0648 8.53545 21.0909 8.36594 21.1194C8.0834 21.1669 7.8008 21.2211 7.51828 21.2753C7.38083 21.3019 7.24901 21.4156 7.15182 21.5977C7.05462 21.78 7 22.0144 7 22.2567C7.00001 22.4991 7.05462 22.7332 7.15182 22.9155C7.24901 23.0976 7.38083 23.2114 7.51828 23.238C7.74241 23.281 7.96662 23.324 8.19078 23.3636C8.20253 23.3686 8.21433 23.3735 8.22607 23.3781C8.31346 23.412 8.39454 23.4803 8.47567 23.5486C8.49431 23.5642 8.51298 23.58 8.5317 23.5952Z" fill="#332824"/>
<path d="M23.8087 17.5952C23.698 17.7114 23.4845 17.664 23.367 17.6379C23.3649 17.6375 23.3627 17.6371 23.3605 17.6366C23.3327 17.6305 23.3063 17.6289 23.2754 17.6271C23.2018 17.6229 23.1022 17.6173 22.8945 17.5432C22.8341 17.546 22.7737 17.5475 22.7132 17.5475C22.0606 17.5475 21.4079 17.4509 20.7553 17.3352C20.747 17.3358 20.7386 17.3364 20.7302 17.3371C20.5665 17.3491 20.3635 17.3639 20.2359 17.3215C20.0738 17.2676 19.9637 17.2176 19.8732 17.1745C19.3548 17.0814 18.8364 16.9983 18.318 16.9639C18.1556 16.9531 17.9931 16.9472 17.8306 16.9472C17.681 16.9472 17.5313 16.9509 17.3817 16.9578C17.2946 16.9831 17.2118 17.0132 17.1349 17.041C17.027 17.0801 16.9309 17.1148 16.8515 17.1261C16.6603 17.1534 16.4433 17.1103 16.2822 17.0783C16.2559 17.0731 16.231 17.0681 16.208 17.0639C16.0801 17.0797 15.9521 17.0967 15.8241 17.114C15.8156 17.1044 15.807 17.0943 15.7982 17.084C15.689 16.9553 15.5548 16.9569 15.3435 16.9593C15.2515 16.9604 15.1448 16.9615 15.0193 16.9522C14.9384 16.9462 14.8968 16.8951 14.8628 16.8535C14.8528 16.8412 14.8435 16.8298 14.834 16.8205C14.8015 16.7888 14.7672 16.8231 14.7268 16.8635C14.6743 16.916 14.6113 16.9791 14.528 16.9221C14.2629 16.7406 14.146 16.8638 14.0576 16.9569C14.0317 16.9843 14.0082 17.009 13.9842 17.0227C13.9061 17.0671 13.795 17.0231 13.711 16.9626C13.6444 16.9147 13.5111 16.9622 13.41 17.0227C13.3718 17.0455 13.3201 17.0461 13.2593 17.0467C13.1963 17.0472 13.1234 17.0477 13.0454 17.0734C12.8484 17.1382 12.7437 17.1696 12.6595 17.1948C12.6355 17.202 12.6132 17.2085 12.5909 17.2153C12.5203 17.2368 12.4327 17.2545 12.3441 17.2724C12.238 17.2938 12.1303 17.3156 12.0484 17.3446C11.836 17.3139 11.6236 17.2759 11.4113 17.238C11.3022 17.2183 11.1976 17.1075 11.1204 16.9249C11.0433 16.7421 11 16.5037 11 16.2567C11 16.0097 11.0433 15.7714 11.1204 15.5886C11.1976 15.4059 11.3022 15.2949 11.4113 15.2753C11.631 15.236 11.8508 15.1968 12.0705 15.1656C12.3382 15.1275 12.6059 15.1013 12.8736 15.1013C13.0608 15.1013 13.2481 15.1072 13.4354 15.1178C13.4546 15.1189 13.4739 15.1201 13.4932 15.1213C13.6505 15.0604 13.8075 15.0051 13.9181 14.9854C14.0095 14.9691 14.0761 15.0016 14.1331 15.0293C14.1723 15.0485 14.2071 15.0654 14.2422 15.0627C14.2611 15.0612 14.2869 15.0575 14.3179 15.053C14.4449 15.0346 14.6604 15.0033 14.8571 15.0627C14.9443 15.089 15.0457 15.1409 15.1425 15.1905C15.2808 15.2613 15.4099 15.3274 15.475 15.3071C15.5894 15.2715 15.7206 15.3016 15.8365 15.3284C15.9471 15.3538 16.0438 15.3761 16.0988 15.335C16.1645 15.2858 16.2206 15.3058 16.3039 15.3355C16.3617 15.3561 16.4326 15.3812 16.529 15.3914C16.6403 15.403 16.719 15.4375 16.7859 15.4668C16.8801 15.508 16.951 15.539 17.0566 15.482C17.1739 15.4186 17.2965 15.3783 17.3931 15.3983C17.4371 15.4074 17.4874 15.4052 17.5397 15.4029C17.6091 15.3998 17.682 15.3966 17.7485 15.4194C17.8034 15.4381 17.8487 15.4861 17.8888 15.5285C17.9013 15.5417 17.9133 15.5544 17.925 15.5655C17.9687 15.5649 18.0123 15.564 18.056 15.5626C18.0631 15.5548 18.0705 15.5463 18.0783 15.5375C18.1172 15.4932 18.1651 15.4389 18.2244 15.4119C18.3182 15.369 18.4006 15.3959 18.4874 15.4243C18.5551 15.4465 18.6254 15.4696 18.7061 15.4613C18.7611 15.4556 18.8237 15.436 18.8858 15.4166C18.978 15.3878 19.069 15.3594 19.1323 15.3774C19.156 15.3842 19.1764 15.4143 19.1966 15.4443C19.1966 15.4445 19.1967 15.4446 19.1968 15.4448C19.1982 15.4469 19.1996 15.4488 19.2009 15.4509C19.355 15.4279 19.5091 15.4026 19.6632 15.376C19.6765 15.3682 19.69 15.3606 19.7034 15.3531C19.7687 15.3164 19.8322 15.2807 19.8736 15.23C19.9184 15.1751 20.0312 15.1432 20.1501 15.1095C20.2279 15.0875 20.3084 15.0647 20.374 15.0343C20.4124 15.0165 20.4489 15.0475 20.4864 15.0795C20.5213 15.1094 20.5572 15.14 20.5965 15.1324C20.6161 15.1286 20.6374 15.1158 20.66 15.102C20.68 15.0899 20.7011 15.0771 20.7232 15.0693C20.7437 15.062 20.7894 15.0789 20.848 15.1004C20.8842 15.1137 20.9253 15.1287 20.9685 15.141C21.0826 15.1217 21.1968 15.1032 21.3109 15.0859C21.3348 15.0587 21.3554 15.0234 21.3718 14.9781C21.3835 14.9455 21.3935 14.9067 21.4038 14.8669C21.4177 14.8128 21.4322 14.7569 21.4521 14.7124C21.4677 14.6776 21.486 14.6637 21.4983 14.6781C21.5041 14.6849 21.5085 14.6976 21.5125 14.7091C21.5171 14.7223 21.5212 14.734 21.5262 14.7336C21.5298 14.7334 21.5335 14.724 21.5381 14.7127C21.5455 14.6947 21.5551 14.6715 21.5696 14.6706C21.6239 14.6676 21.6855 14.675 21.7459 14.6824C21.813 14.6905 21.8786 14.6985 21.9309 14.6915C21.9895 14.6837 22.073 14.7183 22.1566 14.7528C22.2149 14.7769 22.2733 14.8009 22.3234 14.8107C22.3725 14.8203 22.4236 14.8012 22.4732 14.7825C22.5326 14.7601 22.5898 14.7384 22.6383 14.7688C22.6482 14.7749 22.6604 14.8125 22.6757 14.8594C22.6865 14.8927 22.699 14.9307 22.7132 14.9658C22.7751 14.9658 22.8369 14.9673 22.8988 14.9702C22.9009 14.9651 22.9032 14.9599 22.9054 14.9546C22.9055 14.9545 22.9055 14.9544 22.9055 14.9543C22.9563 14.8349 23.0258 14.6715 23.1235 14.769C23.1483 14.7937 23.1639 14.8395 23.178 14.8807C23.1918 14.9211 23.2042 14.9573 23.2223 14.9649C23.2428 14.9735 23.2671 14.9487 23.2935 14.9217C23.3307 14.8838 23.3721 14.8414 23.4137 14.8808C23.4166 14.8835 23.4196 14.8865 23.4228 14.8894C23.453 14.9175 23.4976 14.959 23.5421 15.0425C23.6739 15.0648 23.8058 15.0909 23.9376 15.1194C24.1574 15.1669 24.3772 15.2211 24.5969 15.2753C24.7038 15.3019 24.8063 15.4156 24.8819 15.5977C24.9575 15.78 25 16.0144 25 16.2567C25 16.4991 24.9575 16.7332 24.8819 16.9155C24.8063 17.0976 24.7038 17.2114 24.5969 17.238C24.4226 17.281 24.2482 17.324 24.0738 17.3636C24.0647 17.3686 24.0555 17.3735 24.0464 17.3781C23.9784 17.412 23.9154 17.4803 23.8523 17.5486C23.8378 17.5642 23.8232 17.58 23.8087 17.5952Z" fill="#332824"/>
</svg>
