<svg width="44" height="44" viewBox="0 0 44 44" fill="none" xmlns="http://www.w3.org/2000/svg">
<path d="M11.5355 23.9046C11.5866 23.9453 11.629 23.9943 11.6644 24.0492C11.8493 24.3557 11.8539 24.813 11.8632 25.0751C11.8635 25.0809 11.8638 25.0866 11.8641 25.0924C11.8667 25.1674 11.8783 25.2329 11.8937 25.3125C11.9306 25.4965 11.975 25.7505 11.9655 26.2561C12.0167 26.3856 12.0665 26.5086 12.1145 26.6256C12.6234 27.8442 13.1018 28.5781 14.6673 29.5798C14.6877 29.5872 14.7085 29.5946 14.7297 29.6022C14.7804 29.6202 14.8334 29.6387 14.8882 29.6578C15.1849 29.7568 15.5563 29.8515 15.8016 29.9982C16.1569 30.2118 16.433 30.3739 16.6633 30.5103C17.2898 30.7042 17.9823 30.8564 18.7167 30.9899C19.5362 31.1458 20.4058 31.2415 21.2539 31.2677C21.2658 31.268 21.2777 31.2684 21.2894 31.2687C21.6619 31.2834 22.1321 31.245 22.5894 31.1784C23.0272 31.1145 23.4658 31.0273 23.9057 30.9218C24.1555 30.8115 24.3799 30.6917 24.5956 30.5765C24.8899 30.4166 25.1539 30.2689 25.3784 30.1842C25.9194 29.9811 26.5722 29.8963 27.0574 29.8205C27.1363 29.8083 27.211 29.7966 27.2798 29.7848C27.6352 29.6318 27.9841 29.4706 28.3266 29.3021C28.3581 29.3143 28.39 29.3273 28.4226 29.3406C28.8299 29.5055 29.2102 29.3585 29.7786 29.1043C30.025 28.9934 30.3081 28.861 30.6413 28.7175C30.8557 28.6247 31.0124 28.6737 31.1462 28.7107C31.1851 28.7218 31.2216 28.7319 31.2559 28.7374C31.3742 28.7558 31.4199 28.6395 31.4735 28.5002C31.5444 28.3185 31.6096 28.1101 31.8727 28.0955C32.7102 28.0433 32.765 27.5943 32.7558 27.3096C32.7531 27.2249 32.7491 27.1483 32.7605 27.0907C32.798 26.9049 32.9894 26.8301 33.1755 26.7945C33.2573 26.7811 33.2961 26.6974 33.2817 26.6213C33.2897 26.5162 33.2803 26.3805 33.2582 26.2542C33.2394 26.1465 33.2797 26.0183 33.3256 25.8583C33.373 25.693 33.4264 25.4936 33.4227 25.2635C33.4196 25.0719 33.4149 24.9095 33.4096 24.7714C33.3839 24.556 33.3582 24.4063 33.3348 24.2765C33.3246 24.2212 33.3148 24.1696 33.3037 24.1174C33.2689 23.9531 33.2388 23.7466 33.1985 23.5293C33.1508 23.27 33.0879 22.9949 33.0058 22.7834C33.0376 22.2185 33.043 21.5952 33.0311 20.9317C33.0256 20.5911 33.2255 20.2176 33.6042 19.9044C33.983 19.5908 34.5068 19.3699 35.0709 19.2879C35.635 19.2055 36.1989 19.2612 36.6528 19.4383C37.1062 19.6156 37.4113 19.9058 37.5101 20.2559C37.7075 20.9601 37.9024 21.7055 38.0279 22.5146C38.1786 23.4968 38.2316 24.5938 37.9815 25.7543C37.9801 25.7607 37.9787 25.7671 37.9773 25.7735C37.8293 26.4353 37.6566 27.0646 37.3828 27.7775C37.3538 27.8522 37.3231 27.9279 37.2905 28.0058C37.2756 28.0963 37.258 28.1895 37.2364 28.2863C37.0189 29.1033 36.6599 29.7212 36.3697 30.111C36.0947 30.4761 35.8145 30.6314 35.5808 30.7545C35.416 30.8416 35.2831 30.9016 35.1687 31.0018C35.1089 31.0543 35.0239 31.1325 34.9298 31.2167C34.5345 31.5751 33.8499 32.1054 33.1358 32.3332C32.8178 32.4373 32.4306 32.4997 32.0707 32.5443C31.5495 32.6119 31.0787 32.6465 30.8888 32.7764C30.552 33.0064 30.1019 33.1068 29.7082 33.1849C29.3314 33.2602 29.0044 33.3171 28.8568 33.4666C28.68 33.6452 28.4827 33.6609 28.1924 33.6798C27.9895 33.6932 27.7457 33.7072 27.4246 33.7757C27.057 33.8535 26.7772 33.8464 26.5444 33.8378C26.2117 33.8266 25.9711 33.8135 25.6528 34.0245C25.3062 34.257 24.9166 34.4369 24.5837 34.4567C24.4359 34.465 24.2652 34.5035 24.091 34.5412C23.8663 34.5901 23.6104 34.6416 23.3804 34.6247C23.1805 34.6124 23.0177 34.5241 22.8636 34.4463C22.8155 34.422 22.77 34.3986 22.7267 34.3784C22.5783 34.3991 22.4279 34.419 22.2734 34.4383C22.2505 34.4586 22.2267 34.4809 22.2018 34.5038C22.0828 34.6181 21.9073 34.7599 21.691 34.8348C21.5807 34.8706 21.4756 34.8901 21.3742 34.8975C21.1613 34.9141 20.9608 34.8722 20.7544 34.8268C20.5249 34.7762 20.2885 34.7213 20.0159 34.7351C19.8296 34.7445 19.6169 34.7839 19.4041 34.8204C19.0881 34.875 18.7712 34.9225 18.5557 34.8658C18.5123 34.8544 18.4734 34.8277 18.4367 34.7938C18.4071 34.7648 18.3791 34.7305 18.3511 34.6964C18.3508 34.6959 18.3505 34.6955 18.3503 34.695C18.3462 34.69 18.342 34.6851 18.3379 34.6801C17.8324 34.6955 17.3116 34.7116 16.7729 34.7113C16.7248 34.7237 16.676 34.7356 16.6275 34.7472C16.3904 34.8038 16.1544 34.8538 15.988 34.9466C15.8082 35.0475 15.3854 35.0558 14.9192 35.0331C14.6142 35.0189 14.2912 34.9909 14.014 34.9833C13.8518 34.979 13.7279 34.8655 13.6046 34.7467C13.4891 34.6355 13.3741 34.52 13.2154 34.4784C13.1358 34.4575 13.0424 34.4526 12.9415 34.4456C12.93 34.4448 12.9184 34.4439 12.9067 34.443C12.8363 34.4404 12.763 34.4361 12.6909 34.4225C12.6139 34.4078 12.4731 34.305 12.2916 34.167C12.182 34.0829 12.0529 33.9835 11.9187 33.8851C11.5073 33.7308 11.0922 33.5515 10.6768 33.3357C10.5601 33.3361 10.4439 33.3575 10.3287 33.4066C10.2459 33.4417 10.1615 33.493 10.0722 33.5431C9.9512 33.6117 9.8247 33.6811 9.69171 33.7129C9.58755 33.7376 9.5015 33.7148 9.47474 33.6535C9.4625 33.6252 9.46359 33.5894 9.46465 33.5571C9.46586 33.5201 9.46708 33.4872 9.44832 33.474C9.43475 33.4645 9.40805 33.4713 9.37535 33.4791C9.32318 33.4916 9.25505 33.507 9.20051 33.4667C8.99557 33.3152 8.78173 33.1132 8.57993 32.9041C8.35425 32.6712 8.14455 32.4302 7.96163 32.2524C7.75458 32.0525 7.55073 31.6853 7.38085 31.3133C7.26133 31.0538 7.15662 30.7929 7.05515 30.5826C6.95498 30.3757 6.80185 30.1939 6.6593 30.0141C6.48776 29.7978 6.33224 29.5849 6.30959 29.3601C6.30519 29.3149 6.36307 29.2311 6.43696 29.1281C6.48933 29.055 6.54967 28.9719 6.60187 28.8859C6.50451 28.6484 6.41945 28.41 6.34465 28.1714C6.33069 28.1669 6.31652 28.1624 6.30207 28.1578C6.30176 28.1578 6.30145 28.1577 6.30113 28.1577C5.97608 28.0578 5.52494 27.8897 5.63693 27.455C5.66584 27.3458 5.75194 27.2592 5.82971 27.1821C5.90603 27.1059 5.97502 27.0399 5.9752 26.97C5.97535 26.8905 5.89768 26.8163 5.81356 26.7335C5.69605 26.6198 5.56571 26.49 5.62135 26.319C5.62519 26.3075 5.62947 26.2952 5.63367 26.2824C5.67362 26.1621 5.73284 25.9789 5.89125 25.7875C5.86968 25.5433 5.85483 25.3036 5.84408 25.0612C5.83293 24.8292 5.82728 24.5979 5.82652 24.3676C5.82391 23.5707 5.87963 22.7863 5.9679 22.0182C6.0114 21.644 6.2652 21.2817 6.68207 21.0225C7.09955 20.7623 7.64114 20.6255 8.20032 20.6258C8.75973 20.626 9.29949 20.7601 9.72314 20.9819C10.1463 21.2044 10.416 21.4955 10.4924 21.8014C10.6156 22.3011 10.7552 22.7887 10.9045 23.2615C10.9191 23.2855 10.9334 23.3095 10.947 23.3335C11.0484 23.5118 11.2287 23.6623 11.4107 23.806C11.4525 23.8391 11.4945 23.8719 11.5355 23.9046Z" fill="#E56C45"/>
<path d="M30.6922 37.8527C30.4121 37.5972 29.8193 37.6357 29.489 37.6556C29.483 37.6559 29.4769 37.6561 29.4708 37.6564C29.3935 37.6612 29.3207 37.6574 29.2347 37.6525C29.0288 37.6409 28.7544 37.6255 28.1613 37.7148C27.9933 37.693 27.8252 37.6737 27.6563 37.6573C26.0182 37.5088 24.5038 37.4713 22.5828 37.6168C22.4313 37.6297 22.2819 37.645 22.0993 37.6703C21.9919 37.6847 21.907 37.6981 21.7557 37.7267C21.6852 37.7408 21.6167 37.7552 21.5073 37.7832C21.4047 37.8109 21.2957 37.8395 21.1031 37.9169C20.9694 37.9705 20.6971 38.0748 20.3693 38.3541C20.1405 38.5553 19.8933 38.8293 19.711 39.2802C19.5172 39.7477 19.515 40.3085 19.5986 40.6581C19.6382 40.8424 19.6977 41.0064 19.7535 41.131C19.8033 41.2428 19.8555 41.3379 19.9062 41.4205C20.0126 41.5913 20.0932 41.6873 20.1641 41.7694C20.4478 42.0802 20.5744 42.1513 20.6915 42.2419C20.912 42.3989 21.0383 42.4697 21.1369 42.5291C21.1846 42.5571 21.2214 42.5786 21.235 42.586C21.2421 42.587 21.2547 42.6046 21.1055 42.4855C21.0584 42.4451 21.0245 42.4206 20.9114 42.3031C20.8594 42.2476 20.7979 42.1774 20.7264 42.0783C20.6532 41.976 20.5128 41.766 20.4123 41.4599C20.319 41.2047 20.2066 40.5684 20.4326 39.9681C20.6834 39.324 20.9776 39.0994 21.2168 38.9057C21.4588 38.7252 21.6672 38.6432 21.743 38.6132C21.845 38.5737 21.9281 38.5496 21.9979 38.532C22.4389 38.4423 22.3901 38.4892 22.4426 38.4865C22.3942 38.4932 22.3464 38.5014 22.3001 38.5111C21.8194 38.6201 21.5111 38.7256 21.2579 38.8152C19.8 39.0263 18.3613 39.2293 16.9327 39.3124C16.4864 39.3379 16.0369 39.3521 15.6186 39.3437C15.4513 39.3418 15.1859 39.3242 15.2083 39.3212C15.0303 39.2906 14.8533 39.2508 14.7652 39.2185C14.747 39.2007 14.7364 39.1822 14.7645 39.1785C14.7961 39.1843 14.842 39.1532 15.1018 39.3458C15.2062 39.4351 15.5047 39.6765 15.6153 40.2377C15.7212 40.8359 15.4595 41.284 15.3441 41.4435C15.088 41.7734 15.0472 41.7574 15.028 41.7981C15.016 41.822 15.0422 41.8234 15.1335 41.7891C15.1891 41.7626 15.2277 41.7631 15.4425 41.6109C15.5038 41.5642 15.594 41.4941 15.7107 41.3631C15.7875 41.2745 15.8908 41.145 15.9885 40.939C16.0391 40.8257 16.0768 40.7446 16.1231 40.5339C16.1636 40.3392 16.1751 40.1027 16.1336 39.8655C16.0969 39.6335 15.9902 39.3814 15.8974 39.2337C15.8116 39.092 15.7155 38.977 15.6237 38.8858C15.4474 38.708 15.2456 38.5945 15.1775 38.5593C15.0122 38.4734 14.896 38.437 14.8031 38.4096C14.7545 38.3913 14.7259 38.3794 14.7189 38.3726C14.7162 38.3695 14.7182 38.3673 14.7389 38.3707C14.7678 38.3788 14.7717 38.3675 14.9588 38.4439C15.0015 38.4631 15.089 38.4995 15.2276 38.5908C15.2789 38.6254 15.4391 38.7322 15.6033 38.9255C15.689 39.0341 15.7746 39.1208 15.9054 39.4256C16.0206 39.7005 16.0796 40.1007 16.0034 40.4652C15.8533 41.1354 15.5144 41.4057 15.3176 41.5676C15.1856 41.6676 15.0896 41.7184 15.009 41.7585C14.8304 41.8415 14.8131 41.8399 14.7472 41.8628C14.5612 41.9175 14.5505 41.9127 14.5125 41.9224C14.4625 41.9336 14.4609 41.9367 14.4598 41.9407C14.4695 41.9546 14.5415 41.9621 14.5965 41.9671C14.7194 41.9769 14.8631 41.9777 15.009 41.9719C15.3865 41.9573 15.8095 41.8952 16.1311 41.8452C16.2044 41.8341 16.2746 41.8235 16.3375 41.8143C16.6945 41.8418 17.0531 41.8717 17.4109 41.9024C17.4343 41.8831 17.458 41.8629 17.4822 41.8423C17.7849 41.5845 18.1599 41.584 18.7514 41.5823C19.0087 41.5816 19.3075 41.5805 19.6591 41.5578C19.8859 41.5432 20 41.4408 20.0951 41.3572C20.1228 41.3326 20.1488 41.3096 20.175 41.2909C20.2634 41.2271 20.3636 41.2935 20.4763 41.372C20.6267 41.4738 20.8043 41.596 21.0371 41.4796C21.4418 41.2771 21.7226 41.255 21.9408 41.3053C22.0965 41.3478 22.2058 41.4445 22.3 41.5298C22.3595 41.5848 22.4145 41.6352 22.4688 41.6644C22.6473 41.7584 22.9085 41.6898 23.129 41.5932C23.3023 41.5151 23.628 41.652 23.885 41.8107C23.9817 41.8703 24.1236 41.8924 24.2989 41.9185C24.4804 41.9453 24.6972 41.9762 24.9351 42.0541C25.5412 42.2504 25.9055 42.321 26.1868 42.3751C26.2389 42.3849 26.2893 42.3938 26.3394 42.4023C26.367 42.407 26.3942 42.4115 26.4212 42.416C26.6619 42.4565 26.9721 42.4815 27.313 42.4822C27.7158 42.4865 28.1772 42.4372 28.4548 42.426C29.0153 42.2392 28.8784 42.208 29.1684 42.1488C29.3023 42.1374 29.4357 42.1259 29.5685 42.1148C29.8659 42.0894 30.153 41.8849 30.3641 41.5384C30.5673 41.1908 30.7344 40.7373 30.7911 40.2515C30.8459 39.7666 30.7788 39.2814 30.5612 38.9023C30.3493 38.5242 30.0538 38.2893 29.7448 38.2362C29.6065 38.2128 29.4696 38.1898 29.3328 38.1672C28.7017 38.0483 27.699 38.2087 27.3835 38.2505C27.0247 38.2846 26.7476 38.268 26.3324 38.2499C26.144 38.2404 25.9573 38.2281 25.765 38.2143C25.3485 38.1852 24.8949 38.1285 24.3509 38.0708C24.2952 38.065 24.2386 38.0594 24.1812 38.0538C23.7351 37.8687 23.2183 37.7054 22.8438 37.6475C22.5331 37.5985 22.3004 37.6601 22.1072 37.7156C22.0171 37.7411 21.9377 37.7655 21.8568 37.7786C21.8263 37.7849 21.7952 37.7882 21.7631 37.7871C21.71 37.7854 21.6425 37.7795 21.556 37.7723C21.2088 37.743 20.6099 37.6905 20.0655 37.8148C19.8234 37.87 19.5422 37.9761 19.2739 38.0773C18.8899 38.2219 18.531 38.3564 18.3488 38.3182C18.0289 38.251 17.6632 38.3144 17.3398 38.3706C17.0325 38.4242 16.7601 38.471 16.6065 38.3912C16.4212 38.2959 16.2661 38.3372 16.0323 38.3986C15.8686 38.4412 15.6733 38.4931 15.3998 38.5169C15.2198 38.5326 15.0722 38.5629 14.9359 38.5982C14.8361 38.6246 14.7477 38.6534 14.6648 38.6806C14.543 38.7199 14.4374 38.755 14.3092 38.7773C14.2276 38.7924 14.2267 38.784 13.9756 38.823C13.9205 38.8373 13.8952 38.8272 13.6813 38.9139C13.6043 38.9511 13.5394 38.9721 13.3717 39.1052C13.2666 39.1935 13.1271 39.3316 13.018 39.5665C12.9078 39.7596 12.8531 40.2499 12.9668 40.5238C13.0847 40.8396 13.1722 40.9063 13.2504 41.0008C13.3283 41.0841 13.3963 41.1371 13.4465 41.1734C13.5217 41.2271 13.5763 41.2566 13.6206 41.2795C13.8752 41.3972 13.8568 41.3722 13.9065 41.393C13.9696 41.4142 13.9895 41.4247 13.9879 41.4326C13.9509 41.4237 13.9048 41.411 13.8439 41.3875C13.7772 41.3577 13.7318 41.3532 13.5483 41.2222C13.3933 41.0921 13.1485 40.9107 13.0437 40.3811C13.0033 40.1498 13.0441 39.9029 13.0885 39.7712C13.1291 39.6427 13.1797 39.5459 13.2258 39.471C13.3259 39.3148 13.3779 39.2705 13.4193 39.2257C13.4605 39.1839 13.4968 39.1527 13.5156 39.1362C13.5544 39.1022 13.5796 39.0822 13.5901 39.0713C13.6501 39.0016 13.495 39.0473 13.3165 39.1322C13.2177 39.1864 13.0962 39.2393 12.8859 39.4603C12.7856 39.5747 12.6408 39.744 12.5395 40.0804C12.4327 40.4037 12.4792 40.8923 12.6247 41.1774C12.92 41.7424 13.1529 41.8139 13.2843 41.9195C13.4245 42.0086 13.5241 42.0534 13.6028 42.0876C13.7693 42.1573 13.8774 42.1842 13.9844 42.2032C14.1672 42.2331 14.3425 42.273 14.5143 42.3081C14.5912 42.3237 14.6621 42.3374 14.7422 42.3499C15.0316 42.3897 15.1472 42.38 15.2994 42.358C15.4795 42.3275 15.6117 42.2347 15.7306 42.1525C15.7679 42.1268 15.806 42.1023 15.8379 42.0806C15.9633 42.0831 16.0889 42.0854 16.2157 42.0882C16.2366 42.1035 16.258 42.1204 16.2795 42.1379C16.3889 42.2253 16.5276 42.3323 16.6971 42.3846C16.9633 42.4674 17.1993 42.4116 17.4418 42.352C17.6335 42.3055 17.8299 42.2567 18.0567 42.2691C18.2121 42.2777 18.3886 42.3132 18.5633 42.3483C18.8234 42.4003 19.0796 42.4513 19.256 42.4119C19.3219 42.3972 19.3779 42.3364 19.4332 42.276C19.4335 42.2756 19.4337 42.2752 19.4339 42.2749C19.4377 42.2708 19.4415 42.2668 19.4452 42.2627C19.8773 42.299 20.3093 42.3397 20.7382 42.3836C20.775 42.3982 20.8144 42.4125 20.8518 42.4266C21.0337 42.4956 21.2119 42.5628 21.3283 42.6609C21.4534 42.7674 21.7695 42.8247 22.0873 42.8882C22.2065 42.9119 22.3297 42.9366 22.431 42.9653C22.5665 42.9711 22.6553 43.0005 23.0397 42.9382C23.1651 42.9131 23.3192 42.8762 23.5262 42.7852C23.684 42.7134 23.8811 42.6064 24.0974 42.4154C24.2049 42.32 24.3161 42.2026 24.4194 42.0612C24.543 41.8943 24.6709 41.6574 24.7456 41.4172C25.0343 40.2993 24.6547 39.829 24.5134 39.5384C24.3509 39.2809 24.2714 39.2057 24.182 39.1072C23.9858 38.9045 23.8998 38.8508 23.8239 38.7971C23.7454 38.7449 23.6976 38.7226 23.646 38.7015C23.5514 38.6653 23.4758 38.658 23.4102 38.6566C23.2905 38.6561 23.189 38.6666 23.1874 38.6472C23.1933 38.6447 23.2077 38.6113 23.3594 38.7095C23.4291 38.7666 23.5242 38.8038 23.7366 39.132C23.8225 39.2728 23.9822 39.5741 24.0163 40.0171C24.0726 40.4755 23.8512 41.1235 23.6199 41.4069C23.0911 42.0691 22.7193 42.0856 22.5702 42.137C22.4194 42.165 22.3883 42.1419 22.3919 42.1215C22.3997 42.0941 22.4635 42.0607 22.545 42.036C22.5558 42.0378 22.5672 42.0396 22.579 42.0414C22.7989 42.078 23.0844 42.1261 23.363 42.1751C23.4214 42.2325 23.4694 42.3055 23.5069 42.3978C23.5336 42.4639 23.5551 42.5424 23.5774 42.6227C23.6088 42.732 23.6367 42.8447 23.6824 42.9363C23.7179 43.0078 23.7642 43.0386 23.7992 43.0124C23.8155 43.0002 23.8291 42.976 23.8416 42.9541C23.8558 42.9291 23.8686 42.9068 23.8821 42.9084C23.8913 42.9096 23.8997 42.9287 23.91 42.9519C23.9265 42.9889 23.948 43.0366 23.9863 43.0412C24.1309 43.0582 24.2943 43.0563 24.4603 43.0554C24.6404 43.054 24.8237 43.054 24.9619 43.0799C25.1204 43.1092 25.3526 43.0611 25.5892 43.0143C25.7518 42.9813 25.9192 42.9493 26.0575 42.9428C26.1942 42.9365 26.3323 42.9876 26.4649 43.0374C26.6248 43.0972 26.7785 43.155 26.9187 43.1082C26.947 43.0987 26.9879 43.0281 27.0393 42.9398C27.0757 42.8772 27.1175 42.8056 27.1636 42.7404C27.335 42.757 27.5068 42.7706 27.6793 42.7818C27.6844 42.7924 27.6897 42.8032 27.6949 42.8142C27.695 42.8145 27.695 42.8147 27.6951 42.815C27.8127 43.0638 27.9754 43.4043 28.2661 43.2389C28.3404 43.1969 28.3927 43.1111 28.4398 43.0338C28.486 42.9579 28.5273 42.89 28.5789 42.8799C28.6377 42.8685 28.7018 42.924 28.7705 42.9843C28.8669 43.069 28.9742 43.1635 29.0994 43.0971C29.1079 43.0926 29.1171 43.0876 29.1266 43.0826C29.2165 43.0354 29.3483 42.9655 29.4901 42.813C29.8648 42.8039 30.2395 42.7866 30.6226 42.7628C31.1857 42.7259 31.6816 42.6882 32.3954 42.6036C32.4815 42.5884 32.5651 42.5732 32.6484 42.5579C32.9472 42.5033 33.2318 42.2765 33.4406 41.915C33.6494 41.5529 33.7653 41.0887 33.7614 40.6092C33.759 40.1299 33.6373 39.6674 33.4239 39.3081C33.2104 38.9493 32.923 38.7262 32.6235 38.6754C32.5399 38.6612 32.4562 38.6471 32.3699 38.6329C32.1597 38.5631 31.7332 38.4642 31.3661 38.3699C31.3418 38.3579 31.3178 38.3463 31.2951 38.3354C31.1209 38.2539 30.9629 38.105 30.8008 37.955C30.764 37.9206 30.729 37.8863 30.6922 37.8527Z" fill="#E56C45"/>
<path d="M24.3341 33.4998C24.568 33.5322 24.487 33.6687 24.4413 33.7315C24.4406 33.7327 24.4399 33.7339 24.4391 33.7352C24.4284 33.7512 24.4267 33.7656 24.4248 33.7827C24.4204 33.8218 24.4152 33.885 24.2799 34.0069C24.2885 34.0389 24.2946 34.0716 24.2978 34.1051C24.3324 34.4613 24.1767 34.8351 23.9836 35.2135C23.9852 35.2178 23.9869 35.2223 23.9886 35.2268C24.0208 35.3136 24.0609 35.4231 23.9841 35.4995C23.8865 35.5978 23.794 35.6679 23.7138 35.7259C23.5579 36.025 23.4218 36.3251 23.3815 36.6139C23.3689 36.7045 23.3659 36.7944 23.3745 36.883C23.3824 36.9646 23.3976 37.0455 23.4192 37.1255C23.4736 37.1683 23.5371 37.2079 23.5959 37.2445C23.6786 37.2959 23.7521 37.3416 23.7786 37.3826C23.8424 37.4811 23.7692 37.609 23.7146 37.7023C23.7057 37.7175 23.6972 37.732 23.69 37.7452C23.7279 37.8112 23.7683 37.8794 23.8092 37.9455C23.7906 37.952 23.7713 37.9587 23.7514 37.9654C23.5037 38.0497 23.5139 38.1208 23.53 38.2372C23.5369 38.2874 23.5448 38.3453 23.533 38.4147C23.5254 38.4587 23.4272 38.4927 23.347 38.5191C23.3234 38.527 23.3014 38.5344 23.2836 38.5414C23.223 38.5653 23.2923 38.5776 23.3741 38.592C23.4802 38.6107 23.6077 38.633 23.4999 38.6888C23.1564 38.866 23.4054 38.9099 23.5934 38.9391C23.6485 38.9479 23.6984 38.9558 23.7266 38.9661C23.8182 38.9988 23.7374 39.0688 23.6229 39.127C23.5321 39.173 23.6327 39.2365 23.757 39.2785C23.8039 39.2938 23.8079 39.3231 23.8122 39.3569C23.8168 39.3919 23.8217 39.4319 23.8762 39.4689C24.0139 39.5594 24.0819 39.6168 24.1357 39.6566C24.1511 39.6683 24.1651 39.6791 24.1797 39.6898C24.2257 39.7233 24.2651 39.7658 24.3053 39.8134C24.3532 39.869 24.4014 39.9206 24.4628 39.9588C24.414 40.0852 24.3506 40.2091 24.2866 40.3265C24.2546 40.3993 24.0404 40.4606 23.6858 40.548C23.3302 40.627 22.8626 40.69 22.3763 40.7376C21.8899 40.7844 21.419 40.8125 21.0548 40.8033C20.69 40.7857 20.4676 40.7668 20.4222 40.7016C20.3339 40.5948 20.245 40.4819 20.1714 40.3629C20.0828 40.2294 20.0169 40.0875 20.0023 39.9376C19.9928 39.8394 19.9941 39.7322 20.0052 39.6291C20.0063 39.6186 20.0077 39.608 20.009 39.5974C19.8811 39.5252 19.7635 39.4461 19.7189 39.3908C19.6821 39.3451 19.7425 39.3028 19.7942 39.2664C19.8297 39.2414 19.8612 39.2191 19.854 39.2003C19.8501 39.1901 19.8414 39.1766 19.8308 39.1603C19.7877 39.0924 19.7152 38.9853 19.8214 38.8645C19.8685 38.8106 19.9655 38.7468 20.058 38.6848C20.1902 38.5963 20.3134 38.5127 20.27 38.4806C20.1936 38.424 20.2463 38.3487 20.2927 38.28C20.3371 38.2149 20.3757 38.1575 20.2918 38.1351C20.1914 38.1081 20.228 38.0746 20.282 38.0235C20.3195 37.9882 20.3653 37.9448 20.3801 37.8902C20.3972 37.8273 20.4608 37.777 20.515 37.7353C20.5912 37.6763 20.6485 37.6318 20.5306 37.5851C20.3996 37.5333 20.3137 37.4738 20.348 37.4174C20.3636 37.3917 20.3566 37.3647 20.3493 37.3366C20.3395 37.2995 20.3294 37.2603 20.3707 37.2197C20.4047 37.1862 20.4967 37.1523 20.5781 37.1223C20.6035 37.113 20.6278 37.104 20.649 37.0955C20.6455 37.0718 20.6414 37.0482 20.6363 37.0246C20.6208 37.0222 20.6035 37.0198 20.5858 37.0172C20.4965 37.0044 20.3871 36.9887 20.3307 36.9615C20.2414 36.9185 20.2899 36.8685 20.3413 36.8158C20.3814 36.7748 20.4232 36.7321 20.4026 36.6895C20.3885 36.6605 20.3466 36.63 20.3051 36.5998C20.2434 36.5551 20.1827 36.511 20.2149 36.4732C20.227 36.459 20.2852 36.4422 20.3431 36.4256C20.3435 36.4255 20.3438 36.4254 20.3442 36.4253C20.3481 36.4242 20.3519 36.4231 20.3558 36.4219C20.3025 36.3419 20.2445 36.2623 20.1839 36.1838C20.1679 36.178 20.1522 36.1721 20.1367 36.1663C20.061 36.1379 19.9874 36.1107 19.8855 36.0973C19.775 36.0831 19.7061 36.0272 19.6335 35.9689C19.586 35.9307 19.537 35.8915 19.4736 35.8619C19.4365 35.8448 19.4957 35.8187 19.5567 35.7919C19.6136 35.7669 19.672 35.7412 19.655 35.7211C19.6464 35.7111 19.62 35.7019 19.5917 35.6921C19.5669 35.6835 19.5405 35.6745 19.5239 35.6639C19.5085 35.6542 19.5393 35.6261 19.5786 35.5903C19.6029 35.5682 19.6303 35.5431 19.6523 35.5176C19.6082 35.4589 19.5655 35.3987 19.5256 35.3401C19.4707 35.3324 19.4001 35.328 19.31 35.3278C19.2454 35.3276 19.1683 35.3297 19.0895 35.3317C18.9823 35.3345 18.8715 35.3374 18.7827 35.3352C18.7133 35.3335 18.685 35.3263 18.7129 35.317C18.7258 35.3126 18.7506 35.3078 18.7731 35.3035C18.7987 35.2985 18.8216 35.2941 18.8207 35.2915C18.82 35.2896 18.8014 35.2894 18.7789 35.2891C18.7431 35.2886 18.6968 35.2879 18.6943 35.2799C18.6854 35.2502 18.6967 35.2146 18.708 35.1801C18.7205 35.1416 18.7326 35.1045 18.7162 35.0777C18.6978 35.0472 18.7618 34.9978 18.8251 34.9434C18.8693 34.9063 18.9134 34.8695 18.9301 34.8403C18.9464 34.8117 18.9061 34.7877 18.8667 34.7648C18.8195 34.7373 18.7739 34.7116 18.831 34.6778C18.8426 34.6711 18.9158 34.6571 19.0074 34.6396C19.0723 34.6272 19.1466 34.613 19.2148 34.5984C19.2115 34.5641 19.2113 34.5301 19.2137 34.4963C19.2035 34.4961 19.1932 34.4959 19.1827 34.4957C19.1824 34.4957 19.1822 34.4957 19.182 34.4958C18.9441 34.4906 18.6193 34.4881 18.8056 34.4128C18.853 34.3941 18.9423 34.3767 19.0226 34.361C19.1014 34.3456 19.172 34.3319 19.186 34.3205C19.2019 34.3075 19.1517 34.299 19.0972 34.2899C19.0206 34.2771 18.935 34.263 19.0106 34.2337C19.0157 34.2316 19.0214 34.2295 19.0271 34.2272C19.0808 34.2068 19.1601 34.1733 19.3221 34.1321C19.3585 34.0514 19.404 33.9852 19.4525 33.9012C19.5343 33.7713 19.6298 33.6462 19.7243 33.5108C19.7718 33.4543 19.9895 33.3681 20.3442 33.2949C20.5212 33.252 20.7255 33.2236 20.9441 33.1895C21.0531 33.1691 21.1664 33.1552 21.2823 33.1426C21.3402 33.1364 21.3987 33.1305 21.4577 33.1248C21.4872 33.1219 21.5168 33.119 21.5465 33.1161C21.5467 33.1161 21.5469 33.1161 21.5472 33.116C21.5473 33.116 21.5474 33.116 21.5475 33.116C21.5475 33.116 21.5476 33.116 21.5476 33.116C21.5476 33.116 21.5476 33.116 21.5476 33.116C21.5476 33.116 21.5476 33.116 21.5476 33.116C21.5476 33.116 21.5476 33.116 21.5476 33.116C21.5476 33.116 21.5476 33.116 21.5476 33.116C21.5476 33.116 21.5476 33.116 21.5476 33.116C21.1982 33.1499 21.4373 33.1267 21.3821 33.1321C21.3821 33.1321 21.3821 33.1321 21.3821 33.1321C21.3821 33.1321 21.3821 33.1321 21.3821 33.1321C21.3821 33.1321 21.3821 33.1321 21.3821 33.1321C21.3821 33.1321 21.3821 33.1321 21.3821 33.1321C21.3821 33.1321 21.3821 33.1321 21.3821 33.1321C21.3821 33.1321 21.3821 33.1321 21.3821 33.1321C21.3821 33.1321 21.3821 33.1321 21.3821 33.1321C21.382 33.1321 21.382 33.1321 21.382 33.1321C21.3819 33.1321 21.3819 33.1321 21.3818 33.1321C21.3814 33.1321 21.3809 33.1322 21.3804 33.1322C21.3795 33.1323 21.3786 33.1324 21.3776 33.1325C21.3758 33.1327 21.3739 33.1328 21.3721 33.133C21.3684 33.1334 21.3646 33.1337 21.3609 33.1341C21.3535 33.1348 21.3461 33.1356 21.3386 33.1363C21.3238 33.1377 21.3089 33.1392 21.2939 33.1406C21.279 33.1421 21.2641 33.1435 21.2493 33.1449C21.2418 33.1457 21.2344 33.1464 21.227 33.1471C21.2232 33.1475 21.2195 33.1478 21.2158 33.1482C21.214 33.1484 21.2121 33.1486 21.2103 33.1487C21.2093 33.1488 21.2084 33.1489 21.2075 33.149C21.207 33.149 21.2065 33.1491 21.2061 33.1491C21.206 33.1491 21.206 33.1491 21.2059 33.1492C21.2059 33.1492 21.2059 33.1492 21.2059 33.1492C21.2059 33.1492 21.2059 33.1492 21.2059 33.1492C21.2059 33.1492 21.2059 33.1492 21.2059 33.1492C21.2059 33.1492 21.2059 33.1492 21.2059 33.1492C21.2059 33.1492 21.2059 33.1492 21.2059 33.1492C21.2059 33.1492 21.2059 33.1492 21.2059 33.1492C21.2059 33.1492 21.2059 33.1492 21.2059 33.1492C21.2059 33.1492 21.2059 33.1492 21.2059 33.1492C21.2059 33.1492 21.2059 33.1492 21.2059 33.1492C21.3785 33.1324 20.6304 33.205 21.7238 33.0989C21.7238 33.0989 21.7238 33.0989 21.7238 33.0989C21.7238 33.0989 21.7238 33.0989 21.7238 33.0989C21.7238 33.0989 21.7238 33.0989 21.7238 33.0989C21.7238 33.0989 21.7239 33.0989 21.7239 33.0989C21.7239 33.0989 21.7239 33.0989 21.724 33.0989C21.7241 33.0989 21.7242 33.0989 21.7243 33.0988C21.7245 33.0988 21.7248 33.0988 21.725 33.0988C21.7547 33.0959 21.7843 33.093 21.8138 33.0902C21.8727 33.0845 21.9313 33.079 21.9893 33.074C22.1054 33.064 22.2193 33.0559 22.3301 33.055C22.5511 33.0464 22.7569 33.035 22.9389 33.0431C23.3011 33.0467 23.5313 33.0894 23.5887 33.1357C23.6833 33.2305 23.7768 33.3127 23.8638 33.3977C23.8742 33.4016 23.8842 33.4056 23.8937 33.4096C23.9641 33.4397 24.1019 33.4622 24.2399 33.486C24.2716 33.4909 24.3032 33.495 24.3341 33.4998ZM19.3953 40.9879C19.1638 40.9802 19.2515 40.9133 19.2997 40.8757C19.3004 40.875 19.3012 40.8743 19.302 40.8736C19.3134 40.8648 19.3158 40.8562 19.3185 40.8481C19.3248 40.8283 19.3333 40.8 19.4735 40.7287C19.4666 40.7132 19.4621 40.6972 19.4605 40.6807C19.4432 40.5024 19.6162 40.3069 19.8266 40.1072C19.8252 40.105 19.8238 40.1029 19.8224 40.1007C19.7944 40.0585 19.7599 40.0061 19.8399 39.9632C19.9418 39.909 20.0373 39.8695 20.1199 39.8364C20.2894 39.6776 20.4394 39.5202 20.4934 39.3728C20.5104 39.3275 20.5178 39.2835 20.5133 39.2368C20.5116 39.2198 20.5072 39.1932 20.5022 39.1776C20.4991 39.1645 20.4963 39.1585 20.4925 39.1458C20.4922 39.145 20.492 39.1445 20.4918 39.1441C20.4917 39.1439 20.4916 39.1438 20.4915 39.1437C20.4915 39.1437 20.4914 39.1437 20.4914 39.1437C20.4914 39.1437 20.4913 39.1437 20.4913 39.1437C20.4913 39.1437 20.4913 39.1437 20.4913 39.1437C20.4913 39.1437 20.4913 39.1437 20.4913 39.1437C20.4913 39.1437 20.4913 39.1437 20.4913 39.1437C20.4913 39.1437 20.4913 39.1437 20.4913 39.1437C20.4913 39.1437 20.4913 39.1437 20.4913 39.1437C20.4913 39.1437 20.4913 39.1437 20.4913 39.1437C20.4913 39.1437 20.4913 39.1437 20.4913 39.1437C20.4913 39.1437 20.4913 39.1437 20.4913 39.1437C18.7765 39.3101 25.2926 38.6777 23.5778 38.8441C23.5778 38.8441 23.5778 38.8441 23.5778 38.8441C23.5778 38.8441 23.5778 38.8441 23.5778 38.8441C23.5778 38.8441 23.5778 38.8441 23.5778 38.8441C23.5778 38.8441 23.5778 38.8441 23.5778 38.8441C23.5778 38.8441 23.5778 38.8441 23.5778 38.8441C23.5778 38.8441 23.5778 38.8441 23.5778 38.8441C23.5778 38.8441 23.5778 38.8441 23.5778 38.8441C23.5778 38.8441 23.5778 38.8441 23.5778 38.8441C23.5778 38.8441 23.5778 38.8441 23.5778 38.8441C23.5778 38.8441 23.5778 38.8441 23.5779 38.8441C23.5782 38.8442 23.5786 38.8446 23.579 38.8453C23.5799 38.8468 23.5809 38.8496 23.5821 38.8538C23.5841 38.8596 23.586 38.8617 23.5882 38.8668C23.6409 38.8922 23.7012 38.8985 23.7585 38.9192C23.8383 38.9415 23.9089 38.9571 23.9336 38.9799C23.9378 38.9836 23.9413 38.9875 23.9442 38.9916C23.9816 39.0393 23.9092 39.0979 23.8547 39.1458C23.8451 39.154 23.836 39.1617 23.8282 39.1688C23.8627 39.2 23.8996 39.2321 23.9371 39.2635C23.9183 39.2676 23.8987 39.2719 23.8786 39.2762C23.6279 39.3293 23.6349 39.3677 23.6451 39.4231C23.6496 39.4486 23.6547 39.4775 23.6396 39.5126C23.6299 39.5363 23.5305 39.5573 23.4494 39.5745C23.4256 39.5795 23.4033 39.5842 23.3853 39.5886C23.3237 39.6034 23.3921 39.606 23.4728 39.609C23.5776 39.6134 23.7034 39.619 23.5934 39.6522C23.243 39.7591 23.4885 39.7665 23.6743 39.7734C23.7288 39.7753 23.7781 39.7769 23.8057 39.7808C23.8952 39.7926 23.8116 39.8326 23.6946 39.8664C23.6019 39.8929 23.6991 39.9212 23.8208 39.9365C23.8669 39.9428 23.8694 39.9569 23.872 39.973C23.8747 39.9894 23.8778 40.0104 23.9303 40.0259C24.0632 40.0674 24.1278 40.09 24.1795 40.1074C24.1943 40.1127 24.2077 40.1177 24.2217 40.1225C24.2659 40.1372 24.3032 40.1584 24.3407 40.1783C24.3857 40.2037 24.4313 40.2285 24.4905 40.245C24.4357 40.3089 24.3665 40.3736 24.2975 40.4385C24.2617 40.4719 24.0463 40.5214 23.6887 40.5773C23.3308 40.6332 22.8627 40.6905 22.3763 40.7376C21.89 40.7849 21.4196 40.8187 21.0576 40.8326C20.696 40.8466 20.4747 40.8395 20.4331 40.8136C20.3501 40.7614 20.2671 40.7095 20.1997 40.6553C20.1178 40.5906 20.059 40.5217 20.052 40.4496C20.047 40.3979 20.0538 40.3475 20.0696 40.2935C20.0713 40.2882 20.0732 40.2828 20.075 40.2775C19.9511 40.2461 19.8381 40.2147 19.7963 40.1877C19.7619 40.1666 19.824 40.1421 19.8771 40.121C19.9137 40.1061 19.9461 40.0943 19.9399 40.0852C19.9365 40.0804 19.9285 40.0742 19.9188 40.0665C19.8791 40.0347 19.8119 39.9822 19.9237 39.9182C19.9732 39.8896 20.0727 39.8514 20.1678 39.8162C20.3037 39.7651 20.4303 39.717 20.3887 39.7036C20.3155 39.6795 20.3714 39.6374 20.421 39.6014C20.4683 39.5667 20.5094 39.5348 20.427 39.5286C20.3285 39.5204 20.3665 39.5015 20.4227 39.4729C20.4617 39.4531 20.5093 39.4286 20.5267 39.4011C20.5468 39.3689 20.6126 39.3406 20.6684 39.3165C20.6754 39.3134 20.6823 39.3105 20.6889 39.3076C20.756 39.2751 20.7956 39.2518 20.691 39.2381C20.563 39.2167 20.481 39.1972 20.5173 39.162C20.5259 39.1567 20.5286 39.1488 20.5285 39.1418C20.5285 39.1412 20.5285 39.1408 20.5284 39.1405C20.5284 39.1404 20.5284 39.1402 20.5284 39.1402C20.5283 39.1401 20.5283 39.1401 20.5283 39.1401C20.5283 39.1401 20.5283 39.1401 20.5283 39.1401C20.5283 39.1401 20.5283 39.1401 20.5283 39.1401C20.5283 39.1401 20.5283 39.1401 20.5283 39.1401C20.5283 39.1401 20.5283 39.1401 20.5283 39.1401C20.5283 39.1401 20.5283 39.1401 20.5283 39.1401C20.5283 39.1401 20.5283 39.1401 20.5283 39.1401C20.5283 39.1401 20.5283 39.1401 20.5283 39.1401C20.5283 39.1401 20.5283 39.1401 20.5283 39.1401C20.5283 39.1401 20.5283 39.1401 20.5283 39.1401C20.5283 39.1401 20.5283 39.1401 20.5283 39.1401C20.5283 39.1401 20.5283 39.1401 20.5283 39.1401C20.5283 39.1401 20.5283 39.1401 20.5283 39.1401C20.5283 39.1401 20.5283 39.1401 20.5283 39.1401C20.5283 39.1401 20.5283 39.1401 20.5283 39.1401C21.5325 39.0426 17.181 39.4649 23.5408 38.8477C23.5408 38.8477 23.5408 38.8477 23.5408 38.8477C23.5408 38.8477 23.5408 38.8477 23.5408 38.8477C23.5408 38.8477 23.5408 38.8477 23.5408 38.8477C23.5408 38.8477 23.5408 38.8477 23.5408 38.8477C23.5408 38.8477 23.5408 38.8477 23.5408 38.8477C23.5408 38.8477 23.5408 38.8477 23.5408 38.8477C23.5408 38.8477 23.5409 38.8477 23.5409 38.8477C23.5411 38.8479 23.5415 38.8496 23.5422 38.8526C23.5436 38.8586 23.5447 38.8585 23.5462 38.8623C23.5545 38.8845 23.562 38.8971 23.5194 38.9238C23.4839 38.9414 23.3906 38.9619 23.3081 38.9815C23.2824 38.9876 23.2579 38.9934 23.2363 38.9989C23.2389 39.0129 23.2415 39.0219 23.2455 39.0336C23.2609 39.034 23.2779 39.0344 23.2955 39.0348C23.3836 39.0368 23.4918 39.0399 23.5468 39.0519C23.6334 39.0676 23.5828 39.0951 23.5292 39.1253C23.4874 39.149 23.4436 39.1704 23.4621 39.1912C23.4746 39.2049 23.515 39.2197 23.5548 39.2324C23.614 39.2511 23.6723 39.2705 23.6385 39.2914C23.6258 39.2993 23.567 39.3107 23.5086 39.3221C23.5082 39.3222 23.5079 39.3222 23.5075 39.3223C23.5036 39.3231 23.4997 39.3238 23.4957 39.3246C23.5449 39.3614 23.5988 39.3989 23.6554 39.4359C23.671 39.438 23.6863 39.4401 23.7015 39.4423C23.7755 39.4528 23.8474 39.4633 23.9482 39.4649C24.0575 39.4665 24.1234 39.4919 24.1928 39.5172C24.2382 39.534 24.2852 39.5516 24.3469 39.5638C24.3829 39.5709 24.3228 39.5869 24.2608 39.6031C24.2029 39.6183 24.1436 39.6338 24.1595 39.643C24.1675 39.6477 24.1934 39.651 24.221 39.6545C24.2454 39.6576 24.2712 39.6609 24.2872 39.6654C24.3021 39.6696 24.27 39.6853 24.2292 39.7054C24.204 39.7178 24.1756 39.7318 24.1524 39.7459C24.1935 39.7733 24.233 39.8008 24.2699 39.8284C24.3241 39.8297 24.3942 39.8287 24.4839 39.8245C24.5482 39.8215 24.625 39.8168 24.7036 39.812C24.8104 39.8054 24.9209 39.7987 25.0091 39.7956C25.0781 39.7932 25.1059 39.7956 25.0778 39.8017C25.0646 39.8045 25.0397 39.8082 25.0172 39.8114C24.9914 39.8152 24.9685 39.8186 24.9693 39.8199C24.9699 39.8208 24.9883 39.82 25.0107 39.8191C25.0464 39.8177 25.0924 39.8158 25.0944 39.8196C25.1019 39.8338 25.0889 39.8519 25.076 39.8695C25.0617 39.8896 25.0478 39.9091 25.0629 39.922C25.0798 39.9365 25.0138 39.9657 24.948 39.9946C24.9022 40.0153 24.8566 40.0361 24.8386 40.0516C24.8209 40.0669 24.8599 40.077 24.898 40.0867C24.9437 40.0983 24.9879 40.1096 24.9294 40.1291C24.9175 40.133 24.844 40.1435 24.752 40.1567C24.6867 40.166 24.6122 40.1767 24.5435 40.1873C24.5451 40.2043 24.5437 40.2212 24.5397 40.2382C24.5498 40.2378 24.56 40.2374 24.5705 40.2369C24.5707 40.2369 24.571 40.2369 24.5712 40.2369C24.8076 40.2269 25.1312 40.2166 24.9419 40.2615C24.8938 40.2729 24.8041 40.2859 24.7234 40.2975C24.6441 40.3089 24.5732 40.3192 24.5587 40.3254C24.5423 40.3325 24.5918 40.3341 24.6456 40.3358C24.7213 40.3392 24.8058 40.3428 24.7293 40.3618C24.7241 40.3631 24.7183 40.3645 24.7126 40.366C24.6581 40.3796 24.5776 40.3997 24.4143 40.4273C24.3738 40.4666 24.326 40.5082 24.2733 40.5497C24.2295 40.585 24.1824 40.62 24.1335 40.6537C24.109 40.6696 24.0844 40.6897 24.0594 40.7065C24.0532 40.7121 24.0469 40.7162 24.0405 40.7188C24.0397 40.7192 24.0389 40.7191 24.0381 40.7199C24.0377 40.7204 24.0373 40.7207 24.0369 40.7208C24.0368 40.7208 24.0367 40.7208 24.0366 40.7209C24.0366 40.7209 24.0366 40.7209 24.0366 40.7209C24.0366 40.7209 24.0366 40.7209 24.0366 40.7209C24.0366 40.7209 24.0366 40.7209 24.0366 40.7209C24.0366 40.7209 24.0366 40.7209 24.0366 40.7209C26.0558 40.5249 18.3827 41.2696 20.402 41.0736C20.402 41.0736 20.402 41.0736 20.402 41.0736C20.402 41.0736 20.402 41.0736 20.402 41.0736C20.402 41.0736 20.402 41.0736 20.402 41.0736C20.402 41.0736 20.402 41.0736 20.402 41.0736C20.402 41.0736 20.402 41.0736 20.402 41.0736C20.402 41.0736 20.402 41.0736 20.402 41.0736C20.402 41.0736 20.402 41.0736 20.402 41.0736C20.402 41.0736 20.402 41.0736 20.402 41.0736C20.402 41.0736 20.402 41.0736 20.402 41.0736C20.402 41.0736 20.402 41.0736 20.402 41.0736C20.402 41.0736 20.402 41.0736 20.402 41.0736C20.4021 41.0736 20.4021 41.0736 20.4021 41.0736C20.4022 41.0736 20.4022 41.0736 20.4023 41.0736C20.4025 41.0735 20.4027 41.0734 20.4029 41.0733C20.4044 41.0722 20.4057 41.0677 20.4074 41.068C20.4106 41.0666 20.4138 41.065 20.417 41.0631C20.4298 41.0573 20.4417 41.0405 20.4547 41.0359C20.5047 41.0053 20.7256 40.9523 21.0822 40.8987C21.4391 40.8429 21.8991 40.7838 22.3763 40.7376C22.8534 40.6912 23.3159 40.6608 23.6769 40.6468C24.0372 40.6309 24.2641 40.6404 24.3191 40.6608C24.3299 40.6627 24.3416 40.6729 24.3527 40.677C24.3582 40.6794 24.3637 40.6813 24.3692 40.6827C24.3718 40.6826 24.3748 40.6861 24.3777 40.6877C24.3777 40.6877 24.3778 40.6877 24.3779 40.6877C24.378 40.6877 24.378 40.6877 24.378 40.6877C24.378 40.6877 24.378 40.6877 24.378 40.6877C24.378 40.6877 24.3781 40.6877 24.3781 40.6877C24.3781 40.6877 24.3781 40.6877 24.3781 40.6877C24.3781 40.6877 24.3781 40.6877 24.3781 40.6877C24.3781 40.6877 24.3781 40.6877 24.3781 40.6877C24.3781 40.6877 24.3781 40.6877 24.3781 40.6877C24.3781 40.6877 24.3781 40.6877 24.3781 40.6877C26.7767 40.4549 17.6619 41.3396 20.0605 41.1068C20.0605 41.1068 20.0605 41.1068 20.0605 41.1068C20.0605 41.1068 20.0605 41.1068 20.0605 41.1068C20.0605 41.1068 20.0605 41.1068 20.0605 41.1068C20.0605 41.1068 20.0605 41.1068 20.0605 41.1068C20.0605 41.1068 20.0605 41.1068 20.0605 41.1068C20.0605 41.1068 20.0605 41.1068 20.0605 41.1068C20.0605 41.1068 20.0605 41.1068 20.0605 41.1068C20.0605 41.1068 20.0605 41.1068 20.0605 41.1068C20.0605 41.1068 20.0604 41.1068 20.0604 41.1068C20.0602 41.1068 20.0601 41.1068 20.0599 41.1067C20.0596 41.1066 20.0592 41.1064 20.0589 41.1061C20.0581 41.1055 20.0575 41.1058 20.0568 41.1056C20.0555 41.1053 20.0541 41.105 20.0527 41.1047C20.0305 41.0949 20.0085 41.0861 19.9866 41.0755C19.9426 41.0546 19.8996 41.0348 19.8584 41.0155C19.8482 41.0142 19.8384 41.0127 19.8292 41.0112C19.7607 41.0005 19.6244 40.9928 19.4884 40.9903C19.4571 40.9896 19.4258 40.9888 19.3953 40.9879ZM25.0137 40.5027C25.2426 40.4825 25.1496 40.4953 25.0985 40.5023C25.0977 40.5024 25.0968 40.5025 25.096 40.5027C25.0839 40.5043 25.0808 40.5051 25.0774 40.506C25.0693 40.5081 25.0583 40.5109 24.9129 40.5287C24.9184 40.5292 24.9214 40.53 24.9215 40.5311C24.9226 40.5425 24.7336 40.5724 24.507 40.606C24.5082 40.606 24.5094 40.606 24.5107 40.6061C24.5345 40.6066 24.5641 40.6074 24.4808 40.6177C24.375 40.6308 24.2768 40.6423 24.192 40.6522C24.0096 40.679 23.8468 40.704 23.78 40.7197C23.7591 40.7246 23.7478 40.7286 23.748 40.7314C23.7483 40.734 23.7558 40.736 23.7697 40.7373C23.8196 40.734 23.8789 40.7297 23.9338 40.7257C24.011 40.7201 24.0795 40.7152 24.1019 40.7144C24.156 40.7126 24.0716 40.7246 24.0088 40.7335C23.9986 40.735 23.9888 40.7364 23.9805 40.7376C24.0119 40.7368 24.0455 40.7358 24.0799 40.7347C24.0609 40.7367 24.0411 40.7388 24.0208 40.7409C23.7675 40.7675 23.771 40.7695 23.7761 40.7727C23.7783 40.7742 23.7807 40.7758 23.7626 40.7798C23.7509 40.7824 23.6505 40.7929 23.5685 40.8014C23.5444 40.8039 23.5219 40.8063 23.5037 40.8082C23.4413 40.8148 23.5088 40.8089 23.5886 40.8019C23.692 40.7928 23.8163 40.7818 23.7043 40.7942C23.3473 40.8335 23.59 40.812 23.7736 40.7958C23.8274 40.791 23.8761 40.7867 23.9031 40.7845C23.9908 40.7774 23.9043 40.7877 23.7853 40.8008C23.691 40.8111 23.7849 40.8043 23.9041 40.7946C23.9492 40.7909 23.9504 40.7917 23.9516 40.7926C23.9528 40.7936 23.9539 40.7948 24.0046 40.7913C24.1326 40.7823 24.1946 40.7782 24.2443 40.7748C24.2584 40.7739 24.2713 40.773 24.2848 40.7721C24.3272 40.7692 24.3623 40.7674 24.3977 40.7655C24.44 40.7633 24.483 40.761 24.5402 40.7569C24.4801 40.7665 24.4057 40.7775 24.3315 40.7885C24.2929 40.7941 24.075 40.8172 23.7155 40.8534C23.3557 40.8897 22.8865 40.936 22.4001 40.9832C21.9138 41.0304 21.4445 41.0752 21.0844 41.1088C20.7247 41.1423 20.506 41.1617 20.4671 41.1635C20.3895 41.1672 20.3119 41.1708 20.25 41.1729C20.1746 41.1755 20.1225 41.1758 20.1221 41.1711C20.1217 41.1678 20.133 41.1635 20.1536 41.1581C20.1557 41.1576 20.158 41.157 20.1603 41.1564C20.0403 41.1653 19.9311 41.1731 19.8921 41.175C19.8599 41.1765 19.9237 41.1691 19.9782 41.1628C20.0158 41.1585 20.049 41.1546 20.0437 41.1545C20.0408 41.1544 20.0334 41.1547 20.0244 41.155C19.988 41.1563 19.9261 41.1585 20.0426 41.1437C20.0943 41.1372 20.1964 41.1255 20.2938 41.1143C20.4331 41.0983 20.5629 41.0834 20.5229 41.0862C20.4525 41.091 20.5117 41.0829 20.5641 41.0758C20.6141 41.069 20.6577 41.063 20.5766 41.0699C20.4796 41.0781 20.519 41.0733 20.5773 41.0662C20.6178 41.0613 20.6671 41.0552 20.6869 41.0516C20.7097 41.0474 20.7774 41.0394 20.835 41.0327C20.916 41.0231 20.977 41.016 20.8645 41.025C20.7395 41.0351 20.6599 41.0406 20.6991 41.0351C20.717 41.0326 20.7126 41.0321 20.7079 41.0316C20.7017 41.031 20.6953 41.0303 20.74 41.0248C20.7768 41.0203 20.8711 41.0103 20.9546 41.0015C20.9807 40.9988 21.0055 40.9961 21.0274 40.9938C21.0261 40.9932 21.0243 40.9926 21.0214 40.9921C21.0062 40.9934 20.9893 40.9949 20.972 40.9965C20.8848 41.0043 20.7778 41.0138 20.7244 41.0179C20.6399 41.0244 20.6926 41.0179 20.7485 41.0109C20.792 41.0055 20.8374 40.9998 20.8209 41C20.8097 41.0001 20.771 41.0028 20.7326 41.0054C20.6757 41.0093 20.6197 41.0131 20.6551 41.0086C20.6684 41.0069 20.7276 41.0007 20.7866 40.9947C20.7869 40.9946 20.7873 40.9946 20.7876 40.9946C20.7916 40.9941 20.7955 40.9937 20.7995 40.9933C20.7541 40.995 20.704 40.9971 20.6513 40.9995C20.636 41.0008 20.621 41.002 20.6062 41.0032C20.5337 41.0091 20.4634 41.0148 20.3636 41.0237C20.2554 41.0334 20.1924 41.0376 20.1259 41.0419C20.0824 41.0447 20.0374 41.0477 19.9773 41.0524C19.9422 41.0551 20.0033 41.0485 20.0662 41.0417C20.1249 41.0354 20.1852 41.0289 20.1702 41.0297C20.1627 41.0301 20.1374 41.0322 20.1103 41.0344C20.0864 41.0364 20.0611 41.0384 20.0456 41.0395C20.0313 41.0406 20.0645 41.0365 20.1067 41.0314C20.1328 41.0282 20.1623 41.0246 20.1865 41.0215C20.1483 41.0232 20.1116 41.0248 20.0774 41.026C20.0238 41.0308 19.9543 41.0372 19.865 41.0456C19.8009 41.0516 19.7243 41.0589 19.6461 41.0663C19.5396 41.0764 19.4295 41.0868 19.3417 41.095C19.2731 41.1013 19.2458 41.1037 19.2742 41.1007C19.2875 41.0993 19.3125 41.0968 19.3351 41.0945C19.361 41.0919 19.3841 41.0896 19.3834 41.0896C19.3829 41.0896 19.3645 41.0913 19.3423 41.0934C19.3068 41.0967 19.261 41.101 19.2593 41.1009C19.2532 41.1005 19.2677 41.098 19.2821 41.0955C19.2981 41.0928 19.3136 41.0901 19.2998 41.0905C19.2844 41.091 19.3524 41.0829 19.4202 41.0749C19.4675 41.0692 19.5146 41.0636 19.5338 41.0609C19.5527 41.0582 19.5149 41.0609 19.4781 41.0636C19.4338 41.0669 19.3911 41.07 19.4507 41.0634C19.4629 41.062 19.5367 41.0546 19.6291 41.0454C19.6946 41.0388 19.7695 41.0314 19.8385 41.0244C19.8384 41.0233 19.8414 41.0219 19.8469 41.0203C19.8368 41.0212 19.8266 41.0222 19.8162 41.0232C19.816 41.0232 19.8157 41.0232 19.8155 41.0232C19.5803 41.0452 19.2586 41.0752 19.4503 41.0548C19.499 41.0497 19.5891 41.0406 19.6701 41.0325C19.7497 41.0246 19.8209 41.0174 19.8359 41.0156C19.8528 41.0136 19.8039 41.018 19.7507 41.0227C19.6759 41.0292 19.5925 41.0366 19.6701 41.0283C19.6754 41.0278 19.6812 41.0272 19.687 41.0265C19.7422 41.0207 19.8238 41.0119 19.9882 40.9952C20.0319 40.9886 20.083 40.9813 20.1389 40.9736C20.2321 40.9606 20.3384 40.9464 20.4446 40.9322C20.4969 40.9252 20.7207 40.9017 21.079 40.8656C21.4378 40.8294 21.8991 40.7839 22.3763 40.7376C22.8535 40.6913 23.3146 40.6473 23.6737 40.6138C24.0323 40.5803 24.2564 40.5604 24.309 40.5572C24.3939 40.552 24.4789 40.5468 24.5572 40.5423C24.5672 40.5415 24.5768 40.5408 24.5858 40.54C24.6527 40.5347 24.7872 40.5228 24.9217 40.5109C24.9527 40.5081 24.9836 40.5054 25.0137 40.5027Z" fill="#E56C45"/>
<path d="M24.0962 1.79663C23.7549 1.67334 23.2931 1.61282 22.7762 1.61106C21.8544 1.60873 20.9514 1.79529 20.3581 1.93892C20.3406 1.943 20.3232 1.94708 20.3059 1.95116C20.1838 1.98092 20.0634 2.00798 19.9386 2.03555C19.7466 2.07554 19.5453 2.12419 19.3215 2.19249C18.7449 2.37551 17.8985 2.69193 17.0187 3.56025C16.5909 3.98314 16.2151 4.53647 15.9838 5.01624C15.867 5.25406 15.7812 5.47133 15.7346 5.60993C15.6949 5.74335 15.664 5.8108 15.8249 5.60725C15.8351 5.59206 15.8465 5.57566 15.859 5.5581C15.083 6.67537 14.9853 7.36585 14.8295 7.94698C14.67 8.6639 14.6037 9.23048 14.5434 9.78241C14.5776 9.55861 14.5918 9.60183 14.5502 9.72008C14.5112 9.84375 14.4305 10.0558 14.3292 10.3339C14.1538 10.9011 13.7399 11.7027 13.8437 13.2944C13.8156 13.1161 13.9681 12.6504 13.8601 13.0625C13.7242 13.3916 13.433 14.9997 13.7768 15.9761C14.0632 16.9321 14.3796 17.768 14.5767 18.3887C14.75 18.9623 14.8209 19.1746 14.9062 20.0745C14.9834 20.7454 15.0703 21.3032 15.1522 21.8854C15.1547 21.9401 15.1573 21.9961 15.1598 22.0523C15.1673 22.2176 15.1747 22.3874 15.1825 22.5612C15.2622 23.8206 15.8415 24.7769 16.3352 25.3792C16.5888 25.6885 16.8427 25.9364 17.0802 26.1424C17.1986 26.2449 17.3147 26.3378 17.4177 26.4158C17.4686 26.4543 17.5178 26.4903 17.551 26.5135C17.5665 26.5242 17.58 26.5333 17.5736 26.5264C17.5682 26.521 17.5648 26.5178 17.533 26.4894C17.4994 26.4553 17.4694 26.446 17.2616 26.2145C17.7558 26.7506 18.0825 26.8891 18.3308 27.0206C18.5798 27.1398 18.7551 27.1965 18.9124 27.2431C20.095 27.5321 20.5334 27.4326 21.0633 27.4263C21.5568 27.3974 21.952 27.3452 22.3181 27.288C22.321 27.2879 22.3238 27.2877 22.3267 27.2875C22.4518 27.2857 22.6969 27.2666 22.8828 27.2274C23.0708 27.1894 23.1897 27.1505 23.2738 27.1225C23.4396 27.0653 23.515 27.031 23.5955 26.9971C23.7485 26.931 23.8747 26.8736 24.0068 26.8151C24.8091 26.4606 25.5844 26.113 26.3833 25.7549C27.3475 25.3461 28.3314 24.6705 29.0416 23.7674C29.1668 23.6246 29.3195 23.3785 29.3733 23.2631C29.4369 23.135 29.4665 23.0572 29.4916 22.9919C29.5391 22.8649 29.5641 22.7825 29.5884 22.7031C29.6352 22.5474 29.6701 22.4178 29.7057 22.2859C29.7747 22.028 29.8385 21.7806 29.9031 21.5316C30.2499 20.1035 30.3135 19.1162 30.5176 18.0581C30.6561 17.2943 30.822 16.5637 31.0431 15.9137C31.1377 15.6372 31.2308 15.3578 31.3217 15.0673C31.487 14.5318 31.6521 13.9714 31.7589 13.2904C31.8763 12.6168 31.838 11.7706 31.7744 11.2513C31.7733 11.1974 31.7727 11.147 31.772 11.0963C31.7005 10.5305 31.6061 10.3492 31.5347 10.1267C31.4591 9.91807 31.3879 9.74833 31.3172 9.58754C31.177 9.2704 31.0401 8.99752 30.9023 8.73948C30.4814 7.95623 30.0518 7.31907 29.6057 6.81775C28.8479 6.1146 28.3882 5.22357 26.0779 4.80122C25.6834 4.78598 25.1379 4.75082 24.713 4.7352C24.5271 4.72752 24.3507 4.72111 24.1859 4.71516C23.7321 4.64853 23.2716 4.58593 22.772 4.53977C22.5208 4.51717 22.2618 4.49796 21.962 4.49263C21.635 4.50293 21.4077 4.44513 20.6349 4.64816C20.5479 4.68564 20.4538 4.72959 20.3497 4.78557C20.226 4.85048 20.0874 4.9317 19.9323 5.04794C19.7678 5.16677 19.6021 5.31718 19.4562 5.49531C18.9523 6.08011 18.8517 6.89816 18.9044 7.2708C18.9489 7.68647 19.0454 7.89429 19.123 8.07029C19.28 8.39283 19.4035 8.53677 19.5128 8.67863C19.7302 8.94677 19.897 9.12272 20.0483 9.30794C20.197 9.4874 20.3283 9.66767 20.4026 9.79622C20.439 9.85717 20.4579 9.90688 20.4481 9.88035C20.4464 9.85437 20.3742 9.72903 20.4367 9.36248C20.4521 9.2845 20.4768 9.19821 20.5118 9.1122C20.2112 9.85457 20.0197 10.5868 19.854 11.4348C19.7741 11.8534 19.793 12.1324 19.8309 12.3529C19.8456 12.4399 19.8636 12.5181 19.8809 12.5908C19.8989 12.6674 19.9161 12.7383 19.9279 12.8089C19.9684 13.0508 19.8433 13.2748 19.6984 13.5415C19.5107 13.8869 19.2886 14.3057 19.3612 14.9016C19.4406 15.5503 19.4544 16.0629 19.4248 16.4906C19.3691 17.3038 19.1486 17.8957 19.0482 18.4903C19.0196 18.6464 18.9976 18.7901 18.9835 18.9204C18.9738 18.9958 18.9672 19.0694 18.9655 19.1437C18.9529 19.7776 19.2374 20.5966 19.6647 21.3016C19.7148 21.3855 19.7562 21.4661 19.848 21.6403C20.1865 22.2438 20.3561 22.3015 20.5066 22.4566C20.6536 22.5851 20.7696 22.6767 20.8795 22.7662C21.0967 22.9416 21.2852 23.0986 21.4606 23.2566C22.2197 23.7391 22.4728 23.7411 22.7706 23.8614C23.152 23.99 23.582 24.0319 24.0452 24.06C24.2505 24.0724 24.4625 24.0819 24.6812 24.0946C24.8666 24.0923 25.0153 24.1407 25.5953 24.012C25.8669 23.9483 26.4797 23.7154 26.9083 23.165C27.3145 22.6223 27.3325 22.3297 27.361 22.2969C27.4302 22.0967 27.4782 21.9331 27.524 21.7761C27.7332 21.0352 27.8098 20.5545 27.8805 20.1199C27.9471 19.1448 27.431 18.4154 27.2179 18.1719C26.9772 17.893 26.853 17.8002 26.7705 17.722C26.6123 17.5814 26.6072 17.5607 26.6318 17.5657C26.6914 17.5794 26.9082 17.7876 27.0195 18.0163C27.1285 18.2263 27.1695 18.4196 27.189 18.539C27.1894 18.5265 27.1898 18.514 27.1901 18.5016C27.2069 17.6302 27.085 16.9637 27.0103 16.3646C26.9295 15.7785 26.8889 15.2754 26.9403 15.0898C26.9476 15.0197 26.9562 14.9471 26.9661 14.8752C26.9303 14.5266 26.9096 14.1077 26.8775 13.6133C26.8211 13.0818 26.8797 12.6499 26.528 11.4725C26.1805 10.4806 25.5409 9.61197 24.8779 9.01238C24.6412 8.79513 24.39 8.6201 24.1652 8.49924C24.0541 8.43966 23.947 8.39131 23.8742 8.37331C23.839 8.36549 23.8109 8.36328 23.8159 8.39026C23.8296 8.43616 23.8334 8.41293 24.0911 8.78159C24.0719 8.7493 23.9988 8.66381 23.9772 8.63307C24.0373 8.76504 24.1639 8.96398 24.2484 9.40693C24.3496 9.8389 24.206 10.5583 23.9465 10.879C23.6988 11.2168 23.5029 11.2875 23.3935 11.3155C23.2804 11.3383 23.2268 11.3049 23.1968 11.2607C23.1398 11.1625 23.1698 11.0175 23.2484 10.8445C23.2947 10.7517 23.3343 10.6728 23.4942 10.4912C23.5442 10.4362 23.5797 10.3942 23.6737 10.2826C23.7462 10.1832 23.8956 10.0232 23.9895 9.67073C24.0389 9.48378 24.0459 9.23235 23.9866 9.0204C23.9318 8.82001 23.8436 8.67796 23.7557 8.56956C23.581 8.36896 23.4891 8.34071 23.3913 8.29101L23.9121 9.1971C23.873 9.64127 23.739 9.67392 23.6855 9.72363C23.6216 9.75967 23.5785 9.75089 23.5411 9.73731C23.4676 9.70638 23.4166 9.64412 23.3641 9.58404C23.2616 9.46061 23.1577 9.33396 23.0351 9.22586C22.9128 9.11748 22.7808 9.02167 22.6334 8.94967C22.559 8.91482 22.4813 8.884 22.3876 8.88039C22.3403 8.87986 22.2889 8.88414 22.2254 8.91993C22.1688 8.9646 22.0606 9.0003 22.0229 9.30631C22.0479 9.48624 22.187 9.78083 22.3461 9.86863C22.2957 9.85257 22.2431 9.84762 22.1365 9.7364C22.0826 9.67573 22.0263 9.59254 21.9897 9.47127C21.9503 9.34303 21.9512 9.18788 21.9782 9.07291C22.1206 8.63762 22.1963 8.65764 22.2144 8.57999C22.2519 8.47772 22.2031 8.43549 22.1518 8.38741C22.0392 8.2996 21.8699 8.23426 21.6165 8.2385C21.3768 8.27601 21.0188 8.21988 20.4572 8.9321C20.1797 9.29179 20.0355 10.0069 20.1458 10.4864C20.2413 10.9754 20.4125 11.2581 20.5468 11.4785L20.4535 11.3568C20.7085 11.7253 20.7739 11.7653 20.8441 11.8582C20.9086 11.9362 20.9501 11.9897 20.9853 12.0373C21.0546 12.1313 21.0998 12.2005 21.1414 12.2637C21.2227 12.3884 21.2831 12.4826 21.3413 12.5597C21.5026 12.7753 21.5362 12.9217 21.5445 13.061C21.4909 12.9216 21.5114 13.0499 21.502 13.1889C21.4973 13.3366 21.4875 13.5322 21.475 13.7443C21.4508 14.1725 21.4156 14.667 21.4149 15.2347C21.4149 15.2902 21.4153 15.3473 21.4161 15.4046C21.4436 16.2796 21.569 16.9112 21.6624 17.4834C21.7588 18.0294 21.8391 18.5808 21.821 18.6858C21.7939 19.4867 22.2653 20.6817 22.8766 21.2631C23.1584 21.5604 23.4256 21.7535 23.4992 21.8138C23.531 21.8353 23.5171 21.8444 23.3391 21.6622C23.2522 21.5666 23.1097 21.4125 22.9516 21.1015C22.7939 20.8006 22.6603 20.2967 22.6915 19.8442C22.6887 19.8931 22.6858 19.9413 22.6826 19.9895C22.6696 20.1864 22.6519 20.3779 22.6305 20.545C22.6119 20.7037 22.5745 20.8771 22.5819 20.8514C22.5828 20.9032 22.5703 20.6797 22.965 20.1213C23.3831 19.5483 24.0474 19.27 24.2913 19.2138C24.8211 19.0909 24.8067 19.1483 24.8413 19.138C24.3282 19.1326 23.7091 19.0898 23.6085 19.0721C23.6132 19.0829 23.633 19.0579 23.9499 19.2294C23.9843 19.2468 24.0235 19.2682 24.0651 19.2933C23.9192 19.1612 23.7807 19.0325 23.6985 18.9377C23.6596 18.8924 23.6323 18.8518 23.6616 18.8583C23.6776 18.8634 23.7073 18.8781 23.779 18.9432C23.8516 19.0219 23.9674 19.0889 24.2035 19.5318C24.2851 19.6654 24.2438 19.5259 24.2437 19.4612C24.2354 19.3798 24.2246 19.2862 24.2146 19.1929C24.1945 19.0062 24.1761 18.8183 24.1585 18.6516C24.14 18.4763 24.1116 18.3181 24.0777 18.1728C24.0312 17.9896 23.9835 17.962 23.9388 17.8202C23.8912 17.6749 23.8593 17.4814 23.882 17.2803C23.8922 17.189 23.9099 17.0662 23.9333 16.9136C23.9378 16.8847 23.9425 16.8544 23.9474 16.8225C24.0702 16.0337 24.3126 14.6379 24.3731 13.4326C24.3769 13.3587 24.3798 13.2838 24.3822 13.2086C24.4006 12.7188 24.3991 12.1776 24.4152 11.6895C24.4267 11.3107 24.4525 10.9599 24.4833 10.7327C24.8253 9.75025 24.6055 9.07917 24.4955 8.69942C24.3646 8.30533 24.246 8.08149 24.1709 7.90059C23.9406 7.36921 23.6726 6.9947 23.4565 6.70064C23.351 6.55994 23.2533 6.42985 23.2296 6.4117C23.2192 6.41411 23.2333 6.41458 23.2995 6.65314C23.3256 6.7812 23.3941 6.98852 23.3324 7.43317C23.2935 7.88236 22.8683 8.56135 22.4628 8.79187C22.0615 9.03381 21.9838 8.99806 21.9218 9.01677C21.8033 9.02168 21.9361 8.98364 22.0357 8.97148C22.1466 8.95594 22.2768 8.94797 22.4013 8.94765C22.6531 8.9472 22.8863 8.97612 23.0502 9.04157C23.4445 9.19908 23.8017 9.18368 24.3519 9.17081C24.6875 9.16339 25.0382 9.15765 25.6377 9.19317C25.57 9.18104 25.5309 9.16519 25.5156 9.15665C25.4742 9.12027 25.6773 9.18613 25.8304 9.26136C25.9947 9.33884 26.1629 9.43014 26.3177 9.52318C26.7535 9.79013 27.107 10.0634 27.3637 10.6353C27.4883 10.9174 27.61 11.1995 27.7088 11.4414C27.7573 11.5605 27.7995 11.67 27.8237 11.7423C27.848 11.7924 27.8477 11.9128 27.7942 11.5877C27.8056 11.6636 27.8179 11.7327 27.8311 11.7964C27.8859 12.0636 27.8955 12.2646 27.8791 12.4551C27.8602 12.7056 27.7827 13.0541 27.7373 13.4379C27.7007 13.7523 27.7311 14.0581 27.7541 14.3328C27.7618 14.4166 27.7672 14.5014 27.77 14.5806C27.7508 14.6355 27.731 14.6917 27.7105 14.7491C27.6223 14.997 27.5422 15.2434 27.4676 15.4882C27.4339 15.5331 27.3976 15.5802 27.3603 15.6294C27.1732 15.8762 26.949 16.1853 26.7847 16.5901C26.5251 17.231 26.4823 17.8184 26.4434 18.4142C26.4132 18.8756 26.3869 19.3555 26.2619 19.8283C26.2117 20.0167 26.1416 20.215 26.0705 20.3567C26.005 20.5098 25.936 20.6655 25.8683 20.8157C25.7981 20.9715 25.7285 21.1242 25.6659 21.2562C25.6353 21.3202 25.6049 21.3823 25.5884 21.405C25.5813 21.4143 25.5751 21.4164 25.5953 21.3656C25.6041 21.3327 25.7122 21.1324 25.8146 21.0148C25.7197 21.1017 25.6431 21.1707 25.5836 21.2477C25.5335 21.3124 25.5227 21.4165 25.5011 21.5238C25.5011 21.5244 25.5011 21.5249 25.5011 21.5255C25.4996 21.5328 25.498 21.54 25.4965 21.5472C25.3113 21.6467 25.1026 21.7292 24.8734 21.7932C24.2373 21.9915 23.586 22.1888 22.9411 22.3803C22.8503 22.3928 22.759 22.4057 22.6689 22.4184C22.583 22.4305 22.4978 22.4424 22.4146 22.4532C22.2378 22.4778 22.0593 22.5034 21.9296 22.5058C21.8694 22.5058 21.8111 22.5006 21.8613 22.4618C21.888 22.422 22.2168 22.3477 22.2884 22.3302C22.2857 22.3288 22.2831 22.3273 22.2805 22.3258C22.0509 22.1894 21.3376 22.0949 20.8816 21.9302C20.7963 21.8983 20.7264 21.8609 20.752 21.8481C20.7673 21.8436 20.8062 21.8425 20.92 21.8855C21.0343 21.9411 21.2342 21.9857 21.6361 22.4069C21.4211 22.1665 21.3797 22.1461 21.3316 22.0983C21.2845 22.0559 21.2688 22.0414 21.2459 22.0207C21.2096 21.9873 21.1881 21.9665 21.1712 21.9491C21.1372 21.9143 21.1179 21.8909 21.1002 21.8684C21.0663 21.8246 21.045 21.789 21.0285 21.7559C20.9779 21.651 20.8861 21.6638 20.8123 21.7018C20.7445 21.7415 20.7003 21.795 20.762 21.9169C20.7891 21.9727 20.8372 22.052 20.8761 22.162C20.8784 22.1465 20.8808 22.1309 20.8831 22.1152C20.9043 21.9759 20.9265 21.8287 20.9354 21.676C20.9437 21.5342 20.8774 21.2241 20.7926 20.8332C20.7404 20.5928 20.6809 20.3195 20.6307 20.0484C20.6307 19.9463 20.6312 19.8466 20.6329 19.7541C20.6578 19.2143 20.6291 18.1589 20.4861 17.3609C20.5034 17.2194 20.5303 17.0889 20.5691 16.9684C20.589 16.9076 20.6122 16.8499 20.6392 16.7962C20.6965 16.6823 20.7725 16.5793 20.85 16.4748C20.9554 16.3326 21.0638 16.1861 21.1333 16.0108C21.1877 15.8737 21.1852 15.7346 21.1256 15.6599C21.0978 15.6249 21.0581 15.604 21.0221 15.5848C20.9809 15.5629 20.9443 15.5437 20.9356 15.5099C20.9293 15.4857 20.945 15.4542 20.964 15.4157C20.9942 15.3544 21.0331 15.2749 21.0083 15.1808C20.9202 14.8473 20.8037 14.5006 20.7088 14.2017C20.7131 14.222 20.7173 14.2433 20.7213 14.2652C20.78 14.5202 20.7593 15.0036 20.7064 15.1797C20.6557 15.3671 20.6928 15.2219 20.7945 14.9205C20.9297 14.5386 21.107 13.5603 20.9725 12.6921C20.9679 12.9917 20.8938 13.1405 20.8559 13.158C20.7797 13.1878 20.8133 12.8926 20.9223 12.5564C21.0229 12.2132 21.2714 11.7998 21.4847 10.983C21.514 10.8646 21.5413 10.7357 21.5639 10.5978C21.6474 10.2963 21.7192 10.032 21.686 9.82081C21.6783 9.77208 21.5937 9.70023 21.4887 9.61224C21.4142 9.55047 21.3297 9.47915 21.2544 9.40685C21.2865 9.1958 21.4071 9.06469 21.1626 9.43315C21.2057 9.37348 21.2449 9.31608 21.2807 9.26114C21.3157 9.23187 21.3502 9.20241 21.3838 9.17394C21.3845 9.17354 21.3851 9.17314 21.3857 9.17274C21.7605 8.85323 22.0465 8.63454 22.2076 8.56706C22.3671 8.48914 22.3761 8.62068 22.0817 8.75369C21.9337 8.81552 21.7778 8.78602 21.6578 8.74175C21.539 8.69816 21.4444 8.64635 21.379 8.65657C21.3052 8.66796 21.2715 8.74519 21.2567 8.8197C21.2529 8.83966 21.2508 8.85941 21.2501 8.87764C21.4286 8.92007 21.6169 8.94372 21.7854 8.83605C21.7999 8.82693 21.8149 8.81707 21.831 8.80707C21.9835 8.71221 22.2088 8.57586 22.4268 8.34145C22.6232 8.30696 22.8154 8.2774 22.9987 8.25388C23.496 8.19235 24.0748 8.16098 24.5325 8.15765C24.5805 8.15708 24.6252 8.15682 24.6581 8.15562C23.9939 8.02456 23.9863 7.93378 23.8941 7.89855C23.8294 7.8587 23.8227 7.84808 23.8182 7.84107C23.8164 7.83073 23.8565 7.84942 23.9015 7.87445C23.9926 7.92483 24.1182 8.00755 24.24 8.09042C24.4908 8.26206 24.7599 8.4596 25.0288 8.66089C25.5681 9.06546 26.1173 9.49444 26.6633 9.92712C27.2224 10.3694 27.9163 10.6415 28.6054 10.6664C29.2931 10.6895 29.9258 10.4724 30.3505 10.0221C30.7861 9.58355 31.0013 8.9575 30.9602 8.26515C30.918 7.57298 30.6171 6.87314 30.1318 6.31313C29.3204 5.39125 28.5908 4.52141 27.5289 3.5197C27.4692 3.45564 27.4202 3.40127 27.3462 3.33032C27.2498 3.23629 27.1411 3.13071 26.9917 3.00515C26.8968 2.93035 26.832 2.87297 26.6587 2.76424C26.5733 2.71139 26.4745 2.65446 26.3453 2.59252C26.1629 2.51126 25.9273 2.40681 25.4991 2.33419C25.0841 2.18875 24.7821 2.0603 24.4568 1.93329C24.3367 1.88617 24.2168 1.84026 24.0962 1.79663Z" fill="#E56C45"/>
</svg>
