<svg width="17" height="22" viewBox="0 0 17 22" fill="none" xmlns="http://www.w3.org/2000/svg">
<path d="M2.99628 11.2704C3.02208 11.2909 3.04352 11.3157 3.06143 11.3435C3.15488 11.4984 3.15721 11.7296 3.1619 11.8621C3.16206 11.865 3.16221 11.8679 3.16236 11.8708C3.16368 11.9087 3.16955 11.9418 3.17732 11.9821C3.196 12.0751 3.21846 12.2035 3.21361 12.4591C3.23949 12.5245 3.2647 12.5867 3.28895 12.6459C3.5462 13.2619 3.78802 13.6329 4.57941 14.1392C4.58969 14.143 4.60023 14.1467 4.61095 14.1505C4.63656 14.1596 4.66334 14.169 4.69105 14.1787C4.84106 14.2287 5.02881 14.2766 5.15281 14.3507C5.3324 14.4587 5.47195 14.5407 5.58838 14.6096C5.90509 14.7077 6.25517 14.7846 6.6264 14.8521C7.04068 14.9309 7.48028 14.9793 7.90898 14.9925C7.91503 14.9927 7.92101 14.9928 7.92692 14.993C8.11525 15.0004 8.35292 14.981 8.58408 14.9474C8.8054 14.9151 9.02713 14.871 9.24952 14.8176C9.37576 14.7619 9.48921 14.7013 9.59826 14.6431C9.74704 14.5623 9.88048 14.4876 9.99398 14.4448C10.2675 14.3421 10.5975 14.2992 10.8427 14.2609C10.8826 14.2548 10.9203 14.2488 10.9551 14.2429C11.1348 14.1655 11.3112 14.0841 11.4843 13.9989C11.5002 14.005 11.5164 14.0116 11.5329 14.0183C11.7388 14.1017 11.931 14.0274 12.2183 13.8989C12.3429 13.8428 12.486 13.7759 12.6544 13.7033C12.7628 13.6564 12.842 13.6812 12.9096 13.6999C12.9293 13.7055 12.9478 13.7106 12.9651 13.7134C13.0249 13.7227 13.048 13.6639 13.0751 13.5935C13.1109 13.5016 13.1439 13.3963 13.2769 13.3889C13.7003 13.3625 13.728 13.1356 13.7233 12.9916C13.7219 12.9488 13.7199 12.9101 13.7257 12.881C13.7446 12.787 13.8414 12.7492 13.9355 12.7313C13.9768 12.7245 13.9965 12.6822 13.9892 12.6437C13.9932 12.5906 13.9885 12.522 13.9773 12.4581C13.9678 12.4037 13.9881 12.3389 14.0113 12.258C14.0353 12.1745 14.0623 12.0737 14.0604 11.9573C14.0589 11.8605 14.0565 11.7783 14.0538 11.7086C14.0408 11.5996 14.0278 11.524 14.016 11.4584C14.0108 11.4304 14.0059 11.4043 14.0003 11.378C13.9827 11.2949 13.9675 11.1905 13.9471 11.0807C13.923 10.9496 13.8912 10.8105 13.8497 10.7036C13.8657 10.4181 13.8685 10.103 13.8625 9.76757C13.8597 9.59539 13.9608 9.40659 14.1522 9.24827C14.3437 9.08973 14.6085 8.97802 14.8936 8.93657C15.1788 8.89496 15.4639 8.92312 15.6933 9.0126C15.9225 9.10224 16.0767 9.24895 16.1267 9.42593C16.2265 9.7819 16.325 10.1587 16.3885 10.5677C16.4646 11.0643 16.4915 11.6188 16.365 12.2054C16.3643 12.2087 16.3636 12.2119 16.3629 12.2152C16.2881 12.5497 16.2008 12.8678 16.0624 13.2282C16.0477 13.266 16.0322 13.3042 16.0157 13.3436C16.0082 13.3894 15.9993 13.4365 15.9884 13.4854C15.8784 13.8984 15.6969 14.2108 15.5502 14.4078C15.4112 14.5924 15.2695 14.6709 15.1514 14.7331C15.0681 14.7771 15.0009 14.8075 14.9431 14.8582C14.9129 14.8847 14.8699 14.9242 14.8223 14.9668C14.6225 15.1479 14.2764 15.416 13.9154 15.5312C13.7547 15.5838 13.559 15.6153 13.377 15.6379C13.1135 15.6721 12.8756 15.6896 12.7795 15.7552C12.6093 15.8715 12.3818 15.9222 12.1827 15.9617C11.9923 15.9998 11.827 16.0286 11.7523 16.1041C11.663 16.1944 11.5632 16.2023 11.4165 16.2119C11.3139 16.2187 11.1907 16.2257 11.0283 16.2604C10.8425 16.2997 10.7011 16.2961 10.5834 16.2918C10.4152 16.2861 10.2936 16.2795 10.1327 16.3861C9.9575 16.5037 9.76053 16.5946 9.59227 16.6046C9.51751 16.6088 9.43124 16.6283 9.34319 16.6473C9.22958 16.672 9.10025 16.6981 8.98396 16.6895C8.8829 16.6833 8.80062 16.6387 8.72269 16.5994C8.69842 16.5871 8.6754 16.5753 8.65351 16.565C8.57847 16.5755 8.50244 16.5856 8.42436 16.5953C8.4128 16.6056 8.40073 16.6168 8.38815 16.6284C8.32803 16.6862 8.23931 16.7579 8.12993 16.7957C8.07421 16.8139 8.02107 16.8237 7.96982 16.8274C7.86219 16.8358 7.76083 16.8147 7.65646 16.7917C7.54049 16.7661 7.42099 16.7384 7.28316 16.7453C7.189 16.7501 7.08148 16.77 6.97387 16.7885C6.81415 16.8161 6.65396 16.8401 6.54499 16.8114C6.52307 16.8057 6.5034 16.7921 6.48485 16.775C6.46991 16.7603 6.45572 16.743 6.44157 16.7258C6.44144 16.7256 6.44131 16.7253 6.44118 16.7251C6.4391 16.7226 6.43701 16.7201 6.43493 16.7176C6.17937 16.7254 5.91608 16.7335 5.64381 16.7333C5.61948 16.7396 5.59482 16.7456 5.57028 16.7515C5.45043 16.7801 5.33114 16.8054 5.24703 16.8523C5.15611 16.9033 4.94239 16.9075 4.70669 16.896C4.55255 16.8888 4.38927 16.8747 4.24913 16.8708C4.16711 16.8687 4.10448 16.8113 4.04217 16.7512C3.98377 16.695 3.92562 16.6366 3.84542 16.6156C3.8052 16.605 3.75794 16.6026 3.70696 16.599C3.70114 16.5986 3.69527 16.5982 3.68936 16.5977C3.65376 16.5964 3.61673 16.5942 3.58026 16.5873C3.54136 16.5799 3.47019 16.528 3.37844 16.4582C3.32301 16.4157 3.25778 16.3654 3.18992 16.3157C2.98195 16.2377 2.7721 16.147 2.5621 16.0379C2.50311 16.0381 2.44436 16.049 2.38615 16.0738C2.34428 16.0915 2.30165 16.1175 2.25648 16.1428C2.19532 16.1775 2.13137 16.2126 2.06413 16.2287C2.01148 16.2411 1.96798 16.2296 1.95445 16.1986C1.94827 16.1843 1.94882 16.1662 1.94935 16.1499C1.94997 16.1312 1.95058 16.1146 1.9411 16.1079C1.93424 16.1031 1.92074 16.1065 1.90421 16.1105C1.87784 16.1168 1.8434 16.1246 1.81583 16.1042C1.71223 16.0276 1.60413 15.9255 1.50211 15.8198C1.38803 15.702 1.28202 15.5802 1.18955 15.4903C1.08489 15.3893 0.981838 15.2037 0.895961 15.0156C0.835541 14.8844 0.782609 14.7525 0.731315 14.6462C0.680677 14.5416 0.603267 14.4497 0.531204 14.3588C0.444487 14.2495 0.365872 14.1419 0.354419 14.0282C0.352196 14.0054 0.381457 13.963 0.418811 13.9109C0.445284 13.874 0.47579 13.832 0.502178 13.7885C0.452961 13.6685 0.409964 13.5479 0.372151 13.4273C0.365091 13.425 0.357931 13.4228 0.350624 13.4205C0.350466 13.4204 0.350308 13.4204 0.35015 13.4204C0.185826 13.3699 -0.0422336 13.2849 0.0143819 13.0651C0.0289951 13.0099 0.0725248 12.9662 0.111837 12.9272C0.15042 12.8887 0.185295 12.8553 0.185389 12.82C0.185462 12.7798 0.1462 12.7423 0.103673 12.7004C0.0442729 12.643 -0.0216198 12.5774 0.00650632 12.4909C0.00845096 12.4851 0.0106132 12.4789 0.0127364 12.4724C0.0329318 12.4116 0.0628722 12.319 0.142953 12.2222C0.132046 12.0988 0.124543 11.9776 0.119106 11.8551C0.11347 11.7378 0.110617 11.6209 0.110232 11.5044C0.108911 11.1016 0.137081 10.7051 0.181703 10.3168C0.203695 10.1276 0.332 9.9445 0.542738 9.81343C0.753784 9.68192 1.02757 9.61276 1.31025 9.6129C1.59305 9.61304 1.86591 9.68083 2.08007 9.79292C2.29398 9.90541 2.43035 10.0525 2.46895 10.2072C2.53122 10.4598 2.60179 10.7063 2.6773 10.9453C2.68468 10.9574 2.6919 10.9696 2.69878 10.9817C2.75001 11.0718 2.84117 11.1479 2.93316 11.2206C2.95429 11.2373 2.97552 11.2538 2.99628 11.2704Z" fill="white"/>
<path d="M12.6798 18.3214C12.5382 18.1922 12.2385 18.2117 12.0716 18.2217C12.0685 18.2219 12.0654 18.222 12.0623 18.2221C12.0233 18.2246 11.9865 18.2226 11.943 18.2202C11.8389 18.2143 11.7002 18.2065 11.4004 18.2517C11.3155 18.2406 11.2305 18.2309 11.1451 18.2226C10.3171 18.1475 9.55151 18.1286 8.58042 18.2021C8.50382 18.2086 8.42828 18.2164 8.33598 18.2292C8.22317 18.2512 8.16775 18.2324 7.83239 18.3538C7.76479 18.3809 7.62712 18.4337 7.46145 18.5749C7.34576 18.6766 7.22082 18.8151 7.12864 19.043C7.03069 19.2794 7.02959 19.5629 7.07184 19.7396C7.17263 20.1272 7.29443 20.2146 7.35772 20.3014C7.50114 20.4585 7.56511 20.4944 7.62429 20.5403C7.73578 20.6196 7.79964 20.6554 7.84949 20.6854C7.88687 20.7044 7.96083 20.7606 7.83356 20.6634C7.80976 20.643 7.79262 20.6306 7.73546 20.5711C7.68628 20.5063 7.60493 20.4677 7.48316 20.1449C7.43598 20.0159 7.37919 19.6942 7.49342 19.3907C7.6202 19.0652 7.76894 18.9516 7.88987 18.8537C8.16595 18.6685 8.2007 18.6953 8.28471 18.6648C8.50763 18.6194 8.48297 18.6432 8.50952 18.6418C8.48507 18.6451 8.46088 18.6493 8.43749 18.6542C8.19449 18.7093 8.03865 18.7627 7.91063 18.808C7.17366 18.9146 6.44638 19.0173 5.72421 19.0593C5.49859 19.0722 5.27137 19.0794 5.05991 19.0751C4.97537 19.0741 4.84116 19.0652 4.8525 19.0637C4.76255 19.0483 4.67306 19.0282 4.62853 19.0118C4.6235 19.0095 4.5612 18.921 4.79868 19.0762C4.85144 19.1213 5.00237 19.2433 5.05827 19.527C5.1118 19.8295 4.97953 20.056 4.92117 20.1366C4.79172 20.3034 4.7711 20.2953 4.76138 20.3159C4.75529 20.328 4.76856 20.3287 4.81469 20.3113C4.84282 20.2979 4.86231 20.2982 4.97093 20.2212C5.00192 20.1976 5.04749 20.1622 5.10648 20.096C5.16925 19.9891 5.36595 19.895 5.32029 19.3389C5.27252 19.0791 5.14959 18.9325 5.0625 18.8436C4.97339 18.7538 4.87136 18.6964 4.83693 18.6786C4.7534 18.6351 4.69466 18.6168 4.64768 18.6029C4.6231 18.5936 4.60865 18.5876 4.60509 18.5842C4.61457 18.5869 4.56832 18.5601 4.7264 18.6202C4.74796 18.6299 4.7922 18.6484 4.86228 18.6945C4.8882 18.712 4.9692 18.766 5.05222 18.8637C5.10679 18.9171 5.33967 19.2483 5.25446 19.6421C5.17858 19.9809 5.00726 20.1175 4.90778 20.1994C4.84106 20.2499 4.79252 20.2756 4.75175 20.2959C4.6615 20.3378 4.65276 20.337 4.61941 20.3486C4.52537 20.3762 4.51997 20.3738 4.50076 20.3787C4.47552 20.3844 4.4747 20.386 4.47415 20.388C4.47904 20.395 4.51542 20.3988 4.54326 20.4013C4.60538 20.4063 4.67798 20.4067 4.75176 20.4037C4.94258 20.3963 5.15642 20.365 5.319 20.3397C5.35604 20.3341 5.39152 20.3287 5.42335 20.3241C5.60377 20.338 5.78507 20.3531 5.96595 20.3686C5.9778 20.3588 5.98977 20.3486 6.00197 20.3382C6.155 20.2079 6.34457 20.2076 6.64358 20.2068C6.77365 20.2064 6.92472 20.2059 7.10242 20.1944C7.21706 20.187 7.27475 20.1353 7.32284 20.093C7.33687 20.0806 7.34997 20.0689 7.36321 20.0595C7.40791 20.0272 7.45859 20.0608 7.51556 20.1005C7.59155 20.1519 7.68136 20.2137 7.79905 20.1549C8.00363 20.0525 8.14558 20.0413 8.25585 20.0667C8.33459 20.0883 8.3898 20.1372 8.43743 20.1802C8.46754 20.2081 8.49533 20.2336 8.52279 20.2483C8.61301 20.2958 8.74503 20.2612 8.85651 20.2123C8.94411 20.1728 9.10876 20.242 9.23866 20.3222C9.28758 20.3524 9.35931 20.3636 9.44792 20.3767C9.53964 20.3903 9.64926 20.4059 9.76953 20.4453C10.0759 20.5445 10.26 20.5802 10.4023 20.6076C10.4286 20.6125 10.4541 20.617 10.4794 20.6213C10.4934 20.6237 10.5071 20.626 10.5208 20.6283C10.6424 20.6487 10.7992 20.6614 10.9716 20.6617C11.1752 20.6639 11.4084 20.6389 11.5488 20.6333C11.8321 20.5389 11.7629 20.5231 11.9095 20.4932C11.9772 20.4874 12.0446 20.4816 12.1117 20.476C12.2621 20.4631 12.4072 20.3597 12.5139 20.1846C12.6167 20.0089 12.7011 19.7796 12.7298 19.534C12.7575 19.2889 12.7236 19.0436 12.6136 18.852C12.5065 18.6608 12.3571 18.5421 12.2009 18.5153C12.131 18.5034 12.0618 18.4918 11.9926 18.4804C11.6736 18.4202 11.1667 18.5013 11.0072 18.5225C10.8258 18.5397 10.6857 18.5313 10.4759 18.5222C10.3806 18.5174 10.2863 18.5112 10.1891 18.5042C9.97851 18.4895 9.74923 18.4608 9.4742 18.4316C9.44602 18.4287 9.41743 18.4259 9.38843 18.423C9.16289 18.3295 8.90167 18.2469 8.71233 18.2177C8.55527 18.1929 8.43765 18.224 8.33999 18.2521C8.29446 18.265 8.25431 18.2773 8.21341 18.2839C8.19799 18.2871 8.18228 18.2888 8.16605 18.2882C8.1392 18.2874 8.10505 18.2844 8.06133 18.2807C7.88585 18.2659 7.58308 18.2394 7.30788 18.3022C7.18552 18.3301 7.04332 18.3838 6.90773 18.4349C6.71358 18.508 6.53219 18.576 6.44009 18.5567C6.27836 18.5227 6.09347 18.5548 5.93002 18.5832C5.77464 18.6103 5.63697 18.634 5.55931 18.5936C5.46564 18.5454 5.38724 18.5663 5.26907 18.5973C5.18629 18.6189 5.08755 18.6451 4.94932 18.6571C4.85834 18.6651 4.7837 18.6804 4.71479 18.6983C4.66435 18.7116 4.61968 18.7262 4.57775 18.7399C4.51621 18.7598 4.4628 18.7775 4.39802 18.7888C4.35674 18.7964 4.35629 18.7922 4.22934 18.8119C4.2015 18.8191 4.18871 18.814 4.08059 18.8578C4.04168 18.8766 4.00885 18.8873 3.92406 18.9545C3.87095 18.9992 3.80043 19.069 3.74528 19.1877C3.68956 19.2853 3.66191 19.5332 3.71938 19.6717C3.83866 19.953 3.90656 19.9453 3.96188 20.0001C3.9999 20.0272 4.02752 20.0422 4.04988 20.0537C4.17862 20.1132 4.16928 20.1006 4.19441 20.1111C4.22632 20.1218 4.23638 20.1271 4.23559 20.1311C4.18755 20.1133 4.17761 20.1347 4.01335 20.0247C3.93498 19.959 3.81125 19.8673 3.75826 19.5995C3.72489 19.3378 3.81089 19.2121 3.8503 19.1395C4.02093 18.9103 4.01355 18.9678 4.03446 18.9374C4.0648 18.9022 3.98641 18.9253 3.89617 18.9682C3.84621 18.9956 3.78482 19.0223 3.67851 19.1341C3.62777 19.1919 3.55459 19.2775 3.50336 19.4475C3.44937 19.6109 3.4729 19.858 3.54643 20.0021C3.69573 20.2877 3.81344 20.3239 3.87991 20.3773C3.95075 20.4223 4.00109 20.445 4.0409 20.4622C4.12507 20.4975 4.17974 20.5111 4.23382 20.5207C4.32621 20.5358 4.41485 20.556 4.50168 20.5737C4.54055 20.5816 4.57641 20.5885 4.61687 20.5948C4.76316 20.615 4.8216 20.61 4.89853 20.5989C4.98962 20.5835 5.05644 20.5366 5.11653 20.495C5.1354 20.482 5.15465 20.4696 5.17078 20.4587C5.23417 20.4599 5.29766 20.4611 5.36174 20.4625C5.3723 20.4703 5.38313 20.4788 5.394 20.4876C5.44933 20.5319 5.51942 20.5859 5.60513 20.6124C5.73968 20.6542 5.859 20.626 5.98157 20.5959C6.07846 20.5724 6.17775 20.5477 6.29242 20.554C6.37094 20.5583 6.4602 20.5763 6.54848 20.594C6.67998 20.6203 6.8095 20.6461 6.89868 20.6262C6.93199 20.6187 6.96031 20.588 6.98825 20.5574C6.98838 20.5573 6.9885 20.5571 6.98862 20.5569C6.99052 20.5548 6.99242 20.5528 6.99432 20.5507C7.21275 20.5691 7.43113 20.5896 7.64795 20.6119C7.66654 20.6192 7.68644 20.6265 7.70537 20.6336C7.79731 20.6685 7.88737 20.7025 7.94626 20.7521C8.00949 20.8059 8.16927 20.8348 8.32993 20.8669C8.39017 20.8789 8.45248 20.8914 8.50368 20.9059C8.57216 20.9088 8.61705 20.9237 8.81138 20.8922C8.87476 20.8795 8.95265 20.8609 9.05729 20.8149C9.13706 20.7786 9.23674 20.7245 9.34605 20.6279C9.40039 20.5797 9.45661 20.5204 9.50885 20.4489C9.57131 20.3645 9.63596 20.2447 9.67375 20.1233C9.81972 19.5582 9.62778 19.3205 9.55635 19.1735C9.47422 19.0434 9.43403 19.0053 9.38883 18.9555C9.2005 18.7693 9.17625 18.7809 9.11786 18.7505C9.07007 18.7322 9.03185 18.7285 8.99868 18.7278C8.93815 18.7275 8.88688 18.7328 8.88606 18.723C8.88902 18.7218 8.89633 18.7049 8.973 18.7545C9.00824 18.7834 9.05632 18.8022 9.16369 18.9681C9.2071 19.0393 9.28782 19.1916 9.30506 19.4155C9.33354 19.6473 9.2216 19.9748 9.10469 20.1181C8.83739 20.4529 8.64939 20.4612 8.57404 20.4872C8.49782 20.5013 8.4821 20.4897 8.48389 20.4794C8.48784 20.4655 8.52008 20.4487 8.56129 20.4361C8.56678 20.437 8.57251 20.438 8.57848 20.4389C8.68962 20.4574 8.83394 20.4817 8.97481 20.5065C9.00433 20.5355 9.02858 20.5724 9.04754 20.619C9.06103 20.6525 9.07192 20.6922 9.08318 20.7327C9.09906 20.788 9.11314 20.845 9.13625 20.8912C9.1542 20.9274 9.17762 20.943 9.1953 20.9298C9.20353 20.9236 9.21043 20.9113 9.21672 20.9003C9.22392 20.8876 9.23039 20.8763 9.2372 20.8772C9.24189 20.8778 9.24611 20.8875 9.25132 20.8992C9.25966 20.9178 9.27051 20.942 9.28987 20.9443C9.36296 20.9529 9.44558 20.952 9.52952 20.9515C9.62053 20.9508 9.71321 20.9508 9.78307 20.9638C9.86317 20.9787 9.98057 20.9544 10.1002 20.9307C10.1824 20.914 10.267 20.8978 10.3369 20.8945C10.406 20.8914 10.4758 20.9172 10.5428 20.9424C10.6237 20.9726 10.7014 21.0018 10.7722 20.9782C10.7866 20.9734 10.8073 20.9377 10.8332 20.893C10.8516 20.8614 10.8728 20.8252 10.8961 20.7922C10.9827 20.8006 11.0696 20.8075 11.1568 20.8132C11.1593 20.8185 11.162 20.824 11.1646 20.8296C11.1647 20.8297 11.1647 20.8298 11.1647 20.8299C11.2242 20.9557 11.3064 21.1278 11.4534 21.0442C11.4909 21.023 11.5174 20.9796 11.5412 20.9406C11.5646 20.9022 11.5854 20.8679 11.6115 20.8628C11.6412 20.857 11.6736 20.8851 11.7083 20.9155C11.7571 20.9583 11.8113 21.0061 11.8746 20.9726C11.8789 20.9703 11.8835 20.9677 11.8883 20.9652C11.9338 20.9414 12.0004 20.906 12.0721 20.8289C12.2615 20.8244 12.451 20.8156 12.6446 20.8035C12.9292 20.7849 13.18 20.7659 13.5408 20.7231C13.5843 20.7154 13.6266 20.7077 13.6687 20.7C13.8198 20.6724 13.9636 20.5577 14.0692 20.3749C14.1747 20.1919 14.2333 19.9572 14.2313 19.7149C14.2301 19.4725 14.1686 19.2388 14.0607 19.0571C13.9528 18.8757 13.8075 18.763 13.6561 18.7373C13.6138 18.7301 13.5715 18.7229 13.5279 18.7158C13.4216 18.6805 13.206 18.6305 13.0205 18.5828C13.0082 18.5768 12.996 18.5709 12.9846 18.5654C12.8965 18.5242 12.8166 18.4489 12.7347 18.3731C12.7161 18.3557 12.6984 18.3384 12.6798 18.3214Z" fill="white"/>
<path d="M9.46608 16.1196C9.58437 16.136 9.54341 16.205 9.52032 16.2368C9.51995 16.2374 9.51958 16.238 9.51921 16.2386C9.5138 16.2467 9.5129 16.254 9.51198 16.2627C9.50971 16.2824 9.50712 16.3144 9.43872 16.376C9.44303 16.3921 9.44612 16.4087 9.44777 16.4256C9.46524 16.6057 9.38656 16.7946 9.28893 16.9859C9.28974 16.9881 9.29058 16.9904 9.29142 16.9926C9.30772 17.0365 9.328 17.0919 9.28917 17.1305C9.23985 17.1802 9.19306 17.2156 9.15255 17.245C9.07373 17.3962 9.00491 17.5479 8.98455 17.6938C8.97817 17.7396 8.97666 17.7851 8.98101 17.8299C8.98501 17.8711 8.99269 17.912 9.00358 17.9525C9.03107 17.9741 9.06319 17.9941 9.09294 18.0126C9.13474 18.0386 9.17187 18.0617 9.18526 18.0824C9.21751 18.1322 9.18051 18.1969 9.15293 18.244C9.14842 18.2518 9.14416 18.2591 9.1405 18.2658C9.15967 18.2991 9.18007 18.3336 9.20074 18.367C9.19136 18.3703 9.18158 18.3736 9.17154 18.3771C9.04633 18.4197 9.05148 18.4556 9.0596 18.5145C9.06311 18.5398 9.06708 18.5691 9.06113 18.6042C9.05726 18.6264 9.00764 18.6436 8.96709 18.657C8.95517 18.661 8.94402 18.6647 8.93507 18.6682C8.90439 18.6803 8.93942 18.6865 8.98079 18.6938C9.03445 18.7033 9.09891 18.7145 9.0444 18.7427C8.87072 18.8323 8.9966 18.8545 9.09164 18.8693C9.11953 18.8737 9.14473 18.8777 9.15901 18.8829C9.20529 18.8995 9.16446 18.9349 9.10656 18.9643C9.06065 18.9875 9.11152 19.0196 9.17434 19.0409C9.19806 19.0486 9.20008 19.0634 9.20229 19.0805C9.20457 19.0982 9.20705 19.1184 9.23464 19.1371C9.30421 19.1828 9.3386 19.2118 9.36582 19.232C9.3736 19.2379 9.38069 19.2434 9.38805 19.2487C9.41132 19.2657 9.43121 19.2872 9.45152 19.3112C9.47575 19.3393 9.50012 19.3654 9.53114 19.3848C9.50649 19.4487 9.47441 19.5113 9.44211 19.5706C9.42591 19.6074 9.3176 19.6384 9.13838 19.6826C8.95861 19.7225 8.72223 19.7544 8.47638 19.7784C8.2305 19.8021 7.99242 19.8163 7.80831 19.8117C7.62393 19.8028 7.51151 19.7932 7.48854 19.7602C7.44391 19.7063 7.39895 19.6492 7.36173 19.589C7.31695 19.5216 7.28364 19.4498 7.27629 19.374C7.27147 19.3244 7.27213 19.2702 7.27771 19.2181C7.27829 19.2128 7.27898 19.2074 7.27965 19.2021C7.215 19.1656 7.15553 19.1256 7.13301 19.0976C7.11441 19.0745 7.14495 19.0531 7.17106 19.0347C7.18902 19.0221 7.20492 19.0108 7.20129 19.0013C7.19934 18.9962 7.19491 18.9894 7.18958 18.9811C7.16776 18.9468 7.13112 18.8926 7.18482 18.8316C7.20864 18.8043 7.25766 18.7721 7.30441 18.7407C7.37127 18.696 7.43354 18.6537 7.41158 18.6375C7.37298 18.6089 7.39961 18.5708 7.42308 18.5361C7.44549 18.5032 7.46503 18.4742 7.42259 18.4628C7.37185 18.4492 7.39035 18.4323 7.41767 18.4064C7.43663 18.3886 7.45975 18.3667 7.46724 18.3391C7.47589 18.3072 7.50805 18.2818 7.53543 18.2607C7.57397 18.2309 7.60294 18.2084 7.54334 18.1848C7.47713 18.1586 7.43369 18.1286 7.45103 18.1C7.45894 18.087 7.45539 18.0734 7.45167 18.0592C7.44675 18.0404 7.44164 18.0206 7.46249 18.0001C7.47968 17.9832 7.52619 17.966 7.56736 17.9509C7.5802 17.9461 7.59246 17.9416 7.60321 17.9373C7.60143 17.9253 7.59936 17.9134 7.59678 17.9015C7.58891 17.9003 7.5802 17.899 7.57122 17.8977C7.52612 17.8913 7.4708 17.8833 7.44228 17.8696C7.39716 17.8478 7.42164 17.8226 7.44764 17.7959C7.46789 17.7752 7.48902 17.7536 7.4786 17.7321C7.4715 17.7174 7.45031 17.702 7.42932 17.6868C7.39815 17.6641 7.36746 17.6418 7.38374 17.6227C7.38983 17.6156 7.41927 17.6071 7.44855 17.5987C7.44873 17.5986 7.44891 17.5986 7.44909 17.5985C7.45108 17.598 7.45301 17.5974 7.45499 17.5968C7.42801 17.5564 7.39869 17.5161 7.36806 17.4764C7.36001 17.4735 7.35205 17.4706 7.34421 17.4676C7.30592 17.4532 7.26875 17.4395 7.2172 17.4327C7.16134 17.4255 7.12652 17.3973 7.08985 17.3678C7.06583 17.3485 7.04103 17.3287 7.00899 17.3137C6.99027 17.3051 7.02016 17.2919 7.05099 17.2783C7.07976 17.2657 7.10928 17.2527 7.10069 17.2426C7.09637 17.2375 7.08301 17.2328 7.06872 17.2279C7.05615 17.2236 7.04282 17.219 7.03441 17.2137C7.02662 17.2087 7.04222 17.1945 7.06207 17.1764C7.07434 17.1652 7.08819 17.1526 7.09935 17.1397C7.07704 17.11 7.05546 17.0796 7.03527 17.05C7.00755 17.0461 6.97186 17.0438 6.9263 17.0437C6.89362 17.0436 6.85466 17.0447 6.81483 17.0457C6.76062 17.0471 6.70461 17.0486 6.65973 17.0475C6.62465 17.0466 6.61036 17.043 6.62443 17.0382C6.63099 17.036 6.64352 17.0336 6.65486 17.0314C6.66784 17.0289 6.67939 17.0267 6.67892 17.0254C6.67856 17.0244 6.66918 17.0243 6.65783 17.0242C6.6397 17.0239 6.61629 17.0236 6.61507 17.0195C6.61052 17.0045 6.61625 16.9865 6.62194 16.969C6.62827 16.9496 6.63441 16.9308 6.62612 16.9173C6.6168 16.9019 6.64916 16.8769 6.68116 16.8494C6.70353 16.8306 6.72579 16.8121 6.73424 16.7973C6.74251 16.7828 6.7221 16.7707 6.7022 16.7591C6.67832 16.7452 6.65529 16.7322 6.68413 16.7151C6.69 16.7118 6.72701 16.7047 6.77332 16.6958C6.80615 16.6896 6.84367 16.6824 6.87819 16.675C6.87651 16.6577 6.87639 16.6405 6.8776 16.6234C6.87247 16.6233 6.86726 16.6232 6.86193 16.6231C6.86181 16.6231 6.86168 16.6231 6.86156 16.6231C6.74134 16.6205 6.57711 16.6192 6.67131 16.5812C6.69529 16.5717 6.7404 16.5629 6.781 16.555C6.82087 16.5472 6.85655 16.5403 6.86363 16.5345C6.87166 16.528 6.84629 16.5237 6.81872 16.5191C6.78 16.5126 6.73675 16.5055 6.77493 16.4906C6.77754 16.4896 6.7804 16.4885 6.78326 16.4874C6.81045 16.477 6.8505 16.4601 6.9324 16.4393C6.95083 16.3985 6.97382 16.365 6.99833 16.3226C7.03969 16.2569 7.08798 16.1936 7.13574 16.1252C7.15974 16.0967 7.26978 16.0531 7.44911 16.0161C7.5386 15.9944 7.64186 15.98 7.75237 15.9628C7.80747 15.9525 7.86477 15.9454 7.92333 15.9391C7.95261 15.9359 7.98221 15.933 8.01202 15.9301C8.02693 15.9286 8.04189 15.9271 8.05689 15.9257C8.05701 15.9257 8.05713 15.9257 8.05725 15.9256C8.0573 15.9256 8.05736 15.9256 8.05742 15.9256C8.05743 15.9256 8.05744 15.9256 8.05744 15.9256C8.05745 15.9256 8.05745 15.9256 8.05745 15.9256C8.05745 15.9256 8.05745 15.9256 8.05745 15.9256C8.05745 15.9256 8.05745 15.9256 8.05745 15.9256C8.05745 15.9256 8.05745 15.9256 8.05745 15.9256C8.05745 15.9256 8.05745 15.9256 8.05745 15.9256C7.88084 15.9428 8.00168 15.931 7.9738 15.9337C7.9738 15.9337 7.9738 15.9337 7.9738 15.9337C7.9738 15.9337 7.9738 15.9337 7.9738 15.9337C7.9738 15.9337 7.9738 15.9337 7.9738 15.9337C7.9738 15.9337 7.9738 15.9337 7.9738 15.9337C7.9738 15.9337 7.9738 15.9337 7.9738 15.9337C7.9738 15.9337 7.9738 15.9337 7.9738 15.9337C7.97379 15.9337 7.97379 15.9337 7.97378 15.9337C7.97377 15.9337 7.97375 15.9338 7.97374 15.9338C7.97371 15.9338 7.97368 15.9338 7.97365 15.9338C7.97342 15.9338 7.97318 15.9338 7.97295 15.9338C7.97248 15.9339 7.97201 15.9339 7.97154 15.934C7.9706 15.9341 7.96967 15.9341 7.96873 15.9342C7.96685 15.9344 7.96497 15.9346 7.9631 15.9348C7.95934 15.9352 7.95558 15.9355 7.95182 15.9359C7.9443 15.9366 7.93677 15.9373 7.92923 15.9381C7.92169 15.9388 7.91416 15.9395 7.90664 15.9403C7.90288 15.9406 7.89912 15.941 7.89537 15.9414C7.89349 15.9415 7.89161 15.9417 7.88974 15.9419C7.8888 15.942 7.88786 15.9421 7.88692 15.9422C7.88645 15.9422 7.88598 15.9423 7.88551 15.9423C7.88528 15.9423 7.88505 15.9424 7.88481 15.9424C7.88478 15.9424 7.88475 15.9424 7.88472 15.9424C7.88472 15.9424 7.88472 15.9424 7.88472 15.9424C7.88472 15.9424 7.88472 15.9424 7.88472 15.9424C7.88472 15.9424 7.88472 15.9424 7.88472 15.9424C7.88472 15.9424 7.88472 15.9424 7.88472 15.9424C7.88472 15.9424 7.88472 15.9424 7.88472 15.9424C7.88472 15.9424 7.88472 15.9424 7.88472 15.9424C7.88472 15.9424 7.88472 15.9424 7.88472 15.9424C7.88472 15.9424 7.88472 15.9424 7.88472 15.9424C7.88472 15.9424 7.88472 15.9424 7.88472 15.9424C7.97199 15.9339 7.59382 15.9706 8.14653 15.917C8.14653 15.917 8.14653 15.917 8.14653 15.917C8.14653 15.917 8.14654 15.917 8.14654 15.917C8.14654 15.917 8.14654 15.917 8.14655 15.917C8.14656 15.917 8.14656 15.917 8.14657 15.917C8.14658 15.917 8.1466 15.917 8.14661 15.917C8.14667 15.917 8.14673 15.917 8.14679 15.917C8.14691 15.9169 8.14702 15.9169 8.14714 15.9169C8.16214 15.9155 8.1771 15.914 8.19201 15.9126C8.22183 15.9097 8.25143 15.9069 8.28077 15.9044C8.33944 15.8994 8.397 15.8953 8.45303 15.8948C8.56476 15.8905 8.6688 15.8847 8.76079 15.8888C8.9439 15.8906 9.06025 15.9122 9.0893 15.9356C9.1371 15.9835 9.18436 16.0251 9.22836 16.068C9.2336 16.07 9.23869 16.072 9.24347 16.0741C9.27907 16.0893 9.34871 16.1006 9.4185 16.1127C9.4345 16.1151 9.4505 16.1172 9.46608 16.1196ZM6.96943 19.905C6.85235 19.9011 6.89673 19.8673 6.92106 19.8482C6.92146 19.8479 6.92185 19.8476 6.92225 19.8472C6.92801 19.8427 6.9292 19.8384 6.93056 19.8343C6.93377 19.8243 6.93807 19.81 7.00896 19.774C7.00546 19.7661 7.00318 19.758 7.00237 19.7497C6.99363 19.6596 7.08106 19.5607 7.18745 19.4597C7.18675 19.4587 7.18603 19.4576 7.1853 19.4565C7.17118 19.4351 7.15371 19.4087 7.19419 19.387C7.24567 19.3596 7.29396 19.3396 7.33569 19.3229C7.4214 19.2426 7.49722 19.163 7.52452 19.0885C7.53311 19.0656 7.53687 19.0434 7.53458 19.0198C7.53375 19.0112 7.53152 18.9977 7.52896 18.9899C7.52741 18.9832 7.526 18.9802 7.52405 18.9738C7.52393 18.9734 7.52382 18.9731 7.52372 18.9729C7.52367 18.9728 7.52362 18.9728 7.52357 18.9727C7.52355 18.9727 7.52353 18.9727 7.5235 18.9727C7.52349 18.9727 7.52348 18.9727 7.52347 18.9727C7.52347 18.9727 7.52347 18.9727 7.52346 18.9727C7.52346 18.9727 7.52346 18.9727 7.52346 18.9727C7.52346 18.9727 7.52346 18.9727 7.52346 18.9727C7.52346 18.9727 7.52346 18.9727 7.52346 18.9727C7.52346 18.9727 7.52346 18.9727 7.52346 18.9727C7.52346 18.9727 7.52346 18.9727 7.52346 18.9727C7.52346 18.9727 7.52346 18.9727 7.52346 18.9727C7.52346 18.9727 7.52346 18.9727 7.52346 18.9727C7.52346 18.9727 7.52346 18.9727 7.52346 18.9727C6.65661 19.0568 9.95063 18.7371 9.08378 18.8212C9.08378 18.8212 9.08378 18.8212 9.08378 18.8212C9.08378 18.8212 9.08378 18.8212 9.08378 18.8212C9.08378 18.8212 9.08378 18.8212 9.08378 18.8212C9.08378 18.8212 9.08378 18.8212 9.08378 18.8212C9.08378 18.8212 9.08378 18.8212 9.08378 18.8212C9.08378 18.8212 9.08378 18.8212 9.08378 18.8212C9.08378 18.8212 9.08378 18.8212 9.08378 18.8212C9.08378 18.8212 9.08378 18.8212 9.08378 18.8212C9.08379 18.8212 9.0838 18.8212 9.0838 18.8212C9.08398 18.8213 9.08417 18.8215 9.08439 18.8219C9.08482 18.8226 9.08533 18.824 9.08592 18.8262C9.08697 18.8291 9.08789 18.8302 9.08901 18.8327C9.11565 18.8455 9.14614 18.8488 9.17511 18.8592C9.21548 18.8705 9.25113 18.8784 9.26363 18.8899C9.26575 18.8918 9.26753 18.8938 9.26899 18.8958C9.2879 18.9199 9.25129 18.9496 9.22376 18.9738C9.2189 18.9779 9.21431 18.9818 9.21035 18.9854C9.2278 19.0011 9.24643 19.0174 9.2654 19.0333C9.25591 19.0354 9.24601 19.0375 9.23586 19.0397C9.10911 19.0665 9.11266 19.0859 9.11778 19.1139C9.12007 19.1268 9.12263 19.1414 9.11499 19.1592C9.11013 19.1711 9.05987 19.1818 9.01887 19.1905C9.00681 19.193 8.99554 19.1954 8.98645 19.1976C8.95532 19.2051 8.98988 19.2064 9.03068 19.2079C9.08365 19.2101 9.14728 19.213 9.09168 19.2298C8.91454 19.2838 9.03863 19.2875 9.13258 19.291C9.16012 19.292 9.18501 19.2928 9.19898 19.2948C9.24423 19.3007 9.20194 19.321 9.14284 19.338C9.09597 19.3514 9.14511 19.3657 9.20662 19.3735C9.2299 19.3767 9.23117 19.3838 9.23251 19.3919C9.23388 19.4002 9.23543 19.4108 9.26197 19.4187C9.32914 19.4397 9.36182 19.4511 9.38794 19.4599C9.3954 19.4626 9.40221 19.4651 9.40928 19.4675C9.43162 19.4749 9.45047 19.4856 9.46942 19.4957C9.49217 19.5085 9.51522 19.5211 9.54518 19.5294C9.51747 19.5617 9.48248 19.5944 9.4476 19.6273C9.42947 19.6441 9.32059 19.6692 9.13982 19.6974C8.95891 19.7257 8.72225 19.7546 8.47638 19.7784C8.23052 19.8023 7.99272 19.8194 7.80974 19.8265C7.62692 19.8335 7.51507 19.8299 7.49404 19.8169C7.45208 19.7905 7.41012 19.7642 7.37607 19.7368C7.33467 19.7041 7.30495 19.6693 7.3014 19.6328C7.29887 19.6067 7.30232 19.5813 7.3103 19.5539C7.31114 19.5513 7.31209 19.5486 7.31301 19.5458C7.25037 19.53 7.19324 19.5141 7.1721 19.5005C7.15472 19.4898 7.18613 19.4774 7.21298 19.4667C7.23145 19.4592 7.24786 19.4532 7.24471 19.4487C7.24302 19.4462 7.23895 19.4431 7.23405 19.4392C7.21399 19.4231 7.18003 19.3966 7.23652 19.3642C7.26157 19.3497 7.31185 19.3304 7.35993 19.3127C7.42862 19.2868 7.49263 19.2625 7.47159 19.2558C7.43458 19.2436 7.46283 19.2223 7.48791 19.2041C7.51182 19.1865 7.53261 19.1704 7.49096 19.1673C7.44114 19.1631 7.46036 19.1536 7.48878 19.1391C7.5085 19.1291 7.53255 19.1167 7.54137 19.1028C7.55153 19.0866 7.58476 19.0723 7.61301 19.06C7.61655 19.0585 7.62002 19.057 7.62335 19.0555C7.65726 19.0391 7.67732 19.0274 7.62444 19.0204C7.55972 19.0096 7.51824 18.9997 7.53663 18.9819C7.54095 18.9793 7.5423 18.9753 7.54225 18.9718C7.54226 18.9715 7.54225 18.9712 7.54223 18.9711C7.54222 18.971 7.54221 18.971 7.5422 18.9709C7.54219 18.9709 7.54218 18.9709 7.54217 18.9709C7.54217 18.9709 7.54217 18.9709 7.54216 18.9709C7.54216 18.9709 7.54216 18.9709 7.54216 18.9709C7.54216 18.9709 7.54216 18.9709 7.54216 18.9709C7.54216 18.9709 7.54216 18.9709 7.54216 18.9709C7.54216 18.9709 7.54216 18.9709 7.54216 18.9709C7.54216 18.9709 7.54216 18.9709 7.54216 18.9709C7.54216 18.9709 7.54216 18.9709 7.54216 18.9709C7.54216 18.9709 7.54216 18.9709 7.54216 18.9709C7.54216 18.9709 7.54216 18.9709 7.54216 18.9709C7.54216 18.9709 7.54216 18.9709 7.54216 18.9709C7.54216 18.9709 7.54216 18.9709 7.54216 18.9709C7.54216 18.9709 7.54216 18.9709 7.54216 18.9709C7.54216 18.9709 7.54216 18.9709 7.54216 18.9709C7.54216 18.9709 7.54216 18.9709 7.54216 18.9709C10.7572 18.6588 8.55744 18.8723 9.06508 18.8231C9.06508 18.8231 9.06508 18.8231 9.06508 18.8231C9.06508 18.8231 9.06508 18.8231 9.06508 18.8231C9.06508 18.8231 9.06508 18.8231 9.06508 18.8231C9.06508 18.8231 9.06508 18.8231 9.06508 18.8231C9.06508 18.8231 9.06508 18.8231 9.06508 18.8231C9.06508 18.8231 9.06508 18.8231 9.06508 18.8231C9.06509 18.8231 9.06509 18.8231 9.0651 18.8231C9.06519 18.8232 9.06543 18.824 9.06578 18.8256C9.06646 18.8286 9.06704 18.8285 9.0678 18.8304C9.07199 18.8417 9.0758 18.848 9.05427 18.8616C9.0363 18.8704 8.98913 18.8808 8.94745 18.8907C8.93445 18.8938 8.92204 18.8967 8.91114 18.8995C8.91244 18.9066 8.91379 18.9111 8.91579 18.9171C8.92356 18.9173 8.93217 18.9174 8.94105 18.9176C8.98562 18.9186 9.04032 18.9202 9.06809 18.9263C9.11188 18.9342 9.08629 18.9481 9.05919 18.9634C9.03809 18.9754 9.01591 18.9862 9.02526 18.9967C9.03161 19.0037 9.05203 19.0111 9.07216 19.0175C9.10206 19.027 9.13153 19.0368 9.11443 19.0474C9.10802 19.0514 9.07833 19.0571 9.04879 19.0629C9.04861 19.0629 9.04842 19.0629 9.04824 19.063C9.04624 19.0634 9.04428 19.0638 9.04229 19.0641C9.06715 19.0827 9.0944 19.1017 9.12299 19.1204C9.13087 19.1215 9.13864 19.1226 9.1463 19.1236C9.18371 19.129 9.22007 19.1342 9.27104 19.1351C9.32628 19.1359 9.35959 19.1487 9.39466 19.1615C9.41763 19.17 9.44136 19.1789 9.47255 19.1851C9.49078 19.1886 9.46039 19.1968 9.42904 19.2049C9.39979 19.2126 9.36977 19.2205 9.37783 19.2251C9.38188 19.2275 9.39495 19.2291 9.40893 19.2309C9.42124 19.2325 9.43429 19.2342 9.4424 19.2364C9.44991 19.2386 9.4337 19.2465 9.41309 19.2566C9.40034 19.2629 9.38595 19.27 9.37424 19.2771C9.395 19.291 9.41498 19.3049 9.43366 19.3188C9.46105 19.3195 9.49648 19.319 9.54182 19.3168C9.57435 19.3153 9.61318 19.3129 9.65288 19.3105C9.7069 19.3072 9.76272 19.3038 9.80734 19.3023C9.84222 19.301 9.85627 19.3022 9.84204 19.3053C9.83541 19.3068 9.82282 19.3086 9.81143 19.3103C9.79839 19.3122 9.78679 19.3139 9.78719 19.3145C9.78751 19.315 9.79684 19.3146 9.80813 19.3141C9.82617 19.3134 9.84945 19.3125 9.85047 19.3144C9.85425 19.3215 9.84766 19.3307 9.84114 19.3396C9.83391 19.3498 9.8269 19.3596 9.83452 19.3661C9.84305 19.3734 9.80971 19.3882 9.77645 19.4028C9.75328 19.4133 9.73023 19.4238 9.72111 19.4317C9.71218 19.4394 9.73192 19.4445 9.75117 19.4494C9.77427 19.4553 9.79659 19.461 9.76704 19.4708C9.76104 19.4728 9.72385 19.4781 9.67733 19.4848C9.64436 19.4895 9.60666 19.4949 9.57195 19.5003C9.57278 19.5088 9.57207 19.5174 9.57003 19.526C9.57512 19.5258 9.58031 19.5256 9.58561 19.5254C9.58573 19.5253 9.58585 19.5253 9.58597 19.5253C9.70545 19.5203 9.86905 19.515 9.77335 19.5377C9.74903 19.5435 9.7037 19.5501 9.6629 19.556C9.62283 19.5617 9.58698 19.5669 9.57964 19.5701C9.57133 19.5736 9.59636 19.5745 9.62357 19.5753C9.66183 19.577 9.70457 19.5789 9.66587 19.5885C9.66323 19.5891 9.66033 19.5898 9.65743 19.5906C9.62991 19.5975 9.5892 19.6076 9.50664 19.6216C9.48617 19.6414 9.46198 19.6625 9.43538 19.6835C9.41324 19.7013 9.38942 19.719 9.3647 19.736C9.3523 19.7441 9.33989 19.7542 9.32721 19.7627C9.32411 19.7656 9.32093 19.7676 9.31767 19.7689C9.31727 19.7691 9.31684 19.7691 9.31646 19.7695C9.31627 19.7697 9.31607 19.7699 9.31587 19.7699C9.31582 19.77 9.31576 19.77 9.31571 19.77C9.31571 19.77 9.31571 19.77 9.31571 19.77C9.31571 19.77 9.31571 19.77 9.3157 19.77C9.3157 19.77 9.3157 19.77 9.3157 19.77C9.3157 19.77 9.3157 19.77 9.3157 19.77C9.3157 19.77 9.3157 19.77 9.3157 19.77C9.3157 19.77 9.3157 19.77 9.3157 19.77C10.3365 19.6709 6.45754 20.0474 7.47831 19.9483C7.47831 19.9483 7.47831 19.9483 7.47831 19.9483C7.47831 19.9483 7.47831 19.9483 7.47831 19.9483C7.47831 19.9483 7.47831 19.9483 7.47831 19.9483C7.47831 19.9483 7.47831 19.9483 7.47831 19.9483C7.47831 19.9483 7.47831 19.9483 7.47831 19.9483C7.47831 19.9483 7.47831 19.9483 7.47831 19.9483C7.47831 19.9483 7.47831 19.9483 7.47831 19.9483C7.47831 19.9483 7.47832 19.9483 7.47832 19.9483C7.47833 19.9483 7.47833 19.9483 7.47834 19.9483C7.47835 19.9483 7.47837 19.9483 7.47838 19.9483C7.47841 19.9483 7.47843 19.9483 7.47846 19.9483C7.47856 19.9482 7.47866 19.9482 7.47876 19.9481C7.47955 19.9476 7.48018 19.9453 7.48105 19.9455C7.48267 19.9448 7.48429 19.9439 7.48589 19.943C7.49239 19.94 7.49837 19.9315 7.50494 19.9292C7.53022 19.9138 7.64189 19.887 7.82218 19.8599C8.00263 19.8317 8.23515 19.8018 8.47638 19.7784C8.71759 19.755 8.95137 19.7396 9.13385 19.7326C9.31601 19.7245 9.43073 19.7293 9.45851 19.7396C9.46399 19.7406 9.46989 19.7457 9.47548 19.7478C9.47829 19.749 9.48108 19.75 9.48384 19.7507C9.48518 19.7506 9.4867 19.7524 9.48812 19.7532C9.48816 19.7532 9.48821 19.7532 9.48825 19.7532C9.48827 19.7532 9.48829 19.7532 9.48831 19.7532C9.48831 19.7532 9.48831 19.7532 9.48831 19.7532C9.48831 19.7532 9.48832 19.7532 9.48832 19.7532C9.48832 19.7532 9.48832 19.7532 9.48832 19.7532C9.48832 19.7532 9.48832 19.7532 9.48832 19.7532C9.48832 19.7532 9.48832 19.7532 9.48832 19.7532C9.48832 19.7532 9.48832 19.7532 9.48832 19.7532C9.48832 19.7532 9.48832 19.7532 9.48832 19.7532C9.48832 19.7532 9.48832 19.7532 9.48832 19.7532C4.88056 20.2004 8.03324 19.8944 7.3057 19.9651C7.3057 19.9651 7.3057 19.9651 7.3057 19.9651C7.3057 19.9651 7.3057 19.9651 7.3057 19.9651C7.3057 19.9651 7.3057 19.9651 7.3057 19.9651C7.3057 19.9651 7.3057 19.9651 7.3057 19.9651C7.3057 19.9651 7.30569 19.9651 7.30569 19.9651C7.30569 19.9651 7.30569 19.9651 7.30569 19.9651C7.30568 19.9651 7.30568 19.9651 7.30567 19.9651C7.30566 19.9651 7.30565 19.9651 7.30564 19.9651C7.30556 19.9651 7.30547 19.9651 7.30538 19.965C7.30521 19.965 7.30504 19.9649 7.30485 19.9647C7.30448 19.9644 7.30416 19.9646 7.30382 19.9645C7.30313 19.9643 7.30245 19.9642 7.30176 19.964C7.29053 19.959 7.27941 19.9546 7.2683 19.9493C7.2461 19.9387 7.22437 19.9287 7.20351 19.9189C7.19838 19.9183 7.19342 19.9175 7.18876 19.9168C7.15412 19.9114 7.0852 19.9074 7.01646 19.9062C7.00066 19.9058 6.98483 19.9054 6.96943 19.905ZM9.80967 19.6597C9.92538 19.6495 9.87835 19.6559 9.85252 19.6595C9.8521 19.6596 9.85167 19.6596 9.85125 19.6597C9.84513 19.6605 9.84356 19.6609 9.84185 19.6613C9.83776 19.6624 9.83221 19.6638 9.7587 19.6728C9.76147 19.6731 9.763 19.6735 9.76305 19.674C9.76361 19.6798 9.66805 19.6949 9.5535 19.7119C9.5541 19.7119 9.55472 19.7119 9.55535 19.7119C9.56742 19.7122 9.58236 19.7126 9.54028 19.7178C9.48679 19.7245 9.43712 19.7303 9.39425 19.7352C9.30207 19.7488 9.21975 19.7615 9.18599 19.7694C9.17541 19.7719 9.16969 19.7739 9.16983 19.7753C9.16996 19.7766 9.17376 19.7776 9.18079 19.7783C9.20602 19.7766 9.23598 19.7744 9.26374 19.7724C9.30275 19.7696 9.33739 19.7671 9.34873 19.7667C9.37606 19.7658 9.33337 19.7719 9.30165 19.7764C9.29647 19.7771 9.29156 19.7778 9.28732 19.7784C9.30321 19.778 9.32021 19.7775 9.33759 19.777C9.32799 19.778 9.31798 19.7791 9.30772 19.7801C9.17968 19.7935 9.18144 19.7946 9.184 19.7962C9.18511 19.7969 9.18633 19.7978 9.17717 19.7998C9.17127 19.8011 9.1205 19.8064 9.07907 19.8107C9.06688 19.812 9.05549 19.8132 9.04629 19.8141C9.01476 19.8175 9.0489 19.8145 9.08921 19.8109C9.14151 19.8063 9.20434 19.8008 9.1477 19.807C8.96725 19.8269 9.08993 19.8161 9.18274 19.8078C9.20996 19.8054 9.23456 19.8033 9.24823 19.8021C9.29255 19.7985 9.2488 19.8038 9.18868 19.8104C9.14102 19.8156 9.18844 19.8122 9.24872 19.8072C9.27151 19.8054 9.27213 19.8058 9.27273 19.8063C9.27334 19.8068 9.27392 19.8074 9.29952 19.8056C9.36422 19.8011 9.39558 19.7989 9.42068 19.7973C9.42784 19.7968 9.43436 19.7963 9.44116 19.7959C9.46263 19.7944 9.48035 19.7935 9.49823 19.7926C9.51963 19.7914 9.54135 19.7903 9.57029 19.7882C9.53992 19.7931 9.5023 19.7986 9.46477 19.8042C9.44528 19.807 9.3351 19.8187 9.15337 19.837C8.97149 19.8553 8.7343 19.8787 8.48843 19.9026C8.24257 19.9265 8.00531 19.9491 7.82329 19.9661C7.64143 19.983 7.53088 19.9928 7.51121 19.9938C7.47199 19.9956 7.43275 19.9974 7.40147 19.9985C7.36336 19.9998 7.33704 20 7.33681 19.9976C7.33665 19.9959 7.34235 19.9937 7.35273 19.991C7.3538 19.9907 7.35498 19.9905 7.35614 19.9902C7.29547 19.9947 7.24027 19.9986 7.22054 19.9995C7.20426 20.0003 7.23651 19.9966 7.2641 19.9934C7.28308 19.9912 7.29988 19.9892 7.29717 19.9892C7.29572 19.9892 7.29196 19.9893 7.28745 19.9895C7.26902 19.9901 7.23774 19.9912 7.29665 19.9837C7.32279 19.9804 7.37436 19.9745 7.42361 19.9689C7.49403 19.9608 7.55967 19.9533 7.53942 19.9546C7.50383 19.9571 7.53376 19.953 7.56025 19.9494C7.58552 19.9459 7.60759 19.9429 7.56659 19.9464C7.51757 19.9506 7.53748 19.9482 7.56696 19.9446C7.5874 19.9421 7.61236 19.939 7.62235 19.9372C7.63388 19.935 7.66811 19.931 7.69722 19.9276C7.73818 19.9228 7.76898 19.9192 7.71211 19.9237C7.64893 19.9288 7.60869 19.9316 7.62853 19.9288C7.63757 19.9276 7.63532 19.9273 7.63296 19.9271C7.62984 19.9268 7.62661 19.9264 7.64918 19.9236C7.66779 19.9213 7.71548 19.9163 7.75769 19.9119C7.77085 19.9105 7.78342 19.9091 7.79447 19.908C7.79382 19.9076 7.79289 19.9073 7.79144 19.9071C7.78375 19.9078 7.77524 19.9085 7.76645 19.9093C7.72236 19.9132 7.66828 19.9181 7.6413 19.9201C7.59861 19.9234 7.62522 19.9201 7.65347 19.9166C7.67546 19.9139 7.69842 19.911 7.6901 19.9111C7.68442 19.9112 7.66485 19.9125 7.64547 19.9138C7.61669 19.9158 7.58835 19.9177 7.60626 19.9154C7.61297 19.9146 7.64292 19.9115 7.67272 19.9084C7.67291 19.9084 7.67309 19.9084 7.67327 19.9083C7.67529 19.9081 7.67727 19.9079 7.67928 19.9077C7.65631 19.9086 7.631 19.9096 7.60434 19.9109C7.59663 19.9115 7.58902 19.9121 7.58153 19.9127C7.54492 19.9157 7.50936 19.9186 7.45891 19.9231C7.40422 19.928 7.37235 19.9301 7.33875 19.9323C7.31674 19.9337 7.29402 19.9352 7.26365 19.9376C7.2459 19.9389 7.27675 19.9356 7.30857 19.9322C7.33825 19.929 7.36871 19.9257 7.36114 19.9261C7.35734 19.9263 7.34453 19.9273 7.33083 19.9285C7.31877 19.9295 7.30599 19.9305 7.29816 19.9311C7.2909 19.9316 7.30768 19.9296 7.32903 19.927C7.34223 19.9254 7.35713 19.9235 7.36939 19.922C7.35004 19.9228 7.33149 19.9236 7.31424 19.9243C7.28714 19.9267 7.25197 19.9299 7.20684 19.9341C7.17445 19.9372 7.13575 19.9408 7.09618 19.9446C7.04234 19.9497 6.98669 19.955 6.94232 19.9591C6.90764 19.9623 6.89382 19.9635 6.9082 19.962C6.91491 19.9613 6.92755 19.96 6.93899 19.9589C6.95209 19.9576 6.96374 19.9564 6.9634 19.9564C6.96313 19.9564 6.95385 19.9572 6.94261 19.9583C6.92467 19.96 6.9015 19.9621 6.90066 19.9621C6.89756 19.9619 6.90491 19.9606 6.91218 19.9594C6.92025 19.958 6.92809 19.9567 6.92113 19.9569C6.91333 19.9571 6.94771 19.953 6.98199 19.9489C7.0059 19.9461 7.0297 19.9433 7.03944 19.9419C7.04898 19.9405 7.02988 19.9419 7.01124 19.9433C6.98887 19.9449 6.96726 19.9465 6.99743 19.9431C7.00356 19.9424 7.0409 19.9387 7.08761 19.934C7.12072 19.9307 7.15858 19.9269 7.19347 19.9234C7.19342 19.9229 7.1949 19.9222 7.19769 19.9214C7.19262 19.9218 7.18746 19.9223 7.18219 19.9228C7.18207 19.9228 7.18195 19.9228 7.18182 19.9228C7.06293 19.9339 6.9003 19.9491 6.9972 19.9388C7.02183 19.9362 7.06735 19.9316 7.10832 19.9275C7.14856 19.9235 7.18457 19.9199 7.19212 19.919C7.20068 19.918 7.17595 19.9202 7.14905 19.9225C7.11128 19.9259 7.06908 19.9296 7.1083 19.9254C7.11098 19.9251 7.11392 19.9248 7.11686 19.9245C7.14476 19.9215 7.18603 19.9171 7.26912 19.9087C7.2912 19.9053 7.31707 19.9016 7.34533 19.8977C7.39243 19.8912 7.44616 19.884 7.49986 19.8768C7.52629 19.8733 7.63941 19.8614 7.82056 19.8431C8.00196 19.8249 8.23515 19.8019 8.47638 19.7784C8.71759 19.755 8.95071 19.7328 9.13223 19.7158C9.31352 19.6989 9.4268 19.6888 9.45342 19.6872C9.49632 19.6846 9.53929 19.682 9.5789 19.6797C9.58391 19.6793 9.58877 19.6789 9.59332 19.6786C9.62718 19.6759 9.69513 19.6699 9.76316 19.6638C9.77879 19.6624 9.79445 19.661 9.80967 19.6597Z" fill="white"/>
<path d="M9.34588 0.0941081C9.17333 0.0317794 8.9399 0.00118695 8.6786 0.00029735C8.21263 -0.000880305 7.75614 0.0934287 7.45623 0.166034C7.44736 0.168096 7.43856 0.170159 7.42983 0.172222C7.36812 0.187266 7.30723 0.200946 7.24418 0.214883C7.14708 0.2351 7.04535 0.259695 6.93222 0.29422C6.64073 0.386739 6.21284 0.546699 5.7681 0.985651C5.55184 1.19943 5.36183 1.47915 5.24495 1.72168C5.13944 1.9488 5.02806 2.20748 5.1646 2.02044C5.16977 2.01276 5.17551 2.00447 5.18187 1.9956C4.78956 2.5604 4.74017 2.90945 4.66142 3.20322C4.58077 3.56564 4.54728 3.85205 4.51681 4.13105C4.56085 3.92638 4.51411 4.1446 4.40852 4.40982C4.31982 4.69655 4.11061 5.1018 4.16309 5.90644C4.14889 5.8163 4.22597 5.58083 4.17136 5.78919C4.10267 5.95553 3.95547 6.76845 4.12929 7.26208C4.27402 7.74531 4.43397 8.16788 4.53364 8.48167C4.62123 8.77164 4.65708 8.87893 4.70019 9.33385C4.73919 9.673 4.78313 9.95497 4.82453 10.2493C4.82582 10.2769 4.82712 10.3052 4.8284 10.3336C4.83219 10.4172 4.83594 10.503 4.83986 10.5909C4.88016 11.2275 5.17298 11.711 5.42258 12.0155C5.5508 12.1718 5.67911 12.2971 5.79918 12.4012C5.85905 12.4531 5.91773 12.5001 5.96981 12.5395C5.99554 12.5589 6.02039 12.5771 6.0372 12.5889C6.04502 12.5942 6.05184 12.5989 6.04861 12.5954C6.04587 12.5927 6.04417 12.591 6.02807 12.5767C6.01109 12.5595 5.99593 12.5547 5.89087 12.4377C6.38872 12.9303 6.56061 12.8848 6.7254 12.9577C7.32324 13.1038 7.54485 13.0535 7.81272 13.0503C8.0622 13.0357 8.26196 13.0093 8.44704 12.9804C8.44848 12.9803 8.44992 12.9802 8.45137 12.9801C8.59886 12.9838 8.87084 12.9228 8.93016 12.8967C9.01399 12.8678 9.05208 12.8505 9.09279 12.8333C9.17012 12.7999 9.23392 12.7709 9.30068 12.7413C9.70627 12.5621 10.0982 12.3864 10.5021 12.2054C10.9895 11.9987 11.4868 11.6572 11.8459 11.2007C12.0042 11.0092 12.051 10.8617 12.0734 10.8086C12.0974 10.7444 12.11 10.7028 12.1223 10.6626C12.146 10.5839 12.1636 10.5184 12.1816 10.4517C12.2165 10.3213 12.2487 10.1963 12.2814 10.0704C12.4567 9.34852 12.4889 8.84943 12.592 8.3145C12.662 7.9284 12.7459 7.5591 12.8577 7.23052C12.9055 7.09071 12.9525 6.94948 12.9985 6.80264C13.0821 6.53193 13.1655 6.24866 13.2195 5.90442C13.2789 5.56387 13.2595 5.13609 13.2273 4.87362C13.2268 4.84634 13.2265 4.82087 13.2261 4.79524C13.19 4.50923 13.1423 4.41755 13.1062 4.30509C13.068 4.19963 13.032 4.11382 12.9962 4.03254C12.9253 3.87222 12.8562 3.73427 12.7865 3.60383C12.5737 3.20789 12.3566 2.88579 12.131 2.63237C11.7479 2.27692 11.5156 1.82649 10.3476 1.61298C10.1483 1.60528 9.87247 1.5875 9.65771 1.57961C9.5637 1.57572 9.47454 1.57249 9.39123 1.56948C9.16181 1.53579 8.92902 1.50415 8.67651 1.48081C8.5495 1.46939 8.4186 1.45968 8.26704 1.45699C8.1017 1.46219 7.98682 1.43297 7.59613 1.53561C7.51079 1.57419 7.40213 1.6195 7.24095 1.7377C7.15783 1.79778 7.07404 1.87382 7.00025 1.96387C6.74556 2.25951 6.69471 2.67305 6.72136 2.86142C6.74385 3.07155 6.79263 3.17661 6.83184 3.26558C6.91123 3.42863 6.97362 3.50139 7.02889 3.5731C7.13882 3.70866 7.22313 3.7976 7.29959 3.89123C7.37477 3.98195 7.44117 4.07308 7.4787 4.13806C7.53051 4.1857 7.46572 4.28715 7.49594 3.91878C7.50373 3.87936 7.51621 3.83573 7.53389 3.79225C7.38192 4.16753 7.28514 4.53767 7.20137 4.96635C7.16096 5.17797 7.17055 5.31902 7.18969 5.43048C7.19714 5.47444 7.20622 5.514 7.21496 5.55075C7.22407 5.58944 7.23279 5.62527 7.23874 5.66099C7.25919 5.78326 7.196 5.89649 7.12274 6.03134C7.02784 6.20591 6.91558 6.41765 6.95224 6.71886C6.99239 7.04679 6.99936 7.30594 6.98443 7.52211C6.95625 7.93319 6.84478 8.23241 6.79404 8.533C6.7796 8.61193 6.76846 8.68454 6.76135 8.75041C6.75642 8.78856 6.75311 8.82576 6.75225 8.86333C6.74584 9.18373 6.88966 9.59779 7.10568 9.95415C7.13099 9.99656 7.15193 10.0373 7.19832 10.1254C7.36946 10.4304 7.45521 10.4596 7.53128 10.538C7.60562 10.603 7.66424 10.6493 7.71981 10.6945C7.8296 10.7832 7.9249 10.8626 8.01356 10.9425C8.39728 11.1864 8.52522 11.1874 8.67578 11.2482C8.86857 11.3132 9.08595 11.3344 9.32011 11.3486C9.42387 11.3548 9.53105 11.3597 9.64159 11.3661C9.73532 11.3649 9.8105 11.3894 10.1037 11.3243C10.241 11.2921 10.5508 11.1744 10.7675 10.8961C10.9728 10.6218 10.9819 10.4739 10.9963 10.4573C11.0313 10.3561 11.0555 10.2734 11.0787 10.194C11.1845 9.81948 11.2232 9.57646 11.2589 9.35677C11.2926 8.86386 11.0317 8.4951 10.924 8.37203C10.8023 8.23101 10.7395 8.1841 10.6978 8.14457C10.6178 8.07351 10.6152 8.06305 10.6277 8.0656C10.6578 8.07249 10.7674 8.17776 10.8237 8.29339C10.8788 8.39953 10.8995 8.49725 10.9093 8.55761C10.9096 8.55128 10.9098 8.54498 10.9099 8.5387C10.9184 8.09821 10.8568 7.76129 10.819 7.45841C10.7782 7.16217 10.7577 6.90785 10.7837 6.81402C10.7874 6.77857 10.7917 6.74189 10.7967 6.70552C10.7786 6.52931 10.7682 6.31756 10.7519 6.06762C10.7234 5.79892 10.753 5.58061 10.5752 4.98542C10.3995 4.48398 10.0762 4.04488 9.74108 3.74178C9.6214 3.63195 9.49442 3.54347 9.3808 3.48238C9.32463 3.45226 9.27051 3.42782 9.23367 3.41872C9.21591 3.41477 9.20169 3.41365 9.20422 3.42729C9.21113 3.45049 9.21308 3.43875 9.34333 3.62512C9.33365 3.60879 9.29665 3.56557 9.28575 3.55004C9.31612 3.61675 9.38014 3.71732 9.42287 3.94125C9.47402 4.15962 9.40141 4.52331 9.27025 4.68543C9.00585 5.00452 8.91967 4.90605 8.89126 4.87837C8.86243 4.82876 8.87757 4.75543 8.91731 4.668C8.94074 4.62105 8.96074 4.5812 9.04157 4.48937C9.08137 4.42183 9.16455 4.43241 9.29197 4.07461C9.354 3.87161 9.26275 3.60914 9.17376 3.51794C9.08544 3.41653 9.039 3.40225 8.98956 3.37713L9.25286 3.83518C9.23306 4.05972 9.16532 4.07623 9.13826 4.10136C9.106 4.11958 9.0842 4.11514 9.06527 4.10827C9.02812 4.09264 9.00235 4.06116 8.97581 4.03079C8.92397 3.96839 8.87147 3.90437 8.80947 3.84972C8.74765 3.79493 8.68094 3.7465 8.60642 3.7101C8.56882 3.69248 8.52955 3.6769 8.48214 3.67508C8.43987 3.69387 8.35971 3.6177 8.29778 3.89039C8.31046 3.98135 8.38078 4.13027 8.46118 4.17465C8.43568 4.16654 8.40912 4.16403 8.35521 4.10781C8.30072 4.0581 8.24022 3.89768 8.2752 3.7724C8.34716 3.55235 8.38548 3.56247 8.39458 3.52322C8.41355 3.47151 8.38892 3.45016 8.36297 3.42586C8.30603 3.38147 8.22047 3.34844 8.09236 3.35058C7.97118 3.36954 7.79019 3.34117 7.50629 3.70121C7.36601 3.88304 7.29312 4.24453 7.34887 4.48696C7.39714 4.73414 7.48371 4.87707 7.5516 4.98847L7.50443 4.92696C7.63336 5.11324 7.6664 5.13344 7.70188 5.18041C7.73449 5.21983 7.7555 5.24688 7.77326 5.27095C7.8083 5.31845 7.83115 5.35345 7.85216 5.38541C7.89327 5.44844 7.92381 5.49607 7.95325 5.53506C8.03475 5.64405 8.05174 5.71802 8.05596 5.78842C8.01931 5.68086 8.03969 5.93616 8.02083 6.13383C8.00856 6.35032 7.99077 6.60028 7.9904 6.88727C7.9904 6.91533 7.99061 6.9442 7.99104 6.97315C8.00493 7.41545 8.06831 7.73475 8.11552 8.02403C8.16427 8.30002 8.20486 8.57875 8.19571 8.63185C8.18203 9.03671 8.42033 9.64082 8.72936 9.93473C8.87178 10.085 9.00688 10.1826 9.04405 10.2131C9.06015 10.224 9.05314 10.2286 8.96316 10.1365C8.91921 10.0881 8.84716 10.0102 8.76723 9.85301C8.68751 9.70091 8.62 9.44617 8.63575 9.21741C8.63436 9.24215 8.63288 9.26652 8.63127 9.29084C8.62168 9.47714 8.58337 9.72198 8.58038 9.72657C8.5808 9.75274 8.57449 9.63976 8.77401 9.35746C8.98536 9.06782 9.32119 8.92714 9.44451 8.89869C9.71234 8.8366 9.70507 8.86559 9.72255 8.86041C9.46315 8.85767 9.15021 8.83604 9.09936 8.82705C9.10173 8.83255 9.11177 8.81991 9.27196 8.9066C9.28934 8.91538 9.30915 8.92622 9.33018 8.93889C9.25643 8.8721 9.1864 8.80704 9.14485 8.75914C9.12519 8.73623 9.11142 8.71573 9.12622 8.71898C9.14819 8.74897 9.16641 8.66428 9.40016 9.05945C9.45416 9.13633 9.40797 8.96493 9.40579 8.88818C9.39562 8.79379 9.38633 8.69879 9.37744 8.61453C9.36806 8.52589 9.35372 8.44593 9.33656 8.37248C9.31309 8.27987 9.28893 8.26593 9.26635 8.19427C9.24228 8.1208 9.22616 8.02299 9.23763 7.92133C9.24281 7.8752 9.25174 7.81312 9.26358 7.73597C9.26583 7.72137 9.26821 7.70603 9.2707 7.68994C9.33277 7.29116 9.45529 6.58555 9.48592 5.97628C9.4878 5.93893 9.48931 5.90107 9.4905 5.86307C9.49982 5.61547 9.49906 5.34188 9.50719 5.09514C9.51298 4.90363 9.52604 4.72629 9.5416 4.61144C9.71449 4.11481 9.60337 3.77556 9.54779 3.58359C9.48162 3.38437 9.42164 3.27122 9.38366 3.17977C9.26724 2.91114 9.13175 2.72183 9.02252 2.57317C8.9692 2.50205 8.91979 2.43629 8.90784 2.42712C8.90256 2.42834 8.90973 2.42857 8.94316 2.54917C8.95639 2.61391 8.99099 2.71871 8.95982 2.9435C8.94015 3.17058 8.72518 3.51382 8.52022 3.63036C8.31735 3.75267 8.27806 3.73459 8.24672 3.74405C8.16765 3.73703 8.38072 3.70595 8.4891 3.70911C8.6164 3.70888 8.73427 3.7235 8.81709 3.75659C9.01646 3.83621 9.19703 3.82843 9.47514 3.82192C9.64477 3.81817 9.82208 3.81526 10.1251 3.83322C10.0909 3.82709 10.0711 3.81908 10.0634 3.81476C10.0648 3.78783 10.3311 3.91397 10.4689 4.00004C10.6892 4.13498 10.8678 4.27312 10.9976 4.56221C11.0606 4.70482 11.1221 4.84742 11.1721 4.96971C11.1966 5.02995 11.2179 5.08529 11.2301 5.12184C11.2424 5.14717 11.2423 5.20803 11.2152 5.04366C11.221 5.08203 11.2272 5.11695 11.2339 5.14918C11.2616 5.28424 11.2665 5.38583 11.2582 5.48215C11.2486 5.60876 11.2094 5.78492 11.1865 5.97893C11.168 6.13788 11.1834 6.29248 11.195 6.43133C11.1989 6.4737 11.2016 6.51658 11.203 6.55658C11.1933 6.58434 11.1833 6.61274 11.1729 6.64179C11.1284 6.7671 11.0879 6.89165 11.0501 7.0154C11.0331 7.03808 11.0148 7.06193 10.9959 7.08677C10.9013 7.21152 10.788 7.36781 10.7049 7.57244C10.5737 7.89643 10.552 8.19335 10.5324 8.49451C10.5171 8.72776 10.5038 8.97038 10.4407 9.20939C10.4153 9.30462 10.3799 9.40483 10.3439 9.4765C10.3108 9.55386 10.2759 9.63259 10.2417 9.7085C10.2062 9.78728 10.171 9.86445 10.1394 9.93121C10.1239 9.96353 10.1085 9.99494 10.1002 10.0064C10.0953 10.0232 10.0787 9.98688 10.2145 9.80914C10.1666 9.8531 10.1278 9.88798 10.0977 9.92689C10.0725 9.9596 10.067 10.0122 10.0561 10.0664C10.0561 10.0667 10.0561 10.067 10.0561 10.0673C10.0553 10.071 10.0545 10.0747 10.0537 10.0783C9.96011 10.1286 9.85462 10.1703 9.73879 10.2026C9.41722 10.3029 9.08799 10.4026 8.76195 10.4994C8.71608 10.5057 8.66993 10.5123 8.62438 10.5187C8.58094 10.5248 8.53787 10.5308 8.49579 10.5363C8.40642 10.5487 8.3162 10.5616 8.25062 10.5629C8.22023 10.5628 8.19075 10.5602 8.21611 10.5406C8.22961 10.5205 8.39584 10.4829 8.43202 10.4741C8.43068 10.4734 8.42935 10.4726 8.42803 10.4719C8.31197 10.4029 7.95137 10.3551 7.72087 10.2719C7.67776 10.2557 7.6424 10.2369 7.65537 10.2304C7.6631 10.2281 7.68277 10.2276 7.74031 10.2493C7.7981 10.2774 7.89911 10.2999 8.10229 10.5129C7.99361 10.3913 7.97269 10.381 7.94835 10.3569C7.92458 10.3354 7.91662 10.3281 7.90506 10.3176C7.88671 10.3007 7.87584 10.2902 7.86726 10.2814C7.85012 10.2639 7.84034 10.252 7.83139 10.2406C7.81427 10.2185 7.80349 10.2005 7.79514 10.1838C7.76958 10.1308 7.72316 10.1372 7.68589 10.1564C7.6516 10.1765 7.62927 10.2035 7.66043 10.2652C7.67413 10.2934 7.69845 10.3335 7.71812 10.3891C7.71929 10.3812 7.72048 10.3734 7.72168 10.3655C7.73237 10.295 7.74361 10.2206 7.74812 10.1434C7.7523 10.0717 7.71876 9.91496 7.67589 9.71736C7.6495 9.59584 7.61946 9.45769 7.59409 9.32066C7.59408 9.26901 7.59434 9.21862 7.5952 9.17186C7.60775 8.89902 7.59325 8.36546 7.52096 7.96206C7.52974 7.89053 7.54331 7.82457 7.56293 7.76367C7.57301 7.73292 7.58472 7.70373 7.59837 7.6766C7.62733 7.61901 7.66574 7.56695 7.70493 7.51415C7.75822 7.44224 7.81301 7.36821 7.84818 7.27956C7.87565 7.21026 7.87441 7.13994 7.84429 7.10221C7.83021 7.08451 7.81014 7.07393 7.79195 7.06422C7.77112 7.05314 7.75263 7.04344 7.7482 7.02638C7.74504 7.01411 7.75299 6.99821 7.76255 6.97875C7.77785 6.94777 7.79752 6.90757 7.78496 6.86C7.74045 6.69139 7.68153 6.51615 7.63357 6.36503C7.63575 6.37533 7.63787 6.38606 7.63989 6.39716C7.66954 6.52606 7.65909 6.77043 7.63236 6.85945C7.60673 6.95418 7.62548 6.88079 7.67688 6.72845C7.74522 6.53537 7.83484 6.04082 7.76689 5.60196C7.76456 5.75341 7.72709 5.82863 7.70791 5.83746C7.66939 5.85256 7.68638 5.7033 7.74147 5.53337C7.79235 5.35989 7.91796 5.15088 8.02581 4.73796C8.04058 4.67814 8.05438 4.61298 8.06582 4.54324C8.10806 4.39085 8.14433 4.25724 8.12755 4.15048C8.12367 4.12585 8.08089 4.08953 8.02782 4.04505C7.99016 4.01382 7.94744 3.97777 7.90935 3.94122C7.92561 3.83454 7.98655 3.76826 7.86294 3.95453C7.88475 3.92437 7.90455 3.89535 7.92267 3.86758C7.94033 3.85279 7.9578 3.83789 7.9748 3.8235C7.97511 3.8233 7.97542 3.8231 7.97573 3.82289C8.33603 3.48376 8.61834 3.43522 8.32758 3.61107C8.25276 3.64232 8.17393 3.62741 8.11326 3.60503C8.05322 3.583 8.00537 3.55681 7.97232 3.56197C7.93502 3.56773 7.91798 3.60677 7.91049 3.64445C7.90858 3.65454 7.90751 3.66452 7.90718 3.67374C7.9974 3.69519 8.09258 3.70714 8.17778 3.65271C8.18508 3.6481 8.19269 3.64312 8.20083 3.63806C8.27788 3.59011 8.39179 3.52118 8.50197 3.40268C8.60127 3.38524 8.69841 3.3703 8.79109 3.35841C9.04248 3.32731 9.33507 3.31145 9.56645 3.30976C9.5907 3.30948 9.61331 3.30934 9.62992 3.30874C9.29414 3.24248 9.29033 3.19659 9.24368 3.17878C9.211 3.15864 9.20761 3.15327 9.20532 3.14972C9.20443 3.1445 9.22468 3.15394 9.24742 3.16659C9.29348 3.19206 9.35697 3.23388 9.41857 3.27577C9.54535 3.36253 9.68138 3.46239 9.81729 3.56415C10.0899 3.76866 10.3675 3.98551 10.6436 4.20424C10.9262 4.42784 11.277 4.56534 11.6253 4.57797C11.973 4.58963 12.2928 4.47988 12.5075 4.25223C12.7277 4.03053 12.8365 3.71405 12.8157 3.36405C12.7944 3.01414 12.6423 2.66037 12.397 2.37728C11.9868 1.91125 11.618 1.47154 11.0812 0.965157C11.051 0.932769 11.0262 0.90529 10.9888 0.869423C10.9401 0.821888 10.8851 0.768513 10.8096 0.705042C10.7617 0.667226 10.7289 0.638224 10.6413 0.583255C10.5981 0.55654 10.5482 0.52776 10.4829 0.496446C10.3907 0.455371 10.2715 0.402567 10.0551 0.365856C9.8453 0.292335 9.6926 0.227397 9.52819 0.163193C9.46746 0.139373 9.40685 0.116164 9.34588 0.0941081Z" fill="white"/>
</svg>
