<svg width="24" height="24" viewBox="0 0 24 24" fill="none" xmlns="http://www.w3.org/2000/svg">
<path d="M3.7936 10.4852C4.08899 10.3948 4.47407 10.3146 4.87401 10.3793C5.1456 10.424 5.4571 10.5424 5.73199 10.7924C6.01116 11.0467 6.16241 11.3577 6.22983 11.6398C6.34748 12.1351 6.24034 12.6123 6.14509 12.9214C5.98973 13.4239 5.75462 14.0407 5.35066 14.4573C5.12107 14.6936 4.71043 14.9892 4.13255 14.9869C3.56311 14.984 3.15922 14.6913 2.93562 14.4679C2.80611 14.3382 2.6993 14.2077 2.60726 14.1078L2.57548 14.129L2.5437 14.0442L2.52252 14.0336C2.49211 13.999 2.38277 13.8884 2.30008 13.7476C2.27585 13.7063 2.22557 13.6144 2.18357 13.4934C2.1718 13.4595 2.14875 13.3587 2.1306 13.218L1.93994 12.8579L1.89757 12.7731C1.56334 12.1047 1.83436 11.2873 2.50134 10.9513C2.66728 10.8683 2.84615 10.8253 3.02036 10.8136C3.1439 10.7533 3.26198 10.6935 3.3805 10.6441L3.6559 10.2098L3.7936 10.4852Z" fill="#806D66"/>
<path d="M21.5544 13.4045C21.4338 13.6556 21.2714 13.9348 21.0167 14.1546C20.5484 14.5567 19.9289 14.6836 19.3362 14.4916C18.8583 14.3354 18.5014 14.0078 18.2727 13.7512C17.9138 13.3485 17.5331 12.8437 17.3775 12.2904C17.2921 11.9847 17.2485 11.5518 17.4353 11.1012C17.6294 10.6329 17.9859 10.343 18.3135 10.1889C18.5184 10.0924 18.6972 10.0213 18.8244 9.96933C18.8613 9.95423 18.9878 9.89156 19.1272 9.85941C19.1657 9.85054 19.2593 9.83584 19.3781 9.83019C19.4396 9.82756 19.5568 9.8189 19.6908 9.8434C19.7527 9.85486 19.8479 9.88385 19.9564 9.92782L20.3123 10.1399L21.0758 10.3885L21.1659 10.4214C21.8755 10.658 22.2642 11.4284 22.0288 12.1382C21.9909 12.2517 21.917 12.3463 21.8545 12.4419C21.8067 12.6608 21.7773 12.8754 21.7096 13.0676C21.6856 13.1359 21.6383 13.2006 21.6061 13.2764L21.6729 13.4515L21.5544 13.4045Z" fill="#806D66"/>
<path d="M12.3159 10.1879C12.6196 10.1727 12.9597 10.177 13.2904 10.2833C13.7516 10.4323 14.2244 10.7644 14.4556 11.3425C14.6582 11.852 14.5892 12.3512 14.4979 12.6983C14.3687 13.1879 14.1318 13.8276 13.6082 14.2554C13.3123 14.496 12.9369 14.6586 12.5172 14.6791C12.1164 14.6985 11.763 14.5834 11.4897 14.4461C11.2403 14.3207 11.0508 14.2245 10.9283 14.1601C10.8745 14.1318 10.8038 14.0978 10.7483 14.0647C10.7329 14.0556 10.7068 14.0339 10.6741 14.0118C10.6575 14.0005 10.6236 13.9856 10.5894 13.9588C10.5672 13.9415 10.4866 13.8704 10.3987 13.7681C10.3584 13.7212 10.2544 13.6017 10.1763 13.4186C10.1236 13.2941 10.0463 13.0241 10.0915 12.6983L9.94324 12.0204L9.92206 11.9251C9.76551 11.1936 10.2291 10.4727 10.9601 10.3151C11.1427 10.276 11.3277 10.2716 11.5003 10.3045C11.672 10.268 11.8363 10.2293 11.9981 10.2091L12.263 9.91255L12.3159 10.1879Z" fill="#806D66"/>
</svg>
