<svg width="44" height="44" viewBox="0 0 44 44" fill="none" xmlns="http://www.w3.org/2000/svg">
<path d="M14.5318 14.8805C14.2897 14.8805 13.8909 15.0513 13.6488 15.2732C13.4067 15.4781 13.0222 15.7684 12.7801 15.905C12.2105 16.2465 11.47 17.1173 11.3987 17.5271C11.3703 17.7149 11.2563 17.8515 11.1709 17.8344C10.943 17.7661 10.943 20.2078 11.1709 20.481C11.2991 20.6347 11.2991 20.6859 11.1709 20.6859C11.0712 20.6859 11 20.8395 11 21.0444C11 21.2323 11.0712 21.3347 11.1424 21.2835C11.2279 21.2152 11.2848 21.9665 11.2848 23.4178C11.2848 23.727 10.87 26.4029 11.2563 26.5766C11.4379 26.6558 11.6379 29.3347 11.6124 29.6671C11.5419 30.698 11.9175 30.776 11.8972 31.6306C11.8687 32.177 11.9257 32.4673 12.0538 32.5185C12.1962 32.5868 12.2247 32.8259 12.182 33.3893C12.0966 34.2852 12.9318 34.969 13.2785 35.5407C13.6583 36.1668 14.5571 36.3925 15.1014 36.7189C15.2296 36.8042 15.4574 36.9238 15.5998 36.975C16.2295 37.2015 16.5352 36.7359 17.0239 36.7359C17.1236 36.7359 17.4369 36.4286 17.7075 36.0529C17.9781 35.6773 18.2629 35.37 18.3626 35.37C18.7909 35.37 18.2629 34.287 18.2629 33.7479C18.2629 33.1161 18.3198 32.8088 18.4765 32.7576C18.7613 32.621 18.7186 29.3939 18.4338 29.3939C18.2771 29.3939 18.2629 29.0012 18.3341 27.3279C18.4195 25.8595 18.4053 25.2789 18.2914 25.3643C18.2059 25.4155 18.1062 25.3984 18.0635 25.3131C18.0065 25.2277 18.035 25.1082 18.1205 25.0399C18.1917 24.9887 18.2629 24.4081 18.2629 23.7422C18.2629 22.8169 18.6901 22.65 18.6901 21.8811C18.6901 21.4201 18.6331 21.1981 18.4907 21.1981C18.3483 21.1981 18.3056 20.9078 18.3198 20.0029C18.3271 19.5761 18.8509 18.231 18.4765 18.0564C18.3626 18.0052 18.2629 17.7832 18.2629 17.5442C18.2629 17.3222 18.1632 17.1002 18.0493 17.0319C17.9353 16.9807 17.8356 16.827 17.8356 16.6734C17.8356 16.5368 17.736 16.4172 17.622 16.4172C17.5081 16.4172 17.1378 16.2294 16.8103 15.9904C16.4685 15.7513 16.084 15.5123 15.9558 15.444C15.8134 15.3928 15.6995 15.2391 15.6995 15.1196C15.6995 14.983 15.5571 14.8805 15.3862 14.8805C15.0557 14.8805 14.9955 14.8805 14.5318 14.8805Z" fill="#E56C45"/>
<path d="M25.952 6.27468C25.9033 6.42144 25.7246 6.54985 25.5622 6.54985C25.2537 6.54985 24.3931 7.44873 24.3931 7.77893C24.3931 7.889 24.2957 8.01741 24.1982 8.07244C24.0358 8.12748 23.9871 9.31987 24.0034 13.2273C24.0034 17.2814 23.9709 18.2903 23.7923 18.2903C23.6299 18.2903 23.5974 18.7673 23.6461 20.4917C23.7111 22.3261 23.6786 22.693 23.4837 22.693C23.2889 22.693 23.2726 22.9498 23.3538 24.1606C23.4513 25.4447 23.435 25.6281 23.1915 25.6281C22.9641 25.6281 22.9316 25.94 22.9316 28.1964C22.9316 29.7924 22.9966 30.7646 23.094 30.7646C23.1915 30.7646 23.3863 31.0948 23.5325 31.4984C23.7111 31.957 24.0034 32.3239 24.2632 32.4707C24.523 32.5807 24.7179 32.7458 24.7179 32.8192C24.7179 32.8926 24.8802 32.966 25.0913 33.0026C25.2862 33.0393 25.4323 33.1677 25.4161 33.2962C25.3836 33.4246 25.5298 33.5163 25.7571 33.5163C26.0981 33.5163 27.0399 34.2134 27.3485 34.6903C27.3972 34.7821 28.0305 34.8371 28.7612 34.8188C29.9304 34.7821 30.1577 34.7087 30.8884 34.195C31.3593 33.8465 31.7003 33.4796 31.7003 33.2778C31.7003 33.0944 31.7653 32.9843 31.8465 33.0393C31.9277 33.1127 31.9601 32.9843 31.9114 32.7825C31.8627 32.5624 31.9277 32.3789 32.09 32.3056C32.2849 32.2138 32.3499 31.9387 32.3499 31.0581C32.3499 30.3977 32.4311 29.8107 32.561 29.6823C32.6746 29.5172 32.6746 29.4805 32.5772 29.5355C32.2849 29.719 32.1712 29.1686 32.4473 28.9302C32.6097 28.7651 32.6746 28.3248 32.6746 27.4443C32.6746 26.7655 32.7558 26.1418 32.837 26.0868C32.9344 26.0317 32.9994 25.4447 32.9994 24.7843C32.9994 24.1239 32.9344 23.6103 32.837 23.6103C32.7558 23.6103 32.6746 23.1516 32.6746 22.583C32.6746 21.9592 32.7396 21.6107 32.837 21.6841C32.9344 21.7575 32.9994 21.3539 32.9994 20.6017C32.9994 19.8313 32.9344 19.391 32.8045 19.336C32.6422 19.2809 32.6097 18.6572 32.6259 16.8778C32.6584 14.8049 32.6259 14.4563 32.3986 14.3646C32.1712 14.2545 32.155 13.9977 32.2524 12.2183C32.3336 10.8058 32.3174 10.2188 32.2037 10.3105C32.0251 10.4205 31.9601 10.1821 32.0089 9.70511C32.0251 9.59504 31.9601 9.48497 31.8627 9.48497C31.7815 9.48497 31.7003 9.31987 31.7003 9.09974C31.7003 8.89795 31.6354 8.78788 31.5379 8.84291C31.4568 8.89795 31.1969 8.75119 30.9858 8.49437C30.7747 8.23754 30.5312 8.01741 30.4175 8.01741C30.3201 8.01741 30.2389 7.92569 30.2389 7.83396C30.2389 7.7239 29.9791 7.65052 29.6705 7.65052C29.2971 7.65052 29.0535 7.54045 28.9885 7.35701C28.9398 7.21025 28.8099 7.11853 28.68 7.17356C28.5663 7.2286 28.3877 7.13687 28.2903 7.00846C28.1766 6.8617 28.0305 6.76998 27.9655 6.82502C27.8843 6.88005 27.7869 6.84336 27.7219 6.73329C27.6732 6.64157 27.4784 6.54985 27.2997 6.54985C27.1374 6.54985 26.9912 6.42144 26.9912 6.27468C26.9912 6.09124 26.8288 5.99951 26.5203 5.99951C26.2605 5.99951 26.0169 6.10958 25.952 6.27468Z" fill="#E56C45"/>
</svg>
