<svg width="32" height="32" viewBox="0 0 32 32" fill="none" xmlns="http://www.w3.org/2000/svg">
<path d="M9.10604 10.8677C8.89312 10.8677 8.54244 10.9997 8.32953 11.1714C8.11661 11.3298 7.77846 11.5543 7.56554 11.6599C7.06457 11.924 6.4133 12.5973 6.35068 12.9142C6.32563 13.0595 6.22544 13.1651 6.15029 13.1519C5.9499 13.0991 5.9499 14.9872 6.15029 15.1984C6.26301 15.3172 6.26301 15.3569 6.15029 15.3569C6.06262 15.3569 6 15.4757 6 15.6341C6 15.7794 6.06262 15.8586 6.12524 15.819C6.20039 15.7662 6.25049 16.3471 6.25049 17.4694C6.25049 17.7085 5.88565 19.7777 6.22544 19.912C6.38516 19.9733 6.56105 22.0448 6.53855 22.3019C6.47656 23.099 6.80694 23.1594 6.78903 23.8203C6.76398 24.2428 6.81408 24.4672 6.9268 24.5068C7.05204 24.5596 7.07709 24.7445 7.03952 25.1802C6.96442 25.873 7.6989 26.4017 8.00389 26.8438C8.3379 27.328 9.12829 27.5025 9.60701 27.7549C9.71973 27.8209 9.92012 27.9133 10.0454 27.9529C10.5991 28.1281 10.868 27.7681 11.2978 27.7681C11.3855 27.7681 11.661 27.5304 11.899 27.2399C12.1369 26.9495 12.3874 26.7118 12.4751 26.7118C12.8518 26.7118 12.3874 25.8743 12.3874 25.4575C12.3874 24.969 12.4375 24.7313 12.5753 24.6917C12.8258 24.5861 12.7882 22.0906 12.5377 22.0906C12.3999 22.0906 12.3874 21.7869 12.45 20.493C12.5252 19.3575 12.5127 18.9086 12.4125 18.9746C12.3373 19.0142 12.2496 19.001 12.2121 18.935C12.162 18.869 12.187 18.7765 12.2622 18.7237C12.3248 18.6841 12.3874 18.2352 12.3874 17.7203C12.3874 17.0048 12.7631 16.8757 12.7631 16.2811C12.7631 15.9246 12.713 15.753 12.5878 15.753C12.4626 15.753 12.425 15.5285 12.4375 14.8287C12.4439 14.4987 12.9046 13.4585 12.5753 13.3235C12.4751 13.2839 12.3874 13.1123 12.3874 12.9274C12.3874 12.7558 12.2997 12.5841 12.1995 12.5313C12.0994 12.4917 12.0117 12.3729 12.0117 12.254C12.0117 12.1484 11.924 12.056 11.8238 12.056C11.7236 12.056 11.398 11.9108 11.1099 11.7259C10.8093 11.5411 10.4712 11.3562 10.3585 11.3034C10.2332 11.2638 10.133 11.145 10.133 11.0525C10.133 10.9469 10.0078 10.8677 9.8575 10.8677C9.5668 10.8677 9.51388 10.8677 9.10604 10.8677Z" fill="white"/>
<path d="M19.1484 4.21274C19.1056 4.32622 18.9485 4.42552 18.8057 4.42552C18.5344 4.42552 17.7775 5.12061 17.7775 5.37595C17.7775 5.46106 17.6918 5.56036 17.6061 5.60291C17.4633 5.64547 17.4204 6.56753 17.4347 9.58904C17.4347 12.724 17.4062 13.5042 17.2491 13.5042C17.1063 13.5042 17.0777 13.8731 17.1205 15.2065C17.1777 16.625 17.1491 16.9088 16.9777 16.9088C16.8064 16.9088 16.7921 17.1074 16.8635 18.0436C16.9492 19.0366 16.9349 19.1784 16.7207 19.1784C16.5207 19.1784 16.4922 19.4196 16.4922 21.1644C16.4922 22.3985 16.5493 23.1504 16.635 23.1504C16.7207 23.1504 16.8921 23.4057 17.0206 23.7178C17.1777 24.0724 17.4347 24.3561 17.6632 24.4696C17.8917 24.5547 18.0631 24.6824 18.0631 24.7391C18.0631 24.7959 18.2059 24.8526 18.3916 24.881C18.5629 24.9094 18.6915 25.0087 18.6772 25.108C18.6486 25.2073 18.7771 25.2782 18.9771 25.2782C19.277 25.2782 20.1053 25.8172 20.3766 26.1861C20.4194 26.257 20.9764 26.2996 21.619 26.2854C22.6473 26.257 22.8472 26.2003 23.4899 25.8031C23.904 25.5335 24.2039 25.2498 24.2039 25.0938C24.2039 24.9519 24.261 24.8668 24.3324 24.9094C24.4038 24.9661 24.4324 24.8668 24.3896 24.7108C24.3467 24.5406 24.4038 24.3987 24.5466 24.342C24.718 24.271 24.7751 24.0582 24.7751 23.3773C24.7751 22.8667 24.8465 22.4127 24.9608 22.3134C25.0608 22.1858 25.0608 22.1574 24.9751 22.1999C24.718 22.3418 24.618 21.9162 24.8608 21.7318C25.0036 21.6042 25.0608 21.2637 25.0608 20.5828C25.0608 20.0579 25.1322 19.5756 25.2036 19.5331C25.2893 19.4905 25.3464 19.0366 25.3464 18.5259C25.3464 18.0152 25.2893 17.618 25.2036 17.618C25.1322 17.618 25.0608 17.2634 25.0608 16.8236C25.0608 16.3413 25.1179 16.0718 25.2036 16.1286C25.2893 16.1853 25.3464 15.8732 25.3464 15.2916C25.3464 14.6958 25.2893 14.3554 25.175 14.3128C25.0322 14.2703 25.0036 13.7879 25.0179 12.412C25.0465 10.809 25.0179 10.5395 24.818 10.4685C24.618 10.3834 24.6038 10.1848 24.6895 8.80884C24.7609 7.71655 24.7466 7.26262 24.6466 7.33355C24.4895 7.41866 24.4324 7.23425 24.4752 6.86542C24.4895 6.78031 24.4324 6.6952 24.3467 6.6952C24.2753 6.6952 24.2039 6.56753 24.2039 6.3973C24.2039 6.24126 24.1468 6.15615 24.0611 6.19871C23.9897 6.24126 23.7612 6.12778 23.5755 5.92918C23.3899 5.73058 23.1757 5.56036 23.0757 5.56036C22.99 5.56036 22.9186 5.48943 22.9186 5.4185C22.9186 5.33339 22.6901 5.27665 22.4188 5.27665C22.0903 5.27665 21.8761 5.19154 21.819 5.04968C21.7761 4.9362 21.6619 4.86527 21.5476 4.90783C21.4477 4.95038 21.2906 4.87945 21.2049 4.78016C21.1049 4.66667 20.9764 4.59574 20.9193 4.6383C20.8479 4.68086 20.7622 4.65249 20.7051 4.56737C20.6622 4.49645 20.4909 4.42552 20.3338 4.42552C20.191 4.42552 20.0624 4.32622 20.0624 4.21274C20.0624 4.07088 19.9196 3.99995 19.6483 3.99995C19.4198 3.99995 19.2056 4.08507 19.1484 4.21274Z" fill="white"/>
</svg>
