<svg width="32" height="32" viewBox="0 0 32 32" fill="none" xmlns="http://www.w3.org/2000/svg">
<path d="M20.0239 9.11474C20.944 9.31918 22.5034 10.4189 23.2819 11.1438C23.2957 11.156 23.3111 11.1695 23.3255 11.1822C23.5055 11.3437 23.6825 11.4963 23.8487 11.6402C23.9568 11.7339 24.0668 11.8271 24.1047 11.8621C24.1506 11.906 24.0484 11.8222 23.7885 11.7529C24.3222 11.9579 25.2593 12.2916 26.1601 13.3681C26.5344 13.8111 26.7762 14.3266 26.9004 14.762C27.1758 15.6466 27.1244 16.2168 27.139 16.4716C27.1755 16.9825 26.7465 17.9969 26.4393 18.4068C26.2962 18.5765 26.1519 18.7382 26.0083 18.8925C25.1049 19.8535 24.2308 20.5877 23.3599 21.3046C22.5309 21.9391 22.2926 21.9556 21.9682 22.1267C21.6667 22.2648 21.4144 22.375 21.1598 22.4903C20.6587 22.7161 20.1804 22.944 19.7039 23.1881C18.7499 23.6765 17.8072 24.2249 16.87 24.8221C15.5469 25.6187 14.3066 26.5904 12.0186 27.0651C11.9282 27.0852 11.8376 27.1036 11.7486 27.1202C11.5815 27.1514 11.4197 27.1762 11.2716 27.1969C10.5944 27.3027 9.76669 27.0584 9.32562 26.755C8.86419 26.4554 8.63983 26.1747 8.48804 25.9923C7.31534 24.3671 7.23476 23.2674 7.07796 22.4016C6.91182 20.9796 6.96471 20.0822 7.00506 19.3386C6.99947 18.9483 7.00208 18.5607 7.01145 18.175C7.05597 16.4994 7.14429 14.8296 7.28939 13.153C7.36246 12.3163 7.44948 11.474 7.56297 10.6242C7.62026 10.198 7.68377 9.76929 7.76369 9.32758C7.80459 9.103 7.8488 8.87682 7.90745 8.6285C7.93709 8.50494 7.96825 8.37952 8.01874 8.21423C8.04224 8.1392 8.0713 8.0472 8.12184 7.92166C8.1518 7.84988 8.1698 7.80293 8.2372 7.67522C8.26993 7.61533 8.30177 7.55929 8.36291 7.47134C8.44092 7.36282 8.54374 7.22606 8.7521 7.06407C8.50825 7.25151 8.3836 7.47099 8.3351 7.57475C8.28485 7.68425 8.28341 7.71164 8.2923 7.68284C8.32894 7.63124 8.3352 7.31507 8.78744 6.79261C9.16262 6.40187 9.5155 6.27977 9.73923 6.20312C10.0514 6.10666 10.2338 6.08928 10.3859 6.06665C12.1003 5.87844 13.3426 6.39595 14.4809 6.87232C15.6417 7.38979 16.6784 8.00845 17.6722 8.65817C18.2775 9.00135 18.8431 9.3336 19.3586 9.64901C19.7144 9.86624 20.0572 10.086 20.3335 10.2601C20.6837 10.4893 20.9959 10.7207 21.2677 10.9518C21.734 11.3708 22.1152 11.6706 22.6819 12.5332C22.9803 12.9975 23.1138 13.6968 23.0221 14.2186C22.9392 14.7488 22.7392 15.1041 22.5635 15.3652C22.0016 16.1621 21.3511 16.7614 20.8175 17.2017C20.6429 17.3456 20.4793 17.4737 20.3318 17.5875C19.9533 17.9324 19.5275 18.3 19.4206 18.446C18.9987 18.916 18.6391 19.2477 18.2629 19.5951C18.1981 19.6232 18.1318 19.6511 18.0637 19.6796C17.2233 20.0254 16.4225 20.667 15.1436 21.64C14.5877 22.0627 13.9398 22.5475 13.1667 23.0918C13.0126 23.2004 12.8725 23.2868 12.7524 23.3514C12.5077 23.5382 12.1069 23.68 11.7759 23.6773C11.4419 23.68 11.2095 23.5963 11.0509 23.526C10.7364 23.376 10.6278 23.2544 10.5299 23.1612C10.3526 22.9753 10.2908 22.8595 10.2309 22.753C10.1214 22.5446 10.0764 22.3919 10.0342 22.2265C10.0235 22.1659 10.0154 22.1083 10.0086 22.0527C9.9944 21.9374 9.98725 21.8348 9.97879 21.7354C9.95033 21.3941 9.81822 21.0929 9.68715 20.7361C9.51815 20.2741 9.35624 19.7177 9.49525 19.0283C9.97424 16.8871 9.90434 16.0289 9.7964 15.3078C9.76879 15.1014 9.74506 14.9132 9.74537 14.727C9.74665 14.1171 9.98507 13.3018 10.2181 12.7096C10.2964 12.5104 10.3534 12.2182 10.3856 11.9029C10.4471 11.5178 10.4998 10.9901 11.0226 10.3456C11.5662 9.66166 12.5732 9.44458 13.0617 9.47354C13.7778 9.48495 14.347 9.7386 14.8678 10.0112C15.4074 10.2989 15.9158 10.6433 16.4463 10.9493C16.7834 11.1438 17.0655 11.309 17.2837 11.423C17.3887 11.4775 17.4856 11.5239 17.5371 11.5398C17.575 11.556 17.6499 11.5467 17.3635 11.4499C17.9497 11.5626 18.4108 11.7011 18.8835 11.9124C19.0085 11.9691 19.1347 12.0323 19.2654 12.1068C19.7325 12.3805 20.1619 12.9438 20.3034 13.4693C20.4566 13.9979 20.4125 14.4403 20.3282 14.7852C20.1347 15.5147 19.747 15.9597 19.3149 16.2897C19.0061 16.5558 18.6365 16.8833 18.258 17.2327C17.703 17.7443 17.1331 18.2981 16.6613 18.767C16.4558 18.923 16.2491 19.0787 15.9897 19.2595C15.8613 19.348 15.7192 19.4456 15.5157 19.5663C15.412 19.6263 15.3017 19.692 15.0899 19.7883C14.9976 19.8292 14.8474 19.8926 14.6552 19.9463C14.5363 19.9794 14.3964 20.0115 14.2209 20.0316C14.0341 20.0529 13.7391 20.0657 13.3994 19.9948C12.6638 19.8532 11.9792 19.3377 11.6536 18.8973C11.3091 18.4497 11.1724 18.0796 11.0725 17.7729C10.8885 17.1614 10.8672 16.7301 10.8517 16.3245C10.8356 15.528 10.9186 14.8751 11.0256 14.2224C11.0761 13.9248 11.1531 13.637 11.2562 13.3584C11.2825 13.147 11.5264 12.6476 11.6416 12.4684C11.8517 12.2278 12.2336 11.8522 12.7583 11.6311C13.2815 11.4027 13.8353 11.3897 14.2059 11.4668C14.832 11.6085 15.0355 11.8308 15.2369 12.024C15.7893 12.6546 15.7939 13.2411 15.5936 13.7241C15.3878 14.2134 14.8262 14.5039 14.2619 14.7075C14.106 14.7756 13.9101 14.8532 14.0221 14.9594C14.0893 15.019 14.2931 15.0547 14.5029 14.9912C14.7127 14.9318 14.8471 14.8163 14.8699 14.8338L15.19 14.0947C15.2023 14.3016 15.2006 14.5236 15.1867 14.7418C15.1559 15.2159 15.1564 15.6993 15.2064 16.0583C15.2283 16.2306 15.277 16.3836 15.2857 16.3562C15.2846 16.3402 15.279 16.2654 15.1499 16.088C15.0348 15.9166 14.6792 15.6343 14.3112 15.5634C13.6854 15.4595 13.5023 15.5759 13.3684 15.6002C13.2494 15.6367 13.1986 15.6611 13.1655 15.6749C13.1038 15.7025 13.1088 15.6994 13.1204 15.6877C13.1488 15.6627 13.2216 15.604 13.2978 15.5386C13.454 15.4053 13.6375 15.2411 13.8231 15.073C14.6812 14.2954 15.5961 13.4376 16.6719 12.6282C16.4237 12.8131 16.1669 13.0596 15.9984 13.574C15.9211 13.8331 15.8603 14.1893 15.9764 14.6569C16.0797 15.1209 16.4675 15.6538 16.878 15.8955C16.8423 15.8744 16.5449 15.7512 16.2705 15.6868C15.8824 15.581 15.7134 15.4838 15.5587 15.4076C15.4112 15.3307 15.3016 15.2653 15.1963 15.2004C14.4052 14.6941 13.9296 14.3075 13.4196 13.9732C13.1766 13.8111 12.9429 13.6701 12.779 13.5885C12.6407 13.4921 12.457 13.5449 12.9734 13.5275C13.1826 13.5116 13.577 13.3734 13.8281 13.1358C14.3173 12.6947 14.2798 12.4923 14.3231 12.5135C14.265 13.4824 14.1904 14.3177 14.1205 14.945C14.0446 15.6102 13.9049 16.0673 13.7894 16.4611C13.7101 16.7316 13.6426 16.9696 13.619 17.2142C13.6064 17.3455 13.5937 17.5243 13.5817 17.7382C13.5226 18.5576 13.5279 20.239 13.5991 20.7309C13.5989 20.7437 13.5977 20.7539 13.5952 20.7611C13.5522 20.6853 13.5331 20.6616 13.4425 20.5491C13.3883 20.4891 13.3426 20.4143 13.1126 20.2259C12.9854 20.1341 12.8271 19.9889 12.3748 19.8455C11.9678 19.6764 10.9347 19.7533 10.4268 20.1923C10.8296 19.966 11.2602 19.7368 11.6736 19.5156C12.5905 19.0254 13.435 18.5622 13.7883 18.2351C14.4082 17.6622 15.2026 17.1187 15.8557 16.6338C16.2173 16.3665 16.5473 16.1028 16.7187 15.92C17.0088 15.6168 17.1871 15.458 17.3086 15.3039C17.6493 14.8765 17.9762 14.6735 18.4122 14.3547C18.7097 14.1345 19.0612 13.8637 19.3982 13.433C19.4305 13.3913 19.4611 13.3512 19.491 13.3114C19.4621 13.366 19.39 13.49 19.3677 13.7267C19.3402 13.9599 19.4266 14.2795 19.5501 14.4507C19.5406 14.3673 19.3247 14.0529 19.184 13.8623C18.9124 13.4981 18.6496 13.1996 18.2645 12.9386C18.1177 12.8374 17.9722 12.7467 17.8015 12.6521C17.0386 12.2299 16.2879 11.7913 15.7429 11.3761C15.4945 11.1862 15.1963 10.9988 14.8822 10.8134C14.4668 10.568 14.0284 10.3304 13.6511 10.0887C13.3398 9.88919 13.11 9.67637 12.8993 9.49469C12.8348 9.43857 12.7696 9.38469 12.7073 9.33651C12.4403 9.23979 12.1764 9.16014 11.9202 9.10402C11.8751 9.11053 11.8298 9.11929 11.7811 9.12865C11.5421 9.17645 11.2661 9.25661 11.032 9.32516C10.9736 9.34227 10.9206 9.35836 10.8751 9.37279C10.7912 9.39235 10.7359 9.41055 10.7694 9.40393C10.7951 9.39091 10.9719 9.37391 11.2528 9.0842C11.5721 8.69959 11.5222 8.5716 11.4983 8.68697C11.4442 8.7727 11.4093 9.21376 10.7873 9.7209C11.0522 9.50916 11.1243 9.35257 11.1541 9.30801C11.1904 9.24469 11.2092 9.199 11.215 9.18226C11.2307 9.1386 11.2282 9.13148 11.2244 9.1329C11.2151 9.13837 11.1955 9.18055 11.1774 9.22474C11.0471 9.56433 10.9223 10.0728 10.8754 10.6352C10.8429 11.0245 10.8424 11.4782 10.8496 11.9286C10.8599 12.5967 10.8869 13.2615 10.8297 13.7199C10.808 13.8961 10.7386 14.0357 10.6696 14.1838C10.6692 14.1844 10.6688 14.1851 10.6684 14.1857C10.6637 14.1957 10.6591 14.2057 10.6545 14.2157C10.6668 15.3441 10.7142 16.4729 10.7891 17.6045C10.8072 17.7012 10.8253 17.7995 10.8433 17.8975C10.855 17.9615 10.8668 18.0254 10.8787 18.0889C10.9552 18.4813 11.0426 18.844 11.1516 19.0859C11.2873 19.3868 11.4104 20.1557 11.6067 20.9057C11.7333 21.396 11.8924 21.8734 12.0607 22.1972C12.1581 22.386 12.1581 22.579 12.1596 22.7509C12.157 22.9069 12.176 23.0621 12.1921 23.0527C12.1923 23.0523 12.1925 23.0517 12.1926 23.051C12.1764 23.0502 12.122 22.7678 11.4176 22.5045C11.1939 22.431 10.919 22.4013 10.6853 22.4228C10.764 22.3965 10.8348 22.3713 10.8986 22.3499C10.9982 22.317 11.1553 22.3293 11.4048 22.2885C11.5613 22.2625 11.7657 22.2089 12.0013 22.1173C12.5752 21.7749 13.2222 21.3032 13.8582 20.8155C13.8921 20.7688 13.9237 20.7213 13.9524 20.6733C14.0217 20.567 14.0748 20.4623 14.1094 20.3589C14.1457 20.2493 14.1651 20.1352 14.186 20.018C14.2151 19.8582 14.2399 19.697 14.3244 19.5258C14.3899 19.3924 14.4942 19.2878 14.5977 19.2569C14.6453 19.2429 14.6904 19.2459 14.7312 19.2486C14.7779 19.2518 14.8194 19.2547 14.8528 19.2321C14.8769 19.2158 14.8915 19.1827 14.9095 19.1425C14.9401 19.077 14.9803 18.992 15.0797 18.9269C15.452 18.6829 15.8945 18.4315 16.335 18.1953C16.8239 17.9326 17.3156 17.6863 17.6924 17.4754C18.112 17.2376 18.7938 16.9926 19.3519 16.8098C19.4897 16.7647 19.6176 16.7225 19.6908 16.7029C19.7594 16.6908 19.791 16.6654 19.5911 16.8419C19.6757 16.7825 19.7561 16.7243 19.8312 16.6675C20.1111 16.4559 20.3559 16.1889 20.5813 15.9328C20.8526 15.625 21.0923 15.3357 21.3513 15.169C21.4039 15.1352 21.5136 15.1387 21.6506 15.1414C21.7475 15.1436 21.859 15.1447 21.9719 15.1334C22.0657 15.0327 22.1548 14.9337 22.2379 14.8372L21.6263 16.5287C21.6363 16.2161 21.5835 16.1829 21.6815 16.4883C21.6774 16.5094 21.6743 16.5327 21.6722 16.5578C21.6721 16.5582 21.672 16.5587 21.6719 16.5591C21.6599 16.6975 21.6871 16.914 21.8171 17.1623C21.7774 17.4352 22.0371 17.7277 21.9401 17.5459C21.8854 17.5232 21.8309 17.4989 21.7771 17.4731C21.288 17.2344 21.0888 16.9863 20.9479 16.7958C20.8096 16.604 20.7264 16.4469 20.5799 16.3126C20.4162 16.1615 20.2249 16.0692 20.0401 15.9901C19.7805 15.8785 19.5294 15.7898 19.376 15.5666C19.3654 15.5513 19.3533 15.5341 19.3417 15.5174C19.2301 15.3573 19.0596 15.1235 18.9211 14.8153C18.2381 14.2975 17.4778 13.8048 16.6854 13.3326C16.0509 12.9551 15.391 12.5889 14.7216 12.2348C13.9942 11.85 13.2703 11.4898 12.5456 11.177C11.8756 10.8862 11.3097 10.4839 10.9156 10.0308C10.5321 9.57441 10.2798 9.10352 10.2027 8.59036C10.1214 8.07718 10.5835 7.51951 11.3455 7.24831C12.1077 6.9705 13.0513 6.97611 13.9052 7.21013C14.8307 7.46442 15.7001 7.7553 16.5609 8.07093C17.0093 8.23589 17.4405 8.40019 17.8837 8.57905C17.9543 8.60078 18.0244 8.62284 18.0933 8.64521C18.6168 8.8173 19.1272 8.91201 19.6582 9.03011C19.7754 9.05477 19.9042 9.08625 20.0239 9.11474Z" fill="white"/>
</svg>
