<svg width="24" height="24" viewBox="0 0 24 24" fill="none" xmlns="http://www.w3.org/2000/svg">
<path d="M11.553 8.75796C11.5926 9.10731 11.9046 9.68951 12.0947 10.0133C12.0981 10.0192 12.1014 10.0251 12.1048 10.0309C12.1494 10.1076 12.1895 10.1832 12.2368 10.2702C12.3576 10.4797 12.4847 10.7634 12.9789 11.3503C13.1103 11.534 13.2618 11.7221 13.446 11.9055C13.5793 12.0382 13.7306 12.1686 13.8985 12.2864C14.7709 12.9724 16.1413 13.1212 16.6684 13.2298C16.8636 13.2745 17.0747 13.3361 17.1452 13.3613C17.1579 13.3639 17.1619 13.368 17.114 13.3301C17.0804 13.2842 16.9109 13.2274 16.798 12.7866C16.7517 12.5734 16.8017 12.3303 16.8603 12.2083C16.9206 12.0754 16.974 12.0188 17.0047 11.9844C17.0698 11.9178 17.0756 11.926 17.0674 11.9335C16.9043 12.073 16.3706 12.3489 15.9457 12.6385C15.9329 12.6472 15.9202 12.6558 15.9075 12.6645C15.8851 12.6775 15.8624 12.6908 15.8396 12.7042C15.3966 12.9626 14.8652 13.3131 14.5674 13.5833C14.1887 13.9251 13.9518 14.1791 13.7609 14.3917C13.1587 14.9817 12.5978 15.5062 12.0759 16.3951C11.8295 16.9028 11.7753 17.2472 11.6671 17.6123C11.5735 17.9573 11.4587 18.3329 11.3653 18.4898C11.3495 18.5407 11.3048 18.4921 11.5452 18.4187C11.8254 18.3798 11.8919 18.5132 11.861 18.4749C11.8245 18.4487 11.7089 18.259 11.6308 18.0763C11.475 17.7233 11.3412 17.3086 11.2059 16.8901C11.1448 16.6391 11.09 16.3943 11.0323 16.1625C10.9511 15.8364 10.8645 15.5368 10.7513 15.281C10.6026 14.9856 10.483 14.6396 9.95054 14.2648C9.67896 14.0999 9.40688 13.9568 9.17287 13.8429C9.09674 13.8057 9.02671 13.7726 8.96089 13.7418C8.60745 13.5378 8.24429 13.3513 7.85642 13.1872C7.8271 13.1852 7.79767 13.1837 7.76797 13.1825C7.39278 13.1708 6.9873 13.0195 6.27973 12.9189C5.9734 12.8789 5.60087 12.8538 5.16578 12.9065C5.06656 12.9186 4.98678 12.937 4.92788 12.9553C4.91626 12.9661 4.89572 12.9783 4.89416 12.99C4.89418 12.9962 4.89586 13.0014 4.92201 13.0113C4.9371 13.0173 4.9541 13.0209 5.01213 13.0442C5.04278 13.0587 5.08368 13.0695 5.17441 13.1409C5.21853 13.1781 5.28722 13.2411 5.34155 13.3595C5.40128 13.4834 5.40712 13.6565 5.37221 13.7672C5.28713 14.0067 5.21945 14.0155 5.18366 14.0553C5.14821 14.0827 5.12874 14.0923 5.1128 14.1002C5.12672 14.0835 5.14031 14.0677 5.15442 14.0526C5.2246 13.9779 5.32311 13.9545 5.44361 13.9247C5.60261 13.8845 5.78995 13.8386 5.97093 13.6741C6.55945 13.1438 6.91496 13.0706 7.18162 13.0143C7.25741 12.9993 7.3329 12.9818 7.39799 12.9589C7.61998 12.8776 7.89508 12.6816 8.11338 12.4678C8.29183 12.3045 8.6697 12.022 8.91731 11.848C9.01383 11.7815 9.12548 11.6707 9.25213 11.5447C9.25547 11.5414 9.25885 11.538 9.26224 11.5347C9.40836 11.3894 9.56824 11.2173 9.74465 11.0386C10.1987 10.5723 10.3974 10.2901 10.5612 10.0673C10.6072 10.0032 10.6491 9.94301 10.6906 9.88239C10.8217 9.69096 10.9689 9.44489 11.1057 9.18549C11.2696 8.8763 11.417 8.54969 11.5289 8.28518C11.5968 8.02059 11.6648 7.83662 11.6927 7.3748C11.6766 7.5344 11.6724 7.47218 11.6771 7.46091C11.6811 7.43777 11.6909 7.39886 11.7016 7.35991C11.724 7.27918 11.7527 7.18641 11.7825 7.0919C11.8425 6.90186 11.9079 6.70049 11.9709 6.49274C12.0702 6.16588 12.0842 5.79693 11.9826 5.48964C11.8834 5.18026 11.6666 4.98915 11.448 5C11.2286 5.00757 11.0205 5.10021 10.8231 5.24579C10.6268 5.39555 10.4531 5.62294 10.333 5.90454C10.2573 6.0831 10.1759 6.26513 10.0923 6.45676C10.0504 6.55307 10.008 6.6512 9.96446 6.76113C9.94313 6.81513 9.92031 6.87521 9.89757 6.94406C9.87573 7.02434 9.84524 7.06566 9.82591 7.29998C9.81703 7.31049 9.74563 7.56982 9.67287 7.74473C9.42112 8.3801 9.06576 9.0146 8.66574 9.57485C8.47467 9.84179 8.26872 10.0922 8.04742 10.3198C7.92236 10.4478 7.79962 10.5746 7.68235 10.6934C7.64332 10.7329 7.6082 10.7683 7.57108 10.805C7.39799 10.9322 7.27059 11.0047 7.12905 11.0733C6.98614 11.1433 6.81545 11.2218 6.67509 11.2921C6.43854 11.4102 6.27897 11.5327 6.14518 11.637C6.05351 11.7085 5.96683 11.7751 5.87799 11.8231C5.82843 11.85 5.75843 11.8862 5.67775 11.928C5.33959 12.1035 4.78089 12.3983 4.302 12.7453C4.27523 12.7619 4.25242 12.7763 4.21171 12.8067C4.15461 12.8664 4.04795 12.879 3.87676 13.2444C3.79047 13.4161 3.7766 13.835 3.92344 14.0724C4.05457 14.3071 4.18516 14.3863 4.26159 14.4397C4.56181 14.6078 4.58741 14.5678 4.66083 14.5897C4.776 14.6058 4.82634 14.6024 4.88118 14.6012C4.98469 14.5967 5.06291 14.5852 5.15589 14.5666C5.32118 14.5183 5.45277 14.4759 5.60671 14.4448C5.92442 14.3776 6.26029 14.3749 6.41781 14.4266C6.69568 14.5155 7.02664 14.5887 7.32492 14.6791C7.60879 14.7641 7.85659 14.8598 7.97382 14.9583C8.11614 15.0774 8.25659 15.1304 8.47136 15.2213C8.61719 15.283 8.80145 15.3651 9.03175 15.5016C9.05994 15.5184 9.08756 15.5346 9.11463 15.5504C9.12548 15.5312 9.27559 15.6761 9.35437 15.7815C9.49353 15.9613 9.59797 16.1355 9.65568 16.4261C9.72003 16.7523 9.79812 17.0994 9.90652 17.3643C9.95566 17.4845 10.002 17.6279 10.0517 17.7778C10.1178 17.9766 10.1913 18.1896 10.2891 18.3797C10.3699 18.537 10.47 18.6584 10.5634 18.7628C10.5933 18.7969 10.6223 18.8289 10.6498 18.8594C10.7229 18.9952 10.8026 19.1343 10.9341 19.2862C10.9473 19.3092 10.9617 19.3332 10.9779 19.358C10.9826 19.365 10.9875 19.372 10.9924 19.3791C11.0528 19.4608 11.1191 19.5591 11.3038 19.661C11.4709 19.7684 11.862 19.7968 12.1024 19.6534C12.4665 19.4408 12.5358 19.2483 12.6254 19.0948C12.704 18.9374 12.7487 18.7949 12.7884 18.6552C12.8494 18.4378 12.8956 18.2234 12.9741 17.9958C13.0275 17.8409 13.0973 17.6716 13.1673 17.517C13.2441 17.3462 13.3285 17.1874 13.3674 17.1247C13.3834 17.0975 13.4017 17.0656 13.4182 17.0335C13.4414 16.988 13.4482 16.9327 13.4575 16.8761C13.4575 16.8758 13.4575 16.8755 13.4575 16.8753C13.458 16.8715 13.4587 16.8678 13.4592 16.864C13.7116 16.5664 14.0303 16.2707 14.3581 15.9957C14.3904 15.9748 14.4219 15.9549 14.4539 15.9346C14.6098 15.8355 14.765 15.7422 14.8812 15.7022C15.0078 15.6577 15.2654 15.4789 15.5468 15.3013C15.7302 15.1851 15.9225 15.0695 16.0871 14.9865C16.1834 14.9378 16.2501 14.8583 16.3211 14.7759C16.3862 14.6999 16.4554 14.6213 16.5506 14.5675C16.5986 14.5403 16.6545 14.5179 16.7142 14.4945C16.7668 14.4738 16.8229 14.4521 16.8785 14.426C16.9038 14.414 16.9407 14.3889 16.9874 14.3547C17.0316 14.3216 17.0861 14.2794 17.15 14.2318C17.228 14.174 17.319 14.1091 17.4221 14.0419C17.5686 13.9734 17.7229 13.9039 17.8938 13.8188C18.0757 13.7104 18.2233 13.7069 18.5978 13.3136C18.6867 13.2217 18.799 13.0812 18.8699 12.8644C18.946 12.6419 18.9346 12.3636 18.8841 12.1803C18.8099 11.9079 18.7196 11.7675 18.6552 11.649C18.5602 11.488 18.4753 11.3713 18.3802 11.2686C18.2955 11.1832 18.2172 11.1325 18.1506 11.1161C18.1232 11.1102 18.0995 11.1121 18.0782 11.1141C18.0538 11.1163 18.0322 11.1184 18.0107 11.1093C17.9948 11.1025 17.9831 11.0889 17.9692 11.0727C17.9467 11.0467 17.9169 11.013 17.8591 10.9913C17.6855 10.9262 17.5103 10.8781 17.3359 10.8351C17.3051 10.8274 17.2747 10.8201 17.2448 10.8132C16.9983 10.7563 16.7795 10.7219 16.6279 10.6859C16.4545 10.6451 16.2392 10.6355 16.0663 10.6184C15.9438 10.6065 15.8338 10.5894 15.7428 10.5594C15.6537 10.5302 15.5744 10.4705 15.4989 10.4064C15.4416 10.3578 15.3866 10.307 15.3283 10.2651C15.3095 10.2514 15.2886 10.2398 15.2639 10.2323C15.2502 10.228 15.2163 10.2428 15.1706 10.2575C15.1381 10.2678 15.1003 10.2786 15.0604 10.2827C14.9826 10.2054 14.8993 10.108 14.815 9.99617C14.8158 9.9896 14.8165 9.98285 14.8174 9.97602C14.8174 9.97589 14.8175 9.97576 14.8175 9.97563C14.8349 9.81813 14.8708 9.61304 14.673 9.44367C14.6225 9.40006 14.567 9.3837 14.5175 9.36994C14.4688 9.35601 14.4244 9.34186 14.3954 9.30224C14.3634 9.25897 14.3511 9.18893 14.3397 9.11483C14.3235 9.01052 14.3064 8.8932 14.2237 8.80396C14.2181 8.79787 14.2118 8.791 14.2056 8.78438C14.1477 8.72266 14.0591 8.62326 13.9395 8.54242C13.7631 8.21241 13.5881 7.87335 13.4143 7.53288C13.1248 6.96509 12.8367 6.38921 12.549 5.8062C12.4109 5.52763 12.2043 5.28341 11.9716 5.13614C11.7399 4.99208 11.499 4.94866 11.2995 5.02849C11.0998 5.10775 10.9548 5.30496 10.8866 5.5699C10.8199 5.83787 10.8401 6.15928 10.9357 6.45862C11.0944 6.95257 11.2561 7.44849 11.4264 7.943C11.4329 7.96987 11.4395 7.99666 11.4463 8.02308C11.4984 8.22336 11.5174 8.42123 11.5379 8.62C11.5422 8.66463 11.5474 8.71156 11.553 8.75796Z" fill="#E56C45"/>
<path d="M12.1571 12.0773C12.1257 12.169 12.0678 12.2622 11.9975 12.3493C11.7344 12.652 11.4275 12.8313 11.2361 12.9432C11.2313 12.9461 11.2266 12.9489 11.2218 12.9517C11.1596 12.9876 11.105 13.0248 11.0417 13.0676C10.8908 13.1691 10.6865 13.3058 10.2312 13.4904C10.117 13.5707 10.0021 13.6485 9.88742 13.7231C9.75604 13.8087 9.62251 13.893 9.49717 13.9709C9.39461 14.035 9.29147 14.0979 9.16297 14.1703C9.09652 14.2073 9.03065 14.2442 8.91888 14.2989C8.85465 14.3284 8.81161 14.3549 8.62496 14.4215C8.57603 14.4376 8.52015 14.4578 8.39318 14.4857C8.33802 14.4973 8.24351 14.5156 8.11646 14.5236C8.03696 14.5284 7.93839 14.5299 7.81741 14.5178C7.65621 14.4961 7.50266 14.4859 7.17928 14.3318C6.88291 14.1982 6.45203 13.804 6.29623 13.3494C6.21614 13.1369 6.18582 12.9349 6.18055 12.7666C6.17605 12.6171 6.18923 12.496 6.20748 12.3915C6.28493 12.0107 6.37238 11.8976 6.42865 11.7885C6.54491 11.5949 6.6112 11.5279 6.67703 11.454C7.20829 10.922 7.60604 10.9189 7.78228 10.8778C7.99574 10.8502 8.09055 10.8585 8.19037 10.8635C8.35916 10.876 8.45425 10.8977 8.5302 10.9144C8.68138 10.9497 8.7732 10.9817 8.85586 11.0107C9.02001 11.0698 9.13971 11.123 9.25718 11.1768C9.48743 11.2835 9.68884 11.3898 9.8837 11.4972C10.2733 11.7128 10.6364 11.9353 10.9952 12.1639C11.2626 12.3301 11.5338 12.5112 11.8331 12.7677C11.8559 12.7838 11.8799 12.8012 11.904 12.819C12.0518 12.9219 12.3049 13.1569 12.3978 13.2649C12.6014 13.4981 12.6534 13.6107 12.7249 13.7385C12.7891 13.8613 12.8376 13.9743 12.881 14.0994C12.9235 14.2257 12.9619 14.3563 12.9891 14.5525C13.0016 14.652 13.014 14.7691 13.0031 14.9475C12.9833 15.1202 12.9818 15.3914 12.7055 15.8103C12.5237 16.0936 12.115 16.3756 11.7884 16.4434C11.4558 16.5223 11.2403 16.4862 11.0936 16.4596C10.7922 16.3922 10.6952 16.3226 10.5899 16.2657C10.4072 16.154 10.3338 16.0793 10.2577 16.0076C10.1686 15.8837 10.107 15.7919 10.0708 15.7261C10.037 15.6921 10.0062 15.6684 10.0453 15.6737C10.0699 15.6764 10.1054 15.6895 10.2285 15.7006C10.3382 15.7067 10.6134 15.7214 10.9316 15.5141C11.2478 15.3008 11.3428 15.0209 11.3673 14.9224C11.394 14.8098 11.3845 14.7827 11.3809 14.7847C11.3755 14.7894 11.3702 14.8223 11.362 14.9051C11.3571 14.9492 11.3538 14.9998 11.3356 15.1065C11.2935 15.2192 11.3635 15.3515 10.9949 15.8117C11.2244 15.5537 11.2646 15.3429 11.2905 15.2191C11.3121 15.0803 11.3057 15.0747 11.3072 15.0236C11.306 14.9426 11.2985 14.9054 11.2954 14.8881C11.2872 14.8472 11.2828 14.8431 11.2808 14.8433C11.2769 14.8466 11.2807 14.8769 11.2854 14.9062C11.2967 14.9715 11.3147 15.0495 11.336 15.1327C11.3779 15.2966 11.4291 15.472 11.4829 15.6473C11.5912 15.9994 11.7119 16.3556 11.8392 16.7176C11.8916 16.8671 11.9461 17.0193 12.0017 17.1778C12.0305 17.2599 12.058 17.3389 12.0887 17.433C12.1034 17.4785 12.1206 17.5324 12.1378 17.5947C12.1491 17.6371 12.1566 17.662 12.1717 17.7384C12.1793 17.7828 12.1866 17.8112 12.1926 17.9116C12.194 17.9814 12.2015 18.0704 12.1569 18.2463C12.1449 18.2905 12.1285 18.3406 12.1035 18.3972C12.0666 18.4827 11.9814 18.6344 11.8388 18.7585C11.5436 19.0412 11.0451 19.0514 10.8512 18.9742C10.6284 18.9054 10.5015 18.7991 10.4181 18.721C10.3544 18.6592 10.3199 18.615 10.2883 18.5723C10.2228 18.4796 10.2118 18.453 10.1866 18.4062C10.1474 18.3291 10.128 18.2777 10.1128 18.2383C9.94073 17.7239 9.90709 17.4607 9.82491 17.1096C9.75486 16.9208 9.68263 16.7438 9.61664 16.5836C9.58429 16.5047 9.55334 16.4292 9.52516 16.3604C9.51122 16.3269 9.49784 16.2943 9.48542 16.2649C9.4779 16.2543 9.44721 16.1574 9.4738 16.2834C9.40997 16.101 9.37828 15.8876 9.38543 15.6976C9.45811 14.8907 9.76779 14.6594 9.87679 14.4792C10.012 14.3074 10.1051 14.2065 10.1806 14.1101C10.1899 14.0983 10.199 14.0867 10.2077 14.0752C10.2411 14.0188 10.2747 13.9673 10.3069 13.9209C10.5642 13.4739 10.7896 13.245 10.9903 13.0065C11.0133 13.0013 11.036 12.9969 11.0598 12.9922C11.0624 12.9903 11.0651 12.9884 11.0678 12.9865C11.5236 12.7017 11.7161 12.7311 11.9446 12.6619C12.1626 12.6116 12.3739 12.5586 12.615 12.5029C12.8237 12.4545 13.0561 12.4063 13.3009 12.3618C13.4573 12.3331 13.5414 12.3795 13.6113 12.4167C13.632 12.4275 13.6509 12.4376 13.6685 12.4449C13.7288 12.4701 13.766 12.4074 13.7617 12.3496C13.7574 12.3208 13.7428 12.2872 13.6747 12.3106C13.6851 12.2652 13.6934 12.239 13.7108 12.2867C13.7373 12.3364 13.6731 12.5425 13.7276 12.7128C13.778 12.8732 13.8213 12.894 13.8101 12.9074C13.7904 12.9225 13.6837 12.927 13.5826 12.9322C13.5186 12.9306 13.4581 12.931 13.3514 12.8702C13.3167 12.8496 13.2687 12.8177 13.1993 12.7527C13.157 12.7111 13.1099 12.6642 13.0436 12.5687C12.9735 12.4454 12.8462 12.3151 12.8365 11.871C12.8229 11.4429 13.1828 11.0232 13.3054 10.9549C13.4688 10.8334 13.5744 10.799 13.6389 10.7738C13.7951 10.7208 13.839 10.7196 13.9127 10.708C14.0675 10.6999 14.3496 10.6374 14.8018 10.8741C15.0602 11.0262 15.1276 11.1493 15.1533 11.1852C15.179 11.2287 15.1767 11.243 15.1772 11.2604C15.1769 11.2696 15.1775 11.2778 15.1796 11.2856C15.2647 11.3854 15.3497 11.491 15.4393 11.6611C15.4984 11.8321 15.7306 12.0861 15.4716 12.7456C15.3243 13.0592 15.0279 13.2534 14.8442 13.3223C14.648 13.3985 14.5274 13.4099 14.4229 13.422C14.221 13.4398 14.1071 13.4323 14 13.4293C13.8276 13.4232 13.659 13.368 13.4923 13.3021C13.3192 13.2336 13.1448 13.1524 12.9529 13.0927C12.7916 13.0421 12.6652 12.9994 12.5511 12.9585C11.933 12.651 11.7009 12.1607 11.5895 11.8902C11.5401 11.7653 11.5081 11.6566 11.4821 11.5543C11.4414 11.3935 11.4185 11.229 11.4054 11.0845C11.3988 11.0133 11.3945 10.9446 11.3896 10.8999C11.3872 10.8794 11.3842 10.8609 11.3813 10.8805C11.3805 10.8939 11.3771 10.9056 11.3836 10.9856C11.3873 11.0208 11.3915 11.0849 11.4255 11.2104C11.4383 11.256 11.4776 11.3921 11.5692 11.5471C11.63 11.6598 11.899 12.0459 12.3809 12.1931C12.8833 12.3568 13.3311 12.1818 13.4591 12.1148C13.6059 12.0424 13.6909 11.9758 13.7535 11.9244L13.7794 11.9019C13.6796 12.0269 13.5791 12.1706 13.5155 12.2964C13.2411 12.5374 12.9572 12.8287 12.6806 13.1469C12.594 13.2464 12.4721 13.3214 12.3242 13.3669C12.2251 13.4024 12.1166 13.4227 12.0009 13.4269C11.7056 13.4366 11.3907 13.3422 11.1118 13.1685C10.8332 12.9944 10.6179 12.741 10.5056 12.4664C10.4615 12.3592 10.4342 12.253 10.4241 12.1497C10.4116 11.9834 10.4444 11.8218 10.5199 11.6821C10.7707 11.2203 11.0513 10.7559 11.4108 10.3037C11.5553 10.1226 11.7131 9.9435 11.8906 9.76942C11.8959 9.7658 11.9095 9.75182 11.915 9.74832C11.9739 9.69887 12.0503 9.63911 12.1721 9.57439C12.2406 9.53513 12.5929 9.36637 13.0016 9.42542C13.4442 9.45968 13.876 9.84881 13.9649 10.0125C14.0816 10.1818 14.1284 10.3206 14.1536 10.3989C14.2314 10.6801 14.2125 10.7192 14.2213 10.7807C14.2267 10.8851 14.2257 10.9148 14.2268 10.9499C14.2281 11.0112 14.2301 11.04 14.2327 11.0642C14.2376 11.1098 14.2459 11.123 14.2456 11.1003C14.2609 11.0777 14.1456 10.7558 13.8826 10.6155C13.8789 10.6133 13.8751 10.6111 13.8714 10.609C14.0268 10.6965 14.1797 10.7792 14.3144 10.8457C14.4332 10.9101 14.6095 10.9649 14.509 10.9481C14.4756 10.9461 14.4322 10.9355 14.2858 10.9489C14.1658 10.9623 13.9044 10.9489 13.5233 11.2869C13.1202 11.6542 13.0801 12.2341 13.1214 12.4354C13.2062 12.8804 13.2885 12.9262 13.3849 13.0668C13.3302 13.0232 13.2706 12.9689 13.2434 12.9493C13.22 12.918 13.2256 13.012 13.5784 13.2233C14.1019 13.4737 14.2804 13.3764 14.3426 13.3927C14.4172 13.3651 14.4018 13.4581 14.8939 13.1781C14.9514 13.1394 15.0143 13.0915 15.0799 13.0305C15.1541 12.9626 15.2586 12.8466 15.3393 12.7146C15.5098 12.4525 15.5995 12.0573 15.5643 11.7557C15.5276 11.4336 15.4518 11.2995 15.3921 11.1774C15.3276 11.0575 15.2785 10.995 15.2447 10.9512C15.0943 10.7715 15.0749 10.7763 15.0521 10.7541C15.0168 10.7285 15.0423 10.7542 15.0662 10.7786C15.1195 10.832 15.1966 10.9115 15.2725 10.9962C15.379 11.1152 15.492 11.2434 15.6394 11.4177C15.7174 11.5143 15.8398 11.6557 15.9622 11.9388C16.1499 12.299 16.1521 13.0765 15.9029 13.5002C15.6728 13.942 15.421 14.1465 15.2103 14.3098C14.7185 14.6481 14.5281 14.6418 14.3095 14.6938C14.0401 14.7381 13.7823 14.7238 13.552 14.7068C13.2232 14.6808 12.9538 14.6498 12.8463 14.706C12.7622 14.7492 12.6752 14.7781 12.6183 14.7928C12.569 14.7941 12.5136 14.851 12.7021 14.67C12.681 14.6854 12.6605 14.7002 12.6406 14.7147C12.4588 14.8461 12.3264 14.9498 12.3291 15.0353C12.33 15.1159 12.3124 15.1361 12.2851 15.1381C12.2576 15.1772 12.2278 15.2163 12.1949 15.2579C12.0928 15.3873 11.9569 15.5427 11.8207 15.7194C11.6624 15.9194 11.588 15.9791 11.5723 15.916C11.5606 15.869 11.5398 15.7447 11.5146 15.6932C11.5667 15.9262 11.57 15.933 11.6281 16.0514C11.7564 16.2934 11.8549 16.541 11.8672 16.7463C11.8727 16.8397 11.8958 16.9425 11.9206 17.0466C11.9533 17.184 11.9894 17.3251 11.9888 17.4375C11.9879 17.482 11.9775 17.5222 11.9563 17.5402C11.9454 17.5486 11.9323 17.5514 11.9081 17.5341C11.8939 17.5218 11.8796 17.508 11.847 17.4715C11.796 17.4266 11.8024 17.3764 11.5361 17.2244C11.4944 17.204 11.4461 17.1846 11.3912 17.1694C11.2802 17.1368 11.0951 17.1101 10.8876 17.1796C10.6792 17.2459 10.5118 17.4104 10.4387 17.5376C10.3191 17.7621 10.345 17.7844 10.329 17.8616C10.3185 17.9838 10.3338 18.0291 10.3378 18.0427C10.35 18.0822 10.3612 18.0941 10.3685 18.0959C10.37 18.1008 10.3345 17.9938 10.3047 17.919C10.2904 17.9099 10.2748 17.9002 10.2584 17.8896C10.1755 17.8351 10.0734 17.7698 9.99381 17.665C9.86829 17.5004 9.83473 17.3208 9.79917 17.1301C9.77135 16.9813 9.74226 16.8262 9.66575 16.6636C9.61355 16.5526 9.538 16.4323 9.46299 16.3102C9.3517 16.1294 9.24216 15.9444 9.21314 15.7879C9.20316 15.732 9.22302 15.6657 9.24529 15.605C9.24545 15.6047 9.2456 15.6044 9.24576 15.6041C9.24716 15.5996 9.2485 15.5952 9.2499 15.5908C9.2249 15.5285 9.19985 15.4644 9.17369 15.3827C9.15926 15.3348 9.14727 15.2992 9.131 15.217C9.12401 15.1775 9.11578 15.1423 9.11112 15.0483C9.10985 15.001 9.10798 14.9612 9.11853 14.872C9.1383 14.7574 9.15883 14.5645 9.37696 14.3155C9.07272 14.7137 9.17082 14.7476 9.14 14.7871C9.13411 14.8162 9.13309 14.804 9.13073 14.7836C9.12716 14.7383 9.12075 14.6524 9.13068 14.5202C9.1488 14.3879 9.14548 14.1913 9.36194 13.8672C9.57992 13.5157 10.135 13.336 10.3754 13.3617C10.5108 13.3552 10.6174 13.3664 10.7014 13.3771C11.1053 13.4417 11.268 13.5128 11.4263 13.5237C11.5605 13.5359 11.7802 13.6372 11.9927 13.7561C12.0001 13.7517 12.0059 13.741 11.9468 13.6977C11.8706 13.6744 11.8674 13.5486 11.2722 13.5449C10.9643 13.5316 10.3763 13.8573 10.2111 14.1895C10.0243 14.5065 10.0243 14.6811 10.0075 14.7872C9.9906 15.1644 10.0095 15.106 9.9911 15.152C9.97642 15.1797 10.0108 15.1562 10.0597 15.1568C10.0907 15.1605 10.1108 15.1604 10.2006 15.2433C10.1687 15.1933 10.1721 15.1903 10.1619 15.1856C10.1517 15.1822 10.1343 15.1889 10.1121 15.1935C10.0928 15.1977 10.0703 15.2009 10.0485 15.1969C10.0286 15.1936 10.0074 15.1481 9.95592 15.0801C9.92424 15.0382 9.88235 14.9888 9.82972 14.9397C9.76245 14.9126 9.69111 14.8853 9.6174 14.8585C9.47765 14.804 9.33849 14.7501 9.20019 14.6969C9.13954 14.7071 9.07895 14.7295 9.02177 14.7685C8.98073 14.7964 8.93922 14.8336 8.89652 14.8715C8.83841 14.9231 8.77954 14.9771 8.71639 15.0122C8.66696 15.0397 8.62565 15.0401 8.61134 15.0119C8.60456 14.9986 8.60375 14.9795 8.60299 14.9621C8.60213 14.9423 8.60134 14.9246 8.592 14.9206C8.58525 14.9178 8.57304 14.9257 8.55819 14.9352C8.53475 14.9506 8.50323 14.9698 8.4763 14.9582C8.37584 14.9149 8.26904 14.8541 8.16747 14.7974C8.05432 14.7343 7.94904 14.6774 7.86663 14.6538C7.79759 14.6318 7.59672 14.5252 7.77804 14.5242C7.81784 14.525 7.86587 14.5312 8.00417 14.5318C8.07915 14.5304 8.17381 14.5319 8.35858 14.4982C8.53356 14.4526 8.89844 14.4161 9.36491 13.9377C9.4086 13.888 9.45331 13.8359 9.52047 13.7369C9.5827 13.6103 9.69641 13.5766 9.81666 12.9584C9.8825 12.7096 9.80385 11.7977 9.19017 11.3143C8.64596 10.885 8.31761 10.9092 8.13526 10.8806C7.7762 10.8653 7.70036 10.9071 7.61504 10.921C7.33718 10.9963 7.35776 11.0133 7.3153 11.0314C7.26725 11.0617 7.2802 11.0636 7.28802 11.0636C7.32352 11.0588 7.39105 10.9879 7.45084 10.92C7.46397 10.9054 7.47629 10.8913 7.49025 10.8766C7.56922 10.7984 7.64572 10.7325 7.73646 10.7135C7.75852 10.7089 7.80821 10.7362 7.86932 10.771C7.9129 10.7954 7.96309 10.8232 8.01376 10.8458C8.12444 10.7737 8.23478 10.7038 8.34442 10.6354C8.34445 10.6273 8.34454 10.6189 8.34455 10.6105C8.34452 10.6103 8.34449 10.6101 8.34446 10.61C8.34498 10.4187 8.34177 10.1597 8.57563 10.1555C8.6352 10.1544 8.69547 10.1865 8.7499 10.2152C8.80339 10.2433 8.85129 10.2685 8.8865 10.2559C8.92649 10.2416 8.94641 10.1868 8.96681 10.1276C8.99587 10.0443 9.02484 9.95296 9.11718 9.94878C9.12347 9.94851 9.13022 9.94831 9.13729 9.94787C9.20389 9.9441 9.30047 9.93914 9.42893 9.97782C9.50551 9.93088 9.57705 9.88566 9.6294 9.85423C9.74858 9.7689 9.85799 9.68849 9.94254 9.62548C10.0346 9.5574 10.0879 9.51649 10.1126 9.52435C10.1363 9.53173 10.1663 9.55786 10.2005 9.46776C10.2223 9.36355 10.2436 9.26012 10.2645 9.15604C10.31 8.93193 10.4682 8.72129 10.7138 8.5672C10.9598 8.41313 11.2714 8.326 11.5937 8.3252C11.9161 8.32399 12.2276 8.42742 12.4661 8.60635C12.7044 8.78515 12.8478 9.02712 12.8723 9.27245C12.8834 9.38634 12.8941 9.49936 12.9041 9.61324C12.9438 10.0533 12.7574 10.783 12.4962 11.1947C12.4813 11.2285 12.4663 11.2613 12.4506 11.2934C12.3356 11.5288 12.2679 11.7394 12.2024 11.9411C12.1872 11.9874 12.1726 12.0326 12.1571 12.0773Z" fill="#E56C45"/>
<path d="M4.41738 8.34889C4.3404 8.31526 4.13118 8.25951 4.0332 8.30309C3.99099 8.32186 3.99632 8.38333 4.01708 8.44419C4.03783 8.50504 4.0821 8.57607 4.14249 8.61518C4.20287 8.65429 4.27803 8.65934 4.32803 8.63947C4.37802 8.6196 4.40058 8.57466 4.42383 8.52836" stroke="#E56C45" stroke-width="1.8555" stroke-linecap="round"/>
<path d="M17.7162 17.6965C17.6392 17.6629 17.43 17.6072 17.332 17.6507C17.2898 17.6695 17.2952 17.731 17.3159 17.7918C17.3367 17.8527 17.3809 17.9237 17.4413 17.9628C17.5017 18.0019 17.5769 18.007 17.6269 17.9871C17.6769 17.9673 17.6994 17.9223 17.7227 17.876" stroke="#E56C45" stroke-width="1.06399" stroke-linecap="round"/>
<path d="M20.1741 7.24174L20.0996 7.14941" stroke="#E56C45" stroke-width="3.98998" stroke-linecap="round"/>
</svg>
