<svg width="36" height="36" viewBox="0 0 36 36" fill="none" xmlns="http://www.w3.org/2000/svg">
<circle cx="18" cy="18" r="18" fill="#FFA283"/>
<mask id="mask0_524_221" style="mask-type:alpha" maskUnits="userSpaceOnUse" x="0" y="0" width="36" height="36">
<circle cx="18" cy="18" r="18" fill="#FF9D7D"/>
</mask>
<g mask="url(#mask0_524_221)">
<path d="M6.67291 -0.660974C7.03828 -0.543185 7.57513 -0.0731412 7.86776 0.175559C7.87322 0.180137 7.87868 0.184717 7.88413 0.189297C7.95438 0.249153 8.02412 0.302046 8.1066 0.364032C8.29917 0.508153 8.56193 0.707289 9.07935 1.16469C9.24618 1.27554 9.4097 1.38446 9.57654 1.49622C11.3651 2.6933 13.1605 3.86507 15.043 4.886C15.0678 4.89679 15.093 4.90772 15.1185 4.91874C15.6098 5.13248 16.2241 5.37741 16.5922 5.57578C17.0595 5.82887 17.3776 6.00494 17.6394 6.14993C18.863 6.67241 20.128 7.10096 21.423 7.37596C21.7684 7.44947 22.1106 7.50592 22.4358 7.53098C22.6113 7.5445 22.7851 7.54777 22.9237 7.5367C22.9915 7.53173 23.0533 7.52087 23.0709 7.51634C23.0771 7.51605 23.0755 7.51161 23.0185 7.54391C22.9893 7.563 22.9431 7.5856 22.8587 7.68024C22.785 7.75943 22.6142 8.02673 22.6896 8.36754C22.6699 8.27319 22.6438 8.18336 22.6101 8.09367C22.4871 7.76412 22.2625 7.45534 21.9607 7.17638C21.7688 7.03122 21.5621 6.91112 21.3614 6.80765C21.0791 6.66228 20.8085 6.54871 20.5882 6.44128C20.0582 6.18062 19.4317 5.85027 18.9156 5.5517C18.8337 5.50386 18.7484 5.45334 18.6726 5.40666C18.5211 5.33033 18.3664 5.24997 18.1833 5.12519C18.0078 4.98094 17.7459 4.87829 17.5149 4.29545C17.4359 4.08152 17.4281 3.70843 17.5594 3.4375C17.685 3.16507 17.8487 3.02742 17.9672 2.93681C18.2105 2.76395 18.3611 2.72328 18.4996 2.67668C18.5576 2.67167 18.6092 2.67099 18.6606 2.67194C19.1678 2.6996 19.5595 2.70624 20.2247 2.82901C20.3484 2.85499 20.4797 2.88431 20.6189 2.91884C20.9528 3.00167 21.333 3.11483 21.7596 3.28467C22.0343 3.39473 22.1508 3.5067 22.245 3.59671C22.2727 3.62331 22.2985 3.64828 22.3255 3.67121C22.4182 3.7498 22.5448 3.76351 22.695 3.78218C22.8895 3.80636 23.1248 3.83918 23.359 4.02883C24.0974 4.63481 24.5017 4.71706 24.8216 4.77526C24.9144 4.79265 24.9983 4.80855 25.0777 4.83625C25.3352 4.92588 25.6384 5.15856 25.8498 5.35841C26.0181 5.51741 26.4334 5.6931 26.758 5.79327C26.8809 5.83136 27.0305 5.912 27.2057 6.00324C27.3877 6.09798 27.5978 6.20433 27.8337 6.28454C28.4296 6.48543 28.7352 6.55567 28.9801 6.6109C29.0495 6.62597 29.114 6.63916 29.1782 6.65103C29.2934 6.67225 29.4233 6.69617 29.5567 6.71633L29.5222 6.70849C29.6495 6.72635 29.7809 6.74616 29.9123 6.76647C30.2784 6.82311 30.6419 6.88273 30.9177 6.91221C31.1957 6.99007 31.4692 7.06724 31.7405 7.14117C32.1489 7.25976 32.3121 7.26816 32.3287 7.28048C32.3456 7.30552 32.5384 7.32589 32.8147 7.29038C33.0877 7.26382 33.3902 7.26189 33.6343 7.39616C33.8748 7.53059 34.0527 7.78857 34.0306 8.17449C34.0136 8.54436 33.7325 9.08701 33.0998 9.34954C32.3628 9.64914 31.6751 9.50834 31.2516 9.44721C30.9292 9.39669 30.6108 9.34155 30.2973 9.28496C29.8639 9.20671 29.4407 9.12625 29.0252 9.05106C29.0186 9.04916 28.9983 9.04553 28.9917 9.04344C28.4503 8.92586 27.9407 8.75212 27.461 8.54929C26.8155 8.27565 26.2192 7.9571 25.6486 7.62874C25.5901 7.59504 25.5318 7.56109 25.4736 7.52703C24.96 7.31808 24.4654 7.10174 24.1313 6.93563C23.8556 6.79821 23.6815 6.6572 23.5323 6.53749C23.4297 6.45517 23.3389 6.38289 23.2364 6.32996C23.1814 6.30155 23.1054 6.2647 23.0139 6.22103C22.6392 6.04142 22.0129 5.75629 21.4801 5.46062C21.2432 5.32812 20.9754 5.16226 20.7132 5.01751C20.3806 4.83236 20.0559 4.68429 19.8499 4.64482C19.8315 4.64129 19.8133 4.63923 19.7969 4.63887C19.5493 4.62743 19.1198 4.60816 19.0404 4.61148C19.0388 4.60234 19.0574 4.60962 19.1774 4.50586C19.234 4.45284 19.3297 4.34901 19.3857 4.17356C19.4436 3.99916 19.4221 3.80568 19.3843 3.7009C19.3083 3.5141 19.2726 3.52762 19.2853 3.52701C19.2945 3.53235 19.3307 3.55095 19.3649 3.55675C19.5058 3.5855 19.6387 3.68432 19.8588 3.83118C20.0123 3.93348 20.214 4.05983 20.5092 4.21346C20.851 4.39137 21.0862 4.5531 21.2833 4.69495C21.5608 4.896 21.7648 5.05003 22.1297 5.20973C22.535 5.38731 22.9466 5.65187 23.2104 5.94438C23.3305 6.07626 23.4734 6.2254 23.6125 6.39584C23.7967 6.62017 23.9725 6.88623 24.0767 7.15919C24.1631 7.3842 24.1802 7.59041 24.1834 7.76761C24.1842 7.82262 24.1839 7.87534 24.1837 7.92605C24.1931 7.96273 24.2019 7.9997 24.2102 8.03696C24.2863 8.39871 24.0871 8.65329 23.9985 8.73987C23.8963 8.8406 23.8224 8.88008 23.7556 8.91643C23.6276 8.98176 23.5329 9.00879 23.4434 9.03289C23.4093 9.05044 23.3749 9.06793 23.3392 9.08502C23.1627 9.17018 22.9585 9.24955 22.7179 9.28272C22.3363 9.33334 22.0284 9.27415 21.7136 9.20359C21.5249 9.1606 21.3345 9.11173 21.1259 9.07135C21.0655 9.05963 21.0034 9.04877 20.9391 9.03911C20.7475 9.01037 20.5267 8.98934 20.3079 8.96506C19.9836 8.92941 19.6628 8.88575 19.4515 8.81168C19.3723 8.78398 19.3112 8.73332 19.2512 8.68287C19.2509 8.68259 19.2507 8.68232 19.2504 8.68204C19.2464 8.67861 19.2423 8.67523 19.2382 8.67182C18.7081 8.56008 18.1813 8.43394 17.6582 8.29428C17.611 8.28798 17.5633 8.28129 17.5161 8.27449C17.2853 8.24132 17.0614 8.20571 16.905 8.21046C16.7354 8.2159 16.3486 8.11411 15.9442 7.99596C15.6795 7.91898 15.4066 7.83525 15.1795 7.77697C15.0467 7.7429 14.9421 7.66031 14.8353 7.57474C14.7354 7.49484 14.6338 7.41251 14.5044 7.36405C14.4396 7.33977 14.3657 7.32235 14.2868 7.30351C14.2174 7.28691 14.1441 7.26924 14.0696 7.24459C14.0006 7.22171 13.8624 7.13678 13.6872 7.02653C13.5789 6.95837 13.4568 6.88075 13.3265 6.80144C12.9575 6.6448 12.5918 6.48182 12.2294 6.31236C12.1415 6.30055 12.0591 6.30168 11.9846 6.31968C11.9309 6.33248 11.8791 6.35433 11.8261 6.37654C11.7538 6.40675 11.679 6.4378 11.5931 6.44822C11.526 6.45636 11.4615 6.4389 11.4311 6.40369C11.417 6.38729 11.4102 6.36726 11.4041 6.34913C11.397 6.32836 11.3908 6.30986 11.3752 6.3017C11.3639 6.29583 11.3473 6.29864 11.3269 6.30189C11.2944 6.30709 11.2522 6.31365 11.2068 6.28953C11.0382 6.19978 10.8511 6.08462 10.6711 5.97168C10.4715 5.8465 10.2748 5.72089 10.1127 5.63378C9.9312 5.5364 9.69884 5.35127 9.46903 5.16404C9.30926 5.03386 9.15014 4.90258 9.00684 4.79887C8.86663 4.6974 8.70567 4.62002 8.54841 4.54334C8.35855 4.4506 8.17759 4.36096 8.05552 4.23909C8.0307 4.21432 8.01935 4.15612 8.00357 4.08215C7.99249 4.02979 7.97973 3.96982 7.9603 3.90932C7.77966 3.78832 7.60518 3.66782 7.4283 3.54237C7.41875 3.54276 7.40895 3.5431 7.39907 3.54353C7.39889 3.54357 7.39871 3.54361 7.39853 3.54365C7.17478 3.55272 6.87317 3.56761 6.6551 3.27896C6.60001 3.2058 6.58541 3.13221 6.57237 3.06602C6.55958 3.00102 6.54837 2.94298 6.50253 2.89958C6.45027 2.85016 6.36717 2.82478 6.27325 2.79431C6.1425 2.75234 5.99716 2.7054 5.90743 2.58441C5.90131 2.57615 5.89477 2.56722 5.88789 2.55803C5.82403 2.47191 5.72374 2.33972 5.6564 2.17219C5.30839 1.88118 4.96079 1.57862 4.61916 1.27083C4.05227 0.759806 3.50007 0.233071 2.96021 -0.299992C2.69529 -0.561599 2.50709 -0.891313 2.45089 -1.21073C2.38169 -1.54178 2.45455 -1.82871 2.63336 -2.03446C2.81348 -2.23922 3.08727 -2.34931 3.42045 -2.3323C3.7408 -2.32607 4.08641 -2.19848 4.38046 -1.99071C4.85921 -1.65169 5.33622 -1.32435 5.81807 -0.998716C5.84542 -0.984231 5.87284 -0.969482 5.90003 -0.95451C6.10627 -0.840048 6.31017 -0.778007 6.52606 -0.708006C6.57511 -0.692352 6.62542 -0.675859 6.67291 -0.660974Z" fill="black"/>
<path d="M10.3135 9.93759C10.2492 10.0948 10.0188 10.118 9.89387 10.1333C9.89154 10.1336 9.88921 10.134 9.88687 10.1343C9.85683 10.138 9.82725 10.147 9.79729 10.1562C9.72291 10.1794 9.62189 10.2101 9.37736 10.2194C9.31839 10.2467 9.25734 10.2738 9.19407 10.3003C8.52751 10.5805 7.81109 10.8063 7.08006 11.0392C7.07195 11.0442 7.06369 11.0493 7.05533 11.0544C6.89053 11.1553 6.69539 11.2779 6.53838 11.3084C6.34575 11.3434 6.20535 11.3562 6.08702 11.3659C5.66496 11.5113 5.24463 11.6693 4.83235 11.8549L4.94273 11.7794C4.80935 11.8628 4.68005 11.951 4.55459 12.0454C4.41004 12.1542 4.27081 12.2712 4.13937 12.3958C4.01826 12.5106 3.90219 12.6312 3.79143 12.7566C3.74397 12.8463 3.70527 12.9364 3.67008 13.0204C3.62083 13.1382 3.57891 13.2434 3.53059 13.3174C3.41384 13.4958 3.22337 13.6487 3.08284 13.767C3.05987 13.7863 3.03823 13.8046 3.01852 13.8217C2.94369 13.9451 2.87176 14.0704 2.80192 14.197C2.7875 14.1982 2.77266 14.1992 2.75748 14.2002C2.56818 14.2127 2.47884 14.3377 2.34406 14.5368C2.28534 14.6237 2.21795 14.7249 2.12992 14.8389C2.07322 14.9124 1.99924 14.9209 1.93857 14.9283C1.92073 14.9305 1.90404 14.9326 1.88934 14.9362C1.83898 14.9484 1.8499 15.0027 1.8632 15.0665C1.88037 15.1495 1.90188 15.2482 1.79681 15.2957C1.46149 15.449 1.51023 15.6405 1.54856 15.7812C1.55976 15.8227 1.56992 15.8602 1.56916 15.892C1.56669 15.995 1.45954 16.0813 1.35196 16.1326C1.27125 16.171 1.23984 16.3179 1.23856 16.4489C1.24127 16.4515 1.24126 16.4591 1.24134 16.4666C1.24201 16.5188 1.21315 16.5728 1.1788 16.6368C1.14339 16.7028 1.10202 16.7798 1.08235 16.8759C1.03256 17.1189 1.0014 17.2485 0.976128 17.3524C0.968876 17.3822 0.961973 17.4097 0.955299 17.4374C0.934209 17.5251 0.898656 17.6293 0.861881 17.7349C0.817956 17.8612 0.772356 17.9895 0.749321 18.0941C0.586769 18.3053 0.415248 18.5095 0.243307 18.7105C0.154948 18.8134 -0.0185306 18.8578 -0.24276 18.8299C-0.466744 18.8013 -0.722566 18.7049 -0.958756 18.5585C-1.1949 18.412 -1.39496 18.226 -1.52238 18.0408C-1.6492 17.855 -1.69128 17.6849 -1.64401 17.5644C-1.548 17.3213 -1.45481 17.0786 -1.35767 16.8409C-1.23878 16.5507 -1.1143 16.2675 -0.962103 15.9901C-0.85728 15.7992 -0.74562 15.6075 -0.627667 15.4169C-0.622254 15.4075 -0.620371 15.4045 -0.618486 15.4015C-0.605784 15.3812 -0.592944 15.361 -0.580095 15.3408C-0.544533 15.1373 -0.500825 14.936 -0.450035 14.8048C-0.408145 14.6964 -0.333902 14.6427 -0.270416 14.597C-0.226694 14.5656 -0.187942 14.5379 -0.167726 14.4985C-0.156871 14.4773 -0.143719 14.4473 -0.127714 14.4112C-0.0626744 14.2638 0.0517268 14.0122 0.244174 13.8384C0.329379 13.7614 0.449152 13.6857 0.563949 13.6151C0.728135 13.5138 0.882222 13.4229 0.911115 13.3425C0.961838 13.2009 1.08737 13.0854 1.19939 12.9855C1.30619 12.8901 1.40072 12.8084 1.40703 12.7248C1.4147 12.6248 1.47688 12.5822 1.56936 12.5203C1.63369 12.4773 1.7122 12.4253 1.79954 12.3383C1.90027 12.2381 1.99525 12.1874 2.07571 12.1452C2.18942 12.0856 2.2741 12.0428 2.31694 11.9007C2.36457 11.7429 2.44001 11.5973 2.54232 11.5245C2.58879 11.4914 2.63216 11.4437 2.67764 11.3945C2.73757 11.3296 2.80224 11.2611 2.88104 11.2208C2.94611 11.1874 3.0255 11.1866 3.09509 11.1868C3.11682 11.1868 3.13761 11.1869 3.15687 11.186C3.19672 11.148 3.23686 11.1097 3.27661 11.0715C3.27738 11.059 3.27788 11.0456 3.2785 11.0317C3.28159 10.9617 3.28644 10.8753 3.32345 10.8023C3.38176 10.687 3.4826 10.6404 3.58814 10.594C3.67083 10.5574 3.75614 10.5211 3.83084 10.4494C3.84104 10.4396 3.85117 10.4291 3.86126 10.418C3.8819 10.4074 3.93402 10.3607 3.95594 10.3532C4.00054 10.3161 4.0449 10.2699 4.08865 10.2244C4.1699 10.1397 4.24899 10.0574 4.32453 10.0375C4.35375 10.0296 4.39257 10.0464 4.43086 10.0633C4.43106 10.0635 4.43125 10.0636 4.43145 10.0637C4.43405 10.0649 4.43663 10.0659 4.43922 10.0671C4.59214 9.95007 4.73556 9.83643 4.88886 9.71668C4.89889 9.70112 4.90911 9.6856 4.91925 9.67029C4.9688 9.59546 5.01626 9.5234 5.03223 9.44956C5.05166 9.36833 5.15766 9.26914 5.26638 9.16724C5.33577 9.10145 5.4152 9.02972 5.47002 8.96164C5.50247 8.92163 5.55837 8.93144 5.61551 8.94191C5.66886 8.95166 5.72291 8.9621 5.76309 8.93135C5.78291 8.9161 5.79966 8.89099 5.81746 8.86423C5.83312 8.84067 5.84961 8.81578 5.8697 8.79536C5.88836 8.77641 5.9471 8.76728 6.02127 8.75623C6.0668 8.74956 6.12208 8.74012 6.17596 8.7282C6.29253 8.64419 6.40677 8.56322 6.52707 8.48182C6.53995 8.44125 6.54522 8.39432 6.54075 8.33965C6.53754 8.30043 6.52925 8.25575 6.52085 8.21004C6.50942 8.14785 6.49768 8.08355 6.49761 8.02774C6.49766 7.98408 6.5126 7.9594 6.53383 7.96714C6.54378 7.97072 6.55513 7.9811 6.5654 7.99048C6.57716 8.00122 6.58763 8.01077 6.59319 8.00764C6.59719 8.00536 6.5969 7.99384 6.59663 7.97985C6.5962 7.95752 6.59574 7.92864 6.61198 7.91973C6.67267 7.88646 6.74486 7.86103 6.81712 7.83578C6.89964 7.80666 6.9788 7.77928 7.03487 7.74449C7.09573 7.70639 7.21305 7.69502 7.32469 7.68696C7.40235 7.68142 7.48137 7.67547 7.54523 7.65918C7.6073 7.64343 7.6578 7.59767 7.70609 7.55371C7.76722 7.49956 7.82605 7.44778 7.89622 7.45508C7.91044 7.45658 7.94119 7.48939 7.97945 7.53057C8.00671 7.55969 8.03706 7.59334 8.06991 7.62234C8.1446 7.59099 8.21852 7.56233 8.29151 7.53612C8.29188 7.52979 8.29229 7.52333 8.29267 7.51675C8.29266 7.51661 8.29264 7.51647 8.29263 7.51632C8.30358 7.36691 8.32127 7.16165 8.47882 7.21796C8.52004 7.23184 8.5579 7.27242 8.59182 7.309C8.62512 7.34494 8.65471 7.3772 8.67962 7.37688C8.7079 7.37649 8.72708 7.33937 8.74793 7.29913C8.77921 7.24187 8.81542 7.17769 8.88167 7.20085C8.8862 7.20242 8.89109 7.20419 8.89612 7.20591C8.9432 7.22241 9.01514 7.24621 9.10214 7.3153C9.26953 7.28316 9.45149 7.2539 9.62636 7.23422C9.92708 7.19894 10.229 7.18113 10.5572 7.18264C10.7164 7.18381 10.8947 7.28965 11.0262 7.48522C11.1599 7.68079 11.22 7.94643 11.2165 8.21875C11.2147 8.49145 11.181 8.7544 11.141 8.96333C11.0993 9.17198 11.0409 9.30844 10.9528 9.35499C10.8106 9.42999 10.6528 9.51865 10.4958 9.60987C10.4888 9.61777 10.4816 9.62554 10.4743 9.633C10.4193 9.68867 10.3785 9.7813 10.3407 9.87378C10.3318 9.89511 10.3228 9.91654 10.3135 9.93759Z" fill="black"/>
</g>
<path d="M14.551 21.0468C15.4692 21.9791 19.475 22.9015 21.052 18.8621" stroke="black" stroke-width="2.25" stroke-linecap="round"/>
<path d="M21.0129 17.4425C21.0699 18.1319 21.7116 19.2843 23.1633 18.964" stroke="black" stroke-width="2.1" stroke-linecap="round"/>
<circle cx="12.1875" cy="17.0625" r="1.6875" fill="black"/>
<circle cx="19.6875" cy="14.0625" r="1.6875" fill="black"/>
</svg>
