<svg width="36" height="36" viewBox="0 0 36 36" fill="none" xmlns="http://www.w3.org/2000/svg">
<rect width="36" height="36" rx="18" fill="white"/>
<path d="M10.6484 10.8587C10.7885 10.7443 11.0587 10.791 11.2074 10.8167C11.2101 10.8171 11.2128 10.8175 11.2156 10.8179C11.2508 10.824 11.2842 10.8256 11.3233 10.8273C11.4165 10.8314 11.5425 10.837 11.8054 10.9099C11.8818 10.9072 11.9583 10.9057 12.0348 10.9057C12.8608 10.9057 13.6869 11.0008 14.5129 11.1146C14.5233 11.114 14.5339 11.1134 14.5446 11.1128C14.7518 11.101 15.0087 11.0864 15.1701 11.1281C15.3754 11.1812 15.5147 11.2304 15.6292 11.2729C16.2853 11.3645 16.9414 11.4463 17.5975 11.4802C17.8031 11.4908 18.0088 11.4966 18.2144 11.4966C18.4038 11.4966 18.5932 11.4929 18.7825 11.4861C18.8928 11.4612 18.9976 11.4317 19.0948 11.4043C19.2315 11.3658 19.3531 11.3316 19.4536 11.3205C19.6956 11.2936 19.9702 11.336 20.1741 11.3675C20.2074 11.3727 20.2389 11.3775 20.268 11.3817C20.4299 11.3661 20.5919 11.3494 20.7538 11.3324C20.7646 11.3419 20.7755 11.3518 20.7866 11.3619C20.9248 11.4886 21.0947 11.487 21.3621 11.4847C21.4786 11.4836 21.6136 11.4825 21.7725 11.4917C21.8749 11.4976 21.9275 11.5478 21.9705 11.5888C21.9831 11.6009 21.995 11.6122 22.007 11.6213C22.0481 11.6525 22.0915 11.6188 22.1427 11.5789C22.2091 11.5272 22.2889 11.4652 22.3942 11.5213C22.7298 11.6999 22.8777 11.5787 22.9895 11.487C23.0224 11.4601 23.0521 11.4358 23.0826 11.4223C23.1813 11.3785 23.322 11.4219 23.4283 11.4814C23.5126 11.5286 23.6813 11.4818 23.8092 11.4223C23.8575 11.3998 23.9229 11.3992 24 11.3987C24.0797 11.3981 24.1719 11.3976 24.2706 11.3724C24.52 11.3086 24.6525 11.2776 24.759 11.2529C24.7894 11.2458 24.8177 11.2394 24.846 11.2327C24.9353 11.2115 25.0461 11.194 25.1583 11.1764C25.2926 11.1554 25.4289 11.134 25.5326 11.1054C25.8013 11.1356 26.0701 11.173 26.3389 11.2103C26.4769 11.2297 26.6093 11.3388 26.707 11.5185C26.8046 11.6985 26.8594 11.9331 26.8594 12.1763C26.8594 12.4194 26.8045 12.654 26.707 12.834C26.6093 13.0138 26.4769 13.123 26.3389 13.1424C26.0608 13.181 25.7826 13.2196 25.5045 13.2504C25.1657 13.2878 24.8269 13.3136 24.4881 13.3136C24.2511 13.3136 24.0141 13.3078 23.7771 13.2974C23.7527 13.2963 23.7283 13.2952 23.7039 13.294C23.5048 13.3539 23.3061 13.4083 23.1661 13.4277C23.0505 13.4438 22.9662 13.4118 22.894 13.3845C22.8444 13.3657 22.8004 13.349 22.756 13.3517C22.7321 13.3531 22.6994 13.3568 22.6601 13.3612C22.4995 13.3793 22.2267 13.4101 21.9778 13.3517C21.8673 13.3257 21.739 13.2746 21.6166 13.2259C21.4414 13.1561 21.2781 13.0911 21.1957 13.111C21.0509 13.1461 20.8849 13.1164 20.7381 13.0901C20.5982 13.065 20.4758 13.0431 20.4062 13.0836C20.323 13.1321 20.2521 13.1123 20.1466 13.0831C20.0735 13.0628 19.9837 13.0381 19.8617 13.0281C19.7209 13.0166 19.6213 12.9827 19.5366 12.9539C19.4174 12.9133 19.3277 12.8828 19.194 12.9389C19.0455 13.0013 18.8903 13.041 18.7681 13.0213C18.7124 13.0123 18.6488 13.0145 18.5825 13.0168C18.4948 13.0198 18.4025 13.0229 18.3183 13.0005C18.2489 12.9821 18.1915 12.9349 18.1407 12.8931C18.1249 12.8801 18.1097 12.8676 18.095 12.8567C18.0397 12.8573 17.9844 12.8582 17.9291 12.8596C17.9201 12.8672 17.9107 12.8756 17.9009 12.8843C17.8516 12.9279 17.791 12.9813 17.716 13.0079C17.5972 13.0501 17.493 13.0237 17.3831 12.9957C17.2975 12.9739 17.2085 12.9511 17.1064 12.9593C17.0368 12.9648 16.9575 12.9841 16.8789 13.0033C16.7622 13.0316 16.647 13.0596 16.5669 13.0418C16.5369 13.0352 16.5111 13.0055 16.4856 12.976C16.4855 12.9759 16.4854 12.9757 16.4853 12.9755C16.4835 12.9735 16.4818 12.9715 16.4801 12.9695C16.2851 12.9921 16.0901 13.017 15.8951 13.0433C15.8782 13.0509 15.8611 13.0584 15.8442 13.0658C15.7615 13.1019 15.6811 13.1371 15.6287 13.1869C15.572 13.241 15.4292 13.2724 15.2788 13.3055C15.1803 13.3272 15.0785 13.3496 14.9953 13.3796C14.9467 13.3971 14.9006 13.3666 14.8532 13.3351C14.8089 13.3057 14.7635 13.2755 14.7138 13.283C14.6889 13.2867 14.6621 13.2994 14.6334 13.3129C14.6081 13.3248 14.5815 13.3374 14.5535 13.3452C14.5275 13.3523 14.4697 13.3357 14.3955 13.3145C14.3497 13.3015 14.2976 13.2867 14.243 13.2745C14.0985 13.2936 13.954 13.3118 13.8096 13.3288C13.7795 13.3556 13.7533 13.3903 13.7326 13.4349C13.7177 13.467 13.7051 13.5052 13.6921 13.5444C13.6744 13.5976 13.6561 13.6526 13.6309 13.6965C13.6112 13.7308 13.588 13.7444 13.5724 13.7302C13.5651 13.7236 13.5596 13.711 13.5545 13.6997C13.5487 13.6868 13.5435 13.6752 13.5372 13.6756C13.5326 13.6758 13.5279 13.685 13.5221 13.6961C13.5127 13.7139 13.5006 13.7368 13.4822 13.7376C13.4135 13.7406 13.3355 13.7333 13.2591 13.726C13.1741 13.718 13.0911 13.7102 13.0249 13.717C12.9508 13.7247 12.8452 13.6906 12.7393 13.6566C12.6655 13.6329 12.5916 13.6094 12.5282 13.5997C12.466 13.5902 12.4013 13.6091 12.3387 13.6274C12.2634 13.6495 12.1911 13.6708 12.1296 13.641C12.1172 13.6349 12.1017 13.598 12.0823 13.5517C12.0686 13.519 12.0528 13.4815 12.0348 13.447C11.9566 13.447 11.8783 13.4455 11.8 13.4427C11.7973 13.4477 11.7944 13.4528 11.7916 13.458C11.7915 13.4581 11.7915 13.4583 11.7914 13.4584C11.7272 13.5759 11.6392 13.7367 11.5156 13.6408C11.4842 13.6164 11.4644 13.5714 11.4466 13.5308C11.4291 13.491 11.4134 13.4554 11.3905 13.4479C11.3645 13.4394 11.3338 13.4639 11.3004 13.4905C11.2534 13.5278 11.2009 13.5695 11.1482 13.5307C11.1446 13.528 11.1408 13.5251 11.1367 13.5222C11.0986 13.4946 11.042 13.4537 10.9858 13.3715C10.819 13.3495 10.6521 13.3238 10.4852 13.2958C10.2071 13.249 9.92891 13.1957 9.65081 13.1424C9.51551 13.1162 9.38575 13.0042 9.29007 12.825C9.19439 12.6455 9.14062 12.4149 9.14062 12.1763C9.14063 11.9377 9.1944 11.7072 9.29007 11.5277C9.38575 11.3485 9.5155 11.2366 9.65081 11.2103C9.87144 11.168 10.0921 11.1257 10.3128 11.0867C10.3244 11.0817 10.336 11.0769 10.3475 11.0724C10.4336 11.039 10.5134 10.9719 10.5932 10.9046C10.6116 10.8892 10.63 10.8737 10.6484 10.8587Z" fill="#332824"/>
<path d="M10.6484 25.4773C10.7885 25.5916 11.0587 25.5449 11.2074 25.5193C11.2101 25.5189 11.2128 25.5184 11.2156 25.518C11.2508 25.5119 11.2842 25.5104 11.3233 25.5086C11.4165 25.5045 11.5425 25.499 11.8054 25.4261C11.8818 25.4288 11.9583 25.4302 12.0348 25.4302C12.8608 25.4302 13.6869 25.3352 14.5129 25.2213C14.5233 25.2219 14.5339 25.2225 14.5446 25.2231C14.7518 25.2349 15.0087 25.2495 15.1701 25.2078C15.3754 25.1548 15.5147 25.1055 15.6292 25.0631C16.2853 24.9715 16.9414 24.8896 17.5975 24.8558C17.8031 24.8452 18.0088 24.8394 18.2144 24.8394C18.4038 24.8394 18.5932 24.843 18.7825 24.8498C18.8928 24.8747 18.9976 24.9043 19.0948 24.9317C19.2315 24.9702 19.3531 25.0043 19.4536 25.0155C19.6956 25.0423 19.9702 24.9999 20.1741 24.9684C20.2074 24.9633 20.2389 24.9584 20.268 24.9542C20.4299 24.9698 20.5919 24.9865 20.7538 25.0036C20.7646 24.9941 20.7755 24.9842 20.7866 24.974C20.9248 24.8473 21.0947 24.8489 21.3621 24.8513C21.4786 24.8523 21.6136 24.8534 21.7725 24.8442C21.8749 24.8383 21.9275 24.7881 21.9705 24.7471C21.9831 24.735 21.995 24.7238 22.007 24.7146C22.0481 24.6834 22.0915 24.7172 22.1427 24.757C22.2091 24.8087 22.2889 24.8708 22.3942 24.8147C22.7298 24.636 22.8777 24.7572 22.9895 24.8489C23.0224 24.8758 23.0521 24.9001 23.0826 24.9136C23.149 24.9431 23.2344 24.9331 23.3156 24.9052C23.3551 24.8917 23.3935 24.874 23.4283 24.8545C23.5126 24.8073 23.6813 24.8541 23.8092 24.9136C23.8575 24.9361 23.9229 24.9367 24 24.9373C24.0797 24.9378 24.1719 24.9383 24.2706 24.9636C24.52 25.0274 24.6525 25.0583 24.759 25.0831C24.7894 25.0901 24.8177 25.0966 24.846 25.1033C24.9353 25.1244 25.0461 25.1419 25.1583 25.1595C25.2926 25.1806 25.4289 25.202 25.5326 25.2305C25.8013 25.2003 26.0701 25.1629 26.3389 25.1256C26.4769 25.1062 26.6093 24.9972 26.707 24.8174C26.8046 24.6374 26.8594 24.4028 26.8594 24.1597C26.8594 23.9165 26.8045 23.6819 26.707 23.5019C26.6093 23.3221 26.4769 23.2129 26.3389 23.1935C26.0608 23.1549 25.7826 23.1163 25.5045 23.0856C25.1657 23.0481 24.8269 23.0223 24.4881 23.0223C24.2511 23.0223 24.0141 23.0281 23.7771 23.0385C23.7527 23.0396 23.7283 23.0408 23.7039 23.0419C23.5681 23.0011 23.4325 22.9628 23.3156 22.9364C23.2611 22.9241 23.2106 22.9144 23.1661 22.9082C23.0505 22.8922 22.9662 22.9241 22.894 22.9515C22.8444 22.9703 22.8004 22.9869 22.756 22.9843C22.7321 22.9828 22.6994 22.9792 22.6601 22.9747C22.4995 22.9566 22.2267 22.9258 21.9778 22.9843C21.8673 23.0102 21.739 23.0613 21.6166 23.1101C21.4414 23.1798 21.2781 23.2449 21.1957 23.2249C21.0509 23.1898 20.8848 23.2195 20.7381 23.2458C20.5982 23.2709 20.4758 23.2928 20.4062 23.2523C20.323 23.2039 20.2521 23.2236 20.1466 23.2528C20.0735 23.2731 19.9837 23.2979 19.8617 23.3078C19.7209 23.3193 19.6213 23.3532 19.5366 23.3821C19.4174 23.4227 19.3277 23.4532 19.194 23.397C19.0455 23.3347 18.8903 23.295 18.7681 23.3147C18.7124 23.3236 18.6488 23.3215 18.5825 23.3192C18.4948 23.3161 18.4025 23.313 18.3183 23.3354C18.2489 23.3538 18.1915 23.401 18.1407 23.4428C18.1249 23.4559 18.1097 23.4683 18.095 23.4792C18.0397 23.4786 17.9844 23.4777 17.9291 23.4763C17.9201 23.4687 17.9107 23.4603 17.9009 23.4517C17.8516 23.4081 17.791 23.3546 17.716 23.328C17.5972 23.2859 17.493 23.3122 17.3831 23.3403C17.2975 23.3621 17.2085 23.3848 17.1064 23.3767C17.0368 23.3711 16.9575 23.3518 16.8789 23.3327C16.7622 23.3043 16.647 23.2764 16.5669 23.2941C16.5369 23.3008 16.5111 23.3304 16.4856 23.3599C16.4855 23.3601 16.4854 23.3603 16.4853 23.3604C16.4835 23.3624 16.4818 23.3644 16.4801 23.3664C16.2851 23.3438 16.0901 23.3189 15.8951 23.2927C15.8782 23.2851 15.8611 23.2775 15.8442 23.2701C15.7615 23.234 15.6811 23.1989 15.6287 23.149C15.572 23.095 15.4292 23.0635 15.2788 23.0304C15.1803 23.0087 15.0785 22.9863 14.9953 22.9563C14.9467 22.9388 14.9006 22.9694 14.8532 23.0009C14.8089 23.0302 14.7635 23.0604 14.7138 23.0529C14.6889 23.0492 14.6621 23.0366 14.6334 23.023C14.6081 23.0111 14.5814 22.9985 14.5535 22.9908C14.5275 22.9836 14.4697 23.0002 14.3955 23.0214C14.3497 23.0345 14.2976 23.0493 14.243 23.0614C14.0985 23.0424 13.954 23.0241 13.8096 23.0072C13.7795 22.9804 13.7533 22.9456 13.7326 22.901C13.7177 22.869 13.7051 22.8307 13.6921 22.7916C13.6744 22.7383 13.6561 22.6833 13.6309 22.6395C13.6112 22.6052 13.588 22.5915 13.5724 22.6057C13.5651 22.6124 13.5596 22.6249 13.5545 22.6362C13.5487 22.6492 13.5435 22.6607 13.5372 22.6604C13.5326 22.6601 13.5279 22.6509 13.5221 22.6398C13.5127 22.6221 13.5006 22.5992 13.4822 22.5984C13.4135 22.5953 13.3355 22.6027 13.2591 22.6099C13.1741 22.6179 13.0911 22.6257 13.0249 22.6189C12.9508 22.6112 12.8452 22.6453 12.7393 22.6793C12.6655 22.703 12.5916 22.7266 12.5282 22.7362C12.466 22.7457 12.4013 22.7269 12.3387 22.7085C12.2634 22.6864 12.1911 22.6651 12.1296 22.695C12.1172 22.701 12.1017 22.738 12.0823 22.7842C12.0686 22.8169 12.0528 22.8544 12.0348 22.8889C11.9566 22.8889 11.8783 22.8904 11.8 22.8932C11.7973 22.8882 11.7944 22.8831 11.7916 22.8779C11.7915 22.8778 11.7915 22.8777 11.7914 22.8776C11.7271 22.76 11.6392 22.5992 11.5156 22.6952C11.4842 22.7195 11.4644 22.7646 11.4466 22.8051C11.4291 22.8449 11.4134 22.8805 11.3905 22.888C11.3645 22.8965 11.3338 22.8721 11.3004 22.8455C11.2534 22.8082 11.2009 22.7665 11.1482 22.8053C11.1446 22.8079 11.1408 22.8108 11.1367 22.8138C11.0986 22.8414 11.042 22.8822 10.9858 22.9644C10.819 22.9864 10.6521 23.0121 10.4852 23.0401C10.2071 23.0869 9.92891 23.1402 9.65081 23.1935C9.5155 23.2198 9.38574 23.3317 9.29007 23.511C9.19439 23.6904 9.14062 23.9211 9.14062 24.1597C9.14063 24.3982 9.1944 24.6287 9.29007 24.8082C9.38575 24.9874 9.5155 25.0994 9.65081 25.1256C9.87144 25.1679 10.0921 25.2102 10.3128 25.2493C10.3244 25.2542 10.336 25.259 10.3475 25.2635C10.4336 25.2969 10.5134 25.3641 10.5932 25.4313C10.6116 25.4468 10.63 25.4622 10.6484 25.4773Z" fill="#332824"/>
<path d="M25.6867 19.571C25.5777 19.6854 25.3675 19.6387 25.2519 19.613C25.2498 19.6126 25.2477 19.6122 25.2455 19.6118C25.2181 19.6057 25.1922 19.6041 25.1617 19.6024C25.0892 19.5983 24.9913 19.5927 24.7868 19.5198C24.7273 19.5225 24.6678 19.524 24.6083 19.524C23.9659 19.524 23.3234 19.4289 22.681 19.3151C22.6728 19.3157 22.6646 19.3163 22.6562 19.3169C22.4951 19.3287 22.2953 19.3433 22.1698 19.3016C22.0101 19.2485 21.9017 19.1993 21.8127 19.1568C21.3024 19.0652 20.7921 18.9834 20.2818 18.9495C20.1219 18.9389 19.9619 18.9331 19.802 18.9331C19.6547 18.9331 19.5074 18.9368 19.3601 18.9436C19.2744 18.9685 19.1928 18.998 19.1172 19.0254C19.0109 19.0639 18.9163 19.0981 18.8382 19.1092C18.6499 19.1361 18.4364 19.0937 18.2778 19.0622C18.2519 19.057 18.2274 19.0522 18.2048 19.0479C18.0788 19.0636 17.9528 19.0803 17.8269 19.0973C17.8185 19.0878 17.81 19.0779 17.8014 19.0678C17.6939 18.941 17.5618 18.9427 17.3537 18.945C17.2632 18.946 17.1582 18.9472 17.0346 18.938C16.9549 18.9321 16.914 18.8818 16.8806 18.8408C16.8708 18.8288 16.8616 18.8175 16.8522 18.8084C16.8202 18.7772 16.7865 18.8109 16.7467 18.8508C16.695 18.9024 16.633 18.9645 16.551 18.9084C16.29 18.7297 16.175 18.851 16.088 18.9427C16.0625 18.9696 16.0393 18.9939 16.0157 19.0074C15.9389 19.0512 15.8294 19.0078 15.7467 18.9483C15.6812 18.9011 15.55 18.9479 15.4505 19.0074C15.4129 19.0299 15.362 19.0305 15.3021 19.031C15.2401 19.0316 15.1684 19.0321 15.0916 19.0573C14.8977 19.1211 14.7946 19.1521 14.7117 19.1768C14.6881 19.1839 14.6661 19.1903 14.6441 19.197C14.5747 19.2182 14.4885 19.2356 14.4012 19.2532C14.2967 19.2743 14.1908 19.2957 14.1101 19.3243C13.9011 19.294 13.692 19.2567 13.483 19.2194C13.3756 19.2 13.2726 19.0909 13.1967 18.9111C13.1208 18.7312 13.0781 18.4966 13.0781 18.2534C13.0781 18.0103 13.1208 17.7756 13.1967 17.5957C13.2726 17.4159 13.3756 17.3066 13.483 17.2873C13.6993 17.2487 13.9156 17.2101 14.1319 17.1793C14.3954 17.1419 14.6589 17.116 14.9224 17.116C15.1068 17.116 15.2911 17.1218 15.4754 17.1323C15.4944 17.1333 15.5134 17.1345 15.5324 17.1357C15.6872 17.0758 15.8418 17.0214 15.9507 17.002C16.0406 16.9859 16.1061 17.0179 16.1623 17.0452C16.2009 17.064 16.2351 17.0807 16.2697 17.078C16.2882 17.0766 16.3136 17.0729 16.3442 17.0685C16.4692 17.0503 16.6814 17.0196 16.8749 17.078C16.9608 17.1039 17.0606 17.155 17.1559 17.2038C17.2921 17.2736 17.4191 17.3386 17.4832 17.3186C17.5958 17.2836 17.725 17.3133 17.8391 17.3396C17.9479 17.3646 18.0431 17.3866 18.0973 17.346C18.162 17.2976 18.2171 17.3174 18.2991 17.3466C18.356 17.3669 18.4258 17.3916 18.5207 17.4016C18.6303 17.4131 18.7078 17.447 18.7736 17.4758C18.8664 17.5164 18.9361 17.5469 19.0401 17.4908C19.1556 17.4284 19.2763 17.3887 19.3713 17.4084C19.4146 17.4174 19.4642 17.4152 19.5157 17.4129C19.5839 17.4099 19.6557 17.4068 19.7212 17.4291C19.7752 17.4476 19.8198 17.4948 19.8593 17.5366C19.8716 17.5496 19.8834 17.562 19.8949 17.573C19.9379 17.5724 19.9809 17.5715 20.0239 17.5701C20.0309 17.5625 20.0382 17.5541 20.0458 17.5454C20.0842 17.5018 20.1313 17.4484 20.1897 17.4218C20.282 17.3796 20.3631 17.406 20.4486 17.434C20.5151 17.4558 20.5844 17.4786 20.6638 17.4704C20.7179 17.4648 20.7796 17.4456 20.8407 17.4264C20.9315 17.398 21.0211 17.3701 21.0834 17.3879C21.1067 17.3945 21.1268 17.4242 21.1466 17.4537C21.1467 17.4538 21.1468 17.454 21.1469 17.4542C21.1482 17.4562 21.1496 17.4582 21.1509 17.4601C21.3026 17.4376 21.4543 17.4127 21.6059 17.3864C21.6191 17.3788 21.6323 17.3713 21.6455 17.3639C21.7098 17.3277 21.7723 17.2926 21.8131 17.2428C21.8572 17.1887 21.9682 17.1573 22.0852 17.1242C22.1618 17.1025 22.241 17.0801 22.3057 17.0501C22.3435 17.0326 22.3794 17.0631 22.4163 17.0946C22.4507 17.124 22.486 17.1541 22.5247 17.1467C22.544 17.143 22.5649 17.1303 22.5872 17.1168C22.6069 17.1049 22.6276 17.0922 22.6494 17.0845C22.6696 17.0773 22.7145 17.094 22.7722 17.1151C22.8079 17.1282 22.8484 17.143 22.8909 17.1552C23.0032 17.1361 23.1156 17.1179 23.228 17.1009C23.2514 17.0741 23.2717 17.0394 23.2878 16.9947C23.2994 16.9627 23.3092 16.9245 23.3193 16.8853C23.3331 16.8321 23.3473 16.7771 23.3669 16.7332C23.3822 16.6989 23.4003 16.6853 23.4124 16.6995C23.4181 16.7061 23.4224 16.7186 23.4264 16.73C23.4309 16.7429 23.4349 16.7544 23.4398 16.7541C23.4434 16.7539 23.4471 16.7447 23.4516 16.7336C23.4588 16.7158 23.4683 16.6929 23.4826 16.6921C23.536 16.6891 23.5967 16.6964 23.6561 16.7036C23.7222 16.7117 23.7868 16.7195 23.8383 16.7127C23.8959 16.705 23.9781 16.7391 24.0604 16.773C24.1178 16.7967 24.1753 16.8203 24.2246 16.83C24.2729 16.8395 24.3233 16.8206 24.372 16.8022C24.4305 16.7802 24.4868 16.7588 24.5346 16.7887C24.5443 16.7948 24.5563 16.8317 24.5714 16.8779C24.582 16.9107 24.5943 16.9481 24.6083 16.9827C24.6692 16.9827 24.7301 16.9842 24.791 16.987C24.7931 16.982 24.7953 16.9769 24.7975 16.9717C24.7976 16.9716 24.7976 16.9714 24.7976 16.9713C24.8476 16.8538 24.9161 16.693 25.0122 16.7889C25.0366 16.8133 25.052 16.8583 25.0659 16.8989C25.0795 16.9387 25.0916 16.9743 25.1094 16.9818C25.1297 16.9902 25.1535 16.9658 25.1796 16.9392C25.2161 16.9019 25.2569 16.8602 25.2979 16.899C25.3007 16.9017 25.3037 16.9046 25.3068 16.9075C25.3365 16.9351 25.3805 16.976 25.4242 17.0582C25.554 17.0801 25.6838 17.1058 25.8136 17.1339C26.0299 17.1807 26.2463 17.234 26.4626 17.2873C26.5678 17.3135 26.6687 17.4255 26.7431 17.6047C26.8176 17.7842 26.8594 18.0148 26.8594 18.2534C26.8594 18.492 26.8176 18.7225 26.7431 18.9019C26.6687 19.0812 26.5678 19.1931 26.4626 19.2194C26.291 19.2616 26.1193 19.304 25.9477 19.343C25.9387 19.348 25.9297 19.3528 25.9207 19.3573C25.8538 19.3907 25.7917 19.4578 25.7296 19.5251C25.7153 19.5405 25.701 19.556 25.6867 19.571Z" fill="#332824"/>
<circle cx="18" cy="18" r="14" fill="#FFAF95"/>
<mask id="mask0_571_14973" style="mask-type:alpha" maskUnits="userSpaceOnUse" x="4" y="4" width="28" height="28">
<circle cx="18" cy="18" r="13.8359" fill="#FF9D7D" stroke="#592A1B" stroke-width="0.328125"/>
</mask>
<g mask="url(#mask0_571_14973)">
<path d="M9.28516 3.36023C9.57632 3.44119 9.98901 3.80962 10.2141 4.00472C10.2183 4.00831 10.2225 4.01189 10.2267 4.01548C10.2807 4.06242 10.3346 4.10356 10.3984 4.15175C10.5474 4.26381 10.7505 4.41859 11.1467 4.77988C11.2762 4.86553 11.403 4.94978 11.5323 5.03637C12.918 5.96383 14.3023 6.88032 15.7539 7.6825C15.7731 7.69079 15.7926 7.69919 15.8124 7.70766C16.1933 7.87187 16.6692 8.05978 16.952 8.21771C17.3113 8.4192 17.5554 8.56077 17.7563 8.67759C18.7004 9.08972 19.6771 9.42867 20.6778 9.64607C20.9437 9.70405 21.2067 9.74852 21.4545 9.76853C21.5879 9.77937 21.7197 9.7821 21.821 9.7744C21.8702 9.77109 21.9145 9.76307 21.92 9.76194C21.9207 9.76311 21.9144 9.76097 21.8602 9.79175C21.8325 9.80972 21.7899 9.83099 21.7145 9.91571C21.6483 9.98687 21.4977 10.2233 21.5643 10.524C21.5499 10.4547 21.5308 10.3887 21.506 10.3228C21.4157 10.0808 21.2492 9.85148 21.0208 9.64155C20.8736 9.53449 20.7144 9.44637 20.5595 9.37048C20.3416 9.26385 20.1323 9.18055 19.9624 9.09924C19.5539 8.90192 19.0714 8.64193 18.6674 8.40455C18.6033 8.36649 18.5363 8.32624 18.4765 8.28894C18.3562 8.22888 18.2329 8.16551 18.0839 8.0645C17.9415 7.9466 17.7237 7.86617 17.5261 7.36945C17.4581 7.18571 17.4512 6.86309 17.5646 6.6293C17.673 6.39422 17.8136 6.27639 17.9144 6.19923C18.1214 6.05219 18.2463 6.01909 18.3606 5.9803C18.4085 5.9767 18.451 5.97675 18.4931 5.97819C18.908 6.00793 19.2149 6.01555 19.7477 6.11366C19.8451 6.13416 19.9485 6.15719 20.058 6.18431C20.3206 6.24936 20.6196 6.33823 20.9539 6.47238C21.1693 6.55931 21.2586 6.65191 21.3307 6.72636C21.3518 6.74835 21.3716 6.76899 21.3924 6.78782C21.4636 6.85235 21.564 6.85978 21.6832 6.87055C21.8376 6.88447 22.0247 6.90429 22.2051 7.05788C22.7732 7.54831 23.0938 7.60036 23.3482 7.63708C23.422 7.64806 23.4886 7.65813 23.5512 7.67842C23.7541 7.74406 23.9876 7.92924 24.1486 8.0903C24.2767 8.21845 24.6019 8.35033 24.8567 8.42194C24.9531 8.4492 25.069 8.51158 25.2045 8.5821C25.3453 8.65531 25.5077 8.73744 25.6908 8.79657C26.1534 8.94451 26.3882 8.99431 26.5762 9.03352C26.6294 9.04417 26.6788 9.05342 26.7279 9.06162C26.8161 9.07627 26.9151 9.09304 27.0164 9.10693L26.9862 9.10007C27.0858 9.1132 27.1886 9.12787 27.2912 9.14292C27.5773 9.18488 27.8608 9.22898 28.0757 9.24874C28.2913 9.31056 28.503 9.37187 28.7128 9.4307C29.0296 9.52578 29.129 9.52509 29.1037 9.55096C29.0843 9.58544 29.2287 9.63026 29.4558 9.61956C29.6798 9.61712 29.9383 9.62831 30.1517 9.74582C30.3623 9.86343 30.5241 10.0763 30.5197 10.3932C30.5196 10.6964 30.2978 11.1442 29.7784 11.3614C29.1734 11.6084 28.6151 11.4933 28.285 11.4485C28.033 11.4107 27.7843 11.3692 27.54 11.3265C27.2022 11.2676 26.8733 11.2068 26.5513 11.1498C26.5456 11.1481 26.5277 11.145 26.522 11.1432C26.0929 11.0511 25.6904 10.9145 25.313 10.7549C24.8051 10.5396 24.3384 10.2894 23.8932 10.032C23.8476 10.0056 23.8022 9.979 23.7568 9.95231C23.3528 9.79485 22.9648 9.63168 22.7042 9.50452C22.4891 9.39932 22.3559 9.28681 22.2418 9.19129C22.1633 9.12562 22.0939 9.06795 22.0144 9.02724C21.9717 9.00538 21.9127 8.97723 21.8416 8.9439C21.5506 8.80671 21.0659 8.59011 20.6596 8.35654C20.4789 8.25185 20.2758 8.11877 20.0768 8.00209C19.8244 7.8529 19.5775 7.73244 19.4198 7.70249C19.4064 7.69998 19.3932 7.69867 19.3811 7.69877C19.2016 7.69498 18.8702 7.68005 18.8377 7.67206C18.8429 7.66188 18.8654 7.66557 18.9755 7.57044C19.0274 7.52191 19.1132 7.42844 19.1632 7.2719C19.2148 7.11629 19.1959 6.94382 19.1618 6.84922C19.0923 6.67638 19.0545 6.68152 19.0597 6.67549C19.0621 6.67489 19.0878 6.68689 19.1133 6.68889C19.2185 6.70189 19.3183 6.77972 19.4863 6.89589C19.6035 6.97691 19.7587 7.07745 19.9884 7.19815C20.2542 7.33797 20.4368 7.46778 20.5897 7.58152C20.8051 7.74277 20.9632 7.86608 21.2531 7.98685C21.5753 8.12114 21.9034 8.32743 22.1116 8.56093C22.2063 8.66617 22.32 8.78449 22.4309 8.92009C22.5777 9.09851 22.7185 9.31094 22.8001 9.53C22.8677 9.71059 22.8775 9.87692 22.8765 10.0193C22.8761 10.0635 22.8747 10.1058 22.8737 10.1464C22.8812 10.1756 22.8882 10.2051 22.8948 10.2347C22.9607 10.5484 22.7881 10.7683 22.7125 10.8421C22.6251 10.9282 22.5629 10.9612 22.507 10.9917C22.4001 11.0463 22.3228 11.0682 22.25 11.0878C22.2224 11.1026 22.1947 11.1174 22.166 11.1318C22.0242 11.2039 21.8613 11.2718 21.6704 11.3006C21.3675 11.3447 21.1252 11.2954 20.8782 11.2371C20.7302 11.2016 20.5812 11.1615 20.4179 11.1295C20.3707 11.1203 20.3222 11.1118 20.2719 11.1045C20.1221 11.0826 19.9492 11.0682 19.7779 11.0512C19.5239 11.0264 19.2724 10.9952 19.1078 10.9354C19.0462 10.9131 18.9992 10.8704 18.9531 10.828C18.9529 10.8277 18.9528 10.8275 18.9526 10.8273C18.9494 10.8244 18.9463 10.8215 18.9432 10.8187C18.5286 10.7338 18.1165 10.6378 17.7071 10.5315C17.67 10.5273 17.6325 10.5229 17.5954 10.5183C17.414 10.4961 17.2379 10.4718 17.1138 10.4806C16.9794 10.4903 16.676 10.4139 16.3587 10.3249C16.151 10.2669 15.9369 10.2037 15.7582 10.1611C15.6537 10.1362 15.5732 10.0687 15.4911 9.99871C15.4143 9.9334 15.3362 9.86614 15.2349 9.82903C15.1841 9.81043 15.1258 9.79807 15.0636 9.78467C15.0089 9.77288 14.9511 9.7603 14.8926 9.74181C14.8383 9.72463 14.7311 9.65667 14.5953 9.56852C14.5113 9.51402 14.4166 9.45199 14.3155 9.38889C14.0265 9.26844 13.7401 9.14296 13.4563 9.01228C13.3864 9.00561 13.3203 9.0098 13.2599 9.02809C13.2163 9.04113 13.174 9.06181 13.1305 9.08286C13.0714 9.11148 13.0101 9.14093 12.9407 9.15319C12.8866 9.16277 12.8354 9.1504 12.8124 9.12155C12.8017 9.10811 12.7971 9.09128 12.7928 9.07605C12.788 9.05861 12.7837 9.04308 12.7715 9.03673C12.7627 9.03217 12.7492 9.03522 12.7327 9.0388C12.7064 9.04453 12.6722 9.05179 12.6368 9.03302C12.5048 8.96316 12.359 8.87248 12.2187 8.78357C12.0632 8.68501 11.9099 8.58615 11.7829 8.51873C11.6407 8.44336 11.4611 8.2956 11.2835 8.14628C11.1601 8.04244 11.0372 7.93779 10.9259 7.85594C10.8169 7.77586 10.6902 7.71716 10.5663 7.65896C10.4168 7.58855 10.2743 7.52048 10.1807 7.42265C10.1617 7.40277 10.1551 7.35401 10.1455 7.29213C10.1388 7.24832 10.1311 7.19814 10.118 7.14783C9.9771 7.05343 9.84106 6.95927 9.70323 6.86115C9.69548 6.8619 9.68752 6.86262 9.67949 6.86342C9.67934 6.86346 9.67919 6.86351 9.67904 6.86355C9.49728 6.88113 9.25187 6.90695 9.08762 6.67319C9.04615 6.61393 9.03758 6.55254 9.02995 6.49732C9.02248 6.4431 9.01598 6.39467 8.9807 6.36016C8.94047 6.32087 8.8741 6.30322 8.79914 6.28178C8.69477 6.25233 8.57869 6.21934 8.51118 6.12155C8.50657 6.11488 8.50165 6.10766 8.49648 6.10023C8.44843 6.03063 8.37282 5.92395 8.32566 5.78614C8.0557 5.55728 7.78635 5.31914 7.5219 5.07677C7.08308 4.67435 6.65636 4.25927 6.23943 3.83943C6.03484 3.63337 5.89615 3.36713 5.8653 3.1035C5.82434 2.83077 5.89788 2.5883 6.0544 2.40832C6.21194 2.22911 6.44173 2.12418 6.71367 2.12212C6.97565 2.11172 7.25207 2.2011 7.48215 2.36005C7.85673 2.61946 8.22984 2.8697 8.60633 3.1188C8.6279 3.12959 8.6495 3.14061 8.67091 3.15182C8.83323 3.23762 8.99606 3.27972 9.16812 3.32792C9.20722 3.33867 9.24729 3.35005 9.28516 3.36023Z" fill="#592A1B"/>
<path d="M12.0693 11.8699C12.025 12.0037 11.8475 12.0156 11.7507 12.0243C11.7489 12.0245 11.7471 12.0247 11.7453 12.025C11.722 12.0271 11.6993 12.0338 11.6763 12.0406C11.6191 12.0579 11.5415 12.0808 11.3502 12.0798C11.3049 12.1011 11.258 12.122 11.2093 12.1425C10.6962 12.3581 10.1377 12.5226 9.56555 12.6914C9.5593 12.6953 9.55293 12.6993 9.54649 12.7033C9.41948 12.7826 9.26912 12.8791 9.1452 12.8985C8.99305 12.9203 8.88151 12.9253 8.78742 12.9286C8.45646 13.0347 8.12683 13.1513 7.80443 13.2913L7.90101 13.2252C7.79717 13.2879 7.69662 13.3547 7.59927 13.4266C7.4871 13.5094 7.37935 13.5991 7.27807 13.6951C7.18474 13.7835 7.09559 13.8768 7.01081 13.974C6.97636 14.0452 6.94912 14.1171 6.92442 14.184C6.88988 14.2778 6.86069 14.3615 6.82452 14.4194C6.73713 14.5588 6.58666 14.6731 6.4754 14.762C6.45722 14.7764 6.44009 14.7902 6.4245 14.8031C6.36828 14.8993 6.31441 14.9971 6.2622 15.0959C6.25017 15.0962 6.23778 15.0963 6.22511 15.0963C6.06703 15.097 5.99812 15.1937 5.89421 15.3477C5.84894 15.4149 5.79697 15.4932 5.72802 15.5807C5.68361 15.6372 5.62151 15.6406 5.57057 15.6438C5.5556 15.6447 5.54159 15.6456 5.52933 15.6478C5.48732 15.6553 5.49903 15.6995 5.5132 15.7514C5.53152 15.8188 5.55426 15.899 5.46745 15.9323C5.19033 16.0402 5.23983 16.1959 5.27863 16.3102C5.28996 16.3439 5.30024 16.3744 5.301 16.3998C5.30343 16.4821 5.21616 16.5464 5.12688 16.5828C5.0599 16.6099 5.03946 16.7261 5.04393 16.8307C5.04662 16.8323 5.04692 16.8384 5.04731 16.8444C5.05004 16.8862 5.02767 16.9282 5.00103 16.978C4.97356 17.0293 4.94144 17.0892 4.92859 17.1653C4.89604 17.3578 4.87466 17.4605 4.85731 17.5429C4.85232 17.5664 4.84755 17.5883 4.84297 17.6103C4.82852 17.6798 4.8024 17.7621 4.77531 17.8455C4.74297 17.9453 4.70933 18.0467 4.69397 18.1299C4.56416 18.2933 4.42676 18.4507 4.28916 18.6055C4.21842 18.6846 4.07301 18.7131 3.88154 18.681C3.69024 18.6484 3.4691 18.5597 3.26244 18.4316C3.05581 18.3034 2.87805 18.145 2.76187 17.9905C2.64618 17.8356 2.60298 17.6972 2.63775 17.6026C2.70848 17.4118 2.7769 17.2214 2.84907 17.0356C2.93743 16.8087 3.03114 16.5881 3.14931 16.3727C3.23069 16.2244 3.31812 16.0756 3.41098 15.9276C3.41555 15.9197 3.41704 15.9174 3.41853 15.915C3.42855 15.8993 3.43868 15.8836 3.44883 15.8679C3.47099 15.7058 3.50013 15.5455 3.53808 15.4418C3.56938 15.3562 3.63038 15.3159 3.68254 15.2816C3.71846 15.2581 3.75028 15.2373 3.76586 15.2063C3.77423 15.1897 3.78418 15.166 3.79631 15.1375C3.84555 15.0212 3.93243 14.8224 4.08834 14.6896C4.15737 14.6307 4.25567 14.5743 4.34982 14.5219C4.48449 14.4466 4.61071 14.3794 4.63161 14.3152C4.66831 14.2023 4.76918 14.1136 4.85912 14.037C4.94488 13.9639 5.02071 13.9013 5.0223 13.8333C5.02431 13.7518 5.07469 13.7196 5.14953 13.673C5.20159 13.6406 5.2651 13.6015 5.33432 13.5341C5.41415 13.4564 5.49125 13.419 5.55654 13.3879C5.6488 13.344 5.71743 13.3128 5.74661 13.1975C5.77906 13.0695 5.83525 12.9525 5.91692 12.8968C5.95401 12.8716 5.98784 12.834 6.02333 12.7953C6.07008 12.7442 6.12055 12.6903 6.18394 12.6603C6.23628 12.6356 6.30188 12.6385 6.35938 12.6418C6.37733 12.6429 6.3945 12.6439 6.41036 12.644C6.44151 12.6142 6.47287 12.5842 6.50389 12.5541C6.50395 12.5438 6.50375 12.5326 6.50362 12.5211C6.50297 12.4629 6.50304 12.3911 6.53024 12.3317C6.57307 12.238 6.65397 12.2035 6.73858 12.1693C6.80486 12.1424 6.8732 12.1158 6.9312 12.0589C6.93912 12.0512 6.94695 12.0428 6.95473 12.034C6.973 12.0252 7.01823 11.9834 7.03757 11.9773C7.07185 11.9476 7.10557 11.9101 7.13881 11.8732C7.20055 11.8046 7.26066 11.7378 7.3205 11.7239C7.34364 11.7184 7.3755 11.7343 7.40693 11.7503C7.40709 11.7504 7.40726 11.7505 7.40742 11.7506C7.40956 11.7517 7.41167 11.7528 7.4138 11.7538C7.53172 11.6605 7.64215 11.5696 7.76024 11.4737C7.76766 11.4609 7.77523 11.4481 7.78274 11.4354C7.81944 11.3737 7.8546 11.3141 7.86444 11.2518C7.87675 11.1833 7.9578 11.1029 8.04092 11.0203C8.09394 10.9669 8.15478 10.9088 8.19604 10.8528C8.22048 10.8199 8.26567 10.8304 8.31186 10.8416C8.35499 10.852 8.39869 10.8631 8.42968 10.8383C8.44495 10.8261 8.4574 10.8053 8.47061 10.7831C8.48224 10.7636 8.49449 10.7429 8.50978 10.7263C8.524 10.7108 8.57068 10.7052 8.62964 10.6986C8.66583 10.6947 8.70972 10.6887 8.75238 10.6806C8.84245 10.6132 8.93078 10.5482 9.02394 10.483C9.03273 10.4487 9.03519 10.4087 9.02959 10.3617C9.02557 10.328 9.01728 10.2894 9.00888 10.2499C8.99744 10.1962 8.98568 10.1407 8.98358 10.0928C8.98203 10.0554 8.99309 10.0348 9.01036 10.0422C9.01846 10.0457 9.02792 10.055 9.03647 10.0634C9.04628 10.073 9.055 10.0816 9.05934 10.0791C9.06246 10.0773 9.06181 10.0674 9.06108 10.0554C9.05992 10.0362 9.05851 10.0115 9.07119 10.0044C9.11855 9.97809 9.17541 9.95888 9.23231 9.93979C9.29729 9.91775 9.35962 9.89705 9.40325 9.86915C9.45057 9.83859 9.54399 9.8329 9.63293 9.82983C9.6948 9.82775 9.75772 9.82533 9.80817 9.81349C9.85721 9.80206 9.89599 9.76439 9.93309 9.72817C9.9801 9.68361 10.0254 9.64096 10.0817 9.64954C10.0931 9.65129 10.1187 9.68055 10.1505 9.71725C10.1732 9.74322 10.1985 9.7732 10.2257 9.79924C10.2842 9.77466 10.3422 9.75234 10.3996 9.73206C10.3997 9.72661 10.3998 9.72105 10.3999 9.71539C10.3999 9.71527 10.3999 9.71514 10.3999 9.71502C10.4039 9.58656 10.4117 9.41002 10.5392 9.46335C10.5725 9.47656 10.6039 9.51273 10.632 9.54534C10.6596 9.57737 10.6842 9.60611 10.704 9.60657C10.7265 9.60708 10.7407 9.57559 10.7561 9.54143C10.7794 9.49287 10.8064 9.43843 10.8599 9.46032C10.8636 9.46181 10.8675 9.46348 10.8716 9.4651C10.9096 9.48071 10.9676 9.5033 11.0387 9.56549C11.1711 9.54233 11.3151 9.52174 11.4538 9.50889C11.6922 9.48552 11.9319 9.47643 12.1937 9.48242C12.3207 9.48569 12.4649 9.57984 12.5712 9.75163C12.6794 9.92343 12.727 10.1557 12.724 10.394C12.7224 10.6326 12.6978 10.8628 12.6716 11.045C12.6439 11.2269 12.6047 11.3447 12.5399 11.3832C12.4353 11.4452 12.3172 11.5178 12.1993 11.5921C12.1941 11.5987 12.1888 11.6052 12.1834 11.6115C12.1429 11.658 12.1143 11.7369 12.0882 11.8156C12.082 11.8337 12.0758 11.852 12.0693 11.8699Z" fill="#592A1B"/>
</g>
<path d="M15.3174 20.3663C16.0315 21.0914 19.1472 21.8088 20.3737 18.6671" stroke="#592A1B" stroke-width="1.96875" stroke-linecap="round"/>
<path d="M20.3431 17.5642C20.3875 18.1004 20.8866 18.9968 22.0157 18.7476" stroke="#592A1B" stroke-width="1.8375" stroke-linecap="round"/>
<circle cx="13.4794" cy="17.2773" r="1.3125" fill="#592A1B"/>
<circle cx="19.3125" cy="14.9375" r="1.3125" fill="#592A1B"/>
</svg>
