<svg width="24" height="24" viewBox="0 0 24 24" fill="none" xmlns="http://www.w3.org/2000/svg">
<path d="M5.96021 15.7938C5.92642 15.743 5.89092 15.6911 5.8569 15.6414C5.25876 14.724 4.51871 14.0988 4.11329 12.9629C4.02969 12.705 3.98285 12.4387 3.97261 12.1675C4.03056 10.3787 4.44665 10.2899 4.92816 8.50418C4.97222 8.37583 5.02262 8.24739 5.085 8.11464C5.46161 7.47475 5.73837 7.37987 6.02537 7.15174C6.30848 6.95567 6.57982 6.79617 6.83611 6.64945C7.3484 6.358 7.79869 6.12219 8.11896 5.90524C8.25017 5.8177 8.36681 5.73747 8.46472 5.66144C9.18441 5.15122 9.50115 5.53495 10.5673 5.32304C11.0628 5.23509 11.4346 5.20067 11.7944 5.17658C11.8486 5.17304 11.896 5.17008 11.9256 5.16893C11.933 5.16868 11.9396 5.16828 11.935 5.17016C11.932 5.17146 11.9324 5.17106 11.9048 5.17952C11.8913 5.18396 11.8728 5.1897 11.839 5.20474C11.8132 5.21806 11.8301 5.20404 11.746 5.25657C11.6911 5.30225 11.5421 5.37514 11.4775 5.67468C11.4198 5.99819 11.6464 6.2386 11.7297 6.2883C11.9207 6.40527 11.8964 6.36741 11.9408 6.38574C11.9692 6.39235 11.9835 6.39396 11.9933 6.39515C12.0048 6.39618 12.0078 6.39579 12.0097 6.39543C12.0126 6.39453 12.0051 6.39292 11.9988 6.39156C11.9293 6.38002 11.8202 6.37084 11.7179 6.36087C11.5125 6.34108 11.2881 6.3191 11.0485 6.29562C10.5772 6.25731 9.47208 6.23867 8.62265 6.54616C7.87721 6.86066 7.25564 7.385 6.9676 7.74726C6.96049 7.7551 6.9557 7.76099 6.95102 7.76681C6.52191 8.29732 6.00851 8.62227 5.73578 9.10661L5.7468 9.06979C5.61826 9.37481 5.49721 9.65825 5.41758 9.89022C5.34674 10.0976 5.27659 10.2576 5.21354 10.3782C5.18681 10.4293 5.15064 10.4475 5.12048 10.4408C5.12046 10.4408 5.12044 10.4408 5.12042 10.4408C5.08289 10.4323 5.05469 10.3852 5.06546 10.3145C5.11549 9.99148 5.15839 9.51709 5.1658 8.93471C5.16776 8.92778 5.17324 8.90712 5.17604 8.90049C5.18268 8.85925 5.18999 8.81769 5.19824 8.77547C5.45899 7.77047 5.90731 7.66547 6.47051 7.1661C6.65757 7.00945 6.88048 6.81201 7.1783 6.56057C7.54849 6.24933 7.90068 5.98796 8.26651 5.76742C9.28931 5.25628 10.1105 5.11151 11.4468 5.13443C11.6175 5.14122 11.773 5.14304 11.9399 5.14527C11.9803 5.146 12.0261 5.14661 12.0783 5.14939C12.096 5.15038 12.1139 5.1516 12.1347 5.1537C12.1539 5.15798 12.175 5.14962 12.3038 5.19055C12.3213 5.19678 12.3416 5.20471 12.3668 5.21681C12.3857 5.22666 12.3724 5.21746 12.4275 5.25026C12.4808 5.2854 12.5629 5.33898 12.6417 5.47515C12.7243 5.60637 12.7454 5.84763 12.6812 5.99621C12.6216 6.14832 12.5429 6.21633 12.4927 6.25965C12.367 6.35187 12.4014 6.31924 12.3757 6.33582C12.3176 6.36448 12.288 6.3726 12.2623 6.38072C12.2064 6.39661 12.2029 6.39602 12.1838 6.40044C12.0606 6.42464 12.0121 6.43041 11.931 6.44366C11.3778 6.53608 10.9232 6.65889 10.4698 6.77892C10.0056 6.90839 9.66058 6.99794 8.9517 7.29686C8.81923 7.35601 8.67904 7.41536 8.53012 7.47532C7.88884 7.73366 7.44017 7.98466 7.10744 8.24373C6.9421 8.37272 6.80588 8.50382 6.70454 8.63093C6.60931 8.74431 6.52271 8.92429 6.61041 8.87027C6.53287 9.38354 6.50263 10.0536 6.44398 11.0407C6.4218 11.5018 6.43019 11.9846 6.50601 12.3385C6.6862 13.1387 6.96064 13.9655 7.30682 14.5026C7.78577 15.2168 8.54174 15.8041 9.03689 16.0069C9.43418 16.1774 9.88906 16.2934 10.3468 16.2864C10.644 16.2847 10.9494 16.2832 11.2522 16.2774C11.4033 16.2743 11.5542 16.2701 11.6919 16.2623C11.76 16.2584 11.8254 16.2534 11.8732 16.2477C11.8963 16.245 11.9153 16.2418 11.916 16.2416C11.9101 16.2465 11.9174 16.2271 11.7596 16.3011C12.0898 16.1443 12.2156 16.1232 12.3956 16.0611C12.5649 16.0072 12.7252 15.9572 12.8839 15.9058C13.2008 15.8033 13.5093 15.6958 13.81 15.5755C14.2791 15.3881 14.7359 15.125 15.1163 14.7896C15.6776 14.3228 16.3268 13.5933 16.2371 13.5209C16.3419 12.5456 16.3788 11.6119 16.3255 10.751C16.2991 10.3213 16.2276 9.86667 16.0791 9.44016C15.8361 8.52524 15.184 7.93301 14.3803 7.31962C13.665 6.69197 12.8438 6.59783 12.2241 6.52324C11.4665 6.44916 10.9823 6.46328 10.5055 6.50392C10.0364 6.55462 9.57094 6.6094 8.97228 6.96741C8.81518 7.06285 8.64761 7.1743 8.47194 7.2993C7.85416 7.74318 7.09647 8.20246 6.44684 8.61846C6.23706 8.75346 6.16357 8.81683 6.1206 8.77442C6.0801 8.70998 6.15132 8.52333 6.32418 8.32C6.83581 7.7253 7.38026 7.42217 7.59396 7.0508C7.71489 6.84476 7.81878 6.67381 7.92603 6.52491C8.22622 6.1346 8.63727 5.82159 9.47749 5.74961C9.86875 5.72337 10.1511 5.6809 10.393 5.61043C10.8515 5.47955 11.1786 5.26663 11.58 5.27912C11.8779 5.29122 12.0306 5.35826 12.4665 5.41686C12.8662 5.51849 13.7603 5.39466 15.1044 6.1891C15.1745 6.22829 15.2412 6.26554 15.3149 6.30798C16.3864 6.8654 17.3899 7.91081 17.6958 8.71398C18.2974 9.96926 18.3443 10.904 18.4073 11.6093C18.4463 12.1439 18.3796 12.9396 18.2377 13.7632C17.8593 15.3091 16.9255 15.6327 16.3475 16.2321C16.1324 16.4179 15.9142 16.5851 15.7009 16.7379C15 17.2915 13.4763 17.8467 12.6922 18.1046C12.2849 18.2821 12.2411 18.2374 12.1041 18.266C11.988 18.2795 11.8905 18.286 11.7955 18.2914C11.6069 18.3017 11.4347 18.3053 11.2654 18.3078C10.9289 18.3123 10.6117 18.3111 10.3099 18.3112C9.40177 18.3058 8.67041 18.0541 8.18564 17.8772C6.57045 17.168 6.77649 16.8673 5.96021 15.7938Z" fill="#E56C45"/>
<path d="M15.0296 17.795C14.9978 17.442 14.2135 17.8045 13.9902 16.9377C13.9835 16.8999 13.9783 16.8617 13.9749 16.8245C13.9102 16.5689 13.9518 16.2116 14.0751 15.9808C14.1947 15.7455 14.3366 15.6221 14.4434 15.5423C14.662 15.3894 14.7971 15.3661 14.9132 15.3433C15.1404 15.3103 15.2889 15.3395 15.4641 15.3879C15.8249 15.5508 16.0852 15.7958 16.4235 16.0806C16.9584 16.5811 16.8128 17.0876 17.0377 17.1302C17.1787 17.1543 17.0123 17.2712 16.9445 17.3394C16.9418 17.397 16.9637 17.4505 17.0488 17.5012C17.1115 17.539 17.1686 17.5864 17.2163 17.6403C17.2428 17.6706 17.2719 17.7031 17.3181 17.793C17.3388 17.8462 17.3803 17.8873 17.3973 18.0974C17.4045 18.1969 17.3741 18.4206 17.2177 18.5835C17.0636 18.7423 16.924 18.7687 16.8476 18.7848C16.5617 18.8132 16.5555 18.762 16.4886 18.7441C16.4367 18.72 16.4017 18.6948 16.3694 18.6679C16.3594 18.6663 16.3326 18.6513 16.3228 18.6488C16.2875 18.6039 16.254 18.5524 16.2193 18.494C16.0726 18.2541 15.5043 17.8235 15.1812 17.8611C14.9585 17.8836 14.8479 17.7055 14.7316 17.4656C14.7284 17.4637 14.7214 17.4549 14.7184 17.4528C14.6923 17.3493 14.6877 17.2595 14.6707 17.1972C14.6547 17.1376 14.6552 17.0828 14.6629 17.0351C14.6662 17.015 14.687 16.9907 14.7114 16.9718C14.7114 16.9718 14.7114 16.9718 14.7115 16.9717C14.7419 16.9482 14.7779 16.9329 14.7926 16.944C14.8561 16.9906 14.9708 17.0547 15.1278 17.0563L15.1157 17.0445C15.1264 17.0375 15.1408 17.0324 15.1571 17.0273C15.4809 16.935 15.3754 17.2022 15.7663 17.2613C16.1617 17.317 16.4772 17.1741 16.8039 17.5172C16.8133 17.5269 16.8228 17.5359 16.8323 17.5442L16.7815 17.5234C16.795 17.5384 16.8076 17.5463 16.7973 17.5442C16.7908 17.5433 16.7813 17.5391 16.7407 17.5344C16.6966 17.5462 16.635 17.4685 16.3423 17.6598C16.1943 17.7676 16.1137 17.9936 16.1147 18.0981C16.1092 18.2116 16.125 18.2602 16.1324 18.2973C16.1499 18.3661 16.1561 18.3817 16.1567 18.3964C16.1574 18.421 16.1404 18.4189 16.1182 18.4143C16.0317 18.4078 15.9275 18.4278 15.8014 18.3451C15.5695 18.1312 15.4977 17.9346 15.5198 17.68C15.5645 17.3128 15.4198 17.2228 15.2511 17.238C15.1698 17.2483 15.0822 17.2908 15.0556 17.3715C15.0231 17.4468 15.1019 17.5909 15.2788 17.6378C15.3228 17.6443 15.3618 17.6471 15.3999 17.6475C15.5046 17.645 15.5882 17.6432 15.7661 17.565C15.8555 17.5194 15.9817 17.4632 16.1543 17.2562C16.3335 17.0705 16.4823 16.5571 16.3783 16.2355C16.3225 16.0927 16.3362 16.2825 16.4269 16.4923C16.5123 16.7079 16.6232 16.9658 16.7206 17.1702C16.7169 17.187 16.745 17.2332 16.7755 17.2626C16.9899 17.4731 17.4003 17.7784 17.6896 18.1746C17.7637 18.2759 17.8634 18.3645 17.9497 18.4196C17.9839 18.4431 18.0507 18.4709 17.9811 18.427C17.9486 18.4133 17.9413 18.3952 17.7834 18.3634C17.7103 18.3551 17.6009 18.3262 17.3639 18.3939C17.1492 18.4407 16.836 18.7228 16.7676 18.9474C16.6459 19.3198 16.7163 19.3896 16.7151 19.4571C16.7254 19.5115 16.7302 19.5264 16.7329 19.5396C16.6401 19.3679 16.5266 19.1983 16.4617 18.963C16.4498 18.9197 16.4359 18.8743 16.42 18.8275C16.2011 18.2734 15.893 17.6008 15.7547 17.2564C15.6049 16.8799 15.5547 16.7789 15.2257 16.6165C15.0323 16.5244 14.8701 16.3383 14.7325 16.0729C14.6587 15.9412 14.7127 15.8126 14.876 15.808C15.1132 15.8073 15.221 15.9586 15.4061 15.8799C15.7812 15.7302 15.9604 15.7067 16.0302 16.0363C16.0905 16.3613 16.4911 16.1293 16.5639 16.2787C16.6306 16.4281 16.4453 16.5987 17.0886 17.0334C17.4603 17.2888 17.7107 17.4963 17.8989 17.6612C18.0539 17.805 18.169 17.9343 18.2657 18.0478C18.3915 18.1949 18.5043 18.5019 18.5857 18.8457C18.6081 18.9265 18.6296 18.9735 18.6512 19.1678C18.6533 19.2357 18.6814 19.4277 18.5661 19.6964C18.4949 19.8662 18.3333 20.0583 18.1481 20.1595C17.9767 20.2568 17.8097 20.2854 17.6868 20.2893C17.2986 20.2777 17.2531 20.1991 17.163 20.1668C17.0904 20.1292 17.0419 20.0974 16.9992 20.0692C16.8362 19.9576 16.7411 19.8814 16.6328 19.8178C16.1598 19.5387 15.5698 18.8311 15.1742 18.5504C15.0812 18.4847 15.0146 18.4102 14.9634 18.3177C14.9131 18.1953 15.0577 18.0437 15.0296 17.795Z" fill="#E56C45"/>
</svg>
