<svg width="640" height="640" viewBox="0 0 640 640" fill="none" xmlns="http://www.w3.org/2000/svg">
<path d="M205.327 182.155C201.638 182.155 195.563 184.442 191.874 187.416C188.185 190.161 182.326 194.05 178.637 195.88C169.957 200.456 158.674 212.122 157.589 217.613C157.155 220.129 155.419 221.959 154.117 221.73C150.645 220.815 150.645 253.528 154.117 257.188C156.07 259.247 156.07 259.933 154.117 259.933C152.598 259.933 151.513 261.992 151.513 264.737C151.513 267.254 152.598 268.626 153.683 267.94C154.985 267.025 155.853 277.09 155.853 296.535C155.853 300.677 149.532 336.528 155.419 338.855C158.186 339.916 161.233 375.808 160.843 380.261C159.77 394.073 165.494 395.118 165.183 406.569C164.749 413.889 165.617 417.778 167.57 418.464C169.74 419.379 170.174 422.582 169.523 430.131C168.222 442.134 180.947 451.295 186.232 458.955C192.019 467.343 205.713 470.367 214.007 474.739C215.96 475.883 219.432 477.484 221.602 478.17C231.196 481.205 235.855 474.968 243.301 474.968C244.82 474.968 249.594 470.85 253.717 465.817C257.84 460.785 262.18 456.667 263.699 456.667C270.226 456.667 262.18 442.157 262.18 434.935C262.18 426.471 263.048 422.353 265.435 421.667C269.775 419.837 269.124 376.601 264.784 376.601C262.397 376.601 262.18 371.339 263.265 348.921C264.567 329.248 264.35 321.47 262.614 322.614C261.312 323.3 259.793 323.071 259.142 321.927C258.274 320.783 258.708 319.182 260.01 318.267C261.095 317.581 262.18 309.803 262.18 300.881C262.18 288.484 268.69 286.248 268.69 275.946C268.69 269.77 267.822 266.796 265.652 266.796C263.482 266.796 262.831 262.907 263.048 250.783C263.158 245.064 271.14 227.043 265.435 224.704C263.699 224.018 262.18 221.044 262.18 217.841C262.18 214.867 260.661 211.894 258.925 210.979C257.189 210.292 255.67 208.233 255.67 206.175C255.67 204.344 254.151 202.743 252.415 202.743C250.679 202.743 245.037 200.227 240.046 197.024C234.839 193.821 228.98 190.619 227.027 189.704C224.857 189.017 223.121 186.959 223.121 185.357C223.121 183.527 220.951 182.155 218.347 182.155C213.31 182.155 212.394 182.155 205.327 182.155Z" fill="black"/>
<path d="M379.354 66.846C378.612 68.8122 375.89 70.5326 373.416 70.5326C368.714 70.5326 355.601 82.5756 355.601 86.9995C355.601 88.4742 354.116 90.1946 352.632 90.9319C350.157 91.6693 349.415 107.645 349.662 159.995C349.662 214.311 349.167 227.829 346.446 227.829C343.971 227.829 343.477 234.219 344.219 257.322C345.209 281.899 344.714 286.815 341.745 286.815C338.775 286.815 338.528 290.256 339.765 306.477C341.25 323.681 341.002 326.139 337.291 326.139C333.827 326.139 333.332 330.317 333.332 360.547C333.332 381.93 334.322 394.956 335.806 394.956C337.291 394.956 340.26 399.38 342.487 404.787C345.209 410.931 349.662 415.847 353.621 417.813C357.58 419.288 360.549 421.5 360.549 422.483C360.549 423.466 363.024 424.449 366.24 424.94C369.209 425.432 371.436 427.152 371.189 428.873C370.694 430.593 372.921 431.822 376.385 431.822C381.581 431.822 395.932 441.162 400.633 447.552C401.375 448.781 411.025 449.518 422.159 449.272C439.974 448.781 443.438 447.798 454.572 440.916C461.748 436.246 466.944 431.331 466.944 428.627C466.944 426.169 467.933 424.695 469.171 425.432C470.408 426.415 470.903 424.695 470.16 421.991C469.418 419.042 470.408 416.584 472.882 415.601C475.851 414.372 476.841 410.686 476.841 398.888C476.841 390.04 478.078 382.176 480.057 380.455C481.789 378.243 481.789 377.752 480.305 378.489C475.851 380.947 474.119 373.573 478.325 370.378C480.8 368.166 481.789 362.268 481.789 350.471C481.789 341.377 483.027 333.021 484.264 332.283C485.748 331.546 486.738 323.681 486.738 314.833C486.738 305.985 485.748 299.104 484.264 299.104C483.027 299.104 481.789 292.959 481.789 285.34C481.789 276.984 482.779 272.314 484.264 273.297C485.748 274.28 486.738 268.873 486.738 258.796C486.738 248.474 485.748 242.575 483.769 241.838C481.295 241.101 480.8 232.744 481.047 208.904C481.542 181.131 481.047 176.462 477.583 175.233C474.119 173.758 473.872 170.317 475.356 146.477C476.593 127.552 476.346 119.688 474.614 120.917C471.892 122.391 470.903 119.196 471.645 112.806C471.892 111.331 470.903 109.857 469.418 109.857C468.181 109.857 466.944 107.645 466.944 104.695C466.944 101.992 465.954 100.517 464.469 101.254C463.232 101.992 459.273 100.026 456.057 96.5848C452.84 93.1439 449.129 90.1946 447.397 90.1946C445.912 90.1946 444.675 88.9657 444.675 87.7369C444.675 86.2622 440.716 85.2791 436.015 85.2791C430.324 85.2791 426.613 83.8045 425.623 81.3467C424.881 79.3805 422.901 78.1516 420.922 78.8889C419.19 79.6263 416.468 78.3974 414.984 76.677C413.252 74.7108 411.025 73.4819 410.035 74.2192C408.798 74.9565 407.313 74.465 406.324 72.9903C405.581 71.7615 402.612 70.5326 399.89 70.5326C397.416 70.5326 395.189 68.8122 395.189 66.846C395.189 64.3882 392.715 63.1593 388.014 63.1593C384.055 63.1593 380.344 64.634 379.354 66.846Z" fill="black"/>
<path d="M310.286 505.494C319.933 505.494 323.229 505.784 323.23 506.65C323.231 507.613 326.174 508.864 330.291 509.442C330.644 509.538 332.292 510.791 334.057 512.235C337.352 514.931 339.706 515.605 339.706 513.776C339.707 513.199 340.413 513.295 341.354 514.065C342.177 514.835 342.883 516.472 342.766 517.724C342.648 519.361 343.472 520.42 345.354 521.094C346.766 521.576 347.707 522.636 347.354 523.31C346.65 524.755 349.826 530.242 351.356 530.244C353.003 530.247 352.414 549.408 350.649 549.889C349.826 550.179 349.12 551.334 349.12 552.393C349.12 553.452 348.531 554.319 347.825 554.319C347.238 554.32 346.767 555.09 347.002 556.052C347.355 558.171 330.409 572.52 328.173 571.942C327.349 571.654 325.937 572.039 324.878 572.712C323.936 573.386 320.994 573.868 318.523 573.772C314.994 573.676 313.817 573.965 313.816 575.024C313.816 576.083 312.521 576.468 309.108 576.468C305.804 576.468 304.485 576.107 304.405 575.122L304.397 574.926C304.318 573.941 303.014 573.58 300.165 573.58C297.576 573.579 293.104 572.327 288.279 570.113C284.046 568.284 280.987 567.129 281.454 567.705C281.807 568.282 281.572 568.764 280.748 568.764C280.043 568.764 279.689 567.993 280.042 566.934C280.512 565.201 278.159 563.372 275.806 563.853C275.335 563.949 274.982 563.467 275.1 562.793C275.452 560.771 271.687 553.357 269.687 552.201C267.805 551.039 268.157 530.342 270.157 529.376C271.216 528.799 271.569 527.643 271.099 526.391C270.628 524.755 271.217 523.694 273.217 522.443C275.099 521.191 275.687 520.035 275.217 518.495C274.747 517.051 274.983 516.666 276.158 517.243C276.982 517.628 278.041 517.435 278.63 516.665C280.042 514.739 279.924 513.679 278.276 514.45C277.571 514.835 277.336 514.739 277.688 514.065C278.159 513.584 279.571 513.295 280.865 513.583C282.395 513.872 284.396 513.39 285.926 512.235C287.338 511.176 290.515 509.634 292.986 508.671C295.34 507.805 297.341 506.746 297.341 506.264C297.348 505.879 303.23 505.494 310.286 505.494ZM162.094 508.847C165.75 505.784 166.31 505.627 169.497 506.317C171.355 506.781 173.181 506.785 173.609 506.385C174.09 505.934 174.629 506.287 175.465 507.588C176.177 508.759 177.141 509.451 177.823 509.424C179.127 509.306 186.432 516.435 185.739 517.087C185.473 517.338 185.868 518.072 186.547 518.784C187.226 519.496 187.462 520.379 187.088 520.73C186.714 521.082 186.476 522.53 186.63 523.858C187.319 530.204 186.93 531.919 183.939 534.725C181.964 536.578 180.809 537.172 180.253 536.589C179.265 535.553 175.753 535.904 175.606 537.023C175.533 537.581 175.196 537.653 174.826 537.265C174.456 536.877 172.88 536.391 171.321 536.136C169.701 535.816 167.85 535.468 167.212 535.33C166.574 535.191 164.499 533.334 162.577 531.212C159.852 528.249 158.885 526.703 158.619 524.622C158.396 523.114 157.711 521.547 157.057 521.179C156.403 520.812 156.246 520.223 156.673 519.822C157.1 519.421 157.041 518.617 156.548 518.099C155.992 517.517 155.942 516.827 156.386 516.656C156.821 516.37 157.42 515.194 157.683 514.089C157.928 512.755 159.506 510.907 162.094 508.847ZM54.5635 470.728C56.5141 469.609 60.7701 469.325 66.5576 469.857C74.9204 470.452 75.816 470.863 78.9707 474.831C80.7343 477.207 83.0213 479.079 84.0518 479.105C85.2105 479.134 85.4538 480.048 84.9023 482.239C84.3557 484.17 84.7133 485.864 85.6035 486.535C87.3865 487.747 87.7867 502.535 86.1133 502.496C85.4698 502.48 85.0637 503.637 85.04 505.062C85.0162 506.487 84.2243 507.636 83.3232 507.614C82.4215 507.592 80.3401 508.837 78.8984 510.357C71.9527 517.576 69.3528 518.938 62.1426 518.76C57.3801 518.643 55.1995 518.07 55.2178 516.904C55.2517 514.83 50.4109 511.6 48.8486 512.598C48.0681 513.097 47.5569 512.824 47.5693 512.047C47.5821 511.27 46.1994 509.161 44.5557 507.305C42.9142 505.32 41.0199 503.069 40.3887 502.275C39.7578 501.481 39.4376 497.454 39.6348 493.31C39.8599 487.481 40.5472 484.904 42.7764 482.496C44.3509 480.72 45.4189 478.413 45.0508 477.366C44.6817 476.32 45.2096 475.555 46.2393 475.58C47.2689 475.605 48.1854 474.719 48.2031 473.683C48.2224 472.517 49.0082 471.758 49.7764 472.036C50.6757 472.187 52.875 471.594 54.5635 470.728ZM473.314 462.254C473.922 461.457 474.759 461.261 475.057 461.773C475.494 462.252 477.057 462.759 478.467 462.865C480.156 462.905 482.738 464.483 485.779 467.262C490.262 471.158 490.564 471.816 490.341 475.871C490.135 478.247 490.487 480.494 491.063 480.941C491.712 481.444 491.383 482.176 489.947 483.459C488.647 484.565 487.984 485.885 488.151 486.719C488.55 488.302 481.216 498.679 480.278 497.956C479.918 497.677 479.094 498.306 478.352 499.281C477.609 500.255 476.568 500.718 476.063 500.328C475.559 499.937 473.73 499.929 472.127 500.378C464.458 502.469 462.273 502.327 458.236 499.2C455.57 497.134 454.614 495.828 455.221 495.031C456.301 493.613 455.183 489.363 453.777 489.402C453.076 489.421 452.922 489.02 453.326 488.489C453.731 487.957 454.019 485.924 454.027 483.958C454.103 481.903 454.17 479.559 454.215 478.747C454.26 477.936 456.136 475.02 458.369 472.24C461.48 468.308 463.191 466.814 465.699 466.08C467.509 465.509 469.301 464.36 469.626 463.484C469.95 462.608 470.643 462.3 471.22 462.747C471.796 463.193 472.774 462.963 473.314 462.254ZM304.775 418.697C305.129 417.867 308.956 417.736 308.825 418.566C308.737 418.959 309.266 419.091 310.586 419.003C311.862 418.916 312.435 419.092 312.436 419.441C312.437 420.14 314.9 421.276 315.517 420.883C315.736 420.752 315.956 420.796 315.957 421.014C315.957 421.233 316.705 422.195 317.629 423.113C319.829 425.386 321.063 427.18 321.415 428.667C321.591 429.322 321.899 429.758 322.119 429.628C322.383 429.454 322.427 429.935 322.251 430.765C322.075 431.814 322.164 432.252 322.691 432.558C323.704 433.083 323.704 435.793 322.735 436.143C322.164 436.362 322.075 436.8 322.251 437.892C322.427 438.985 322.296 439.466 321.855 439.641C321.504 439.773 321.239 440.297 321.239 440.778C321.239 441.302 320.711 442.221 320.095 442.876C319.479 443.532 318.686 444.582 318.334 445.238C317.982 445.937 317.541 446.461 317.321 446.461C317.143 446.463 316.087 447.119 315.032 447.905C313.976 448.735 312.832 449.303 312.479 449.172C312.172 449.086 311.731 449.26 311.511 449.566C311.026 450.397 301.87 450.528 301.87 449.741C301.869 449.478 301.386 448.998 300.771 448.736C300.154 448.43 299.141 447.948 298.525 447.686C297.16 447.029 293.066 442.701 293.066 441.871C293.066 441.565 292.758 441.172 292.362 441.041C291.879 440.865 291.746 440.471 291.922 439.728C292.054 439.116 291.966 438.592 291.702 438.504C290.999 438.28 291.042 431.16 291.746 430.721C292.098 430.503 292.186 429.934 292.01 429.103C291.746 428.011 291.879 427.66 292.847 427.048C293.507 426.611 293.947 425.956 293.859 425.562C293.685 424.556 296.985 421.758 299.802 420.534C300.462 420.271 300.99 419.747 300.99 419.441C300.991 418.961 301.388 418.872 302.751 419.09C304.116 419.309 304.599 419.221 304.775 418.697ZM577.626 393.049C579.883 389.915 590.851 394.225 591.909 398.543C592.722 402.183 598.533 402.287 598.009 398.75C597.932 397.148 598.138 397.024 598.896 398.083C599.511 399.09 599.445 400.642 598.576 401.711C597.851 402.832 597.78 405.762 598.885 408.126C599.846 410.44 600.143 413.699 599.582 415.272C599.021 416.844 598.911 418.973 599.319 420.104C599.665 421.41 599.095 425.738 598.236 429.963C596.773 436.337 595.985 437.632 594.256 437.015C593.103 436.605 591.658 437.467 591.159 438.865C589.662 443.059 581.095 447.488 575.553 447.085C572.773 446.684 570.256 447.361 569.943 448.235C569.631 449.109 567.797 449.242 565.78 448.522C563.764 447.802 562.49 446.361 562.802 445.488C563.175 444.439 561.84 443.174 560.111 442.557C556.51 441.27 554.424 436.191 554.773 430.208C554.759 428.43 554.249 426.671 553.385 426.363C552.665 426.104 552.506 424.274 553.192 422.353C553.878 420.431 553.863 418.653 552.999 418.344C550.84 417.571 554.035 410.438 557.713 407.417C559.552 405.906 561.621 403.295 562.245 401.547C562.807 399.975 564.915 398.166 566.874 397.683C568.833 397.2 570.816 395.741 571.315 394.343C571.877 392.771 572.929 392.555 574.038 393.542C574.941 394.652 576.55 394.242 577.626 393.049ZM125.636 418.225C126.895 416.848 131.916 419.534 132.182 421.666C132.367 423.458 135.15 423.835 135.098 422.108C135.151 421.335 135.257 421.287 135.562 421.837C135.8 422.356 135.68 423.097 135.203 423.561C134.793 424.058 134.594 425.46 134.99 426.657C135.321 427.821 135.282 429.402 134.924 430.125C134.566 430.848 134.393 431.864 134.525 432.43C134.618 433.076 134.101 435.122 133.451 437.101C132.39 440.078 131.939 440.655 131.144 440.261C130.614 440 129.872 440.333 129.554 440.975C128.599 442.904 124.238 444.547 121.601 444.042C120.289 443.694 119.043 443.877 118.844 444.279C118.645 444.681 117.757 444.641 116.829 444.182C115.903 443.723 115.372 442.961 115.57 442.559C115.809 442.077 115.239 441.394 114.444 441C112.789 440.18 112.073 437.625 112.577 434.774C112.67 433.92 112.524 433.047 112.127 432.85C111.797 432.685 111.823 431.798 112.26 430.915C112.697 430.031 112.791 429.176 112.394 428.979C111.402 428.486 113.336 425.243 115.271 424C116.238 423.378 117.378 422.242 117.775 421.438C118.133 420.715 119.248 419.966 120.215 419.844C121.182 419.723 122.216 419.134 122.534 418.491C122.892 417.768 123.41 417.724 123.887 418.259C124.258 418.843 125.053 418.736 125.636 418.225ZM537.253 345.898C536.827 345.334 536.933 345.262 537.68 345.544C538.321 345.827 538.642 346.393 538.321 346.888C538.108 347.383 538.749 348.444 540.03 349.151C541.205 349.857 542.166 350.988 542.167 351.625C542.167 352.26 542.595 353.038 543.129 353.392C543.663 353.816 544.304 355.443 544.731 357.069C545.266 359.543 545.052 360.109 543.77 360.109C542.916 360.109 542.168 360.604 542.167 361.169C542.167 362.866 537.573 365.552 533.834 366.118C531.912 366.33 530.417 366.896 530.415 367.25C530.415 367.603 529.239 367.885 527.744 367.885C526.249 367.885 525.073 367.532 525.073 367.178C525.071 366.755 523.896 366.471 522.615 366.471C519.945 366.471 517.38 364.915 516.205 362.724C515.778 362.088 515.029 361.523 514.389 361.523C513.855 361.522 513.32 360.886 513.32 360.109C513.32 359.332 512.893 358.695 512.252 358.695C510.65 358.694 511.077 355.726 512.786 354.17C513.641 353.393 514.388 352.191 514.389 351.484C514.389 350.848 515.351 349.929 516.525 349.504C517.7 349.08 518.662 348.302 518.662 347.737C518.663 347.101 519.304 346.889 520.265 347.1C521.119 347.383 522.081 347.03 522.509 346.464C523.257 345.051 531.481 345.192 533.192 346.605C534.581 347.807 538.428 347.1 537.253 345.898Z" fill="#E56C45"/>
</svg>
