<svg width="24" height="24" viewBox="0 0 24 24" fill="none" xmlns="http://www.w3.org/2000/svg">
<path d="M12.3096 7.94163C12.2213 8.30163 11.7825 8.81103 11.5401 9.08189C11.5357 9.08701 11.5311 9.0922 11.5267 9.09729C11.47 9.16084 11.4196 9.22452 11.3596 9.30022C11.2848 9.39452 11.2032 9.49676 11.0719 9.64418C10.9558 9.77304 10.8059 9.93079 10.5988 10.1388C10.4971 10.2805 10.3957 10.4217 10.2951 10.5609C9.41231 11.7892 8.58019 12.9514 7.82835 14.2938C7.50448 14.8574 7.11766 15.229 6.71819 15.5485C6.69416 15.5704 6.66939 15.5926 6.64443 15.6146C6.40227 15.8275 6.12107 16.0402 5.79827 16.2197C6.24112 15.9582 6.30988 15.6328 6.33796 15.5363C6.36314 15.4189 6.35403 15.3886 6.35117 15.3679C6.34814 15.4204 6.34549 15.473 6.34146 15.5239C6.31831 15.8344 6.36104 16.1761 6.38066 16.4763C6.42973 16.755 6.47959 17.0796 6.48566 17.4297C6.47828 18.272 6.55411 19.0808 6.83187 19.6412L6.11425 19.1681C6.43306 19.2223 6.75735 19.2371 7.08987 19.2134C7.5002 19.1847 7.91939 19.096 8.35346 18.9663C8.75567 18.8479 9.16389 18.6928 9.64624 18.5467C9.879 18.4561 10.1259 18.3672 10.4052 18.3096C10.4214 18.3028 10.4339 18.2959 10.442 18.2894C10.4871 18.2554 10.3876 18.2611 10.3364 18.287C10.2039 18.3905 10.3004 18.2716 10.3251 18.2063C10.5208 17.8231 10.844 17.2325 11.0748 16.822C11.1123 16.7549 11.1492 16.688 11.1818 16.6288C11.3232 16.2757 11.4654 15.9152 11.6087 15.5563C11.6295 15.5376 11.6509 15.5189 11.6728 15.4999C11.9465 15.2623 12.1146 14.8922 12.3931 14.3114C12.5146 14.0586 12.6578 13.7655 12.8435 13.4276C12.9493 13.2354 13.049 13.1465 13.1337 13.0803C13.1448 13.0718 13.1558 13.0636 13.1665 13.0554C13.1934 13.035 13.2187 13.0156 13.2415 12.9956C13.3205 12.9254 13.3352 12.8146 13.3523 12.685C13.3752 12.5155 13.402 12.3143 13.5813 12.125C14.1507 11.5263 14.2 11.1517 14.2365 10.8671C14.2476 10.7832 14.2572 10.7083 14.2793 10.637C14.3504 10.4068 14.5596 10.1412 14.7455 9.95618C14.8927 9.80962 15.0447 9.43392 15.1359 9.13594C15.1644 9.04268 15.2221 8.93427 15.2932 8.809C15.3075 8.78381 15.3222 8.75815 15.337 8.73205C15.4272 8.5737 15.5294 8.39065 15.6095 8.18034C15.8104 7.64937 15.9014 7.36982 15.9763 7.14324C15.9974 7.07858 16.0168 7.01867 16.0357 6.95807C16.0689 6.85157 16.1087 6.73141 16.1512 6.60335C16.2193 6.42277 16.2968 6.26808 16.3587 6.14523C16.4486 5.97151 16.5009 5.84886 16.4773 5.85961L16.7024 7.21928C16.6972 7.23105 16.6347 7.19037 16.5726 7.16298C16.2716 6.88542 15.734 6.55 15.2223 6.25722C14.9546 6.10406 14.7335 5.86502 14.6119 5.58192C14.4906 5.29883 14.479 4.99578 14.5903 4.73329C14.7014 4.47092 14.9285 4.26785 15.2294 4.16903C15.5299 4.07036 15.8795 4.08638 16.1987 4.21381C16.8468 4.48287 17.4685 4.72089 18.1903 5.23741C18.3111 5.32906 18.4376 5.4319 18.5788 5.5846C18.8057 5.893 18.9541 6.46109 18.7805 6.8023C18.5671 7.30874 18.4237 7.48567 18.4042 7.58026C18.245 7.98304 18.0639 8.38971 17.8645 8.78034C17.6639 9.17394 17.4497 9.55539 17.2267 9.92715C17.152 10.0515 17.0775 10.175 17.0028 10.2985C16.9729 10.3479 16.9432 10.3966 16.9134 10.4458C16.7409 10.8868 16.5646 11.3255 16.4227 11.6223C16.3049 11.8683 16.1755 12.0219 16.0644 12.1542C15.9878 12.2455 15.9203 12.3262 15.8724 12.4181C15.846 12.4688 15.8132 12.5364 15.7724 12.6204C15.6081 12.959 15.328 13.5382 14.9991 14.0102C14.9891 14.0247 14.979 14.0389 14.9689 14.053C14.8287 14.2491 14.6543 14.466 14.4889 14.6767C14.2347 15.0003 14.0016 15.3094 13.9399 15.4933C13.8319 15.815 13.6368 16.1514 13.4649 16.4513C13.3009 16.7373 13.1573 16.9909 13.132 17.1605C13.1026 17.3616 13.0105 17.508 12.8743 17.722C12.7794 17.8707 12.6626 18.0552 12.5233 18.3189C12.3627 18.6222 12.2107 18.8324 12.0712 19.0124C11.9954 19.1101 11.9223 19.2014 11.8443 19.3011C11.7606 19.4015 11.7037 19.5048 11.5029 19.6937C11.4097 19.7786 11.2903 19.8676 11.1596 19.941C10.9551 20.0558 10.7613 20.11 10.5979 20.1444C10.4533 20.1942 10.2745 20.2547 10.1038 20.2873C9.98941 20.3091 9.85611 20.3534 9.71211 20.4028C9.52172 20.4683 9.31101 20.5424 9.10452 20.5798C8.93403 20.6108 8.77967 20.5991 8.6425 20.5868C8.6 20.5829 8.55919 20.5791 8.51974 20.5765C8.3848 20.6137 8.2478 20.649 8.10887 20.6817C8.08832 20.6954 8.06666 20.7102 8.04377 20.7255C7.92946 20.8021 7.78408 20.8948 7.5887 20.9554C7.27887 21.0508 6.98584 21.0431 6.685 21.0138C6.44947 20.9905 6.20787 20.9544 5.92964 20.9327C5.9223 20.9321 5.9149 20.9315 5.90746 20.9309C5.70504 20.8901 5.38124 20.713 5.29335 20.5261C5.18479 20.3529 5.06918 20.1591 4.97051 19.964C4.81735 19.6629 4.70434 19.3596 4.67716 19.1426C4.66688 19.0612 4.68692 18.9861 4.70795 18.9129C4.7081 18.9126 4.70825 18.9123 4.7084 18.9119C4.70983 18.9069 4.71121 18.902 4.71263 18.897C4.60163 18.4447 4.53153 17.9935 4.47583 17.5627C4.4707 17.5309 4.4648 17.4987 4.45816 17.4661C4.44611 17.4382 4.4336 17.4098 4.42073 17.3814C4.35818 17.2431 4.28246 17.0965 4.19931 17.0011C4.11273 16.8993 3.98548 16.603 3.86049 16.1678C3.79975 15.9527 3.74778 15.7064 3.71509 15.4718C3.70334 15.3585 3.69814 15.239 3.70772 15.1019C3.73881 14.8459 3.81421 14.3123 4.52071 13.9151C4.53139 13.915 4.54248 13.9148 4.55387 13.9143C4.62765 13.9117 4.71124 13.901 4.77516 13.8459C4.80712 13.8183 4.83568 13.7793 4.86452 13.7374C4.88997 13.7004 4.91601 13.6608 4.94584 13.624C4.97347 13.59 5.05968 13.5426 5.16142 13.4756C5.22414 13.4344 5.29242 13.3857 5.35405 13.3321C5.41339 13.2408 5.45726 13.1533 5.4808 13.0836C5.51864 12.9843 5.60557 12.7811 5.67331 12.6271C5.6807 12.5432 5.67319 12.469 5.65223 12.3959C5.63569 12.3464 5.61082 12.2972 5.586 12.2458C5.55276 12.175 5.51572 12.1071 5.50202 12.0238C5.49051 11.9601 5.50403 11.9015 5.53849 11.8731C5.55459 11.8598 5.57406 11.8548 5.59176 11.85C5.61205 11.8446 5.63015 11.8397 5.63753 11.8254C5.64284 11.8151 5.63924 11.7994 5.6351 11.7799C5.62837 11.7491 5.62076 11.7073 5.64206 11.6672C5.72547 11.5101 5.82938 11.3457 5.93539 11.182C6.05373 10.999 6.16743 10.829 6.2496 10.6804C6.33862 10.5187 6.51422 10.3143 6.69187 10.114C6.81435 9.97628 6.93897 9.83821 7.03719 9.71246C7.13119 9.59252 7.20475 9.44548 7.2747 9.30655C7.36027 9.13741 7.44352 8.97595 7.55944 8.87377C7.58301 8.85299 7.64041 8.84713 7.71247 8.83965C7.76336 8.83459 7.82276 8.82721 7.88079 8.816C7.99256 8.66134 8.10782 8.50736 8.22593 8.35446C8.22531 8.34546 8.22474 8.33623 8.22408 8.3269C8.22403 8.32672 8.22399 8.32655 8.22394 8.32637C8.20671 8.1192 8.18755 7.83084 8.46358 7.6573C8.47101 7.65261 8.47846 7.64834 8.48592 7.64444C8.54668 7.61464 8.60838 7.61109 8.6645 7.60784C8.72608 7.60429 8.78111 7.60116 8.81979 7.56505C8.86315 7.52472 8.88421 7.44984 8.90599 7.36952C8.93652 7.25684 8.96881 7.1327 9.07826 7.06212C9.08568 7.05737 9.09371 7.0523 9.10195 7.04696C9.17938 6.99728 9.29612 6.92023 9.4498 6.87359C9.69735 6.57952 9.94424 6.28519 10.188 5.98978C10.595 5.49646 10.9945 4.99781 11.3775 4.48576C11.5638 4.23821 11.8273 4.04471 12.1301 3.94748C12.4151 3.86193 12.8175 3.81424 12.9519 4.08514C13.0183 4.21273 13.1612 4.26809 13.2446 4.36708C13.3337 4.46287 13.3977 4.58547 13.4342 4.72943C13.5071 5.01688 13.4595 5.36101 13.3145 5.65919C13.0751 6.15032 12.823 6.63515 12.5584 7.10978C12.5473 7.13662 12.5358 7.16363 12.524 7.19052C12.4386 7.38655 12.3922 7.59244 12.343 7.80023C12.3324 7.84699 12.3214 7.89422 12.3096 7.94163Z" fill="#332824"/>
<path d="M11.4127 6.4612C11.5335 6.37995 11.5914 6.48252 11.6233 6.53866C11.6239 6.53964 11.6246 6.54063 11.6252 6.54161C11.6328 6.55495 11.6427 6.56352 11.6546 6.57351C11.6839 6.59793 11.7198 6.62868 11.7625 6.75676C11.791 6.77099 11.8152 6.78423 11.8408 6.80032C12.1161 6.97312 12.3324 7.23502 12.5458 7.51486C12.5497 7.51635 12.5537 7.51786 12.5577 7.51939C12.6358 7.54918 12.7299 7.58389 12.7616 7.65845C12.8 7.75222 12.8191 7.82945 12.8342 7.8952C13.0062 8.11602 13.1882 8.32526 13.3994 8.48151C13.4654 8.53037 13.5348 8.57421 13.6068 8.6112C13.6732 8.64536 13.742 8.67554 13.8121 8.7017C13.864 8.69507 13.9163 8.68238 13.9646 8.67047C14.0326 8.65371 14.0926 8.63841 14.1334 8.64368C14.2317 8.6564 14.3061 8.74675 14.3622 8.81363C14.3713 8.82456 14.38 8.83488 14.3881 8.84411C14.4528 8.85395 14.5179 8.8622 14.5829 8.86952C14.5821 8.88138 14.5812 8.89369 14.5802 8.9063C14.5678 9.06355 14.6297 9.08918 14.7255 9.12767C14.7672 9.14437 14.816 9.16385 14.8683 9.19746C14.902 9.2191 14.8981 9.28121 14.8952 9.332C14.8943 9.34693 14.8935 9.3609 14.8938 9.37255C14.8945 9.41244 14.9254 9.38236 14.9614 9.34661C15.0083 9.30028 15.0637 9.24422 15.0768 9.32023C15.088 9.38469 15.104 9.42412 15.1227 9.44562C15.1743 9.50444 15.2473 9.42783 15.3059 9.36567C15.3289 9.3407 15.3511 9.31865 15.3681 9.30817C15.4232 9.27419 15.4576 9.34154 15.4737 9.42209C15.485 9.48545 15.5691 9.45835 15.64 9.4102C15.668 9.39244 15.6912 9.40029 15.7207 9.41046C15.7495 9.42034 15.7847 9.43257 15.8303 9.41756C15.9467 9.38003 16.0037 9.36136 16.0491 9.3463C16.0618 9.34191 16.0738 9.33805 16.0854 9.33367C16.1225 9.32002 16.1629 9.3118 16.2018 9.30237C16.2361 9.29422 16.2719 9.28563 16.3296 9.28086C16.3501 9.27903 16.3684 9.27615 16.3846 9.27197C16.4981 9.34649 16.516 9.39791 16.5862 9.46103C16.6186 9.49265 16.6297 9.62636 16.6181 9.83955C16.6061 10.0528 16.5715 10.3265 16.5135 10.6055C16.4554 10.8845 16.3773 11.1493 16.2884 11.3458C16.1997 11.5421 16.1069 11.6524 16.0322 11.6569C15.8883 11.6685 15.6971 11.655 15.6027 11.6615C15.596 11.6622 15.59 11.663 15.5845 11.664C15.4704 11.6718 15.2717 11.6348 15.1481 11.5902C15.0484 11.5549 14.9543 11.5131 14.8638 11.4666C14.8547 11.4618 14.8454 11.4569 14.836 11.452C14.7319 11.4881 14.6314 11.5184 14.5675 11.5186C14.5158 11.5191 14.4954 11.4713 14.4787 11.4306C14.4667 11.4025 14.4565 11.3777 14.4383 11.3741C14.4284 11.3721 14.4141 11.3713 14.3966 11.3702C14.3917 11.3698 14.3864 11.3695 14.381 11.3691C14.297 11.3591 14.1806 11.3415 14.1092 11.243C14.0753 11.1961 14.0458 11.1189 14.0184 11.0451C13.9789 10.9395 13.9446 10.8415 13.9023 10.8485C13.828 10.8609 13.7756 10.7995 13.7304 10.7453C13.6872 10.6936 13.65 10.6483 13.6028 10.6788C13.5463 10.7153 13.528 10.6813 13.5013 10.631C13.4828 10.5961 13.4601 10.5535 13.4178 10.5205C13.3689 10.4823 13.3476 10.4279 13.3297 10.3818C13.3045 10.3168 13.2861 10.268 13.206 10.302C13.117 10.3398 13.0365 10.3517 13.0003 10.3076C12.9837 10.2876 12.9584 10.2777 12.932 10.2673C12.897 10.2536 12.86 10.2389 12.84 10.1992C12.8235 10.1665 12.8272 10.1061 12.8305 10.0528C12.8316 10.0361 12.8326 10.0202 12.8329 10.006C12.8119 9.99588 12.7909 9.98616 12.7692 9.97673C12.7617 9.98288 12.7536 9.98978 12.7452 9.99688C12.7031 10.0325 12.6512 10.0761 12.6084 10.0889C12.5407 10.1091 12.516 10.0611 12.4903 10.0102C12.4701 9.97048 12.4493 9.92913 12.4067 9.91709C12.3776 9.90889 12.3374 9.91289 12.2976 9.91679C12.2384 9.92252 12.1792 9.92751 12.1595 9.89295C12.1521 9.87998 12.1592 9.84426 12.1664 9.80878C12.1665 9.80857 12.1666 9.80837 12.1666 9.80816C12.1671 9.80575 12.1676 9.80339 12.1681 9.80099C12.0837 9.78481 11.9963 9.76962 11.9096 9.7562C11.899 9.7605 11.8884 9.76465 11.8779 9.76871C11.8269 9.78862 11.7769 9.80763 11.7284 9.84738C11.6761 9.89052 11.6046 9.89233 11.53 9.89434C11.4815 9.8959 11.4297 9.89635 11.3813 9.909C11.353 9.91633 11.3538 9.87544 11.3549 9.83337C11.3559 9.79412 11.357 9.7539 11.3345 9.7509C11.3232 9.74939 11.3061 9.75655 11.2872 9.76393C11.2708 9.77048 11.2534 9.77744 11.2384 9.77918C11.2245 9.78077 11.2129 9.75136 11.1982 9.71394C11.1892 9.69082 11.1789 9.66468 11.1663 9.64069C11.103 9.6292 11.0373 9.61498 10.9749 9.60084C10.9478 9.62122 10.9174 9.65049 10.883 9.69085C10.8583 9.71981 10.8307 9.75552 10.8023 9.79201C10.7638 9.84166 10.724 9.893 10.688 9.93131C10.6598 9.96129 10.6429 9.96976 10.6456 9.95195C10.6469 9.94364 10.6524 9.92983 10.6574 9.91733C10.663 9.90301 10.6681 9.89028 10.6655 9.88919C10.6637 9.88843 10.6563 9.89658 10.6474 9.90641C10.6332 9.92213 10.6148 9.94239 10.6075 9.93906C10.5802 9.9267 10.5559 9.90195 10.5325 9.87779C10.507 9.85128 10.4799 9.82403 10.4514 9.81599C10.4192 9.80685 10.4013 9.74902 10.3842 9.69173C10.3718 9.6514 10.3585 9.6107 10.3414 9.58674C10.3245 9.5632 10.2894 9.56743 10.2556 9.57175C10.2157 9.57742 10.1742 9.58091 10.1705 9.5373C10.1697 9.52841 10.1871 9.48818 10.2088 9.43787C10.2242 9.40221 10.2418 9.36144 10.2569 9.32311C10.2284 9.30521 10.2031 9.28723 10.1752 9.26567C10.171 9.26999 10.1668 9.27438 10.1625 9.27888C10.1624 9.27899 10.1623 9.2791 10.1622 9.27921C10.065 9.3808 9.93162 9.5194 9.94815 9.39666C9.95241 9.36549 9.97385 9.31656 9.99261 9.27218C10.0112 9.22869 10.0279 9.18981 10.0242 9.17704C10.02 9.16257 9.9934 9.17957 9.96452 9.19809C9.92399 9.22408 9.87884 9.2532 9.88496 9.20305C9.88538 9.19962 9.88587 9.19588 9.88631 9.19211C9.89118 9.15676 9.89497 9.10226 9.92708 9.00829C9.88187 8.94852 9.83707 8.88351 9.79743 8.81834C9.72691 8.7068 9.66447 8.59065 9.60181 8.47386C9.57071 8.41622 9.60209 8.27932 9.68516 8.08232C9.76332 7.88273 9.93458 7.66784 10.0368 7.40684C10.1769 7.16121 10.3817 6.97187 10.5255 6.81504C10.6802 6.66557 10.7935 6.58352 10.8569 6.58875C10.9562 6.59536 11.0606 6.60491 11.1558 6.61266C11.1629 6.61032 11.1698 6.60816 11.1766 6.6063C11.2279 6.59308 11.2958 6.54345 11.3651 6.49449C11.381 6.48324 11.3969 6.47199 11.4127 6.4612Z" fill="#332824"/>
<path d="M14.4256 20.476C14.429 20.4722 14.4427 20.4815 14.4486 20.4799C14.4419 20.5201 14.4133 20.4899 14.4256 20.476ZM15.0334 17.5537C15.0285 17.5637 15.0236 17.5736 15.0186 17.5836C15.0326 17.5901 15.0514 17.5828 15.0644 17.5922C15.0665 17.5938 15.061 17.6226 15.066 17.6239C15.071 17.6252 15.07 17.5858 15.0773 17.5816C15.0855 17.577 15.123 17.6044 15.136 17.6037C15.1846 17.6011 15.2335 17.5786 15.2822 17.5949C15.232 17.6241 15.2826 17.6537 15.2967 17.6411C15.2998 17.6382 15.2993 17.565 15.3497 17.5834C15.3817 17.5951 15.3521 17.6997 15.4056 17.6473C15.3645 17.5741 15.4049 17.5793 15.4371 17.5768C15.4427 17.5764 15.4875 17.5874 15.5073 17.5841C15.5141 17.583 15.5244 17.5447 15.5334 17.5437C15.5396 17.543 15.5443 17.564 15.5535 17.5629C15.5963 17.5582 15.6384 17.5566 15.6814 17.5636C15.6563 17.6621 15.701 17.6056 15.7031 17.6103C15.7133 17.6371 15.667 17.6447 15.6853 17.6614C15.7109 17.6584 15.7364 17.6553 15.762 17.6523C15.741 17.6402 15.7898 17.5693 15.7987 17.6015C15.7948 17.5145 15.9152 17.6773 15.9335 17.6482C15.9373 17.6421 15.9124 17.5991 15.9703 17.6188C15.9766 17.6209 15.9742 17.6472 15.9775 17.6448C15.9795 17.6433 15.9914 17.5598 16.0041 17.6059C16.0088 17.6228 15.9791 17.6776 16.0443 17.6556C16.0183 17.5706 16.1348 17.6095 16.1562 17.6308C16.1519 17.6194 16.1477 17.608 16.1434 17.5966C16.1646 17.6274 16.1684 17.5985 16.1731 17.6001C16.1924 17.6064 16.2188 17.6355 16.2367 17.6329C16.2577 17.6298 16.2578 17.577 16.2822 17.5975C16.2764 17.5859 16.2706 17.5742 16.2648 17.5625C16.2817 17.5653 16.2985 17.5682 16.3154 17.571C16.2763 17.6409 16.3239 17.5743 16.327 17.5728C16.332 17.5702 16.3248 17.5989 16.3331 17.5953C16.334 17.5947 16.3328 17.5678 16.3456 17.5647C16.3725 17.5585 16.3683 17.5924 16.3796 17.592C16.3806 17.5918 16.377 17.5676 16.3965 17.5618C16.4584 17.5435 16.3962 17.5804 16.3938 17.5838C16.3907 17.5882 16.4119 17.6897 16.3593 17.6537C16.3769 17.6652 16.3787 17.7101 16.3807 17.7112C16.3825 17.7121 16.4131 17.7058 16.4148 17.7043C16.4298 17.689 16.4166 17.6583 16.4195 17.6528C16.4219 17.6484 16.4588 17.6884 16.4675 17.596C16.4851 17.6812 16.4573 17.6734 16.4277 17.6865C16.4234 17.704 16.4559 17.721 16.4576 17.7209C16.4995 17.7208 16.4763 17.6507 16.4855 17.6059C16.4903 17.5825 16.5074 17.6303 16.4916 17.5675C16.5297 17.5609 16.5066 17.5973 16.5091 17.6026C16.5128 17.6106 16.5261 17.5926 16.5277 17.5949C16.5302 17.5985 16.5217 17.6202 16.5313 17.6279C16.5329 17.629 16.5485 17.5916 16.5284 17.5737C16.5552 17.579 16.553 17.5471 16.5621 17.6114C16.5805 17.4898 16.5755 17.6834 16.5827 17.6902C16.6021 17.7081 16.5964 17.6126 16.5975 17.608C16.6045 17.5781 16.658 17.6109 16.6712 17.5971C16.666 17.666 16.6288 17.5979 16.6205 17.6112C16.5928 17.6557 16.6595 17.6456 16.6394 17.7321C16.6479 17.7084 16.6563 17.6846 16.6647 17.6609C16.6802 17.7165 16.6583 17.7407 16.6999 17.7204C16.7067 17.6724 16.6705 17.728 16.6777 17.6902C16.682 17.668 16.7061 17.6632 16.7066 17.6515C16.7071 17.6375 16.6853 17.6541 16.6887 17.6325C16.6962 17.5858 16.7758 17.6302 16.7152 17.6557C16.7321 17.6549 16.7408 17.7479 16.7555 17.7189C16.7649 17.7001 16.7116 17.5718 16.7916 17.5953C16.7933 17.6392 16.7596 17.6083 16.7587 17.6116C16.7575 17.6165 16.7636 17.7155 16.7647 17.7204C16.7684 17.7365 16.85 17.6834 16.8673 17.7332C16.8605 17.676 16.929 17.723 16.9364 17.7055C16.9384 17.7007 16.931 17.6657 16.9331 17.662C16.9464 17.6399 16.9822 17.7025 16.9988 17.7041C17.0174 17.7059 17.0151 17.6756 17.0161 17.6757C17.0243 17.6774 17.0178 17.6979 17.0228 17.6979C17.0303 17.6978 17.0823 17.702 17.0849 17.6977C17.0857 17.6963 17.0772 17.6618 17.0885 17.6552C17.0905 17.6541 17.0892 17.6951 17.1228 17.6773C17.1632 17.656 17.0947 17.6264 17.1115 17.5834C17.1374 17.6446 17.1366 17.584 17.1436 17.5887C17.1461 17.5905 17.1642 17.642 17.1839 17.6387C17.1698 17.6471 17.1556 17.6554 17.1415 17.6638C17.1554 17.6728 17.1824 17.6617 17.1938 17.6719C17.1994 17.6768 17.1948 17.7191 17.2069 17.718C17.2095 17.7175 17.2197 17.6144 17.188 17.6607C17.1854 17.6239 17.2005 17.6478 17.2075 17.6374C17.2086 17.6358 17.2128 17.5743 17.2218 17.6125C17.2239 17.6219 17.2005 17.8013 17.2609 17.6715C17.2628 17.6673 17.2561 17.6448 17.258 17.6402C17.2593 17.637 17.2747 17.6461 17.2764 17.6429C17.2781 17.6395 17.2707 17.615 17.2728 17.6101C17.2834 17.5853 17.2974 17.6826 17.2754 17.6752C17.2828 17.6872 17.2901 17.6992 17.2974 17.7112C17.2896 17.6379 17.3089 17.6906 17.3191 17.6883C17.3841 17.6739 17.3405 17.6262 17.3517 17.6015C17.3697 17.5619 17.356 17.6874 17.3826 17.6497C17.3851 17.6462 17.3529 17.5929 17.4158 17.623C17.4065 17.625 17.3972 17.6271 17.3879 17.6292C17.3933 17.7001 17.4215 17.6243 17.4237 17.6233C17.4484 17.6136 17.4317 17.6392 17.4684 17.6026C17.4717 17.5994 17.4788 17.6169 17.4858 17.6081C17.5149 17.5722 17.4475 17.5863 17.4456 17.5576C17.4448 17.5435 17.5173 17.5471 17.5198 17.5537C17.5303 17.5834 17.4869 17.5668 17.4952 17.6036C17.4982 17.6166 17.6015 17.5898 17.6223 17.6041C17.6462 17.6208 17.657 17.7169 17.6571 17.6089C17.6639 17.7149 17.6698 17.6426 17.6729 17.6433C17.7099 17.6531 17.71 17.6542 17.7417 17.644C17.7487 17.6418 17.7546 17.674 17.7571 17.6686C17.7585 17.6653 17.7558 17.6308 17.7629 17.6202C17.7727 17.6057 17.8317 17.6411 17.8361 17.6601C17.8405 17.6792 17.8112 17.6684 17.8164 17.6997C17.8376 17.7029 17.858 17.6951 17.8793 17.6984C17.8882 17.6999 17.8836 17.7218 17.8875 17.7222C17.8891 17.7225 17.9197 17.7032 17.9184 17.6951C17.9154 17.6763 17.8208 17.689 17.8457 17.6506C17.8505 17.6432 17.8675 17.6937 17.8648 17.6323C17.9493 17.6462 18.0337 17.6601 18.1182 17.6741C18.0696 17.72 18.015 17.6789 17.9642 17.6832C17.9572 17.6837 17.9337 17.6778 17.9366 17.7088C17.9798 17.7169 18.0335 17.7007 18.075 17.7209C18.0763 17.7216 18.0715 17.7495 18.0764 17.7539C18.0857 17.7621 18.116 17.7172 18.1211 17.7288C18.122 17.7315 18.1047 17.7683 18.11 17.7916C18.1234 17.8515 18.1268 17.7188 18.1384 17.7204C18.1474 17.7217 18.2074 17.7858 18.2224 17.7453C18.2383 17.7021 18.1781 17.7202 18.1826 17.6849C18.2233 17.6493 18.2646 17.6873 18.303 17.6828C18.3037 17.6827 18.2978 17.655 18.3064 17.6512C18.3214 17.6444 18.3253 17.6837 18.3326 17.69C18.3404 17.6967 18.3682 17.691 18.3719 17.7054C18.3723 17.7072 18.3667 17.7462 18.3659 17.7473C18.3538 17.7634 18.3495 17.7128 18.3484 17.7121C18.3443 17.7102 18.3402 17.7296 18.3364 17.7284C18.3302 17.7265 18.3268 17.7086 18.3186 17.707C18.313 17.7059 18.3184 17.7403 18.313 17.7387C18.311 17.738 18.2894 17.6594 18.2874 17.7396C18.2868 17.7649 18.4631 17.7974 18.4808 17.7771C18.4656 17.7675 18.4505 17.7579 18.4354 17.7482C18.4661 17.7717 18.503 17.7076 18.5056 17.8024C18.6195 17.8102 18.7333 17.8179 18.8472 17.8257C18.8675 17.8337 18.8564 17.8947 18.8898 17.8769C18.8812 17.8575 18.8725 17.8381 18.8639 17.8187C18.881 17.8323 18.957 17.8589 18.9693 17.8464C18.9709 17.8447 18.9731 17.7896 18.9921 17.7848C19.0089 17.7807 19.0116 17.822 19.0206 17.8299C19.0282 17.8364 19.0367 17.8256 19.0389 17.8279C19.0407 17.8297 19.0413 17.855 19.0455 17.8594C19.0586 17.873 19.048 17.8019 19.0609 17.8835C19.0578 17.8866 19.0546 17.8898 19.0515 17.8929C19.0672 17.9047 19.0888 17.9418 19.0656 17.9601C19.0616 17.9632 19.065 17.9388 19.062 17.9388C18.9453 17.9434 19.0385 17.9909 19.0794 17.9529C19.0899 17.9891 19.1488 17.967 19.1508 17.9742C19.1535 17.9845 19.1434 18.0135 19.1566 18.0384C19.1594 18.0437 19.2381 18.0235 19.2098 18.0716C19.2039 18.0815 19.1662 18.0711 19.1571 18.0725C19.1785 18.1493 19.2287 18.0393 19.2343 18.0421C19.2571 18.0541 19.1906 18.1086 19.2419 18.1176C19.2813 18.1244 19.2443 18.0731 19.2595 18.0513C19.268 18.039 19.3126 18.0955 19.3114 18.0223C19.3267 18.0145 19.3178 18.0532 19.3197 18.056C19.3215 18.0585 19.3516 18.0366 19.3614 18.052C19.3626 18.0539 19.3589 18.0919 19.3601 18.095C19.3625 18.1004 19.3915 18.0928 19.3927 18.0895C19.3934 18.0873 19.3865 18.054 19.3894 18.046C19.3927 18.0367 19.4206 18.0445 19.4222 18.035C19.4243 18.0206 19.3898 18.0301 19.3956 17.9929C19.4115 18.0022 19.4374 17.9774 19.4479 17.9474C19.4453 17.956 19.4299 17.9572 19.4246 17.9542C19.4271 17.8997 19.4602 17.9005 19.4489 17.9436C19.4561 17.9204 19.4512 17.9081 19.4552 17.8863C19.4563 17.8807 19.4665 17.8796 19.4685 17.8702C19.4687 17.8683 19.4582 17.8477 19.4603 17.8367C19.4641 17.8167 19.4951 17.8212 19.4977 17.8264C19.5048 17.8413 19.4795 17.8593 19.4774 17.8823C19.4771 17.8858 19.4986 17.9308 19.4989 17.9348C19.5002 17.9775 19.4763 17.9467 19.479 17.9852C19.4849 17.9933 19.4908 18.0014 19.4968 18.0095C19.4739 18.0484 19.4317 18.0284 19.4208 18.0727C19.4547 18.0595 19.4901 18.0611 19.49 18.1608C19.49 18.2028 19.4754 18.2274 19.4759 18.238C19.4781 18.2762 19.4984 18.2347 19.4991 18.2368C19.4997 18.2391 19.5 18.2414 19.5 18.2436C19.5 18.2436 19.5 18.2436 19.5 18.2436C19.5 18.2659 19.4711 18.282 19.4697 18.2922C19.4672 18.3104 19.4801 18.385 19.4801 18.4016C19.4796 18.4049 19.4591 18.4225 19.466 18.4514C19.473 18.4805 19.491 18.4811 19.4917 18.4841C19.4951 18.5016 19.4636 18.5174 19.4627 18.5277C19.4622 18.5329 19.4791 18.5649 19.4796 18.5741C19.48 18.5833 19.4671 18.6034 19.4621 18.6325C19.4583 18.6541 19.4693 18.6706 19.4674 18.674C19.466 18.6763 19.4362 18.6759 19.4348 18.6797C19.4326 18.6853 19.4395 18.7112 19.4385 18.7176C19.4371 18.7269 19.4275 18.7176 19.4287 18.7271C19.4297 18.7343 19.4669 18.8233 19.4667 18.8471C19.4663 18.8876 19.4268 18.7943 19.4635 18.9544C19.4638 18.9554 19.4727 18.9441 19.473 18.945C19.4785 18.9745 19.4498 19.0198 19.4849 19.0119C19.4197 19.063 19.4767 19.0729 19.4671 19.1412C19.4634 19.1674 19.4381 19.1782 19.438 19.1822C19.4405 19.2155 19.4485 19.1896 19.4512 19.206C19.4528 19.2151 19.4301 19.2503 19.4352 19.2732C19.4379 19.285 19.4619 19.2808 19.4628 19.2831C19.4723 19.3047 19.4607 19.3281 19.4628 19.3435C19.4642 19.3538 19.4786 19.3546 19.479 19.3565C19.4796 19.3604 19.46 19.4021 19.4559 19.4167C19.4528 19.428 19.4645 19.4457 19.4623 19.4506C19.4492 19.48 19.4214 19.405 19.4482 19.5101C19.4498 19.5166 19.46 19.514 19.4603 19.5152C19.4665 19.545 19.4479 19.5476 19.4445 19.572C19.4388 19.614 19.4656 19.5906 19.4433 19.6202C19.46 19.6477 19.4694 19.6465 19.489 19.6388C19.4347 19.6602 19.4155 19.769 19.4758 19.7663C19.4566 19.7646 19.4588 19.826 19.453 19.8271C19.4495 19.8277 19.4217 19.7666 19.4344 19.9036C19.436 19.9207 19.4529 19.899 19.4476 19.934C19.4071 19.9251 19.4468 19.9563 19.4468 19.9609C19.4463 20.0416 19.3473 19.9755 19.3302 19.9847C19.3105 19.9954 19.293 20.059 19.2887 20.0591C19.2745 20.0591 19.2863 20.0268 19.2831 20.015C19.2799 20.0032 19.2397 20.0651 19.2377 20.0617C19.23 20.048 19.2379 20.0098 19.2371 20.0078C19.2274 19.9844 19.1735 20.0143 19.1584 20.0054C19.1589 20.0303 19.1892 20.0322 19.1702 20.0721C19.1482 20.1186 19.1469 20.0092 19.1464 20.0043C19.0454 20.0054 18.9444 20.0064 18.8434 20.0075C18.8447 20.0657 18.9107 20.0218 18.9122 20.0294C18.921 20.0748 18.8095 20.074 18.7958 20.0534C18.8062 20.066 18.8166 20.0786 18.827 20.0911C18.8093 20.1581 18.77 20.0711 18.7443 20.1007C18.736 20.1102 18.752 20.1361 18.7516 20.1378C18.7423 20.1638 18.7274 20.1438 18.7385 20.1089C18.7158 20.1423 18.7191 20.1054 18.7017 20.1027C18.7008 20.1026 18.7083 20.1296 18.6944 20.1408C18.688 20.146 18.6535 20.1461 18.6488 20.1697C18.6469 20.1796 18.6644 20.2844 18.6666 20.1942C18.7041 20.2382 18.6786 20.1532 18.6932 20.1552C18.6954 20.1557 18.6903 20.206 18.727 20.1823C18.72 20.2731 18.6777 20.2052 18.6705 20.2162C18.6555 20.2388 18.7171 20.2856 18.7284 20.2149C18.7231 20.2857 18.7328 20.2245 18.7465 20.2274C18.7616 20.2305 18.755 20.2516 18.7632 20.2517C18.7854 20.2523 18.7762 20.2023 18.7945 20.2473C18.7766 20.1079 18.8259 20.2289 18.8403 20.2655C18.8169 20.2725 18.7936 20.2796 18.7702 20.2867C18.7715 20.294 18.7729 20.3014 18.7742 20.3087C18.768 20.3076 18.7619 20.3066 18.7557 20.3056C18.7567 20.2985 18.7577 20.2915 18.7587 20.2845C18.727 20.3301 18.7192 20.2788 18.7166 20.2783C18.6833 20.2723 18.6448 20.2728 18.6111 20.2726C18.6061 20.2726 18.6096 20.3182 18.5727 20.2825C18.561 20.2711 18.5721 20.2356 18.5588 20.2409C18.5421 20.3374 18.5424 20.2605 18.5375 20.2603C18.5233 20.2603 18.5146 20.2843 18.5133 20.2845C18.4957 20.2882 18.47 20.2842 18.4507 20.2878C18.4503 20.2882 18.4604 20.3178 18.4478 20.309C18.4434 20.3059 18.404 20.1793 18.3695 20.2206C18.3784 20.2291 18.3874 20.2377 18.3964 20.2462C18.3858 20.2343 18.3119 20.2662 18.33 20.3001C18.3411 20.3208 18.3681 20.2392 18.3711 20.3176C18.3465 20.2942 18.2106 20.3293 18.2 20.3111C18.1986 20.3085 18.2076 20.283 18.2055 20.2797C18.204 20.2773 18.1729 20.2833 18.1687 20.2735C18.1663 20.2677 18.18 20.2521 18.1789 20.2429C18.1779 20.2364 18.1391 20.2255 18.1368 20.2574C18.1464 20.2446 18.1732 20.2558 18.1591 20.2827C18.1573 20.286 18.1479 20.2654 18.1458 20.2697C18.1254 20.3088 18.1863 20.2994 18.1957 20.2997C18.1575 20.3403 18.0982 20.2924 18.0539 20.3189C18.0359 20.2924 18.0804 20.2783 18.0601 20.2563C18.0181 20.2107 18.049 20.293 18.0476 20.2964C18.0372 20.3232 18.0016 20.1796 18.0016 20.2889C17.9863 20.2724 17.9913 20.2587 17.9697 20.273C17.9726 20.2805 17.9754 20.2881 17.9782 20.2957C17.9543 20.359 17.9037 20.1993 17.9075 20.1871C17.9177 20.1545 17.9441 20.2053 17.9463 20.2041C17.9496 20.2023 17.9588 20.0914 17.9953 20.1906C18.0102 20.1162 17.9375 20.1404 17.9706 20.0897C17.9483 20.098 17.8564 20.0462 17.8431 20.0789C17.8415 20.0831 17.8489 20.1572 17.8262 20.1195C17.8154 20.1016 17.8414 20.1007 17.8365 20.0838C17.8213 20.032 17.6149 20.0651 17.5757 20.0679C17.5731 20.068 17.574 20.045 17.5715 20.0452C17.5639 20.0458 17.5359 20.0801 17.5221 20.0695C17.5506 20.1121 17.4953 20.1154 17.4812 20.1107C17.4598 20.1036 17.4612 20.0631 17.4519 20.0545C17.4164 20.0213 17.3613 20.1174 17.3336 20.0276C17.3351 20.1168 17.2858 19.9839 17.2634 19.9831C17.2458 19.9825 17.2203 20.0415 17.2441 20.0774C17.2137 20.0733 17.1818 20.0899 17.1534 20.0953C17.1487 20.0963 17.1551 20.0699 17.1471 20.0723C17.1464 20.0727 17.1454 20.0985 17.1385 20.1012C17.0816 20.1237 17.1093 20.0688 17.0986 20.0527C17.0927 20.0436 17.0883 20.0392 17.0851 20.0377C17.1182 20.0326 17.1565 20.0225 17.1667 20.0217C17.158 19.9647 17.0932 20.0327 17.0742 20.0173C17.0736 20.0168 17.0759 19.9853 17.0752 19.9851C17.0752 19.9851 17.0752 19.9851 17.0752 19.9851C17.0681 19.9827 17.0228 19.9943 17.0321 20.0318C17.0346 20.0418 17.0554 20.0418 17.0802 20.0384C17.0735 20.0454 17.0785 20.0807 17.0773 20.0822C17.063 20.0996 17.0279 20.0652 17.0155 20.0606C17.0126 20.0595 17.0128 20.0821 17.0124 20.0822C17.0011 20.077 17.0057 20.0126 16.9941 20.0791C16.9736 19.9987 17.0325 20.0671 17.0283 20.015C17.0251 19.9748 16.8944 19.9964 16.8948 20.0596C16.8943 20.0529 16.8925 20.0445 16.8888 20.0349C16.8806 20.0137 16.8443 20.0203 16.838 20.032C16.8369 20.0343 16.8373 20.0957 16.836 20.0963C16.8327 20.0977 16.7882 20.0495 16.7716 20.0858C16.7806 20.0944 16.7896 20.103 16.7985 20.1116C16.7444 20.1122 16.7527 20.1305 16.7708 20.1488C16.7717 20.149 16.7726 20.1513 16.7734 20.1516C16.7874 20.1651 16.8054 20.1782 16.8056 20.1831C16.8067 20.2015 16.7147 20.2118 16.7324 20.1549C16.7349 20.1471 16.7774 20.1724 16.7564 20.1318C16.7527 20.1247 16.7254 20.1363 16.7239 20.1318C16.7143 20.102 16.774 20.0624 16.7667 20.0201C16.7522 20.0604 16.7336 20.0392 16.717 20.0496C16.7095 20.0543 16.7076 20.0851 16.7067 20.0856C16.6927 20.0937 16.7006 20.0614 16.6959 20.0622C16.6934 20.0628 16.666 20.1315 16.6712 20.0368C16.5807 20.1064 16.6461 20.1064 16.7016 20.101C16.6841 20.1355 16.6497 20.1188 16.6343 20.1268C16.6288 20.1298 16.632 20.1614 16.6227 20.1677C16.6034 20.1807 16.5116 20.1444 16.4877 20.1358C16.5023 20.1247 16.4981 20.0902 16.4867 20.0926C16.4754 20.095 16.4849 20.1409 16.4827 20.1459C16.4803 20.151 16.4271 20.1293 16.4182 20.1353C16.4583 20.1186 16.4493 20.0843 16.4152 20.0807C16.4202 20.0708 16.4251 20.0609 16.43 20.051C16.4101 20.0649 16.3682 20.0126 16.3566 20.0281C16.3548 20.0307 16.3613 20.0595 16.3603 20.0609C16.3502 20.0732 16.3158 20.0438 16.3142 20.0536C16.3128 20.0618 16.3275 20.086 16.3221 20.0979C16.3209 20.1004 16.3068 20.0614 16.2929 20.071C16.2877 20.0745 16.2908 20.1018 16.2895 20.1034C16.2787 20.1165 16.2851 20.0706 16.2652 20.078C16.2507 20.0834 16.2399 20.1284 16.2198 20.1135C16.2857 20.1708 16.2303 20.1468 16.2028 20.1642C16.1983 20.167 16.2021 20.2165 16.1757 20.1924C16.2319 20.1028 16.1597 20.145 16.145 20.1441C16.1441 20.1438 16.1439 20.1111 16.1366 20.1105C16.136 20.1106 16.1369 20.1327 16.1302 20.1344C16.0663 20.1503 16.1071 20.1254 16.095 20.1036C16.0899 20.0943 16.0588 20.1255 16.0505 20.1263C16.0485 20.1264 16.0494 20.1034 16.042 20.1043C16.0288 20.106 16.017 20.1304 16.0083 20.1323C16.0073 20.1325 16.0073 20.0962 15.9908 20.108C15.9862 20.1113 15.981 20.1241 15.9876 20.1345C16.0094 20.1688 16.0507 20.1095 16.0754 20.1437C16.0979 20.1748 16.027 20.1778 16.0233 20.1779C16.022 20.178 16.0358 20.1601 16.0217 20.1565C16.0097 20.1535 15.9878 20.2161 15.9699 20.2025C15.9685 20.2015 15.9542 20.1484 15.9549 20.1453C15.9555 20.1431 15.9774 20.1316 15.9743 20.1162C15.9739 20.1145 15.9599 20.1148 15.9581 20.1034C15.9559 20.0895 15.9499 19.953 15.9469 19.9496C15.9392 19.9411 15.9442 19.9723 15.9393 19.9701C15.9286 19.9655 15.8919 19.9252 15.8907 19.9725C15.8967 19.9753 15.9028 19.9781 15.9089 19.9809C15.8751 19.9858 15.8895 20.0059 15.8847 20.0148C15.8795 20.0244 15.881 19.9828 15.8696 19.9789C15.8671 19.978 15.8194 19.9867 15.8203 20.0042C15.8467 19.9764 15.8369 20.0278 15.8381 20.0287C15.8427 20.032 15.8486 20.0032 15.8548 20.0038C15.8984 20.0083 15.8545 20.0538 15.8648 20.0655C15.8683 20.0694 15.8754 20.0448 15.8769 20.0461C15.8817 20.0502 15.8818 20.0824 15.8851 20.0798C15.8927 20.0737 15.8838 20.0281 15.8844 20.0258C15.8912 19.9972 15.9178 20.0327 15.9013 20.0823C15.9112 20.1002 15.9124 20.0399 15.9203 20.064C15.936 20.1118 15.9125 20.0995 15.9061 20.1074C15.8832 20.136 15.8765 20.1129 15.8441 20.1208C15.8325 20.1236 15.8187 20.1529 15.8133 20.1545C15.8099 20.1555 15.7777 20.0536 15.7768 20.2131C15.7643 20.1977 15.7447 20.0926 15.7318 20.0974C15.7203 20.1017 15.724 20.1582 15.7229 20.1604C15.7212 20.1638 15.7073 20.1593 15.7025 20.1673C15.697 20.1767 15.6998 20.1983 15.691 20.207C15.6691 20.2288 15.6697 20.1712 15.6674 20.1675C15.6413 20.1242 15.6528 20.2062 15.647 20.2127C15.6416 20.2188 15.5661 20.1872 15.5502 20.208C15.5566 20.1964 15.5631 20.1849 15.5696 20.1734C15.558 20.1374 15.5457 20.196 15.5455 20.1316C15.5432 20.2356 15.5193 20.1661 15.5121 20.1688C15.5093 20.1699 15.5095 20.1876 15.5059 20.1884C15.4921 20.1915 15.4609 20.1774 15.4534 20.1864C15.421 20.225 15.5039 20.2894 15.5105 20.2933C15.4974 20.2921 15.4234 20.3154 15.4574 20.3654C15.4627 20.3732 15.472 20.3266 15.4749 20.3248C15.4949 20.3128 15.4792 20.3545 15.4808 20.3585C15.4834 20.3649 15.4966 20.3246 15.5001 20.3294C15.5012 20.3309 15.4938 20.3687 15.5128 20.3695C15.5034 20.4061 15.4499 20.3763 15.4429 20.3848C15.4404 20.3879 15.4561 20.4662 15.4102 20.3902C15.4108 20.3974 15.4113 20.4047 15.4118 20.412C15.3863 20.4149 15.3608 20.4179 15.3353 20.4209C15.338 20.4042 15.3524 20.3706 15.3343 20.3777C15.3239 20.3818 15.3316 20.4191 15.3307 20.4202C15.3213 20.4304 15.1563 20.418 15.1243 20.4222C15.1135 20.4236 15.0831 20.4535 15.0808 20.4541C15.067 20.4571 15.018 20.4376 15.0083 20.4418C15.0022 20.4445 15.008 20.4757 15.0025 20.4742C14.9975 20.4728 15.0027 20.4427 15.0012 20.4414C14.9887 20.4305 14.8941 20.47 14.8716 20.4416C14.8854 20.4501 14.9539 20.39 14.9525 20.3687C14.9522 20.3658 14.9356 20.3429 14.9321 20.3541C14.9265 20.328 14.907 20.4074 14.8964 20.3918C14.8952 20.39 14.8999 20.3455 14.881 20.3374C14.8744 20.3347 14.8574 20.3694 14.8402 20.3305C14.8153 20.3492 14.6846 20.2914 14.6756 20.3393C14.6753 20.3418 14.6937 20.3583 14.6813 20.3779C14.6648 20.404 14.6796 20.3161 14.6603 20.3085C14.6574 20.3073 14.6038 20.3162 14.6021 20.3217C14.5858 20.371 14.6327 20.391 14.632 20.3968C14.6304 20.4112 14.5915 20.4199 14.5899 20.4165C14.5884 20.413 14.6201 20.3476 14.582 20.3724C14.5863 20.3802 14.5907 20.388 14.5951 20.3958C14.5771 20.4111 14.5754 20.3658 14.5711 20.3631C14.5576 20.3543 14.5429 20.423 14.5213 20.3382C14.5156 20.3156 14.5251 20.2906 14.5243 20.2873C14.5175 20.2569 14.5087 20.338 14.4983 20.2775C14.4976 20.273 14.5216 20.2368 14.4796 20.2367C14.4825 20.2425 14.4854 20.2483 14.4883 20.2541C14.4823 20.2671 14.4397 20.2747 14.434 20.2717C14.4173 20.2627 14.4319 20.2211 14.415 20.2261C14.4258 20.2831 14.3747 20.2906 14.3776 20.2415C14.3705 20.3032 14.327 20.2556 14.3066 20.2541C14.2937 20.2532 14.2674 20.2801 14.2633 20.277C14.2583 20.2731 14.2598 20.2311 14.2508 20.2217C14.2482 20.219 14.2214 20.2499 14.1979 20.2063C14.1933 20.1979 14.1837 20.1266 14.1922 20.1087C14.2067 20.0782 14.2342 20.1357 14.2338 20.0935C14.2334 20.0484 14.1964 20.0752 14.1865 20.0693C14.1405 20.0421 14.167 19.9942 14.1659 19.9796C14.1628 19.9443 14.1377 19.9454 14.1366 19.9423C14.1323 19.9282 14.1501 19.9003 14.1504 19.8787C14.1507 19.8507 14.1265 19.8001 14.132 19.7907C14.1399 19.7772 14.1621 19.8194 14.1635 19.8174C14.1819 19.7902 14.1567 19.7254 14.1498 19.6936C14.1477 19.6838 14.156 19.6677 14.1543 19.6649C14.1277 19.6213 14.1487 19.7559 14.131 19.7469C14.1152 19.7389 14.1355 19.6963 14.1349 19.694C14.1341 19.6914 14.1153 19.6891 14.1123 19.674C14.1108 19.6665 14.1599 19.5837 14.1579 19.5466C14.1422 19.5547 14.1266 19.5629 14.1109 19.5711C14.1097 19.5227 14.1322 19.5583 14.1345 19.5533C14.1392 19.5433 14.1261 19.5188 14.1267 19.5035C14.127 19.4938 14.1423 19.4591 14.1285 19.4448C14.1237 19.4398 14.1137 19.4737 14.0964 19.4391C14.1568 19.3948 14.1149 19.3676 14.1131 19.3504C14.1114 19.3333 14.1402 19.293 14.1052 19.3001C14.1037 19.2059 14.106 19.2703 14.1159 19.2538C14.1281 19.2334 14.0999 19.2024 14.1445 19.2259C14.1419 19.1818 14.1061 19.185 14.1042 19.1814C14.1026 19.1782 14.1106 19.1566 14.1077 19.1492C14.0742 19.064 14.0972 19.1029 14.0875 19.0485C14.0866 19.0436 14.0549 19.0235 14.0791 19.0155C14.1231 19.0011 14.1414 19.0636 14.1488 18.93C14.1163 18.872 14.0769 18.9582 14.067 18.9597C14.0518 18.9618 14.0675 18.9345 14.0657 18.9269C14.065 18.9244 14.052 18.9267 14.0518 18.9245C14.0425 18.8226 14.1099 18.9228 14.1311 18.9051C14.1254 18.8899 14.1197 18.8746 14.114 18.8593C14.1217 18.8587 14.1294 18.8581 14.1372 18.8575C14.1004 18.8268 14.1359 18.8459 14.145 18.7634C14.1471 18.7449 14.1229 18.7766 14.1505 18.7251C14.1302 18.7132 14.1367 18.6964 14.1183 18.7196C14.1187 18.6866 14.1601 18.6493 14.1764 18.6323C14.1188 18.5951 14.1517 18.7164 14.1018 18.6522C14.0926 18.6932 14.1164 18.6852 14.1144 18.692C14.1075 18.7163 14.0911 18.6777 14.0715 18.7628C14.0682 18.7768 14.0818 18.8199 14.0617 18.8178C14.0595 18.8175 14.0467 18.7807 14.0469 18.778C14.0486 18.7492 14.0613 18.76 14.0618 18.748C14.0623 18.7366 14.0481 18.7435 14.0481 18.7403C14.0477 18.7042 14.0599 18.7265 14.0581 18.7152C14.0543 18.6907 14.0035 18.613 14.0698 18.6358C14.0147 18.6766 14.0627 18.6756 14.0842 18.6599C14.0896 18.656 14.091 18.6345 14.0988 18.627C14.1088 18.6173 14.1206 18.6276 14.1258 18.6237C14.1313 18.6193 14.0996 18.5684 14.1455 18.5836C14.1221 18.5329 14.0809 18.5869 14.058 18.5513C14.0118 18.4794 14.0903 18.464 14.0984 18.457C14.1006 18.4552 14.0933 18.426 14.0948 18.4243C14.0971 18.4215 14.1417 18.435 14.1461 18.4109C14.1504 18.3868 14.1297 18.412 14.1284 18.3869C14.1274 18.37 14.1812 18.34 14.1521 18.3285C14.132 18.3206 14.0951 18.3885 14.0889 18.3155C14.1183 18.3095 14.1478 18.3034 14.1773 18.2974C14.1612 18.2696 14.145 18.2418 14.1289 18.2141C14.162 18.2052 14.1906 18.2366 14.222 18.1968C14.1465 18.1078 14.2465 18.1258 14.2476 18.115C14.248 18.1085 14.2183 18.0363 14.2135 18.0231C14.2398 17.9953 14.3199 17.9817 14.273 17.8925C14.2815 17.9126 14.3021 17.8629 14.3018 17.8592C14.2992 17.8198 14.2543 17.8453 14.2617 17.8097C14.2701 17.7684 14.282 17.8245 14.2951 17.82C14.3621 17.7967 14.3437 17.591 14.4108 17.6235C14.4095 17.6162 14.4082 17.6089 14.4068 17.6015C14.4798 17.6132 14.5528 17.6249 14.6258 17.6365C14.6544 17.5737 14.7304 17.5354 14.7677 17.5424C14.7752 17.5437 14.8121 17.5767 14.8149 17.5825C14.8201 17.5936 14.7917 17.5978 14.8045 17.6186C14.8072 17.6228 14.8697 17.6367 14.8652 17.6015C14.8582 17.5975 14.8363 17.6151 14.8327 17.6069C14.8076 17.5477 15.0002 17.595 15.0097 17.5711C15.0055 17.5597 15.0012 17.5483 14.9969 17.5369C15.0091 17.5425 15.0212 17.5481 15.0334 17.5537ZM14.4749 20.3764C14.4676 20.4117 14.4493 20.3852 14.4385 20.3951C14.4235 20.409 14.3982 20.5448 14.4091 20.4087C14.431 20.3979 14.4529 20.3872 14.4749 20.3764ZM14.7952 20.429C14.7805 20.41 14.7919 20.334 14.8039 20.3656C14.8053 20.3692 14.8151 20.4545 14.7952 20.429ZM14.6411 20.3929C14.6417 20.3919 14.6544 20.3939 14.6549 20.3951C14.6663 20.4256 14.628 20.4194 14.6411 20.3929ZM15.3854 20.3539C15.3692 20.3572 15.381 20.4263 15.391 20.3979C15.3917 20.396 15.3865 20.3537 15.3854 20.3539ZM15.3739 20.3521C15.3613 20.2902 15.336 20.4156 15.3562 20.403C15.3581 20.4017 15.3745 20.3551 15.3739 20.3521ZM14.7428 20.3988C14.7445 20.375 14.7596 20.3865 14.7661 20.3922C14.7659 20.4138 14.7491 20.3961 14.7428 20.3988ZM15.1272 20.3922C15.1278 20.3735 15.0751 20.3746 15.0715 20.3991C15.0799 20.3887 15.1266 20.4089 15.1272 20.3922ZM15.2623 20.366C15.261 20.3628 15.2428 20.3677 15.2433 20.3841C15.2522 20.4057 15.2683 20.3806 15.2623 20.366ZM15.5309 20.3671C15.5319 20.363 15.5183 20.2583 15.5506 20.3272C15.5553 20.3373 15.5384 20.3646 15.5401 20.3684C15.5436 20.3757 15.5464 20.3791 15.5486 20.3797C15.5336 20.3884 15.518 20.3925 15.5164 20.3861C15.5093 20.3561 15.5305 20.3688 15.5309 20.3671ZM15.6719 20.2891C15.675 20.272 15.6948 20.2811 15.6993 20.2882C15.7001 20.2895 15.6967 20.3344 15.7057 20.331C15.7128 20.3282 15.7021 20.2823 15.7161 20.2896C15.7301 20.297 15.7113 20.3298 15.7126 20.3321C15.7142 20.3352 15.736 20.3145 15.7353 20.3413C15.7348 20.3611 15.7115 20.3477 15.7057 20.3519C15.6983 20.3573 15.7073 20.3903 15.6949 20.3832C15.6871 20.3788 15.6915 20.3208 15.6898 20.3178C15.6884 20.3155 15.6613 20.3489 15.672 20.2893C15.672 20.2892 15.672 20.2891 15.6719 20.2891ZM15.5527 20.3772C15.5516 20.3791 15.5502 20.3802 15.5486 20.3797C15.55 20.3789 15.5514 20.378 15.5527 20.3772ZM14.5173 20.351C14.525 20.3689 14.5023 20.3918 14.4937 20.3684C14.4935 20.3495 14.5161 20.3482 14.5173 20.351ZM15.5667 20.3299C15.589 20.3444 15.5726 20.3644 15.5527 20.3772C15.559 20.3662 15.5592 20.3251 15.5667 20.3299ZM14.9321 20.3541C14.9331 20.3584 14.9337 20.3652 14.9337 20.3762C14.9313 20.3641 14.931 20.3576 14.9321 20.3541ZM14.9843 20.3739C15.0021 20.3401 14.9658 20.3415 14.9661 20.3656C14.9662 20.3747 14.9836 20.3752 14.9843 20.3739ZM15.4062 20.3572C15.4046 20.3539 15.43 20.2519 15.3931 20.3285C15.4128 20.3405 15.392 20.3516 15.3923 20.3605C15.3931 20.3862 15.4262 20.3615 15.4335 20.3726C15.4392 20.3267 15.4116 20.3681 15.4063 20.3572C15.4062 20.3572 15.4062 20.3572 15.4062 20.3572ZM15.9261 20.3138C15.9216 20.3407 15.9074 20.332 15.8978 20.3305C15.9023 20.3036 15.9165 20.3122 15.9261 20.3138ZM18.4357 20.3176C18.37 20.3425 18.3614 20.233 18.4216 20.2763C18.4227 20.2772 18.4397 20.3065 18.4357 20.3176ZM17.8717 20.2893C17.8655 20.2415 17.886 20.2338 17.8995 20.2536C17.9025 20.258 17.9138 20.3064 17.9009 20.3158C17.9013 20.2579 17.8814 20.2358 17.8717 20.2893ZM15.5793 20.2993C15.5858 20.2675 15.6058 20.2902 15.6164 20.2949C15.6099 20.3212 15.5886 20.3093 15.5793 20.2993ZM18.2197 20.2605C18.2128 20.2569 18.2081 20.2984 18.2093 20.3019C18.2147 20.3178 18.2276 20.2842 18.2197 20.2605ZM15.5146 20.2944C15.5137 20.2754 15.5402 20.257 15.5421 20.3041C15.5364 20.3007 15.5153 20.3063 15.5146 20.2944ZM15.908 20.2995C15.9039 20.2898 15.9252 20.2725 15.9317 20.2821C15.9311 20.3024 15.9107 20.3058 15.908 20.2995ZM18.1082 20.2746C18.102 20.271 18.0865 20.2699 18.0848 20.2867C18.0827 20.3077 18.1054 20.3005 18.1082 20.2746ZM19.2623 20.2384C19.2631 20.2459 19.2391 20.3003 19.2284 20.2865C19.2081 20.2602 19.2614 20.233 19.2623 20.2384ZM18.2853 20.2391C18.3049 20.2786 18.2831 20.2403 18.284 20.2819C18.2972 20.2834 18.3299 20.2855 18.3074 20.2446C18.303 20.2367 18.2914 20.2418 18.2853 20.2391ZM18.2673 20.2252C18.2652 20.2387 18.2511 20.2811 18.2632 20.2781C18.2689 20.2766 18.278 20.2294 18.2673 20.2252ZM19.1136 20.2569C19.0961 20.22 19.1764 20.2398 19.1787 20.2462C19.18 20.2496 19.1808 20.2529 19.1812 20.2556C19.1842 20.2439 19.1994 20.2418 19.2011 20.2713C19.1966 20.2689 19.1841 20.2715 19.1827 20.2682C19.1821 20.2668 19.1816 20.2655 19.1813 20.2642C19.1759 20.2898 19.117 20.2638 19.1136 20.2569ZM18.9804 20.219C19.0005 20.1646 19.004 20.257 19.0023 20.26C18.9805 20.2978 18.9947 20.2296 18.9941 20.2265C18.9925 20.2211 18.977 20.2528 18.9805 20.219C18.9805 20.219 18.9805 20.219 18.9804 20.219ZM19.0863 20.2417C19.0871 20.2405 19.104 20.2433 19.1047 20.2448C19.1185 20.2758 19.0708 20.2679 19.0863 20.2417ZM15.7782 20.2244C15.7903 20.2336 15.7785 20.2676 15.7704 20.2554C15.7698 20.2542 15.7676 20.2163 15.7782 20.2244ZM18.2576 20.2343C18.2548 20.2279 18.1833 20.2037 18.1876 20.255C18.1937 20.249 18.275 20.2754 18.2576 20.2343ZM17.7232 20.2219C17.7358 20.2223 17.722 20.2707 17.7153 20.2526C17.7128 20.2459 17.72 20.2218 17.7232 20.2219ZM15.4788 20.2504C15.4658 20.277 15.4685 20.1878 15.4798 20.2184C15.4803 20.2196 15.4794 20.2494 15.4788 20.2504ZM17.8239 20.2497C17.7804 20.2791 17.7907 20.1256 17.8473 20.1774C17.8455 20.1842 17.8437 20.1911 17.842 20.1979C17.9072 20.2209 17.8464 20.2087 17.8305 20.2173C17.8244 20.2206 17.8295 20.2462 17.824 20.2499C17.824 20.2498 17.8239 20.2498 17.8239 20.2497ZM17.6569 20.219C17.615 20.11 17.6949 20.181 17.7179 20.1668C17.6956 20.2117 17.6667 20.2049 17.7061 20.251C17.6485 20.2599 17.6725 20.2165 17.6702 20.2129C17.6674 20.2089 17.6586 20.2236 17.6569 20.219ZM17.7673 20.2182C17.7698 20.215 17.788 20.2372 17.7946 20.2336C17.7854 20.2708 17.7513 20.2398 17.7673 20.2182ZM18.8408 20.2442C18.8423 20.2151 18.8461 20.1936 18.8605 20.2045C18.856 20.2191 18.8468 20.2317 18.8408 20.2442ZM14.461 20.223C14.4511 20.2209 14.4313 20.2099 14.4374 20.2406C14.4381 20.2432 14.461 20.2402 14.461 20.223ZM18.0499 20.2107C18.0478 20.2071 17.9933 20.2047 18.0121 20.2369C18.0178 20.2466 18.0674 20.2425 18.0499 20.2107ZM18.3323 20.2144C18.3277 20.2141 18.3092 20.2196 18.3088 20.2265C18.3076 20.2503 18.3303 20.2372 18.3323 20.2144ZM14.411 20.1931C14.4097 20.1901 14.3794 20.1955 14.3827 20.2096C14.389 20.2364 14.4155 20.2036 14.411 20.1931ZM15.8221 20.1561C15.8246 20.1551 15.828 20.1867 15.8289 20.1871C15.8309 20.1875 15.8773 20.1754 15.8595 20.216C15.8566 20.2228 15.7899 20.2072 15.7812 20.2032C15.7779 20.1597 15.8064 20.2011 15.8133 20.1966C15.8145 20.1958 15.8153 20.1594 15.8221 20.1563C15.8221 20.1563 15.8221 20.1562 15.8221 20.1561ZM18.9158 20.2135C18.9179 20.1858 18.9724 20.1675 18.9717 20.201C18.9531 20.2052 18.9345 20.2093 18.9158 20.2135ZM18.8882 20.2089C18.8765 20.1893 18.9038 20.1829 18.9118 20.1915C18.9119 20.2101 18.8899 20.2117 18.8882 20.2089ZM18.229 20.1111C18.2235 20.1179 18.2403 20.1582 18.2366 20.166C18.2342 20.1709 18.2219 20.1558 18.218 20.1684C18.2169 20.1724 18.2294 20.2103 18.233 20.2087C18.2381 20.2065 18.2332 20.1767 18.2388 20.1765C18.2573 20.1758 18.2738 20.1971 18.2912 20.1966C18.2928 20.1965 18.2806 20.1754 18.294 20.1757C18.2961 20.1757 18.3085 20.2071 18.3246 20.2025C18.36 20.1053 18.386 20.2007 18.431 20.1657C18.4293 20.1565 18.3957 20.132 18.3937 20.1311C18.3561 20.1151 18.2888 20.1133 18.2494 20.1131C18.2393 20.113 18.2442 20.1336 18.2399 20.1344C18.2364 20.1349 18.2405 20.0968 18.229 20.1111ZM14.4663 20.2019C14.4615 20.1639 14.445 20.188 14.4344 20.186C14.4381 20.2203 14.4559 20.1935 14.4663 20.2019ZM18.6436 20.1794C18.6383 20.1809 18.6218 20.1694 18.6204 20.1809C18.6187 20.1958 18.6424 20.2053 18.6436 20.1794ZM16.0834 20.1669C16.0839 20.1659 16.0967 20.1679 16.0972 20.1691C16.1086 20.1997 16.0703 20.1934 16.0834 20.1669ZM16.3888 20.1743C16.3985 20.1696 16.4083 20.1577 16.4115 20.1886C16.4053 20.1838 16.3877 20.1958 16.3888 20.1743ZM16.8102 20.1734C16.8082 20.1329 16.8373 20.1591 16.8428 20.1627C16.8408 20.1807 16.8116 20.2025 16.8102 20.1734ZM18.8387 20.1173C18.8565 20.1197 18.8528 20.0585 18.8641 20.0862C18.8659 20.0909 18.8719 20.2184 18.8523 20.1706C18.8488 20.162 18.8626 20.1317 18.8387 20.1173ZM17.8565 20.1787C17.861 20.1519 17.8752 20.1599 17.8847 20.162C17.8826 20.1819 17.8633 20.1768 17.8565 20.1787ZM14.3563 20.1626C14.3479 20.1248 14.3093 20.1528 14.3189 20.1777C14.3202 20.181 14.3509 20.1611 14.3563 20.1626ZM15.6246 20.1774C15.6405 20.1477 15.6076 20.1384 15.5972 20.1675C15.6019 20.1656 15.6235 20.1793 15.6246 20.1774ZM16.709 20.1514C16.7097 20.1502 16.7266 20.153 16.7273 20.1545C16.7411 20.1855 16.6935 20.1776 16.709 20.1514ZM16.2884 20.1252C16.2944 20.1007 16.3343 20.1205 16.3433 20.145C16.3347 20.1807 16.2808 20.1558 16.2884 20.1252ZM18.7654 20.1347C18.7781 20.1335 18.7902 20.141 18.8019 20.1516C18.7994 20.1722 18.7668 20.1501 18.7654 20.1347ZM16.7708 20.1488C16.7717 20.149 16.7726 20.1513 16.7734 20.1516C16.7725 20.1507 16.7717 20.1497 16.7708 20.1488ZM18.4809 20.1203C18.4703 20.1121 18.4725 20.1499 18.4732 20.151C18.4812 20.1632 18.493 20.1294 18.4809 20.1203ZM14.4541 20.1459C14.4504 20.1118 14.4325 20.1382 14.4222 20.1301C14.4252 20.157 14.4458 20.1495 14.4541 20.1459ZM17.612 20.1492C17.5986 20.1123 17.6531 20.0694 17.6645 20.0932C17.6654 20.116 17.614 20.1542 17.612 20.1492ZM15.5753 20.1263C15.5742 20.0996 15.5513 20.1318 15.5562 20.1444C15.5593 20.1524 15.5759 20.1429 15.5753 20.1263ZM17.6919 20.1087C17.697 20.1006 17.709 20.1269 17.7048 20.143C17.6994 20.1635 17.6906 20.111 17.6919 20.1087ZM18.1509 20.0873C18.1486 20.0832 18.1186 20.1106 18.131 20.1378C18.1396 20.1567 18.141 20.1182 18.143 20.1181C18.1453 20.1182 18.1936 20.1654 18.1509 20.0873ZM17.3071 20.1259C17.3184 20.1157 17.3321 20.1276 17.344 20.1268C17.3392 20.1434 17.3119 20.1479 17.3071 20.1259ZM15.6634 20.1192C15.6607 20.1084 15.5856 20.1019 15.6282 20.1351C15.6307 20.137 15.6718 20.1518 15.6634 20.1192ZM18.8387 20.1173C18.8365 20.117 18.8339 20.1157 18.8309 20.1131C18.8339 20.1141 18.8365 20.116 18.8387 20.1173ZM18.6364 20.1133C18.6405 20.0939 18.6198 20.0887 18.6137 20.099C18.6119 20.1227 18.6358 20.116 18.6364 20.1133ZM17.3449 20.0997C17.3518 20.0886 17.3642 20.1005 17.3726 20.0992C17.3712 20.1173 17.3479 20.1181 17.3449 20.0997ZM16.8643 20.0794C16.8779 20.0902 16.8947 20.0852 16.8949 20.0631C16.8952 20.0666 16.8959 20.0702 16.8969 20.0739C16.8981 20.0776 16.9126 20.0673 16.9189 20.0748C16.9568 20.1196 16.7727 20.1012 16.8794 20.0388C16.8744 20.0523 16.8694 20.0659 16.8643 20.0794ZM16.2344 20.0732C16.2267 20.0463 16.2051 20.08 16.2107 20.0906C16.2146 20.0978 16.2421 20.1003 16.2344 20.0732ZM16.5312 20.0573C16.5289 20.0525 16.5078 20.0713 16.5072 20.0855C16.5194 20.1004 16.5417 20.0796 16.5312 20.0573ZM16.1751 20.0417C16.1703 20.0376 16.1641 20.081 16.1647 20.0829C16.1696 20.0987 16.1832 20.0658 16.1751 20.0417ZM18.8018 20.0005C18.7946 19.9881 18.7717 20.0195 18.7667 20.0481C18.7657 20.0426 18.7632 20.0353 18.7586 20.0267C18.7586 20.0267 18.7587 20.0267 18.7587 20.0267C18.7525 20.0151 18.5669 20.0025 18.6914 20.0576C18.6953 20.0594 18.6899 20.0337 18.7058 20.0382C18.7068 20.0385 18.7074 20.0595 18.7106 20.0606C18.718 20.0628 18.7577 20.076 18.7657 20.0591C18.7658 20.063 18.7663 20.0667 18.7674 20.0701C18.7772 20.1003 18.8074 20.0101 18.8018 20.0005ZM16.573 20.0534C16.5688 20.0456 16.5553 20.053 16.5539 20.0715C16.5606 20.0806 16.5829 20.0716 16.573 20.0534ZM15.6611 20.0432C15.6524 20.0279 15.6305 20.0564 15.6372 20.0715C15.6412 20.0809 15.6711 20.0607 15.6611 20.0432ZM16.4384 20.0633C16.488 20.0852 16.4503 20.0615 16.4579 20.0344C16.4514 20.044 16.4449 20.0537 16.4384 20.0633ZM19.0313 20.0706C19.0234 20.0644 19.0327 20.0108 19.0414 20.0399C19.0441 20.0491 19.0357 20.074 19.0313 20.0706ZM19.3883 20.054C19.3816 20.0064 19.4146 20.0344 19.4017 20.067C19.4011 20.0681 19.3888 20.0558 19.3883 20.054ZM19.1389 20.0346C19.1335 20.0669 19.13 20.0708 19.1149 20.0628C19.1373 20.0536 19.1165 20.025 19.1389 20.0346ZM16.8948 20.0596C16.8949 20.0609 16.8949 20.0619 16.8949 20.0631C16.8948 20.0619 16.8948 20.0608 16.8948 20.0596ZM16.1285 20.0501C16.1223 20.0227 16.1049 20.0247 16.1101 20.0523C16.1106 20.0549 16.1259 20.0704 16.1285 20.0501ZM18.7667 20.0481C18.7675 20.053 18.7671 20.0562 18.7657 20.0591C18.7656 20.0554 18.766 20.052 18.7667 20.0481ZM16.2219 20.0278C16.2213 20.0482 16.2477 20.0562 16.2488 20.0538C16.264 20.0183 16.2328 20.0265 16.2219 20.0278ZM15.486 20.0144C15.4847 20.0165 15.4935 20.0693 15.4989 20.0487C15.503 20.0326 15.4911 20.0063 15.486 20.0144ZM19.1902 20.0214C19.1986 20.0214 19.2104 20.0214 19.2126 20.0465C19.2069 20.0426 19.19 20.0398 19.1902 20.0214ZM19.3754 20.0195C19.3655 20.049 19.3429 20.0489 19.3284 20.0441C19.3282 20.0053 19.3661 20.0287 19.3754 20.0195ZM18.8246 20.015C18.8239 20.0134 18.8029 20.0018 18.8057 20.0278C18.8099 20.0659 18.8305 20.0291 18.8246 20.015ZM15.5269 20.0424C15.5363 20.0245 15.5146 19.9696 15.5047 20.012C15.4996 20.0338 15.5253 20.0454 15.5269 20.0424ZM16.0742 20.0142C16.0618 20.0293 16.0925 20.056 16.0968 20.0289C16.0911 20.0267 16.0786 20.0089 16.0742 20.0142ZM16.4963 19.9868C16.4572 19.9084 16.4785 20.0513 16.4854 20.0388C16.4864 20.037 16.4973 19.9886 16.4963 19.9868ZM14.2593 20.006C14.2537 20.0169 14.2744 20.0563 14.277 20.0303C14.2787 20.0141 14.2628 19.9991 14.2593 20.006ZM17.0851 20.0377C17.0834 20.0379 17.0818 20.0382 17.0802 20.0384C17.0814 20.0371 17.083 20.0367 17.0851 20.0377ZM15.9615 19.9093C15.9891 20.0199 15.9862 19.9347 15.9886 19.9351C15.9937 19.9363 16.0057 19.9662 16.0155 19.9613C16.0043 19.9738 15.9932 19.9862 15.982 19.9987C15.9908 20.0067 16.0674 20.0474 16.069 20.0294C16.0713 20.0039 16.0472 20.0119 16.0465 20.0097C16.0455 20.0064 16.0417 19.9354 16.0395 19.9327C16.0358 19.9284 15.9718 19.927 15.9615 19.9093ZM16.4146 19.999C16.4208 20.0075 16.4226 20.0356 16.4255 20.0289C16.4265 20.0266 16.4267 19.9997 16.4301 19.9928C16.4249 19.9949 16.4197 19.997 16.4146 19.999ZM15.9123 20.0087C15.9045 19.9759 15.9394 19.9884 15.9405 19.9921C15.9465 20.0143 15.9186 20.0355 15.9123 20.0087ZM16.2087 20.004C16.2074 20.0021 16.1806 19.9918 16.1808 20.01C16.1879 20.0239 16.2237 20.0279 16.2087 20.004ZM16.4343 19.991C16.4437 19.9941 16.4615 20.0211 16.4595 19.9807C16.4595 19.9807 16.4595 19.9807 16.4595 19.9807C16.4511 19.9841 16.4427 19.9876 16.4343 19.991ZM15.559 19.9571C15.5416 19.8928 15.5498 19.9741 15.5653 19.9948C15.57 19.9659 15.5619 19.9676 15.559 19.9571ZM15.5031 19.9091C15.4983 19.8975 15.4482 19.9102 15.4559 19.9443C15.4586 19.9564 15.4874 19.9258 15.4887 19.9282C15.4907 19.9317 15.4815 19.9693 15.4969 19.9619C15.496 19.9491 15.5048 19.913 15.5031 19.9091ZM15.5446 19.9159C15.5272 19.867 15.5233 19.9572 15.5364 19.9575C15.5415 19.9576 15.5471 19.923 15.5446 19.9159ZM15.6155 19.9236C15.6092 19.915 15.5926 19.9025 15.5811 19.9326C15.5965 19.9351 15.6118 19.9377 15.6272 19.9403C15.6289 19.9232 15.6209 19.9311 15.6154 19.9236C15.6154 19.9236 15.6155 19.9236 15.6155 19.9236ZM19.4797 19.7883C19.4659 19.7627 19.4977 19.7529 19.4991 19.7592C19.503 19.78 19.4859 19.7997 19.4797 19.7883ZM14.1516 19.186C14.1477 19.1758 14.1452 19.1422 14.1368 19.1598C14.1453 19.1846 14.1538 19.2094 14.1622 19.2342C14.1688 19.1774 14.1557 19.1973 14.1516 19.186ZM14.1192 18.9785C14.1204 18.9772 14.1138 18.8899 14.1293 18.9481C14.1398 18.9875 14.0829 19.0259 14.0726 18.9872C14.084 18.9692 14.1088 18.9898 14.1192 18.9785ZM14.0195 18.6006C14.0189 18.5936 14.0405 18.5834 14.043 18.5883C14.0561 18.6142 14.0231 18.6379 14.0195 18.6006ZM14.0885 18.6173C14.0783 18.6003 14.1008 18.5894 14.1075 18.5991C14.1081 18.6154 14.09 18.6197 14.0885 18.6173ZM19.3401 18.5237C19.3291 18.4644 19.3193 18.5921 19.3362 18.5664C19.337 18.5651 19.3406 18.5266 19.3401 18.5237ZM14.0407 18.5125C14.0508 18.5295 14.0283 18.5404 14.0216 18.5307C14.021 18.5144 14.0391 18.51 14.0407 18.5125ZM19.3324 18.3823C19.3178 18.3396 19.3229 18.4829 19.3248 18.4887C19.3322 18.5115 19.358 18.4553 19.3632 18.4413C19.3247 18.4628 19.3392 18.4025 19.3324 18.3823ZM19.2652 18.4684C19.2517 18.4837 19.2862 18.5129 19.2928 18.473C19.2861 18.4749 19.269 18.464 19.2652 18.4684ZM19.1832 18.4224C19.1759 18.4173 19.1543 18.405 19.1507 18.4276C19.1586 18.4235 19.1801 18.4456 19.1832 18.4224ZM19.1667 18.3549C19.1554 18.3242 19.1526 18.4135 19.1657 18.3869C19.1662 18.3859 19.1671 18.3566 19.1667 18.3549ZM19.1029 18.3226C19.0954 18.2871 19.0869 18.3736 19.099 18.3759C19.1026 18.3765 19.1037 18.3267 19.1029 18.3226ZM19.3141 18.2282C19.3035 18.2129 19.2897 18.2748 19.3125 18.2816C19.3045 18.2911 19.2965 18.3005 19.2885 18.31C19.3183 18.3447 19.3161 18.2588 19.3247 18.2624C19.3367 18.2674 19.3357 18.3383 19.3333 18.3605C19.3431 18.3171 19.3848 18.3164 19.4089 18.3082C19.3878 18.29 19.3534 18.2584 19.3325 18.2468C19.3265 18.2435 19.3207 18.2629 19.3156 18.2607C19.3075 18.2572 19.3147 18.2292 19.3142 18.2282C19.3142 18.2282 19.3141 18.2282 19.3141 18.2282ZM19.019 18.3214C18.9971 18.2811 19.0109 18.368 19.0233 18.3525C19.0238 18.3513 19.0195 18.3223 19.019 18.3214ZM14.0116 18.2487C14.0409 18.285 14.0196 18.3331 14.0808 18.26C14.0551 18.3117 14.0794 18.2972 14.0744 18.3181C14.0703 18.3346 14.0553 18.3209 14.064 18.3541C14.0525 18.318 14.0025 18.328 14.0002 18.3221C14.0002 18.3221 14.0003 18.3221 14.0003 18.3221C13.9989 18.3186 14.0023 18.2371 14.0116 18.2487ZM19.1831 18.1954C19.1758 18.09 19.1729 18.2572 19.1585 18.1699C19.1394 18.2967 19.2113 18.1699 19.2201 18.277C19.1419 18.2646 19.2717 18.3832 19.2171 18.2228C19.2621 18.281 19.2319 18.203 19.2388 18.1826C19.2462 18.1608 19.2716 18.1844 19.2703 18.1452C19.2703 18.1452 19.2703 18.1452 19.2703 18.1452C19.2547 18.1479 19.2392 18.1507 19.2237 18.1534C19.2389 18.2381 19.2071 18.2127 19.1963 18.1437C19.1919 18.1609 19.1875 18.1782 19.1831 18.1954ZM19.271 18.2748C19.2695 18.2729 19.2357 18.2848 19.2379 18.3018C19.2424 18.3126 19.2904 18.2996 19.271 18.2748ZM19.4198 18.2564C19.4076 18.2561 19.3889 18.2396 19.3823 18.2715C19.3944 18.2718 19.4132 18.2883 19.4198 18.2564ZM18.7949 18.2503C18.7794 18.2765 18.827 18.2843 18.8132 18.2532C18.8126 18.2518 18.7956 18.2491 18.7949 18.2503ZM19.1479 18.2113C19.1322 18.1791 19.1396 18.2816 19.1512 18.2549C19.1519 18.2533 19.1486 18.2128 19.1479 18.2113ZM14.0353 18.2362C14.0364 18.2111 14.0788 18.2287 14.0863 18.2285C14.0821 18.2519 14.0341 18.265 14.0353 18.2362ZM19.4411 18.1624C19.417 18.0721 19.3842 18.1764 19.3806 18.1741C19.3771 18.1718 19.3827 18.1323 19.3818 18.1313C19.38 18.1291 19.3419 18.1324 19.3401 18.1351C19.3388 18.1373 19.3457 18.1927 19.3378 18.2102C19.3531 18.1787 19.4227 18.1984 19.4263 18.1923C19.4291 18.1874 19.408 18.1291 19.4411 18.1624C19.4411 18.1624 19.4411 18.1624 19.4411 18.1624ZM19.3716 18.162C19.3811 18.1853 19.3545 18.1882 19.348 18.1796C19.3337 18.1604 19.3704 18.1593 19.3716 18.162ZM19.3075 18.1406C19.3045 18.1354 19.277 18.1307 19.2747 18.1566C19.2877 18.1901 19.3144 18.1528 19.3075 18.1406ZM19.0018 18.1441C18.9947 18.1474 18.975 18.1275 18.9739 18.1501C18.9811 18.1468 19.0007 18.1667 19.0018 18.1441ZM14.1802 18.0388C14.1683 18.0199 14.1958 18.0122 14.2038 18.0212C14.2042 18.0363 14.1812 18.0404 14.1802 18.0388ZM19.1452 17.995C19.141 17.9882 19.0548 18.0053 19.0427 18.0159C19.0545 18.033 19.14 18.0343 19.1438 18.026C19.145 18.0235 19.1458 17.9961 19.1452 17.995ZM19.3316 17.9846C19.3395 17.9513 19.3447 17.9913 19.3457 17.9918C19.3555 17.9969 19.3757 17.9893 19.3713 18.0214C19.354 18.0085 19.3159 18.0508 19.3316 17.9846ZM18.9957 17.9934C18.9664 18.0058 19.0226 18.0408 19.0152 18.006C19.0148 18.0039 18.9987 17.9921 18.9957 17.9934ZM19.1548 17.9853C19.1613 17.9584 19.2475 17.9816 19.2614 17.9817C19.249 18.0313 19.239 17.9936 19.2223 17.9961C19.2178 17.9969 19.219 18.0175 19.2185 18.0176C19.2108 18.0185 19.2166 17.9947 19.2118 17.9943C19.2088 17.9942 19.1458 18.0233 19.1548 17.9853ZM19.3361 17.9615C19.341 17.9424 19.3948 17.9343 19.397 17.9394C19.4132 17.9771 19.3403 17.9682 19.3361 17.9615ZM19.1469 17.9412C19.1562 17.8835 19.199 17.9222 19.1697 17.9509C19.1669 17.9535 19.1551 17.9285 19.1469 17.9412ZM18.9988 17.9385C18.9974 17.9368 18.9668 17.9252 18.9663 17.9436C18.9707 17.9507 19.0152 17.9571 18.9988 17.9385ZM19.0146 17.8764C19.0139 17.8768 19.021 17.9122 19.0067 17.9077C19.0055 17.9073 19.0033 17.8675 18.9853 17.8821C18.9817 17.8851 18.976 17.9114 18.9764 17.913C18.9952 17.9754 19.0516 17.8559 19.0146 17.8764ZM19.3371 17.9293C19.3342 17.9125 19.3412 17.8627 19.3475 17.8879C19.3502 17.8988 19.3452 17.9287 19.3371 17.9293ZM18.902 17.9224C18.9198 17.8921 18.8641 17.8864 18.8612 17.8942C18.863 17.913 18.9003 17.9253 18.902 17.9224ZM14.2079 17.8055C14.2079 17.8055 14.2079 17.8055 14.2079 17.8055C14.2228 17.8124 14.2135 17.8375 14.2142 17.8383C14.246 17.8752 14.2376 17.8183 14.2426 17.8116C14.2532 17.797 14.2515 17.8663 14.2695 17.8376C14.2398 17.88 14.2668 17.8622 14.2677 17.8868C14.271 17.9874 14.2281 17.8398 14.2133 17.8608C14.2112 17.8637 14.2265 17.8958 14.2212 17.905C14.204 17.9345 14.1507 17.7793 14.2079 17.8055ZM19.3524 17.8835C19.3593 17.854 19.4118 17.8826 19.3979 17.907C19.3957 17.9109 19.3422 17.9266 19.3524 17.8835ZM16.8995 17.84C16.9121 17.8144 16.8829 17.7844 16.8775 17.8042C16.8748 17.8142 16.894 17.8512 16.8995 17.84ZM16.6945 17.7306C16.6795 17.7358 16.6637 17.8424 16.6823 17.8259C16.6843 17.824 16.6962 17.7454 16.6945 17.7306ZM17.6791 17.7854C17.6635 17.7473 17.6644 17.8181 17.6759 17.8171C17.68 17.8167 17.6796 17.7866 17.6791 17.7854ZM17.0815 17.7945C17.0799 17.7921 17.0618 17.7966 17.0625 17.8129C17.0692 17.8226 17.0917 17.8115 17.0815 17.7945ZM17.6841 17.7753C17.6748 17.7881 17.6908 17.8392 17.7022 17.7892C17.6964 17.7933 17.6851 17.774 17.6841 17.7753ZM19.1146 17.7848C19.1068 17.8139 19.0848 17.8051 19.0722 17.8101C19.0708 17.7725 19.1056 17.7917 19.1146 17.7848ZM16.7581 17.7735C16.7439 17.8 16.7743 17.8217 16.7715 17.7867C16.7712 17.7848 16.7587 17.7724 16.7581 17.7735ZM18.1843 17.7715C18.174 17.7939 18.2068 17.8241 18.1977 17.7847C18.1973 17.783 18.1849 17.7702 18.1843 17.7715ZM18.3274 17.7845C18.3196 17.7769 18.2862 17.7792 18.2992 17.8011C18.3012 17.8045 18.3268 17.805 18.3274 17.7845ZM14.2435 17.7845C14.2392 17.7458 14.2637 17.755 14.2672 17.7618C14.2686 17.7646 14.249 17.8348 14.2435 17.7845ZM17.5774 17.7793C17.5693 17.7842 17.5483 17.775 17.5446 17.7953C17.5545 17.7911 17.5801 17.8198 17.5774 17.7793ZM16.8228 17.7733C16.8105 17.7313 16.7894 17.7354 16.7946 17.7903C16.8179 17.7867 16.7917 17.741 16.8228 17.7733ZM17.7363 17.7301C17.7298 17.7269 17.7248 17.7796 17.7255 17.7821C17.7326 17.8057 17.7427 17.7506 17.7363 17.7301ZM17.2488 17.7735C17.2484 17.751 17.2276 17.7612 17.2303 17.7757C17.2312 17.7805 17.2491 17.7917 17.2488 17.7735ZM18.8418 17.772C18.8323 17.7515 18.8614 17.7313 18.8701 17.7554C18.8742 17.79 18.843 17.7744 18.8418 17.772ZM17.9165 17.7433C17.9174 17.7098 17.8849 17.7287 17.8977 17.7565C17.9009 17.7634 17.9161 17.7545 17.9165 17.7433ZM18.2281 17.7032C18.2062 17.743 18.2979 17.7714 18.2738 17.7217C18.2721 17.7181 18.23 17.6998 18.2281 17.7032ZM18.3778 17.7281C18.3741 17.7237 18.3759 17.6113 18.3915 17.6546C18.3936 17.6603 18.384 17.69 18.3857 17.6968C18.3867 17.7006 18.4205 17.7164 18.4221 17.7138C18.4238 17.7108 18.4218 17.6748 18.4235 17.6708C18.4254 17.6662 18.4463 17.6979 18.4572 17.6982C18.4778 17.6988 18.4801 17.6688 18.4817 17.6687C18.4867 17.6685 18.4949 17.6898 18.5049 17.6898C18.5552 17.6896 18.6321 17.6642 18.6719 17.7277C18.6364 17.7022 18.6027 17.7293 18.5674 17.7376C18.5777 17.675 18.5154 17.7858 18.5519 17.7136C18.5351 17.7293 18.3902 17.7418 18.3779 17.7281C18.3778 17.7281 18.3778 17.7281 18.3778 17.7281ZM16.6353 17.6991C16.6445 17.6608 16.5972 17.6694 16.5932 17.7138C16.5994 17.7199 16.6341 17.7035 16.6353 17.6991ZM16.8533 17.6056C16.8577 17.5989 16.8619 17.524 16.8849 17.562C16.8849 17.562 16.885 17.562 16.885 17.562C16.8917 17.5731 16.884 17.5914 16.8853 17.5979C16.8857 17.6005 16.9067 17.6378 16.8893 17.6438C16.8627 17.653 16.8868 17.5881 16.8726 17.5873C16.8709 17.5872 16.844 17.6278 16.8456 17.6367C16.8458 17.6377 16.8538 17.6291 16.8552 17.6329C16.8602 17.6468 16.8578 17.6702 16.8585 17.6713C16.8608 17.6742 16.9032 17.6343 16.9094 17.6691C16.9114 17.6803 16.8418 17.7063 16.839 17.7004C16.8373 17.6967 16.838 17.6317 16.8363 17.6253C16.8354 17.6222 16.8073 17.6465 16.8037 17.6405C16.8027 17.6388 16.8018 17.637 16.8013 17.6354C16.8055 17.6555 16.7801 17.6541 16.7809 17.6314C16.7813 17.6225 16.7988 17.6276 16.7994 17.6292C16.7997 17.6299 16.7999 17.6308 16.8002 17.6314C16.7965 17.6069 16.8557 17.608 16.8429 17.5715C16.86 17.5515 16.8405 17.625 16.8533 17.6056ZM16.9357 17.5655C16.934 17.5723 16.9322 17.5791 16.9304 17.586C16.9604 17.5692 16.995 17.6022 17.0296 17.6019C17.0384 17.6019 17.0283 17.5601 17.0398 17.5715C17.049 17.5807 17.0592 17.6194 17.0542 17.6281C17.0529 17.6302 17.0342 17.605 17.0248 17.6076C16.9971 17.6153 17.0041 17.6511 17.0025 17.6521C17.0007 17.6531 16.9833 17.6279 16.9737 17.629C16.9498 17.6319 16.9389 17.6539 16.9062 17.6252C16.925 17.6015 16.9147 17.5502 16.9357 17.5655ZM18.0539 17.6418C18.0551 17.6193 18.0747 17.6393 18.0818 17.636C18.0807 17.6586 18.0611 17.6385 18.0539 17.6418ZM15.1284 17.6125C15.1224 17.6496 15.1676 17.6587 15.1557 17.6279C15.1531 17.6211 15.1341 17.6128 15.1284 17.6125ZM15.3315 17.6351C15.3375 17.6248 15.3132 17.5981 15.3132 17.6268C15.3133 17.636 15.3307 17.6364 15.3315 17.6351ZM17.3235 17.6019C17.3247 17.6007 17.3413 17.609 17.3418 17.6109C17.3528 17.6502 17.2981 17.6275 17.3235 17.6019ZM15.5783 17.5895C15.5572 17.6137 15.6207 17.6242 15.6013 17.5933C15.6003 17.5918 15.5793 17.5883 15.5783 17.5895ZM15.6665 17.5827C15.6614 17.584 15.639 17.5719 15.6387 17.5832C15.6382 17.6015 15.6639 17.6139 15.6665 17.5827ZM17.7407 17.5902C17.7382 17.5485 17.7678 17.5801 17.7781 17.5748C17.7805 17.6166 17.751 17.5849 17.7407 17.5902ZM17.554 17.5594C17.6787 17.5265 17.6512 17.6157 17.5465 17.5798C17.5464 17.553 17.5461 17.5615 17.554 17.5594ZM17.7137 17.5644C17.7091 17.5911 17.695 17.5832 17.6854 17.581C17.6871 17.5624 17.7067 17.5692 17.7137 17.5644ZM15.0746 17.5552C15.0825 17.5214 15.1171 17.5631 15.1109 17.577C15.1095 17.58 15.0718 17.5738 15.0746 17.5552ZM17.334 17.5662C17.3311 17.5256 17.3685 17.5422 17.3714 17.5512C17.3829 17.5874 17.337 17.5572 17.334 17.5662ZM17.9177 17.5545C17.9243 17.5227 17.9431 17.539 17.9551 17.5395C17.9496 17.5666 17.9279 17.5551 17.9177 17.5545ZM17.8305 17.5296C17.8312 17.5284 17.8481 17.5312 17.8488 17.5327C17.8626 17.5637 17.815 17.5558 17.8305 17.5296ZM14.1872 17.5003C14.1878 17.4993 14.2005 17.5013 14.201 17.5025C14.2124 17.533 14.1741 17.5268 14.1872 17.5003Z" fill="#332824"/>
</svg>
