<svg width="24" height="24" viewBox="0 0 24 24" fill="none" xmlns="http://www.w3.org/2000/svg">
<g clip-path="url(#clip0_83_121)">
<path d="M18.4926 15.0219C18.3647 15.0219 18.2626 14.918 18.2517 14.7906C18.2354 14.6005 18.198 14.4372 18.1395 14.3006C18.0585 14.1062 17.9423 13.963 17.791 13.8711C17.6452 13.7739 17.4696 13.728 17.2643 13.7334H17.1069C16.979 13.7334 16.8753 13.837 16.8753 13.9649L16.8753 17.1339C16.8753 17.2797 16.8726 17.4202 16.8672 17.5553C16.8671 17.5569 16.8671 17.5585 16.867 17.5601C16.8608 17.713 16.9936 17.8485 17.1466 17.8472C17.1612 17.8471 17.1761 17.847 17.1914 17.847C17.2154 17.8461 17.2382 17.8453 17.2598 17.8446C17.3876 17.8401 17.4912 17.9426 17.4912 18.0704V18.2314C17.4912 18.3592 17.3875 18.4629 17.2597 18.4629H15.3564C15.2286 18.4629 15.1249 18.3592 15.1249 18.2314V18.1497C15.1249 18.0258 15.2236 17.928 15.3449 17.9028C15.3766 17.8962 15.4059 17.8884 15.4329 17.8794C15.5193 17.8524 15.5841 17.7903 15.6273 17.693C15.676 17.5958 15.7003 17.4391 15.7003 17.223L15.7003 13.973C15.7003 13.8451 15.5966 13.7415 15.4687 13.7415H15.3275C15.0196 13.7469 14.7764 13.8522 14.5982 14.0575C14.4529 14.2248 14.3668 14.4691 14.3399 14.7906C14.3293 14.918 14.2271 15.0219 14.0992 15.0219H14.0326C13.9027 15.0219 13.7983 14.9151 13.8011 14.7852L13.8314 13.4168C13.8342 13.291 13.937 13.1904 14.0629 13.1904H18.5218C18.6473 13.1904 18.7499 13.2904 18.7533 13.4158L18.7896 14.7842C18.793 14.9144 18.6884 15.0219 18.5581 15.0219H18.4926Z" fill="black"/>
<path d="M11.5445 5.7861C11.9752 5.21178 12.7904 5.09471 13.3648 5.52536L15.6119 7.2109C16.1862 7.64171 16.3024 8.45688 15.8716 9.03122L9.30913 17.7812C9.14299 18.0027 8.91008 18.165 8.64507 18.2451L5.98394 19.0498C5.33809 19.2448 4.68834 18.7576 4.69487 18.083L4.72222 15.3027C4.72499 15.026 4.81604 14.7575 4.98198 14.5361L11.5445 5.7861ZM5.78179 15.1357C5.74358 15.1867 5.72291 15.2487 5.72222 15.3125L5.69487 18.0927L8.35601 17.2881C8.41713 17.2695 8.47101 17.2317 8.50933 17.1806L13.7525 10.1894L11.0259 8.14352L5.78179 15.1357ZM12.7652 6.32516C12.6327 6.22579 12.4447 6.2533 12.3453 6.38571L11.6255 7.34372L14.3521 9.38864L15.0718 8.43063C15.1711 8.29809 15.1438 8.11008 15.0113 8.01071L12.7652 6.32516Z" fill="black"/>
</g>
<defs>
<clipPath id="clip0_83_121">
<rect width="24" height="24" fill="white"/>
</clipPath>
</defs>
</svg>
